<svg xmlns="http://www.w3.org/2000/svg" viewBox="0 0 540 540">
  <path fill-rule="evenodd" d="M318.64 117.204a14.999 14.999 0 0 1 10.606-4.393h68.184c3.978 0 7.794 1.581 10.607 4.394l57.681 57.681a14.999 14.999 0 0 1 4.393 10.606v68.183a15 15 0 0 1-4.393 10.607L280.606 449.393c-5.857 5.858-15.355 5.858-21.213 0L133.528 323.528c-5.858-5.857-5.858-15.355 0-21.213L318.64 117.204Zm70.861 47.933c-7.81 7.81-7.81 20.473 0 28.284 7.81 7.81 20.474 7.81 28.284 0 7.811-7.811 7.81-20.474 0-28.284-7.81-7.811-20.474-7.811-28.284 0Z" clip-rule="evenodd"/>
  <path d="M131.963 117.204a15.001 15.001 0 0 1 10.607-4.393h68.183a15 15 0 0 1 10.607 4.393l34.498 34.498L108.779 298.78l-34.497-34.498a15 15 0 0 1-4.393-10.607v-68.183a15 15 0 0 1 4.393-10.606l57.681-57.682Z"/>
</svg>
