<svg xmlns="http://www.w3.org/2000/svg" viewBox="0 0 1480 540">
    <path d="M645.42 184.3c19.32 2.94 30.66 15.96 30.66 35.7 0 23.52-16.59 42-50.61 42h-69.93V112.9h67.2c34.02 0 49.56 16.59 49.56 38.43 0 15.54-9.45 28.35-26.88 32.97Zm-32.13-46.41h-22.26v36.33h22.26c15.96 0 22.05-8.19 22.05-18.27 0-10.5-6.72-18.06-22.05-18.06Zm2.31 99.12c16.17 0 23.52-8.61 23.52-19.95 0-11.55-7.77-19.32-22.68-19.32h-25.41v39.27h24.57ZM726.51 264.52c-24.78 0-35.28-14.91-35.28-39.48V157h33.6v62.16c0 13.02 5.25 19.74 15.12 19.74 10.92 0 17.64-8.61 17.64-21.84V157h33.81v105h-32.13v-19.11c-5.04 13.23-17.43 21.63-32.76 21.63ZM856.293 264.52c-23.1 0-42-8.61-52.08-25.2l19.53-14.7c7.35 11.34 18.69 17.01 33.18 17.01 10.92 0 16.38-3.36 16.38-9.24 0-6.3-3.36-8.61-14.91-10.29l-15.12-2.1c-22.68-3.36-33.39-14.49-33.39-32.34 0-20.37 17.22-33.18 46.2-33.18 21.21 0 39.06 7.77 47.67 20.79l-17.43 15.75c-7.77-8.82-18.27-14.07-31.29-14.07-10.08 0-14.7 2.73-14.7 8.61 0 5.04 3.15 7.77 12.39 9.03l18.69 2.94c22.47 3.15 31.29 14.28 31.29 32.34 0 21.42-17.01 34.65-46.41 34.65ZM919.258 141.88v-30.66h35.07v30.66h-35.07Zm.42 120.12V157h33.81v105h-33.81ZM973.512 262V157h32.338v20.16c7.35-15.33 18.9-22.89 34.86-22.89 22.68 0 34.23 14.49 34.23 42.63V262h-33.6v-60.48c0-14.49-5.04-21.42-15.75-21.42-11.76 0-18.27 9.03-18.27 25.2V262h-33.808ZM1196.19 206.98v10.08h-72.87c.21 14.28 10.08 23.31 24.15 23.31 10.29 0 18.06-5.04 22.89-14.7l24.78 11.34c-8.4 17.22-26.25 27.51-48.09 27.51-34.65 0-55.65-19.95-55.65-53.97 0-34.44 20.58-56.07 53.34-56.07 32.97 0 51.45 19.11 51.45 52.5Zm-32.55-8.82v-.84c0-14.91-6.93-22.89-19.53-22.89-13.02 0-20.37 8.82-20.79 23.73h40.32ZM1256.54 264.52c-23.1 0-42-8.61-52.08-25.2l19.53-14.7c7.35 11.34 18.69 17.01 33.18 17.01 10.92 0 16.38-3.36 16.38-9.24 0-6.3-3.36-8.61-14.91-10.29l-15.12-2.1c-22.68-3.36-33.39-14.49-33.39-32.34 0-20.37 17.22-33.18 46.2-33.18 21.21 0 39.06 7.77 47.67 20.79l-17.43 15.75c-7.77-8.82-18.27-14.07-31.29-14.07-10.08 0-14.7 2.73-14.7 8.61 0 5.04 3.15 7.77 12.39 9.03l18.69 2.94c22.47 3.15 31.29 14.28 31.29 32.34 0 21.42-17.01 34.65-46.41 34.65ZM1362.28 264.52c-23.1 0-42-8.61-52.08-25.2l19.53-14.7c7.35 11.34 18.69 17.01 33.18 17.01 10.92 0 16.38-3.36 16.38-9.24 0-6.3-3.36-8.61-14.91-10.29l-15.12-2.1c-22.68-3.36-33.39-14.49-33.39-32.34 0-20.37 17.22-33.18 46.2-33.18 21.21 0 39.06 7.77 47.67 20.79l-17.43 15.75c-7.77-8.82-18.27-14.07-31.29-14.07-10.08 0-14.7 2.73-14.7 8.61 0 5.04 3.15 7.77 12.39 9.03l18.69 2.94c22.47 3.15 31.29 14.28 31.29 32.34 0 21.42-17.01 34.65-46.41 34.65ZM619.59 454.57c-44.73 0-73.5-30.24-73.5-78.12 0-48.09 28.77-78.12 73.5-78.12 44.73 0 73.5 30.03 73.5 78.12s-28.77 78.12-73.5 78.12Zm0-27.72c23.31 0 36.96-18.9 36.96-50.4s-13.65-50.4-36.96-50.4c-23.31 0-37.17 18.9-37.17 50.4 0 31.29 13.86 50.4 37.17 50.4ZM744.711 453.52c-24.78 0-35.28-14.91-35.28-39.48V346h33.6v62.16c0 13.02 5.25 19.74 15.12 19.74 10.92 0 17.64-8.61 17.64-21.84V346h33.81v105h-32.13v-19.11c-5.04 13.23-17.43 21.63-32.76 21.63ZM862.254 373.09c5.46-18.9 17.01-29.61 35.07-29.61h2.1v32.13c-2.1-.21-3.78-.21-6.3-.21-9.03 0-15.75 2.31-20.37 6.3-6.72 6.3-8.4 15.75-8.4 26.46V451h-33.81V346h31.71v27.09ZM956.117 453.52c-23.1 0-42-8.61-52.08-25.2l19.53-14.7c7.35 11.34 18.69 17.01 33.18 17.01 10.92 0 16.38-3.36 16.38-9.24 0-6.3-3.36-8.61-14.91-10.29l-15.12-2.1c-22.68-3.36-33.39-14.49-33.39-32.34 0-20.37 17.22-33.18 46.2-33.18 21.21 0 39.06 7.77 47.673 20.79l-17.433 15.75c-7.77-8.82-18.27-14.07-31.29-14.07-10.08 0-14.7 2.73-14.7 8.61 0 5.04 3.15 7.77 12.39 9.03l18.69 2.94c22.47 3.15 31.293 14.28 31.293 32.34 0 21.42-17.013 34.65-46.413 34.65Z"/>
    <path fill-rule="evenodd" d="M318.64 117.204a14.999 14.999 0 0 1 10.606-4.393h68.184c3.978 0 7.794 1.58 10.607 4.393l57.681 57.681a15.001 15.001 0 0 1 4.393 10.607v68.183c0 3.978-1.58 7.794-4.393 10.607L280.606 449.393c-5.857 5.858-15.355 5.858-21.213 0L133.528 323.528c-5.858-5.857-5.858-15.355 0-21.213L318.64 117.204Zm70.861 47.932c-7.81 7.811-7.81 20.474 0 28.285 7.81 7.81 20.474 7.81 28.284 0 7.811-7.811 7.811-20.474 0-28.285-7.81-7.81-20.474-7.81-28.284 0Z" clip-rule="evenodd"/>
    <path d="M131.964 117.204a14.999 14.999 0 0 1 10.606-4.393h68.183a15 15 0 0 1 10.607 4.393l34.498 34.497L108.78 298.78l-34.498-34.498a15.002 15.002 0 0 1-4.393-10.607v-68.183c0-3.978 1.58-7.794 4.393-10.607l57.682-57.681Z"/>
</svg>