<svg width="960" height="960" viewBox="0 0 960 960" fill="none" xmlns="http://www.w3.org/2000/svg">
<g clip-path="url(#clip0_62_3131)">
<rect width="960" height="960" rx="30" fill="white"/>
<rect x="30" y="200" width="150" height="146" fill="#9D9D9D" stroke="white" stroke-width="4"/>
<rect x="180" y="784" width="150" height="146" fill="#333333" stroke="white" stroke-width="4"/>
<rect x="330" y="784" width="150" height="146" fill="#333333" stroke="white" stroke-width="4"/>
<rect x="330" y="638" width="150" height="146" fill="#333333" stroke="white" stroke-width="4"/>
<rect x="480" y="784" width="150" height="146" fill="#333333" stroke="white" stroke-width="4"/>
<rect x="480" y="638" width="150" height="146" fill="#333333" stroke="white" stroke-width="4"/>
<rect x="630" y="784" width="150" height="146" fill="#333333" stroke="white" stroke-width="4"/>
<rect x="630" y="638" width="150" height="146" fill="#333333" stroke="white" stroke-width="4"/>
<rect x="630" y="492" width="150" height="146" fill="#333333" stroke="white" stroke-width="4"/>
<rect x="780" y="784" width="150" height="146" fill="#333333" stroke="white" stroke-width="4"/>
<rect x="780" y="638" width="150" height="146" fill="#333333" stroke="white" stroke-width="4"/>
<rect x="780" y="492" width="150" height="146" fill="#333333" stroke="white" stroke-width="4"/>
<rect x="780" y="346" width="150" height="146" fill="#333333" stroke="white" stroke-width="4"/>
<rect x="480" y="638" width="450" height="292" fill="#333333" stroke="white" stroke-width="4"/>
<path d="M212.04 357.6V360.8H203.12V386H199.32V360.8H190.4V357.6H212.04ZM215.822 386V357H219.222V369.76C220.422 366.92 222.662 365.44 225.782 365.44C230.102 365.44 232.382 368.24 232.382 373.56V386H228.982V373.8C228.982 370.28 227.502 368.44 224.622 368.44C221.182 368.44 219.222 371.04 219.222 375.56V386H215.822ZM254.381 374.6V377H240.181C240.221 380.92 242.581 383.48 246.141 383.48C248.701 383.48 250.581 382.12 251.461 379.68L254.261 380.92C252.861 384.56 249.941 386.48 245.901 386.48C240.181 386.48 236.781 382.84 236.781 376.24C236.781 369.56 240.141 365.52 245.861 365.52C251.261 365.52 254.381 368.6 254.381 374.6ZM250.941 374.24V373.8C250.941 370.12 249.061 368.2 245.781 368.2C242.261 368.2 240.261 370.48 240.181 374.24H250.941ZM276.218 386.48C271.458 386.48 268.298 384.12 267.578 379.84L271.018 379.24C271.538 382.16 273.418 383.68 276.378 383.68C279.058 383.68 280.538 382.56 280.538 380.68C280.538 378.68 279.498 377.8 277.338 377.56L274.098 377.2C270.138 376.76 268.258 374.52 268.258 371.44C268.258 367.8 271.138 365.52 275.858 365.52C280.418 365.52 283.498 367.92 283.938 371.6L280.578 372.36C280.138 369.96 278.498 368.28 275.778 368.28C273.138 368.28 271.578 369.36 271.578 371.28C271.578 373 272.698 374.04 275.178 374.32L278.378 374.68C282.338 375.12 283.898 377.2 283.898 380.36C283.898 384.16 281.098 386.48 276.218 386.48ZM304.744 374.6V377H290.544C290.584 380.92 292.944 383.48 296.504 383.48C299.064 383.48 300.944 382.12 301.824 379.68L304.624 380.92C303.224 384.56 300.304 386.48 296.264 386.48C290.544 386.48 287.144 382.84 287.144 376.24C287.144 369.56 290.504 365.52 296.224 365.52C301.624 365.52 304.744 368.6 304.744 374.6ZM301.304 374.24V373.8C301.304 370.12 299.424 368.2 296.144 368.2C292.624 368.2 290.624 370.48 290.544 374.24H301.304ZM313.55 357V386H310.15V357H313.55ZM329.846 366V368.8H324.846V386H321.446V368.8H317.766V366H321.446V362.84C321.446 359.2 323.726 356.76 327.286 356.76C328.246 356.76 329.086 356.84 329.846 357.04V359.96C329.126 359.84 328.366 359.76 327.726 359.76C325.686 359.76 324.846 360.88 324.846 363.32V366H329.846ZM331.222 373.28H342.782V376.48H331.222V373.28ZM363.769 374.6V377H349.569C349.609 380.92 351.969 383.48 355.529 383.48C358.089 383.48 359.969 382.12 360.849 379.68L363.649 380.92C362.249 384.56 359.329 386.48 355.289 386.48C349.569 386.48 346.169 382.84 346.169 376.24C346.169 369.56 349.529 365.52 355.249 365.52C360.649 365.52 363.769 368.6 363.769 374.6ZM360.329 374.24V373.8C360.329 370.12 358.449 368.2 355.169 368.2C351.649 368.2 349.649 370.48 349.569 374.24H360.329ZM368.975 366H372.175V369.48C373.295 366.8 375.215 365.44 377.895 365.44C380.655 365.44 382.655 366.88 383.575 369.52C384.895 366.8 386.935 365.44 389.655 365.44C393.495 365.44 395.735 368.2 395.735 372.88V386H392.335V373.16C392.335 370.04 391.055 368.44 388.535 368.44C385.695 368.44 384.055 370.52 384.055 374.16V386H380.655V373C380.655 370.08 379.295 368.44 376.895 368.44C374.095 368.44 372.375 370.68 372.375 374.32V386H368.975V366ZM401.934 393.8V366H405.134V369.72C406.414 366.96 408.734 365.52 411.654 365.52C416.494 365.52 419.734 369.68 419.734 376C419.734 382.4 416.294 386.48 411.454 386.48C408.374 386.48 406.214 384.8 405.334 382.84V393.8H401.934ZM410.654 383.48C414.054 383.48 416.134 380.68 416.134 376C416.134 371.28 414.134 368.52 410.774 368.52C407.414 368.52 405.254 371.16 405.254 375.48V376.44C405.254 380.76 407.334 383.48 410.654 383.48ZM428.337 357V386H424.937V357H428.337ZM442.873 386.48C437.233 386.48 433.553 382.52 433.553 376C433.553 369.48 437.233 365.52 442.873 365.52C448.513 365.52 452.193 369.48 452.193 376C452.193 382.52 448.513 386.48 442.873 386.48ZM442.873 383.52C446.473 383.52 448.593 380.96 448.593 376C448.593 371.04 446.473 368.48 442.873 368.48C439.273 368.48 437.153 371.04 437.153 376C437.153 380.96 439.273 383.52 442.873 383.52ZM456.674 394.04C456.074 394.04 455.474 394 454.834 393.88V390.88C455.354 390.92 455.834 390.96 456.274 390.96C458.674 390.96 459.914 389.88 460.834 387.24L461.354 385.76L453.394 366H457.194L462.314 379.92C462.674 380.92 462.874 381.72 462.994 382.28H463.074C463.194 381.72 463.434 380.92 463.754 379.92L468.394 366H472.074L464.274 387.28C462.434 392.36 460.034 394.04 456.674 394.04ZM490.9 374.6V377H476.7C476.74 380.92 479.1 383.48 482.66 383.48C485.22 383.48 487.1 382.12 487.98 379.68L490.78 380.92C489.38 384.56 486.46 386.48 482.42 386.48C476.7 386.48 473.3 382.84 473.3 376.24C473.3 369.56 476.66 365.52 482.38 365.52C487.78 365.52 490.9 368.6 490.9 374.6ZM487.46 374.24V373.8C487.46 370.12 485.58 368.2 482.3 368.2C478.78 368.2 476.78 370.48 476.7 374.24H487.46ZM502.426 386.48C497.586 386.48 494.306 382.28 494.306 376C494.306 369.84 497.826 365.52 502.826 365.52C505.466 365.52 507.426 366.6 508.706 368.96V357H512.106V386H508.906V382.28C507.706 384.96 505.546 386.48 502.426 386.48ZM503.346 383.48C506.666 383.48 508.786 380.76 508.786 376.48V375.56C508.786 371.2 506.706 368.52 503.346 368.52C499.946 368.52 497.906 371.28 497.906 376C497.906 380.68 499.946 383.48 503.346 383.48ZM203.36 426.48C200.32 426.48 198.04 424.88 197 422.56L196.4 426H193.8V397H197.2V409.48C198.24 407.24 200.44 405.52 203.56 405.52C208.44 405.52 211.6 409.88 211.6 416C211.6 422.24 208.36 426.48 203.36 426.48ZM202.44 423.48C205.92 423.48 208 420.56 208 416C208 411.52 206.04 408.52 202.48 408.52C199.12 408.52 197.12 411.2 197.12 415.56V416.6C197.12 420.76 199.08 423.48 202.44 423.48ZM222.838 426.48C217.798 426.48 215.998 423.44 215.998 418.76V406H219.398V418.36C219.398 421.72 220.838 423.56 223.478 423.56C226.678 423.56 228.838 420.84 228.838 416.76V406H232.238V426H229.038V422.24C228.118 424.68 225.638 426.48 222.838 426.48ZM238.81 402.28V398H242.69V402.28H238.81ZM239.05 426V406H242.45V426H239.05ZM252.836 397V426H249.436V397H252.836ZM266.172 426.48C261.332 426.48 258.052 422.28 258.052 416C258.052 409.84 261.572 405.52 266.572 405.52C269.212 405.52 271.172 406.6 272.452 408.96V397H275.852V426H272.652V422.28C271.452 424.96 269.292 426.48 266.172 426.48ZM267.092 423.48C270.412 423.48 272.532 420.76 272.532 416.48V415.56C272.532 411.2 270.452 408.52 267.092 408.52C263.692 408.52 261.652 411.28 261.652 416C261.652 420.68 263.692 423.48 267.092 423.48ZM291.921 433.8V406H298.081V409.2C299.321 406.8 301.601 405.52 304.321 405.52C309.161 405.52 312.321 409.6 312.321 415.96C312.321 422.36 309.041 426.48 304.081 426.48C301.561 426.48 299.681 425.36 298.361 423.48V433.8H291.921ZM301.961 422.04C304.281 422.04 305.721 419.72 305.721 415.96C305.721 412.12 304.361 409.96 301.921 409.96C299.601 409.96 298.201 411.88 298.201 415.52V416.64C298.201 419.92 299.641 422.04 301.961 422.04ZM321.975 411.16C323.015 407.56 325.215 405.52 328.655 405.52H329.055V411.64C328.655 411.6 328.335 411.6 327.855 411.6C326.135 411.6 324.855 412.04 323.975 412.8C322.695 414 322.375 415.8 322.375 417.84V426H315.935V406H321.975V411.16ZM340.547 426.48C334.667 426.48 330.187 422.84 330.187 415.96C330.187 409.08 334.667 405.52 340.547 405.52C346.467 405.52 350.947 409.08 350.947 415.96C350.947 422.84 346.467 426.48 340.547 426.48ZM340.547 422.04C343.067 422.04 344.547 420.04 344.547 415.96C344.547 411.84 343.067 409.96 340.547 409.96C338.067 409.96 336.587 411.84 336.587 415.96C336.587 420.04 338.067 422.04 340.547 422.04ZM361.227 426.48C356.427 426.48 353.227 422.32 353.227 416.08C353.227 409.72 356.587 405.52 361.587 405.52C364.227 405.52 366.227 406.6 367.227 408.68V397H373.627V426H367.547V422.56C366.547 424.96 364.147 426.48 361.227 426.48ZM363.747 422.04C365.947 422.04 367.307 420.08 367.307 416.96V415.24C367.307 411.84 365.947 409.96 363.667 409.96C361.227 409.96 359.827 412.12 359.827 415.96C359.827 419.72 361.307 422.04 363.747 422.04ZM385.236 426.48C380.516 426.48 378.516 423.64 378.516 418.96V406H384.916V417.84C384.916 420.32 385.916 421.6 387.796 421.6C389.876 421.6 391.156 419.96 391.156 417.44V406H397.596V426H391.476V422.36C390.516 424.88 388.156 426.48 385.236 426.48ZM411.538 426.48C405.218 426.48 401.018 422.36 401.018 416C401.018 409.48 405.058 405.52 411.618 405.52C416.858 405.52 420.338 408.08 421.098 412.6L415.058 413.84C414.698 411.48 413.418 410.24 411.458 410.24C409.018 410.24 407.538 412.32 407.538 415.8C407.538 419.56 408.978 421.72 411.498 421.72C413.498 421.72 414.738 420.4 415.098 418L421.098 419.32C420.378 423.72 416.658 426.48 411.538 426.48ZM421.611 410.28V406H425.091V401.2L431.491 398.72V406H436.251V410.28H431.491V418.08C431.491 420.08 432.491 421.12 434.411 421.12C435.171 421.12 435.651 421.04 436.251 420.92V426C434.771 426.28 433.771 426.4 432.611 426.4C427.291 426.4 425.091 423.96 425.091 419.6V410.28H421.611ZM447.507 426.48C443.107 426.48 439.507 424.84 437.587 421.68L441.307 418.88C442.707 421.04 444.867 422.12 447.627 422.12C449.707 422.12 450.747 421.48 450.747 420.36C450.747 419.16 450.107 418.72 447.907 418.4L445.027 418C440.707 417.36 438.667 415.24 438.667 411.84C438.667 407.96 441.947 405.52 447.467 405.52C451.507 405.52 454.907 407 456.547 409.48L453.227 412.48C451.747 410.8 449.747 409.8 447.267 409.8C445.347 409.8 444.467 410.32 444.467 411.44C444.467 412.4 445.067 412.92 446.827 413.16L450.387 413.72C454.667 414.32 456.347 416.44 456.347 419.88C456.347 423.96 453.107 426.48 447.507 426.48Z" fill="#666666"/>
<path d="M574.622 759.32C578.022 759.92 580.182 762.4 580.182 766.2C580.182 769.84 577.982 774 570.782 774H560.062V745.6H569.942C577.422 745.6 579.382 749.8 579.382 753.16C579.382 755.84 577.862 758.4 574.622 759.32ZM569.942 748.8H563.862V757.92H569.942C574.822 757.92 575.622 755.4 575.622 753.44C575.622 751.2 574.542 748.8 569.942 748.8ZM570.582 770.8C575.022 770.8 576.422 768.4 576.422 765.84C576.422 763.2 574.862 761.12 570.982 761.12H563.862V770.8H570.582ZM591.83 774.48C586.79 774.48 584.99 771.44 584.99 766.76V754H588.39V766.36C588.39 769.72 589.83 771.56 592.47 771.56C595.67 771.56 597.83 768.84 597.83 764.76V754H601.23V774H598.03V770.24C597.11 772.68 594.63 774.48 591.83 774.48ZM614.681 774.48C609.921 774.48 606.761 772.12 606.041 767.84L609.481 767.24C610.001 770.16 611.881 771.68 614.841 771.68C617.521 771.68 619.001 770.56 619.001 768.68C619.001 766.68 617.961 765.8 615.801 765.56L612.561 765.2C608.601 764.76 606.721 762.52 606.721 759.44C606.721 755.8 609.601 753.52 614.321 753.52C618.881 753.52 621.961 755.92 622.401 759.6L619.041 760.36C618.601 757.96 616.961 756.28 614.241 756.28C611.601 756.28 610.041 757.36 610.041 759.28C610.041 761 611.161 762.04 613.641 762.32L616.841 762.68C620.801 763.12 622.361 765.2 622.361 768.36C622.361 772.16 619.561 774.48 614.681 774.48ZM627.167 750.28V746H631.047V750.28H627.167ZM627.407 774V754H630.807V774H627.407ZM637.593 774V754H640.793V757.96C642.113 754.92 644.313 753.44 647.473 753.44C651.873 753.44 654.153 756.2 654.153 761.56V774H650.753V761.76C650.753 758.24 649.273 756.44 646.353 756.44C643.033 756.44 640.993 759.12 640.993 763.56V774H637.593ZM676.157 762.6V765H661.957C661.997 768.92 664.357 771.48 667.917 771.48C670.477 771.48 672.357 770.12 673.237 767.68L676.037 768.92C674.637 772.56 671.717 774.48 667.677 774.48C661.957 774.48 658.557 770.84 658.557 764.24C658.557 757.56 661.917 753.52 667.637 753.52C673.037 753.52 676.157 756.6 676.157 762.6ZM672.717 762.24V761.8C672.717 758.12 670.837 756.2 667.557 756.2C664.037 756.2 662.037 758.48 661.957 762.24H672.717ZM688.003 774.48C683.243 774.48 680.083 772.12 679.363 767.84L682.803 767.24C683.323 770.16 685.203 771.68 688.163 771.68C690.843 771.68 692.323 770.56 692.323 768.68C692.323 766.68 691.283 765.8 689.123 765.56L685.883 765.2C681.923 764.76 680.043 762.52 680.043 759.44C680.043 755.8 682.923 753.52 687.643 753.52C692.203 753.52 695.283 755.92 695.723 759.6L692.363 760.36C691.923 757.96 690.283 756.28 687.563 756.28C684.923 756.28 683.363 757.36 683.363 759.28C683.363 761 684.483 762.04 686.963 762.32L690.163 762.68C694.123 763.12 695.683 765.2 695.683 768.36C695.683 772.16 692.883 774.48 688.003 774.48ZM706.978 774.48C702.218 774.48 699.058 772.12 698.338 767.84L701.778 767.24C702.298 770.16 704.178 771.68 707.138 771.68C709.818 771.68 711.298 770.56 711.298 768.68C711.298 766.68 710.258 765.8 708.098 765.56L704.858 765.2C700.898 764.76 699.018 762.52 699.018 759.44C699.018 755.8 701.898 753.52 706.618 753.52C711.178 753.52 714.258 755.92 714.698 759.6L711.338 760.36C710.898 757.96 709.258 756.28 706.538 756.28C703.898 756.28 702.338 757.36 702.338 759.28C702.338 761 703.458 762.04 705.938 762.32L709.138 762.68C713.098 763.12 714.658 765.2 714.658 768.36C714.658 772.16 711.858 774.48 706.978 774.48ZM737.215 774.48C731.575 774.48 727.895 770.52 727.895 764C727.895 757.48 731.575 753.52 737.215 753.52C742.855 753.52 746.535 757.48 746.535 764C746.535 770.52 742.855 774.48 737.215 774.48ZM737.215 771.52C740.815 771.52 742.935 768.96 742.935 764C742.935 759.04 740.815 756.48 737.215 756.48C733.615 756.48 731.495 759.04 731.495 764C731.495 768.96 733.615 771.52 737.215 771.52ZM754.561 774L748.921 754H752.441L756.041 768.28C756.201 769 756.361 769.84 756.481 770.64H756.561C756.681 769.84 756.921 769 757.081 768.28L760.721 754H764.401L768.041 768.28C768.201 769 768.441 769.84 768.561 770.64H768.641C768.761 769.84 768.921 769 769.081 768.28L772.681 754H776.201L770.561 774H766.841L763.041 759.6C762.881 758.96 762.681 757.96 762.601 757.36H762.521C762.441 757.96 762.241 758.96 762.081 759.6L758.281 774H754.561ZM780.418 774V754H783.618V757.96C784.938 754.92 787.138 753.44 790.298 753.44C794.698 753.44 796.978 756.2 796.978 761.56V774H793.578V761.76C793.578 758.24 792.098 756.44 789.178 756.44C785.858 756.44 783.818 759.12 783.818 763.56V774H780.418ZM818.982 762.6V765H804.782C804.822 768.92 807.182 771.48 810.742 771.48C813.302 771.48 815.182 770.12 816.062 767.68L818.862 768.92C817.462 772.56 814.542 774.48 810.502 774.48C804.782 774.48 801.382 770.84 801.382 764.24C801.382 757.56 804.742 753.52 810.462 753.52C815.862 753.52 818.982 756.6 818.982 762.6ZM815.542 762.24V761.8C815.542 758.12 813.662 756.2 810.382 756.2C806.862 756.2 804.862 758.48 804.782 762.24H815.542ZM827.348 758.56C828.308 755.76 830.388 753.52 833.428 753.52C833.668 753.52 833.908 753.52 834.148 753.56V756.88H833.988C831.908 756.88 830.548 757.48 829.588 758.44C827.668 760.36 827.588 763.04 827.588 765.44V774H824.188V754H827.348V758.56ZM844.413 774.48C839.653 774.48 836.493 772.12 835.773 767.84L839.213 767.24C839.733 770.16 841.613 771.68 844.573 771.68C847.253 771.68 848.733 770.56 848.733 768.68C848.733 766.68 847.693 765.8 845.533 765.56L842.293 765.2C838.333 764.76 836.453 762.52 836.453 759.44C836.453 755.8 839.333 753.52 844.053 753.52C848.613 753.52 851.693 755.92 852.133 759.6L848.773 760.36C848.333 757.96 846.693 756.28 843.973 756.28C841.333 756.28 839.773 757.36 839.773 759.28C839.773 761 840.893 762.04 843.373 762.32L846.573 762.68C850.533 763.12 852.093 765.2 852.093 768.36C852.093 772.16 849.293 774.48 844.413 774.48ZM592.225 814.48C589.185 814.48 586.905 812.88 585.865 810.56L585.265 814H582.665V785H586.065V797.48C587.105 795.24 589.305 793.52 592.425 793.52C597.305 793.52 600.465 797.88 600.465 804C600.465 810.24 597.225 814.48 592.225 814.48ZM591.305 811.48C594.785 811.48 596.865 808.56 596.865 804C596.865 799.52 594.905 796.52 591.345 796.52C587.985 796.52 585.985 799.2 585.985 803.56V804.6C585.985 808.76 587.945 811.48 591.305 811.48ZM611.703 814.48C606.663 814.48 604.863 811.44 604.863 806.76V794H608.263V806.36C608.263 809.72 609.703 811.56 612.343 811.56C615.543 811.56 617.703 808.84 617.703 804.76V794H621.103V814H617.903V810.24C616.983 812.68 614.503 814.48 611.703 814.48ZM627.675 790.28V786H631.555V790.28H627.675ZM627.915 814V794H631.315V814H627.915ZM641.701 785V814H638.301V785H641.701ZM655.036 814.48C650.196 814.48 646.916 810.28 646.916 804C646.916 797.84 650.436 793.52 655.436 793.52C658.076 793.52 660.036 794.6 661.316 796.96V785H664.716V814H661.516V810.28C660.316 812.96 658.156 814.48 655.036 814.48ZM655.956 811.48C659.276 811.48 661.396 808.76 661.396 804.48V803.56C661.396 799.2 659.316 796.52 655.956 796.52C652.556 796.52 650.516 799.28 650.516 804C650.516 808.68 652.556 811.48 655.956 811.48ZM688.585 814.48C684.185 814.48 680.585 812.84 678.665 809.68L682.385 806.88C683.785 809.04 685.945 810.12 688.705 810.12C690.785 810.12 691.825 809.48 691.825 808.36C691.825 807.16 691.185 806.72 688.985 806.4L686.105 806C681.785 805.36 679.745 803.24 679.745 799.84C679.745 795.96 683.025 793.52 688.545 793.52C692.585 793.52 695.985 795 697.625 797.48L694.305 800.48C692.825 798.8 690.825 797.8 688.345 797.8C686.425 797.8 685.545 798.32 685.545 799.44C685.545 800.4 686.145 800.92 687.905 801.16L691.465 801.72C695.745 802.32 697.425 804.44 697.425 807.88C697.425 811.96 694.185 814.48 688.585 814.48ZM701.981 822.08C701.381 822.08 700.381 821.96 699.341 821.84V817.12C700.541 817.28 701.021 817.32 701.581 817.32C703.701 817.32 704.861 816.56 705.421 814.72L705.701 813.88L698.061 794H705.021L708.541 806.16C708.781 807 708.901 807.64 708.981 808.48H709.101C709.141 807.8 709.301 807.16 709.581 806.16L712.821 794H719.261L712.101 814.88C710.341 820.08 707.301 822.08 701.981 822.08ZM728.723 814.48C724.323 814.48 720.723 812.84 718.803 809.68L722.523 806.88C723.923 809.04 726.083 810.12 728.843 810.12C730.923 810.12 731.963 809.48 731.963 808.36C731.963 807.16 731.323 806.72 729.123 806.4L726.243 806C721.923 805.36 719.883 803.24 719.883 799.84C719.883 795.96 723.163 793.52 728.683 793.52C732.723 793.52 736.123 795 737.763 797.48L734.443 800.48C732.963 798.8 730.963 797.8 728.483 797.8C726.563 797.8 725.683 798.32 725.683 799.44C725.683 800.4 726.283 800.92 728.043 801.16L731.603 801.72C735.883 802.32 737.563 804.44 737.563 807.88C737.563 811.96 734.323 814.48 728.723 814.48ZM738.746 798.28V794H742.226V789.2L748.626 786.72V794H753.386V798.28H748.626V806.08C748.626 808.08 749.626 809.12 751.546 809.12C752.306 809.12 752.786 809.04 753.386 808.92V814C751.906 814.28 750.906 814.4 749.746 814.4C744.426 814.4 742.226 811.96 742.226 807.6V798.28H738.746ZM774.735 803.52V805.44H760.855C760.895 808.16 762.775 809.88 765.455 809.88C767.415 809.88 768.895 808.92 769.815 807.08L774.535 809.24C772.935 812.52 769.535 814.48 765.375 814.48C758.775 814.48 754.775 810.68 754.775 804.2C754.775 797.64 758.695 793.52 764.935 793.52C771.215 793.52 774.735 797.16 774.735 803.52ZM768.535 801.84V801.68C768.535 798.84 767.215 797.32 764.815 797.32C762.335 797.32 760.935 799 760.855 801.84H768.535ZM778.356 794H784.516V797.6C785.796 794.84 787.716 793.48 790.676 793.48C793.516 793.48 795.356 794.8 796.356 797.64C797.796 794.84 799.876 793.48 802.756 793.48C806.636 793.48 808.916 796.24 808.916 800.92V814H802.516V802.28C802.516 799.6 801.676 798.4 799.836 798.4C797.916 798.4 796.836 799.84 796.836 802.52V814H790.436V802.24C790.436 799.64 789.556 798.4 787.796 798.4C785.876 798.4 784.796 799.88 784.796 802.56V814H778.356V794ZM821.342 814.48C816.942 814.48 813.342 812.84 811.422 809.68L815.142 806.88C816.542 809.04 818.702 810.12 821.462 810.12C823.542 810.12 824.582 809.48 824.582 808.36C824.582 807.16 823.942 806.72 821.742 806.4L818.862 806C814.542 805.36 812.502 803.24 812.502 799.84C812.502 795.96 815.782 793.52 821.302 793.52C825.342 793.52 828.742 795 830.382 797.48L827.062 800.48C825.582 798.8 823.582 797.8 821.102 797.8C819.182 797.8 818.302 798.32 818.302 799.44C818.302 800.4 818.902 800.92 820.662 801.16L824.222 801.72C828.502 802.32 830.182 804.44 830.182 807.88C830.182 811.96 826.942 814.48 821.342 814.48Z" fill="white"/>
<path d="M48.15 916.622C48 916.592 47.58 916.472 47.43 916.382C46.74 916.172 45.87 915.932 44.82 915.662C43.77 915.392 42.87 915.092 42.15 914.822C41.4 914.552 40.56 914.132 39.57 913.592C39.12 913.352 38.79 913.142 38.52 912.962C37.95 912.602 37.23 911.762 37.23 911.012C37.23 910.562 37.41 910.172 37.74 909.872C38.25 909.482 39.09 909.182 40.32 908.972C42.96 908.522 45.54 907.802 48.09 906.782C46.32 906.272 44.64 905.882 43.05 905.552C42.9 905.522 42.51 905.432 41.91 905.342C40.71 905.132 40.14 905.042 39.03 904.682C37.41 904.202 36.48 903.392 36.36 902.012C36.36 901.202 36.9 900.782 38.01 900.782C38.88 900.782 40.29 901.052 42.21 901.592C42.9 901.772 44.46 902.072 46.86 902.522C51.63 903.392 54.57 904.352 56.73 906.392C57.18 906.782 57.39 907.202 57.39 907.652C57.39 908.672 55.86 909.572 54.12 910.322C52.95 910.802 51.3 911.252 50.25 911.582C49.74 911.732 49.17 911.882 48.54 912.032L47.34 912.332C55.14 914.342 59.04 916.202 59.04 917.972C59.04 918.842 58.38 919.532 57.51 919.772C56.76 920.042 54.03 920.702 49.32 921.812C44.61 922.892 42.03 923.432 41.61 923.432C40.89 923.432 40.08 923.192 39.15 922.682C38.22 922.172 37.77 921.572 37.77 920.912C37.77 919.322 39.69 918.242 43.53 917.702C45.27 917.432 46.8 917.072 48.15 916.622ZM52.2 898.065C50.79 898.635 49.59 898.935 48.66 898.935C47.25 898.935 45.78 898.635 44.22 898.005C42.66 897.375 41.37 896.565 40.38 895.575C39.27 894.495 38.37 893.115 37.74 891.405C37.11 889.695 36.78 887.985 36.78 886.335C36.78 883.905 37.5 881.835 38.97 880.095C40.17 878.685 42.3 877.965 45.36 877.965C49.11 877.965 52.08 879.075 54.33 881.325C56.55 883.575 57.66 886.545 57.66 890.295C57.66 894.045 55.83 896.625 52.2 898.065ZM41.94 888.285C41.94 889.905 42.39 891.375 43.29 892.695C44.19 894.015 45.42 894.675 46.98 894.675C50.58 894.675 52.44 892.215 52.44 888.525C52.44 884.115 50.28 881.535 45.99 881.535C44.22 881.535 43.08 882.255 42.63 883.725C42.18 885.225 41.94 886.755 41.94 888.285ZM48.81 865.426C50.37 863.296 51.57 861.826 52.38 861.046C53.61 859.906 54.63 859.336 55.5 859.306C56.07 859.306 56.64 859.516 57.15 859.936C57.66 860.356 57.93 860.866 57.93 861.436C57.93 862.126 57.48 863.116 56.58 864.406C55.68 865.696 54.69 867.046 53.58 868.456C52.47 869.866 51.75 870.946 51.45 871.696C53.46 871.576 54.96 871.516 56.01 871.516C56.64 871.516 57.3 871.756 57.99 872.206C58.68 872.656 59.04 873.196 59.04 873.766C59.04 874.606 58.23 875.206 57.27 875.446C56.52 875.656 53.85 875.776 49.23 875.776H44.67C43.83 875.776 42.84 875.716 41.73 875.566C40.59 875.416 39.81 875.206 39.39 874.936C38.55 874.366 37.83 873.166 37.26 871.336C36.66 869.506 36.36 867.946 36.36 866.656C36.36 864.886 36.78 863.356 37.62 862.126C38.43 860.866 39.69 860.236 41.37 860.236C44.13 860.236 46.29 862.066 48.42 864.826C48.63 865.066 48.75 865.276 48.81 865.426ZM42.87 871.636H46.77C46.44 870.226 46.11 869.086 45.39 867.316C44.67 865.516 43.59 864.346 42.39 864.346C41.73 864.346 41.4 865.066 41.4 866.476C41.4 868.246 41.94 870.436 42.87 871.636ZM57.39 841.562C57.39 842.132 56.67 843.212 55.95 844.322C55.47 844.952 54.6 845.972 54.21 846.482L53.4 847.412C53.07 847.772 52.89 847.982 52.86 848.042C51.87 849.272 50.7 850.982 49.41 853.172C50.07 853.142 51.12 853.022 52.56 852.782C53.97 852.512 55.08 852.392 55.83 852.392C56.28 852.392 56.76 852.602 57.21 853.022C57.69 853.442 57.93 853.862 57.93 854.312C57.93 854.672 57.84 854.972 57.66 855.212C57.21 855.812 55.68 856.292 53.07 856.652C47.79 857.372 43.74 857.432 40.5 857.432C39.81 857.432 39.12 857.222 38.37 856.772C37.62 856.322 37.23 855.782 37.23 855.152C37.23 853.892 38.91 853.262 42.27 853.262C42.54 853.262 42.93 853.262 43.47 853.292C43.98 853.322 44.4 853.322 44.67 853.322L43.83 851.822L42.87 850.142C42.09 848.822 40.8 846.782 39.75 845.702L39.03 844.892L38.61 844.412C38.22 843.932 38.1 843.812 37.77 843.332C37.02 842.372 36.54 841.442 36.51 840.602C36.51 839.732 37.02 839.102 37.89 839.102C38.31 839.102 38.64 839.162 38.91 839.282C39.42 839.492 40.44 840.572 41.67 842.282C42.3 843.152 42.84 843.902 43.29 844.592L44.88 846.932L45.84 848.372C47.13 846.482 48.99 843.902 51.72 841.382C53.07 840.092 54.09 839.462 54.84 839.462C56.31 839.462 57.39 840.122 57.39 841.562ZM41.64 832.37C42.99 832.37 44.91 832.46 47.4 832.64C49.89 832.79 51.6 832.91 52.53 832.94C52.44 830.63 52.17 827.9 51.69 824.75C51.54 823.94 51.45 823.31 51.45 822.86C51.45 821.78 52.59 821.03 53.76 821.03C54.63 821.03 55.35 821.57 55.98 822.68C56.58 823.76 57 825.14 57.27 826.79C57.78 830.06 57.93 832.4 57.93 834.41C57.93 836.09 56.22 836.75 54.3 836.75C54.03 836.75 53.52 836.69 52.71 836.54C52.26 836.45 51.6 836.39 50.73 836.39H49.17H46.98C42.27 836.39 39.54 836.3 38.85 836.15C37.83 835.88 37.32 835.25 37.32 834.32C37.32 833.03 38.76 832.37 41.64 832.37ZM58.56 809.783C58.56 816.263 52.62 819.323 46.86 819.323C44.97 819.323 43.17 818.663 41.49 817.313C39.81 815.963 38.52 814.343 37.59 812.423C36.66 810.473 36.18 808.583 36.18 806.723C36.18 804.053 37.14 801.923 39.09 800.333C41.01 798.743 43.35 797.933 46.08 797.933C52.08 797.933 56.01 800.663 57.9 806.123C58.35 807.353 58.56 808.553 58.56 809.783ZM46.35 815.213C48.27 815.213 49.95 814.613 51.36 813.383C52.77 812.153 53.46 810.593 53.46 808.703C53.46 807.983 53.34 807.293 53.1 806.633C52.47 804.803 51.81 803.603 51.06 803.033C50.31 802.463 48.99 802.163 47.1 802.163C43.17 802.163 40.62 804.413 40.62 808.283C40.62 810.053 41.16 811.673 42.21 813.083C43.26 814.493 44.64 815.213 46.35 815.213ZM57.93 782.047C57.93 783.037 56.94 783.727 56.07 783.997C55.62 784.117 55.08 784.237 54.39 784.387C53.7 784.507 53.25 784.597 53.04 784.657C53.7 787.327 54.12 790.057 54.3 792.877C55.23 793.147 56.19 793.627 57.24 794.347C58.29 795.037 58.8 795.757 58.8 796.507C58.8 797.557 57.78 797.977 56.67 797.977C56.1 797.977 53.16 796.777 47.91 794.377C42.66 791.947 39.48 790.387 38.4 789.697C37.17 788.917 36.57 788.047 36.57 787.057C36.57 786.067 38.97 784.447 43.8 782.257C45.39 781.507 47.28 780.757 49.44 780.007C51.57 779.257 53.16 778.867 54.18 778.867C55.11 778.867 55.98 779.167 56.76 779.767C57.54 780.367 57.93 781.117 57.93 782.047ZM48.81 785.737C46.56 786.487 44.76 787.297 43.44 788.137L49.71 791.347C49.71 789.577 49.41 787.717 48.81 785.737ZM41.7 756.92C43.14 756.92 44.73 757.49 46.5 758.63C48.27 759.74 49.89 761.15 51.39 762.8C54.36 766.07 56.88 769.73 58.05 772.4C58.5 773.6 58.71 774.32 58.71 774.56C58.71 775.61 58.08 776.27 56.97 776.51C55.8 776.75 55.29 776.78 54.12 776.78C53.1 776.78 51.57 776.75 49.53 776.69C47.49 776.63 45.96 776.6 44.94 776.6C44.61 776.6 44.13 776.63 43.47 776.66C42.78 776.69 42.27 776.69 41.94 776.69C40.5 776.69 39.63 776.33 38.91 775.22C38.16 773.99 37.53 772.46 37.08 770.63C36.6 768.8 36.36 767.09 36.36 765.53C36.36 763.94 36.81 761.96 37.65 760.13C38.46 758.3 39.99 756.92 41.7 756.92ZM41.4 766.25C41.4 767.6 41.85 769.79 42.78 772.88C44.97 772.73 48.33 772.64 52.8 772.64C51.96 770.45 50.76 768.23 49.23 766.01C47.7 763.79 46.08 762.23 44.37 761.33C44.22 761.21 44.07 761.15 43.95 761.15C43.05 761.45 42.39 762.11 42 763.1C41.61 764.09 41.4 765.14 41.4 766.25Z" fill="#9D9D9D"/>
<path d="M48.4346 647.584C47.6536 646.803 46.3872 646.803 45.6062 647.584L32.8783 660.312C32.0972 661.093 32.0972 662.359 32.8783 663.14C33.6593 663.921 34.9256 663.921 35.7067 663.14L47.0204 651.827L58.3341 663.14C59.1151 663.921 60.3815 663.921 61.1625 663.14C61.9436 662.359 61.9436 661.093 61.1625 660.312L48.4346 647.584ZM47.0204 648.998L45.0204 648.998L45.0204 730.998L47.0204 730.998L49.0204 730.998L49.0204 648.998L47.0204 648.998Z" fill="#9D9D9D"/>
<path d="M708.581 211.55C708.581 210.89 708.611 210.47 708.701 210.29C709.001 209.33 710.231 208.46 712.361 207.65C714.521 206.84 716.231 206.45 717.491 206.45C719.441 206.45 721.121 206.78 722.651 207.59C724.211 208.4 725.171 209.96 725.171 212.03C725.171 213.89 724.421 215.6 722.891 217.13C721.391 218.66 719.681 219.77 717.731 220.49C716.801 220.88 715.061 221.18 712.511 221.39V222.29C712.541 222.77 712.541 223.19 712.541 223.52C712.541 227.27 711.791 229.13 710.291 229.13C709.601 229.13 709.061 228.77 708.731 228.08C708.401 227.39 708.221 226.64 708.221 225.83C708.221 225.29 708.311 224.48 708.461 223.37C708.611 222.26 708.701 221.45 708.701 220.88C708.701 219.83 708.671 218.3 708.641 216.23C708.611 214.16 708.581 212.6 708.581 211.55ZM721.301 212.69C721.301 212.36 720.911 212.09 720.131 211.82C719.351 211.55 718.751 211.4 718.301 211.4C716.651 211.4 714.611 211.82 713.441 212.63C712.931 212.96 712.631 213.17 712.541 213.2L712.751 216.41H713.291C714.881 216.41 716.471 216.11 718.061 215.48C719.681 214.85 720.761 213.92 721.301 212.69ZM747.139 225.02C747.139 226.22 745.849 226.94 744.559 226.94C744.259 226.94 743.569 226.67 742.519 226.13C741.469 225.59 740.299 224.99 739.039 224.3C737.809 223.61 737.029 223.19 736.729 223.04C735.079 222.29 733.279 221.63 731.269 221.06C731.269 221.63 731.269 222.5 731.299 223.61C731.329 224.72 731.359 225.53 731.359 226.1C731.359 226.52 731.089 226.91 730.579 227.3C730.069 227.69 729.589 227.9 729.139 227.9C728.329 227.9 727.489 226.88 727.489 226.07C727.489 225.02 727.519 223.4 727.549 221.24C727.609 219.08 727.639 217.46 727.639 216.41C727.639 215.81 727.549 214.91 727.399 213.74C727.249 212.57 727.159 211.67 727.159 211.07C727.159 210.38 727.249 210.11 727.819 209.75C729.199 208.76 730.879 207.98 732.829 207.47C734.779 206.93 736.699 206.66 738.559 206.66C739.129 206.66 739.669 206.69 740.119 206.72C741.049 206.75 742.489 206.9 743.359 207.29C744.829 207.86 745.999 208.82 745.999 210.8C745.879 212.36 745.369 213.47 744.049 214.64C743.599 215.06 743.209 215.39 742.909 215.63C742.639 215.84 742.159 216.14 741.529 216.53L740.269 217.28C740.059 217.4 739.669 217.64 739.039 217.97C740.389 218.57 742.099 219.5 743.929 220.79C745.759 222.08 747.139 223.7 747.139 225.02ZM741.919 211.88C741.049 211.46 740.029 211.25 738.889 211.25C736.459 211.25 733.789 211.85 730.879 213.02C730.879 213.14 730.969 214.31 731.179 216.5C732.409 216.2 733.609 215.87 734.839 215.51C736.069 215.12 737.449 214.58 739.039 213.89C740.629 213.17 741.589 212.51 741.919 211.88ZM757.257 228.17C754.857 228.17 752.787 227.27 751.047 225.44C749.337 223.61 748.467 221.51 748.467 219.08C748.377 212.09 754.437 207.17 761.217 207.32C762.327 207.32 763.467 207.62 764.697 208.25C765.927 208.88 766.947 209.6 767.727 210.47C768.327 211.1 768.777 212 769.077 213.11C769.377 214.22 769.527 215.33 769.527 216.41C769.527 218.18 769.167 219.71 768.417 221.06C767.427 222.95 765.837 224.6 763.647 226.04C761.457 227.45 759.327 228.17 757.257 228.17ZM760.797 212.45C759.447 212.45 758.157 212.66 756.957 213.08C755.757 213.5 754.707 214.22 753.837 215.21C752.967 216.2 752.547 217.37 752.547 218.75C752.547 220.16 753.087 221.24 754.137 221.96C755.187 222.68 756.477 223.04 757.977 223.04C759.777 223.04 761.457 222.59 763.017 221.66C764.577 220.73 765.357 219.41 765.357 217.76C765.357 216.74 765.027 215.63 764.397 214.43C763.767 213.23 763.017 212.57 762.117 212.48C761.847 212.45 761.397 212.45 760.797 212.45ZM775.559 216.44L777.869 216.02C780.269 215.54 781.679 215.36 783.239 215.36C784.469 215.36 785.009 215.39 785.729 215.72C786.089 215.87 786.329 216.11 786.479 216.47C786.809 217.16 786.839 218.54 786.329 219.29C786.239 219.44 785.369 219.71 783.749 220.07C782.159 220.4 780.389 220.76 778.439 221.12L775.319 221.72V222.86C775.319 224.15 775.289 224.84 775.019 226.01C774.779 227.18 774.179 227.81 773.249 227.81C772.679 227.81 772.259 227.51 771.989 226.94C771.719 226.37 771.599 225.74 771.599 225.11C771.599 224.48 771.629 223.58 771.719 222.38C771.809 221.18 771.869 220.28 771.869 219.65C771.869 216.5 771.989 213.77 772.259 211.46C772.319 210.86 772.529 210.2 772.919 209.48C773.309 208.73 773.759 208.28 774.239 208.1C774.599 207.98 776.489 207.74 779.939 207.41C783.389 207.08 785.519 206.9 786.299 206.9C787.229 206.9 787.979 207.47 787.979 208.4C787.979 210.05 787.259 211.07 785.819 211.46C785.129 211.61 783.959 211.82 782.249 212.03C780.779 212.18 778.619 212.54 775.739 213.11C775.649 214.28 775.589 215.39 775.559 216.44ZM792.432 207.74C793.392 207.74 794.022 208.28 794.262 209.33C794.502 210.38 794.532 210.89 794.532 211.94C794.532 212.45 794.502 213.2 794.412 214.25C794.352 215.3 794.322 216.08 794.322 216.59C794.322 217.52 794.352 218.93 794.412 220.76C794.502 222.59 794.532 224 794.532 224.93C794.532 226.28 793.692 227.72 792.372 227.72C791.652 227.72 791.142 227.15 790.872 226.01C790.542 224.72 790.392 220.55 790.392 213.44V211.73C790.392 210.92 790.482 210.2 790.722 209.27C790.992 208.34 791.592 207.74 792.432 207.74ZM807.638 216.98C807.638 218.81 807.668 220.16 807.758 221.06C807.788 221.36 807.908 221.96 808.088 222.83C808.298 223.7 808.388 224.36 808.388 224.87C808.388 226.19 807.368 227.39 806.078 227.39C804.608 227.39 803.858 225.23 803.858 220.91V220.07V216.98C803.858 214.91 803.918 213.35 804.038 212.36L801.758 212.63C800.618 212.78 799.718 212.87 799.058 212.87C797.558 212.87 796.808 212.24 796.808 210.98C796.808 209.81 797.288 209 798.128 208.55C798.968 208.07 799.718 207.83 800.888 207.68C801.518 207.59 802.388 207.5 803.528 207.41L805.598 207.26L807.728 207.08C809.768 206.87 811.118 206.78 812.468 206.78C814.208 206.78 815.078 207.38 815.078 208.55C815.078 210.08 814.388 210.95 813.218 211.28C812.648 211.43 812.048 211.55 811.478 211.58C810.368 211.67 808.688 211.67 807.968 211.82C807.758 212.96 807.638 214.67 807.638 216.98Z" fill="#9D9D9D"/>
<path d="M923.416 218.435C924.197 217.654 924.197 216.387 923.416 215.606L910.688 202.878C909.907 202.097 908.641 202.097 907.86 202.878C907.079 203.659 907.079 204.926 907.86 205.707L919.173 217.02L907.86 228.334C907.079 229.115 907.079 230.381 907.86 231.163C908.641 231.944 909.907 231.944 910.688 231.163L923.416 218.435ZM922.002 217.02L922.002 215.02L840.002 215.02L840.002 217.02L840.002 219.02L922.002 219.02L922.002 217.02Z" fill="#9D9D9D"/>
<path d="M44.97 31.67C46.38 31.73 47.58 32.15 48.54 32.96C49.53 33.77 50.01 34.85 50.01 36.23C50.01 37.55 49.47 38.84 48.42 40.1C47.37 41.33 46.05 42.38 44.52 43.19C41.49 44.84 37.98 45.89 35.55 45.89C34.14 45.89 33.18 45.59 32.7 45.02C32.25 44.45 32.01 43.4 32.01 41.93C32.01 41.3 32.04 40.37 32.13 39.14C32.22 37.91 32.25 36.95 32.25 36.32V34.4C32.25 32.6 32.19 31.28 32.1 30.44C32.07 30.2 31.92 29.21 31.89 28.85C31.89 28.22 31.83 27.26 32.01 26.63C32.28 25.73 33.42 24.98 35.43 24.38C37.47 23.75 39.12 23.45 40.41 23.45C41.34 23.45 42.24 23.6 43.11 23.87C44.88 24.38 46.47 25.79 46.47 27.71C46.47 28.94 45.96 30.26 44.97 31.67ZM43.17 36.47C42.18 36.47 40.95 36.62 39.48 36.89C38.04 37.16 36.93 37.52 36.12 37.91V41.09C40.47 40.31 43.41 39.44 44.97 38.48C45.75 37.97 46.14 37.58 46.14 37.37C46.05 37.04 45.66 36.83 44.97 36.68C44.28 36.53 43.68 36.47 43.17 36.47ZM40.11 28.7C38.1 28.7 36.57 29.09 35.49 29.87L35.7 32.66C36.75 32.39 38.1 31.91 39.69 31.19C41.31 30.44 42.18 29.78 42.33 29.15C41.82 28.85 41.07 28.7 40.11 28.7ZM63.7188 42.35C60.1788 44.3 57.3888 45.26 55.3188 45.26C54.2688 45.26 53.5488 45.08 53.1588 44.72C52.8588 44.45 52.6188 43.55 52.4688 42.02C52.3188 40.49 52.2588 39.2 52.2588 38.15C52.2588 36.92 52.4088 34.79 52.7388 31.7C53.0688 28.61 53.3988 26.81 53.7288 26.33C54.0588 25.88 54.4188 25.67 54.8388 25.67C55.2888 25.67 55.7388 25.94 56.2188 26.45C56.7288 26.96 56.9688 27.41 56.9688 27.83C56.9688 28.64 56.8788 29.84 56.6688 31.4C56.4588 32.96 56.3688 34.13 56.3688 34.91V39.77C57.6588 39.65 59.3388 39.05 60.3288 38.54C60.8388 38.27 61.5288 37.94 62.3388 37.49C63.1788 37.04 63.7788 36.74 64.1688 36.56C64.2288 36.05 64.2588 35.51 64.2588 34.97C64.2888 34.16 64.3488 32.96 64.3788 31.4L64.4988 28.28C64.4988 27.95 64.4688 27.05 64.4688 26.66C64.4688 24.68 65.0688 23.69 66.2388 23.69C67.2888 23.69 67.9788 24.23 68.2488 25.19C68.5788 26.15 68.6088 26.81 68.6088 27.98C68.6088 29.87 68.4588 33.02 68.1288 37.43C67.7988 41.81 67.4988 44.33 67.1988 44.99C66.8988 45.59 66.4788 45.89 65.9088 45.89C65.2788 45.89 64.7688 45.47 64.3488 44.63C63.9288 43.82 63.7188 43.04 63.7188 42.35ZM90.2559 27.14C90.2559 28.07 89.9559 29 89.3859 29.9C88.8159 30.8 88.0959 31.25 87.2259 31.25C86.1459 31.25 85.5159 30.35 85.2759 29.51C85.0359 28.64 84.4659 27.74 83.4759 27.74C82.5159 27.74 81.3159 28.31 79.8759 29.42C78.4659 30.53 77.3259 31.58 76.5159 32.6C77.3859 32.99 78.6759 33.17 80.3559 33.17C81.0459 33.17 82.0359 33.11 83.3859 32.96C84.7359 32.81 85.7259 32.75 86.3859 32.75C87.4359 32.75 88.5159 32.93 89.6259 33.32C90.7959 33.71 91.5759 34.61 91.5759 35.72C91.5759 36.8 91.1559 37.91 90.2859 39.02C89.4459 40.13 88.4559 41.12 87.3459 42.02C86.1159 43.01 84.6459 43.85 82.9359 44.54C81.2559 45.23 79.6659 45.59 78.1659 45.59C77.5659 45.59 76.9959 45.53 76.4559 45.41C75.5859 45.23 74.5659 44.84 73.3659 44.21C72.1659 43.61 71.5659 43.01 71.5659 42.41C71.5659 41.75 71.9559 41.18 72.7059 40.67C73.4559 40.16 74.1759 39.89 74.8659 39.89C75.4959 39.89 76.5759 40.04 78.1659 40.34C79.7559 40.61 80.9859 40.76 81.8559 40.76C82.6059 40.76 83.4159 40.49 84.2859 39.92C85.1559 39.35 85.8759 38.75 86.4459 38.06C86.0559 37.82 85.4259 37.7 84.5559 37.7C84.1059 37.7 83.4159 37.73 82.4859 37.79C81.5859 37.85 80.8959 37.88 80.4459 37.88H78.9759L77.0559 37.79C76.2159 37.73 75.4659 37.64 74.8059 37.49C72.8559 37.13 70.6059 36.41 70.7559 34.97C70.7559 34.07 71.4159 32.75 72.7659 31.04C74.5059 28.88 76.6059 27.02 79.0659 25.46C81.5259 23.9 83.9559 23.12 86.3559 23.12C88.6659 23.12 90.2559 24.83 90.2559 27.14ZM96.5243 24.74C97.4843 24.74 98.1143 25.28 98.3543 26.33C98.5943 27.38 98.6243 27.89 98.6243 28.94C98.6243 29.45 98.5943 30.2 98.5043 31.25C98.4443 32.3 98.4143 33.08 98.4143 33.59C98.4143 34.52 98.4443 35.93 98.5043 37.76C98.5943 39.59 98.6243 41 98.6243 41.93C98.6243 43.28 97.7843 44.72 96.4643 44.72C95.7443 44.72 95.2343 44.15 94.9643 43.01C94.6343 41.72 94.4843 37.55 94.4843 30.44V28.73C94.4843 27.92 94.5743 27.2 94.8143 26.27C95.0843 25.34 95.6843 24.74 96.5243 24.74ZM115.541 35.72C115.571 35.45 115.571 34.64 115.601 33.32L115.661 29.84C115.691 28.85 115.781 27.8 115.901 26.75C116.021 25.67 116.171 24.95 116.351 24.59C116.711 23.81 117.221 23.42 117.881 23.42C119.381 23.45 119.981 25.85 119.921 27.05C119.921 28.16 119.771 29.81 119.501 32C119.231 34.19 119.111 35.84 119.111 36.92C119.111 37.37 119.141 38 119.171 38.84C119.231 39.65 119.261 40.28 119.261 40.7C119.261 42.77 118.631 43.82 117.341 43.82C116.831 43.82 116.261 43.61 115.691 43.19C115.061 42.8 114.131 41.99 112.901 40.82C111.671 39.62 110.321 38.24 108.851 36.68C107.381 35.09 106.451 34.13 106.061 33.74C106.031 34.07 106.001 35.03 105.971 36.65C105.941 38.24 105.911 39.71 105.851 41.06C105.791 42.41 105.701 43.22 105.611 43.52C105.371 44.27 104.711 44.81 103.901 44.81C102.431 44.81 101.921 43.22 101.921 41.45C101.921 39.98 102.041 37.73 102.311 34.76C102.581 31.76 102.731 29.51 102.731 28.04C102.731 26.69 103.571 25.43 104.861 25.43C105.491 25.43 106.031 25.73 106.511 26.33C108.761 29.15 111.761 32.27 115.541 35.72ZM127.01 31.28L126.83 33.08C130.7 32.6 133.4 32.36 134.93 32.36C136.76 32.36 137.66 32.93 137.66 34.07C137.66 34.97 137.27 35.69 136.49 36.23C135.5 36.86 132.23 37.43 126.68 37.91C126.68 38.27 126.59 39.17 126.44 40.61L129.59 40.16C132.44 39.68 134.48 39.44 136.49 39.44C137.6 39.44 138.14 40.01 138.14 41.18C138.14 42.38 137.24 43.31 136.16 43.79C135.62 44.03 134.96 44.24 134.15 44.39C132.59 44.72 131.57 44.78 130.22 44.87C129.98 44.87 129.83 44.9 129.68 44.9C129.29 44.93 128.66 45.05 127.79 45.29C126.92 45.53 126.26 45.65 125.75 45.65C123.5 45.65 122.3 43.79 122.3 41.51C122.3 40.97 122.36 40.19 122.51 39.2C122.66 38.21 122.75 37.52 122.78 37.13L122.96 33.47C123.05 31.61 123.14 30.2 123.23 29.21C123.35 28.22 123.8 27.29 124.58 26.48C125.39 25.67 126.29 25.13 127.28 24.92C130.37 24.23 133.25 23.9 135.86 23.9C136.67 23.9 137.42 24.05 138.11 24.38C138.8 24.68 139.16 25.16 139.16 25.85C139.16 26.45 138.86 27.02 138.26 27.56C137.69 28.07 137.06 28.4 136.43 28.55C135.56 28.73 134.09 28.91 131.99 29.09C129.89 29.24 128.3 29.48 127.19 29.78L127.01 31.28ZM154.506 38.24C154.506 37.88 153.786 37.64 152.856 37.52C151.926 37.4 151.266 37.37 150.786 37.37C150.216 37.37 149.376 37.4 148.236 37.46C147.126 37.52 146.286 37.55 145.716 37.55C142.026 37.55 140.196 36.83 140.196 35.39C140.196 33.95 141.066 32.24 142.776 30.26C144.516 28.28 146.466 26.6 148.626 25.25C150.786 23.87 152.496 23.18 153.756 23.18C155.826 23.18 157.566 24.44 157.566 26.48C157.566 27.29 157.326 28.07 156.846 28.76C156.366 29.45 155.736 29.78 154.956 29.78C154.326 29.78 153.606 29.42 152.826 28.73C152.676 28.46 152.136 28.04 151.896 28.04C151.086 28.04 150.006 28.52 148.626 29.48C147.246 30.44 146.196 31.31 145.476 32.12C145.986 32.27 146.886 32.36 148.206 32.36H149.916C150.666 32.33 151.146 32.33 151.416 32.33C152.976 32.33 154.236 32.42 156.246 32.81C158.286 33.17 159.606 34.16 159.606 35.6C159.606 36.38 159.186 37.4 158.346 38.63C157.116 40.46 155.436 42.17 153.306 43.79C151.176 45.41 149.226 46.22 147.456 46.22C145.326 46.22 140.766 45.08 140.766 42.35C140.766 40.88 141.456 40.13 142.836 40.13C143.586 40.13 144.696 40.28 146.166 40.58C147.636 40.88 148.776 41.03 149.526 41.03C151.416 41.03 153.336 39.83 154.506 38.24ZM175.026 37.7H174.726C174.096 37.7 173.136 37.76 171.906 37.85C170.676 37.94 169.746 37.97 169.116 37.97C168.126 37.97 166.836 37.88 165.156 37.55C163.506 37.22 162.276 36.47 162.276 35.48C162.276 35 162.456 34.43 162.846 33.8C163.236 33.17 163.596 32.63 163.956 32.24C164.346 31.82 164.886 31.25 165.576 30.56L166.806 29.3C168.096 27.95 169.656 26.69 171.516 25.49C173.406 24.26 175.026 23.66 176.406 23.66C178.806 23.66 180.756 24.74 180.756 26.99C180.756 27.8 180.486 28.55 179.916 29.3C179.346 30.02 178.686 30.38 177.906 30.38C177.126 30.38 176.706 30.14 176.316 29.9C176.106 29.78 175.866 29.3 175.746 29.15L175.236 28.13C175.026 28.04 174.846 27.98 174.666 27.98C173.676 27.98 172.476 28.52 171.126 29.6C169.776 30.65 168.696 31.73 167.886 32.78C168.456 33.05 169.356 33.17 170.616 33.17C171.426 33.17 172.686 33.11 174.366 33.02C176.046 32.9 177.306 32.84 178.146 32.84C179.076 32.84 179.976 33.11 180.846 33.62C181.746 34.13 182.196 34.79 182.196 35.66C182.196 36.11 182.076 36.56 181.866 37.07C180.786 39.53 179.046 41.63 176.646 43.34C174.276 45.05 171.786 45.92 169.206 45.92C167.676 45.92 166.266 45.56 165.036 44.84C163.806 44.15 163.176 43.1 163.176 41.69C163.176 40.61 164.166 40.1 165.336 40.1C166.356 40.04 168.366 40.76 169.296 40.97C169.986 41.12 170.946 41.21 172.176 41.21C173.886 41.21 175.596 39.95 176.796 38.3C176.646 37.91 176.046 37.7 175.026 37.7ZM201.584 45.17C198.854 45.17 196.694 44.39 195.044 42.8C193.424 41.21 192.614 39.05 192.614 36.32C192.614 32.72 193.574 29.78 195.524 27.5C197.474 25.22 200.234 24.08 203.744 24.08C208.964 24.08 214.154 27.17 214.154 32.87C214.154 33.62 214.004 34.52 213.734 35.57C213.134 37.97 212.144 39.86 210.764 41.27C209.414 42.65 207.494 43.79 205.064 44.66C204.134 44.99 202.964 45.17 201.584 45.17ZM209.774 34.52C209.774 33.65 209.564 32.72 209.114 31.79C208.694 30.83 208.154 30.11 207.464 29.63C206.414 28.88 204.854 28.49 202.844 28.49C200.714 28.94 199.154 29.6 198.164 30.44C197.204 31.28 196.724 32.72 196.724 34.76C196.724 36.53 197.384 37.91 198.734 38.96C200.084 40.01 201.644 40.52 203.444 40.52C205.304 40.52 206.834 39.98 208.004 38.9C209.174 37.79 209.774 36.35 209.774 34.52ZM227.791 42.35C224.251 44.3 221.461 45.26 219.391 45.26C218.341 45.26 217.621 45.08 217.231 44.72C216.931 44.45 216.691 43.55 216.541 42.02C216.391 40.49 216.331 39.2 216.331 38.15C216.331 36.92 216.481 34.79 216.811 31.7C217.141 28.61 217.471 26.81 217.801 26.33C218.131 25.88 218.491 25.67 218.911 25.67C219.361 25.67 219.811 25.94 220.291 26.45C220.801 26.96 221.041 27.41 221.041 27.83C221.041 28.64 220.951 29.84 220.741 31.4C220.531 32.96 220.441 34.13 220.441 34.91V39.77C221.731 39.65 223.411 39.05 224.401 38.54C224.911 38.27 225.601 37.94 226.411 37.49C227.251 37.04 227.851 36.74 228.241 36.56C228.301 36.05 228.331 35.51 228.331 34.97C228.361 34.16 228.421 32.96 228.451 31.4L228.571 28.28C228.571 27.95 228.541 27.05 228.541 26.66C228.541 24.68 229.141 23.69 230.311 23.69C231.361 23.69 232.051 24.23 232.321 25.19C232.651 26.15 232.681 26.81 232.681 27.98C232.681 29.87 232.531 33.02 232.201 37.43C231.871 41.81 231.571 44.33 231.271 44.99C230.971 45.59 230.551 45.89 229.981 45.89C229.351 45.89 228.841 45.47 228.421 44.63C228.001 43.82 227.791 43.04 227.791 42.35ZM253.518 42.68C253.518 43.88 252.198 44.39 250.878 44.39C250.068 44.39 248.118 43.25 244.998 41C244.608 40.7 244.158 40.43 243.678 40.16C243.228 39.89 242.598 39.59 241.848 39.23L240.468 38.54C240.678 40.61 240.798 41.99 240.798 42.74C240.798 44.15 240.018 45.47 238.698 45.47C237.828 45.47 237.258 44.72 236.958 43.25C236.748 42.08 236.598 40.82 236.478 39.47L236.208 34.91C236.118 33.23 236.058 31.94 235.968 31.04C235.938 30.71 235.878 30.14 235.728 29.27C235.608 28.4 235.548 27.71 235.548 27.23C235.548 26.42 236.208 25.67 237.528 24.95C238.878 24.2 240.048 23.75 241.098 23.57C242.568 23.3 243.918 23.18 245.178 23.18C246.618 23.18 247.788 23.39 248.688 23.84C249.588 24.29 250.368 24.98 250.998 25.94C251.628 26.87 251.958 27.83 251.958 28.79C251.958 31.37 250.098 33.65 246.378 35.63C247.668 36.35 248.988 37.31 250.668 38.66C252.348 39.98 253.518 41.51 253.518 42.68ZM248.298 29.21C248.298 28.91 247.968 28.7 247.308 28.58C246.648 28.43 246.048 28.37 245.478 28.37C243.228 28.37 241.248 28.79 239.538 29.6L239.958 33.68C241.368 33.53 243.018 33.17 244.938 32.48C246.858 31.79 248.298 30.62 248.298 29.21ZM267.649 37.7H267.349C266.719 37.7 265.789 37.76 264.559 37.85C263.329 37.94 262.369 37.97 261.739 37.97C260.749 37.97 259.459 37.88 257.809 37.55C256.159 37.22 254.929 36.47 254.929 35.48C254.929 35 255.109 34.43 255.499 33.8C255.889 33.17 256.249 32.63 256.609 32.24C256.999 31.82 257.539 31.25 258.229 30.56L259.459 29.3C260.749 27.95 262.309 26.69 264.169 25.49C266.059 24.26 267.679 23.66 269.059 23.66C270.229 23.66 271.249 23.93 272.089 24.5C272.959 25.04 273.379 25.88 273.379 26.99C273.379 27.8 273.109 28.55 272.539 29.3C271.969 30.02 271.309 30.38 270.559 30.38C269.599 30.38 269.179 30.17 268.789 29.72L268.459 29.3C268.429 29.21 268.309 29.03 268.159 28.73L267.889 28.13C267.649 28.04 267.469 27.98 267.319 27.98C266.299 27.98 265.129 28.52 263.779 29.6C262.429 30.65 261.349 31.73 260.539 32.78C261.109 33.05 262.009 33.17 263.269 33.17C264.079 33.17 265.339 33.11 267.019 33.02C268.699 32.9 269.959 32.84 270.799 32.84C271.729 32.84 272.629 33.11 273.499 33.62C274.399 34.13 274.849 34.79 274.849 35.66C274.849 36.02 274.729 36.5 274.519 37.07C273.409 39.53 271.669 41.63 269.269 43.34C266.899 45.05 264.409 45.92 261.859 45.92C260.329 45.92 258.919 45.56 257.689 44.84C256.459 44.15 255.829 43.1 255.829 41.69C255.829 40.61 256.819 40.1 257.989 40.1C258.499 40.1 259.279 40.25 260.299 40.52L261.949 40.97C262.639 41.12 263.599 41.21 264.829 41.21C266.479 41.21 268.009 40.25 269.419 38.3C269.269 37.91 268.669 37.7 267.649 37.7ZM280.874 25.91C280.844 26.63 280.814 27.68 280.814 29.06C280.814 29.45 280.874 30.35 280.874 30.71C280.874 31.46 280.574 32.36 279.974 32.36C279.404 32.36 279.134 31.79 279.134 30.68C279.134 30.17 279.164 29.42 279.194 28.43C279.224 27.44 279.254 26.69 279.254 26.21C278.594 26.33 277.934 26.39 277.274 26.39C276.764 26.39 276.104 26.21 276.104 25.76C276.104 25.37 276.314 25.04 276.734 24.74C276.944 24.56 277.244 24.44 277.574 24.41C278.744 24.29 279.674 24.17 280.334 24.08C280.544 24.05 280.904 23.99 281.444 23.87C282.014 23.75 282.434 23.69 282.704 23.69C283.154 23.69 283.394 23.87 283.394 24.23C283.394 24.62 283.184 25.28 282.854 25.43C282.434 25.7 281.774 25.85 280.874 25.91ZM289.394 26.75C288.884 27.62 288.554 28.43 288.344 29.15C288.314 29.18 288.284 29.42 288.194 29.84C288.104 30.23 288.044 30.53 287.954 30.74C287.774 31.37 287.294 32.48 286.574 32.33C286.304 32.33 286.094 32.21 285.944 32C285.854 31.82 285.734 31.28 285.584 30.35C285.434 29.63 285.224 28.88 284.924 28.13L284.624 29.36C284.294 30.77 283.964 32.12 283.874 32.27C283.724 32.48 283.544 32.6 283.274 32.6C282.794 32.6 282.464 32.06 282.464 31.58C282.464 31.43 282.584 30.86 282.854 29.87C283.574 26.75 284.234 24.86 284.834 24.23C284.954 24.02 285.134 23.9 285.344 23.9C285.674 23.9 285.944 24.17 286.154 24.74L286.394 25.43C286.514 25.82 286.664 26.66 286.664 26.75C286.694 26.96 286.844 27.44 287.084 28.16C287.294 27.71 287.714 26.69 287.954 26.21C288.194 25.7 288.614 24.92 289.064 24.35C289.334 24.08 289.754 23.45 290.144 23.45C290.684 23.45 291.164 24.41 291.554 26.3C291.944 28.19 292.154 29.57 292.154 30.47C292.154 31.1 291.794 32 291.224 32C290.834 32 290.504 31.67 290.264 30.98C290.024 30.29 289.844 29.45 289.694 28.46C289.544 27.47 289.454 26.9 289.394 26.75ZM321.46 29.03C321.46 30.38 320.98 31.7 320.02 32.99C319.06 34.25 317.86 35.3 316.45 36.14C313.6 37.82 310.36 38.93 307.81 39.14C307.81 39.23 307.78 39.53 307.75 40.04C307.72 41 307.63 41.36 307.48 42.35C307.36 43.34 307.09 43.85 306.73 44.48C306.37 45.17 305.77 45.47 305.05 45.47C304.6 45.47 304.21 45.2 303.91 44.63C303.61 44.09 303.46 43.58 303.46 43.07C303.46 42.8 303.55 42.32 303.73 41.6C303.94 40.85 304.03 39.89 304.03 38.69C304.06 37.82 304.06 36.47 304.06 34.67V32.36C304.06 31.97 304.03 31.43 303.97 30.68C303.91 29.93 303.88 29.36 303.88 28.97C303.88 27.68 304.15 26.93 305.11 26.33C306.34 25.58 307.81 24.98 309.55 24.56C311.32 24.11 312.97 23.9 314.53 23.9C319.15 23.9 321.46 25.61 321.46 29.03ZM317.23 29.78C316.81 29.24 315.88 28.97 314.44 28.97C312.61 28.97 310.36 29.39 307.66 30.26C307.81 31.76 307.9 33.17 307.9 34.49C309.49 34.34 311.26 34.01 313.3 33.32C315.34 32.6 316.96 31.34 317.23 29.78ZM335.054 39.2C337.694 39.2 339.014 40.07 339.014 41.84C339.014 43.07 337.724 43.88 336.374 44.09C335.864 44.18 335.114 44.27 334.124 44.36C333.164 44.45 332.534 44.54 332.234 44.57C331.934 44.6 331.064 44.75 329.594 44.99C328.124 45.26 327.224 45.38 326.834 45.38C324.704 45.38 323.624 44.42 323.624 42.53C323.624 41.96 323.654 41.09 323.744 39.92C323.834 38.75 323.864 37.88 323.864 37.31V36.5C323.864 35.99 323.864 35.21 323.834 34.13C323.804 33.05 323.804 32.24 323.804 31.7C323.804 29.57 323.924 27.71 324.194 26.15C324.374 24.83 324.794 24.17 325.454 24.17C326.924 24.17 327.674 25.19 327.674 27.23C327.674 27.68 327.644 28.31 327.584 29.18C327.554 30.05 327.524 30.68 327.524 31.13C327.524 34.1 327.494 37.04 327.434 39.98C327.974 39.92 328.784 39.83 329.834 39.68C331.964 39.35 333.584 39.2 335.054 39.2ZM357.706 44.6C356.716 44.6 356.086 43.82 355.546 42.86C355.216 42.29 354.886 41.21 354.736 40.7L354.466 39.65L354.256 38.81C353.866 38.96 353.416 39.08 352.906 39.2C351.916 39.41 351.286 39.47 349.876 39.59L348.376 39.68C348.076 39.68 347.536 39.71 346.786 39.74C346.036 39.77 345.616 39.77 345.466 39.77C345.376 39.98 345.256 40.4 345.076 41.03C344.896 41.66 344.716 42.2 344.566 42.65C344.086 44.03 343.156 45.86 341.776 45.71C340.936 45.71 340.516 44.93 340.516 43.4C340.516 41.72 341.206 39.2 342.616 35.84C344.026 32.48 345.376 29.78 346.636 27.71L347.326 26.42L348.256 24.71C348.766 23.87 349.756 22.85 350.596 22.85C351.466 22.85 352.366 23.39 353.356 24.44C354.346 25.49 355.216 26.78 355.966 28.28C357.526 31.28 358.696 34.22 359.086 35.9C359.176 36.29 359.356 36.89 359.596 37.7C360.106 39.29 360.436 40.58 360.436 41.75C360.436 42.47 360.166 43.13 359.596 43.73C359.056 44.3 358.426 44.6 357.706 44.6ZM352.936 34.73C351.946 31.94 351.016 30.05 350.206 29.06C348.946 30.77 347.926 32.87 347.116 35.36H347.356C347.566 35.36 347.926 35.36 348.376 35.33C348.856 35.3 349.186 35.27 349.396 35.27C350.506 35.27 351.706 35.09 352.936 34.73ZM367.388 36.05L366.608 35.54L365.648 34.88L364.688 34.19C364.238 33.83 363.878 33.56 363.668 33.35C363.278 32.96 362.288 32.15 361.898 31.64C361.238 30.8 360.548 29.69 360.638 28.82C360.638 28.25 360.848 27.59 361.298 26.9C361.748 26.21 362.228 25.85 362.798 25.85C363.338 25.85 363.968 26.12 364.658 26.63C365.348 27.14 366.098 27.8 366.878 28.61C367.688 29.39 368.228 29.9 368.498 30.11L370.328 31.34L370.958 30.35C371.648 29.27 372.038 28.73 372.788 27.56C373.598 26.39 374.228 25.7 375.038 24.89C375.848 24.08 376.628 23.69 377.258 23.69C378.068 23.69 378.578 24.32 378.578 25.07C378.578 25.64 378.068 26.63 377.588 27.32L376.718 28.58L376.088 29.48C374.078 32.39 372.488 34.85 371.288 36.83C370.928 37.43 370.268 38.66 369.308 40.55C368.378 42.41 367.538 43.82 366.848 44.75C366.278 45.5 365.708 45.89 365.108 45.89C363.638 45.77 363.248 44.03 364.118 41.87C364.448 41.09 364.748 40.46 365.018 39.95C365.288 39.44 365.738 38.69 366.338 37.76C366.938 36.8 367.298 36.23 367.388 36.05ZM401.072 36.47C401.072 37.7 400.472 39.02 399.242 40.43C397.592 42.29 395.342 43.61 392.492 44.42C389.642 45.23 386.702 45.65 383.612 45.65C382.322 45.65 381.452 45.08 381.062 44.09C380.702 43.1 380.582 42.23 380.582 41C380.582 39.59 380.672 37.55 380.882 34.94C381.092 32.33 381.212 30.5 381.242 29.45C381.272 28.46 381.422 27.71 381.662 27.2C381.902 26.69 382.412 26.15 383.222 25.64C384.212 25.01 385.772 24.44 387.902 23.93C390.032 23.39 391.772 23.12 393.062 23.12C394.412 23.12 395.612 23.51 396.692 24.26C397.772 25.01 398.312 26.03 398.312 27.32C398.312 28.79 397.832 30.32 396.842 31.91C399.152 32.63 401.072 34.28 401.072 36.47ZM396.512 38.06C396.512 37.67 396.002 37.34 395.012 37.07C394.022 36.8 393.242 36.65 392.642 36.65C390.392 36.65 387.752 37.13 384.692 38.12C384.602 39.05 384.542 39.89 384.542 40.61H385.622C386.972 40.61 389.132 40.37 392.072 39.86C395.042 39.35 396.512 38.75 396.512 38.06ZM384.782 33.08C388.652 32.39 391.232 31.7 392.552 31.07C393.542 30.62 394.052 30.11 394.052 29.6C393.932 28.67 393.242 28.61 392.372 28.61C390.482 28.61 387.992 29.21 384.872 30.44C384.872 31.31 384.842 32.18 384.782 33.08ZM411.743 45.17C409.013 45.17 406.853 44.39 405.203 42.8C403.583 41.21 402.773 39.05 402.773 36.32C402.773 32.72 403.733 29.78 405.683 27.5C407.633 25.22 410.393 24.08 413.903 24.08C419.123 24.08 424.313 27.17 424.313 32.87C424.313 33.62 424.163 34.52 423.893 35.57C423.293 37.97 422.303 39.86 420.923 41.27C419.573 42.65 417.653 43.79 415.223 44.66C414.293 44.99 413.123 45.17 411.743 45.17ZM419.933 34.52C419.933 33.65 419.723 32.72 419.273 31.79C418.853 30.83 418.313 30.11 417.623 29.63C416.573 28.88 415.013 28.49 413.003 28.49C410.873 28.94 409.313 29.6 408.323 30.44C407.363 31.28 406.883 32.72 406.883 34.76C406.883 36.53 407.543 37.91 408.893 38.96C410.243 40.01 411.803 40.52 413.603 40.52C415.463 40.52 416.993 39.98 418.163 38.9C419.333 37.79 419.933 36.35 419.933 34.52ZM435.593 45.17C433.193 45.17 431.123 44.27 429.383 42.44C427.673 40.61 426.803 38.51 426.803 36.08C426.713 29.09 432.773 24.17 439.553 24.32C440.663 24.32 441.803 24.62 443.033 25.25C444.263 25.88 445.283 26.6 446.063 27.47C446.663 28.1 447.113 29 447.413 30.11C447.713 31.22 447.863 32.33 447.863 33.41C447.863 35.15 447.503 36.71 446.783 38.06C445.793 39.95 444.173 41.6 441.983 43.04C439.793 44.45 437.663 45.17 435.593 45.17ZM439.133 29.45C437.783 29.45 436.493 29.66 435.293 30.08C434.093 30.5 433.043 31.22 432.173 32.21C431.303 33.2 430.883 34.37 430.883 35.75C430.883 37.16 431.423 38.24 432.473 38.96C433.523 39.68 434.813 40.04 436.313 40.04C437.423 40.04 438.533 39.86 439.613 39.5C440.723 39.14 441.683 38.54 442.493 37.73C443.303 36.89 443.723 35.9 443.723 34.76C443.723 33.74 443.393 32.63 442.763 31.43C442.133 30.23 441.353 29.57 440.453 29.48C440.183 29.45 439.733 29.45 439.133 29.45ZM464.411 44.9C463.871 44.9 463.121 44.51 462.161 43.73C461.231 42.95 460.211 42.05 459.101 41.03C458.021 40.01 457.211 39.35 456.701 39.02C455.831 38.48 455.111 38.09 454.511 37.82L454.421 41.51C454.421 41.96 454.631 43.1 454.631 43.58C454.631 44.87 453.911 46.07 452.681 46.07C451.631 46.07 450.941 45.35 450.671 44.12C450.401 42.89 450.341 42.02 450.341 40.7C450.341 38.87 450.401 36.14 450.551 32.54C450.701 28.94 450.851 26.9 451.031 26.42C451.391 25.31 452.171 24.44 453.161 24.44C454.361 24.44 454.991 25.19 454.991 26.39C454.991 26.72 454.931 27.17 454.841 27.77C454.751 28.34 454.721 28.79 454.721 29.06C454.661 29.81 454.631 30.95 454.631 32.45C454.931 32.21 455.471 31.79 456.251 31.22C457.811 30.05 458.831 29.21 459.701 28.22C461.861 25.85 463.421 24.41 464.381 23.84C464.771 23.63 465.101 23.51 465.341 23.51C466.571 23.51 467.201 23.99 467.201 24.92C467.201 25.85 466.301 27.2 464.711 28.67C463.931 29.42 463.211 30.05 462.581 30.62C461.951 31.16 461.171 31.79 460.271 32.48C459.371 33.17 458.831 33.59 458.681 33.74C460.001 34.55 461.711 35.84 463.421 37.43C465.191 38.99 466.481 40.88 466.481 42.2C466.481 43.55 465.701 44.9 464.411 44.9Z" fill="black"/>
<path d="M808.939 45.17C806.539 45.17 804.469 44.27 802.729 42.44C801.019 40.61 800.149 38.51 800.149 36.08C800.059 29.09 806.119 24.17 812.899 24.32C814.009 24.32 815.149 24.62 816.379 25.25C817.609 25.88 818.629 26.6 819.409 27.47C820.009 28.1 820.459 29 820.759 30.11C821.059 31.22 821.209 32.33 821.209 33.41C821.209 35.18 820.849 36.71 820.099 38.06C819.109 39.95 817.519 41.6 815.329 43.04C813.139 44.45 811.009 45.17 808.939 45.17ZM812.479 29.45C811.129 29.45 809.839 29.66 808.639 30.08C807.439 30.5 806.389 31.22 805.519 32.21C804.649 33.2 804.229 34.37 804.229 35.75C804.229 37.16 804.769 38.24 805.819 38.96C806.869 39.68 808.159 40.04 809.659 40.04C811.459 40.04 813.139 39.59 814.699 38.66C816.259 37.73 817.039 36.41 817.039 34.76C817.039 33.74 816.709 32.63 816.079 31.43C815.449 30.23 814.699 29.57 813.799 29.48C813.529 29.45 813.079 29.45 812.479 29.45ZM835.041 41.75C833.811 42.5 832.191 43.31 830.211 44.18C828.261 45.05 826.761 45.5 825.771 45.5C824.961 45.5 824.361 45.17 823.971 44.48C823.731 44.03 823.521 43.07 823.371 41.6C823.221 40.13 823.131 38.93 823.131 38.06C823.131 37.19 823.341 35.09 823.791 31.79C824.241 28.49 824.601 26.66 824.871 26.3C825.111 25.91 825.471 25.73 825.951 25.73C827.271 25.73 827.931 26.93 827.931 29.36C827.931 30.77 827.811 32.06 827.571 33.17C827.301 34.34 827.181 35.87 827.181 37.73V39.56C828.891 39.08 831.531 37.73 835.041 35.51C835.041 34.34 835.011 32.6 834.981 30.29C834.951 27.98 834.951 26.24 834.951 25.07C834.951 24.32 836.031 23.57 836.781 23.57C838.161 23.57 838.851 25.55 838.851 29.54V29.96C838.851 30.98 838.881 32.51 838.911 34.52C838.941 36.53 838.971 38.06 838.971 39.05V39.68C838.971 43.55 838.251 45.47 836.781 45.47C836.151 45.47 835.701 45.05 835.431 44.21C835.161 43.37 835.041 42.56 835.041 41.75ZM858.715 44.27C858.055 44.27 857.125 43.91 855.895 43.16C852.445 41.12 849.145 39.65 846.055 38.72C846.235 41.72 846.325 43.22 846.325 43.25C846.325 44.54 845.575 45.71 844.345 45.71C843.655 45.71 843.025 45.2 842.815 44.51C842.395 43.52 842.185 38.09 842.185 28.22C842.185 27.23 842.755 26.48 843.925 25.97C845.095 25.37 846.505 24.86 848.155 24.44C849.805 23.99 851.215 23.78 852.445 23.78C856.975 23.78 859.225 25.16 859.225 27.89C859.225 29.39 858.565 30.83 857.245 32.21C855.955 33.59 854.485 34.7 852.835 35.57C854.245 36.05 855.895 36.86 857.665 37.97C859.465 39.08 860.785 40.61 860.785 42.02C860.785 43.37 860.065 44.27 858.715 44.27ZM845.905 30.44V31.37C845.905 32.54 845.935 33.41 845.965 33.98C847.045 33.77 848.815 33.29 850.825 32.54C852.865 31.79 854.485 30.65 854.485 29.6C854.485 29.33 854.155 29.15 853.525 29.06C852.895 28.94 852.295 28.88 851.785 28.88C849.835 28.88 847.885 29.39 845.905 30.44ZM862.874 41.27C862.874 40.04 864.254 39.53 865.604 39.53C866.354 39.53 867.434 39.74 868.874 40.16C870.344 40.55 871.424 40.76 872.144 40.76C874.064 40.76 876.104 39.53 876.824 37.82C876.134 37.61 875.054 37.49 873.554 37.49C873.044 37.49 872.354 37.52 871.424 37.55C870.524 37.58 869.894 37.58 869.564 37.58C868.394 37.58 866.804 37.4 865.004 36.95C863.234 36.47 861.854 35.51 861.854 34.31C861.854 32.9 864.164 30.47 868.814 27.05C870.104 26.06 871.544 25.22 873.074 24.47C874.634 23.72 876.044 23.36 877.304 23.36C878.294 23.36 879.194 23.72 880.064 24.41C880.934 25.1 881.354 25.94 881.354 26.9C881.354 28.67 880.064 30.02 878.264 30.02C876.764 30.02 876.944 27.89 874.664 27.89C873.884 27.89 872.774 28.4 871.334 29.42C869.924 30.44 868.814 31.37 868.064 32.18C868.514 32.63 869.714 32.84 871.694 32.84C872.144 32.84 872.744 32.84 873.434 32.81C874.154 32.78 874.604 32.75 874.754 32.75C879.704 32.75 882.194 33.77 882.194 35.81C882.194 36.98 881.534 38.3 880.244 39.77C878.954 41.24 877.514 42.5 875.894 43.55C874.274 44.6 872.894 45.23 871.724 45.5C870.974 45.65 870.254 45.74 869.504 45.74C867.974 45.74 866.504 45.35 865.034 44.54C863.594 43.73 862.874 42.65 862.874 41.27ZM882.652 43.52C882.652 42.53 883.132 41.69 884.092 41C885.052 40.31 886.042 39.95 887.092 39.95C888.622 39.95 889.912 40.67 889.912 42.11C889.912 42.95 889.342 43.73 888.202 44.42C887.062 45.11 886.042 45.47 885.112 45.47C883.792 45.47 882.652 44.81 882.652 43.52ZM911.927 36.74C911.927 38.09 910.967 39.68 909.017 41.51C907.547 42.89 905.687 43.91 903.377 44.57C901.067 45.26 898.757 45.59 896.387 45.59C895.817 45.59 895.277 45.56 894.767 45.47C893.777 45.32 892.577 44.63 892.577 43.52C892.577 43.19 892.607 42.68 892.637 42.05C892.667 41.42 892.697 41 892.697 40.79C892.787 39.08 892.817 36.47 892.817 32.99C892.817 32.48 892.757 31.79 892.667 30.92C892.577 30.02 892.517 29.39 892.517 29.03C892.517 27.68 892.907 26.69 893.687 26.09C894.437 25.52 895.727 25.01 897.557 24.56C899.387 24.11 900.857 23.9 902.027 23.9C904.337 23.9 908.297 24.68 908.297 27.62C908.297 28.97 907.367 30.56 905.537 32.36C909.797 32.93 911.927 34.37 911.927 36.74ZM907.607 38.3C907.037 37.85 906.227 37.49 905.177 37.28C904.127 37.04 903.137 36.92 902.237 36.92C900.587 36.92 898.667 37.19 896.537 37.7L896.567 40.76H897.107C898.727 40.76 900.707 40.55 903.077 40.1C905.447 39.65 906.977 39.05 907.607 38.3ZM896.477 30.05L896.537 32.84C897.647 32.57 899.147 32 901.097 31.19C903.047 30.35 904.007 29.66 904.007 29.15C903.917 29.03 903.587 28.94 902.957 28.85C902.357 28.76 901.907 28.7 901.577 28.7C899.747 28.7 898.067 29.15 896.477 30.05ZM928.604 25.43C928.604 25.94 928.394 26.48 927.944 27.08C927.584 27.65 927.014 28.43 926.264 29.45C925.514 30.47 924.974 31.25 924.644 31.76L922.364 35.15C921.014 37.16 920.024 38.69 919.394 39.77C921.974 39.26 924.014 39.02 925.514 39.02C926.954 39.02 927.704 39.35 927.704 40.7C927.704 42.02 926.594 43.43 925.364 43.94C925.064 44.09 923.384 44.39 920.354 44.9C917.324 45.41 915.644 45.65 915.314 45.65C914.144 45.65 912.884 45.05 912.884 43.94C912.884 43.49 913.094 42.86 913.484 42.11C913.874 41.33 914.444 40.43 915.134 39.38L916.304 37.58C916.544 37.22 916.874 36.68 917.264 35.99C917.654 35.27 917.954 34.76 918.164 34.43C918.524 33.83 919.124 32.96 919.934 31.85C920.744 30.71 921.344 29.87 921.674 29.3C921.524 29.33 921.164 29.42 920.624 29.51L919.424 29.72C919.064 29.81 918.524 29.99 917.774 30.26C916.334 30.77 915.224 31.1 914.144 31.1C912.974 31.1 912.374 30.2 912.374 29.03C912.374 27.44 913.784 26.18 915.464 25.43C915.794 25.28 916.844 25.07 918.554 24.74C920.294 24.41 921.494 24.2 922.124 24.11C924.464 23.93 925.664 23.84 925.694 23.84C927.644 23.84 928.604 24.38 928.604 25.43Z" fill="black"/>
<line x1="30" y1="58" x2="930" y2="58" stroke="black" stroke-width="4"/>
<path d="M71.1 81.4V124H60.96V106.3H44.58V124H34.44V81.4H44.58V98.5H60.96V81.4H71.1ZM91.6073 124.72C82.7873 124.72 76.0673 119.26 76.0673 108.94C76.0673 98.62 82.7873 93.28 91.6073 93.28C100.487 93.28 107.207 98.62 107.207 108.94C107.207 119.26 100.487 124.72 91.6073 124.72ZM91.6073 118.06C95.3873 118.06 97.6073 115.06 97.6073 108.94C97.6073 102.76 95.3873 99.94 91.6073 99.94C87.8873 99.94 85.6673 102.76 85.6673 108.94C85.6673 115.06 87.8873 118.06 91.6073 118.06ZM115.935 124L107.895 94H117.075L120.855 112.36C120.975 113.2 121.155 114.22 121.275 115.24H121.395C121.515 114.22 121.635 113.2 121.875 112.36L126.255 94H134.415L138.795 112.36C138.975 113.2 139.155 114.22 139.275 115.24H139.395C139.515 114.22 139.635 113.2 139.815 112.36L143.535 94H152.715L144.735 124H135.375L130.815 106.3C130.575 105.52 130.455 104.5 130.395 103.78H130.275C130.215 104.5 130.035 105.52 129.855 106.3L125.295 124H115.935ZM164.484 100.42V94H169.704V86.8L179.304 83.08V94H186.444V100.42H179.304V112.12C179.304 115.12 180.804 116.68 183.684 116.68C184.824 116.68 185.544 116.56 186.444 116.38V124C184.224 124.42 182.724 124.6 180.984 124.6C173.004 124.6 169.704 120.94 169.704 114.4V100.42H164.484ZM203.468 124.72C194.648 124.72 187.928 119.26 187.928 108.94C187.928 98.62 194.648 93.28 203.468 93.28C212.348 93.28 219.068 98.62 219.068 108.94C219.068 119.26 212.348 124.72 203.468 124.72ZM203.468 118.06C207.248 118.06 209.468 115.06 209.468 108.94C209.468 102.76 207.248 99.94 203.468 99.94C199.748 99.94 197.528 102.76 197.528 108.94C197.528 115.06 199.748 118.06 203.468 118.06ZM241.243 124L233.203 94H242.383L246.163 112.36C246.283 113.2 246.463 114.22 246.583 115.24H246.703C246.823 114.22 246.943 113.2 247.183 112.36L251.563 94H259.723L264.103 112.36C264.283 113.2 264.463 114.22 264.583 115.24H264.703C264.823 114.22 264.943 113.2 265.123 112.36L268.843 94H278.023L270.043 124H260.683L256.123 106.3C255.883 105.52 255.763 104.5 255.703 103.78H255.583C255.523 104.5 255.343 105.52 255.163 106.3L250.603 124H241.243ZM294.086 124.72C285.266 124.72 278.546 119.26 278.546 108.94C278.546 98.62 285.266 93.28 294.086 93.28C302.966 93.28 309.686 98.62 309.686 108.94C309.686 119.26 302.966 124.72 294.086 124.72ZM294.086 118.06C297.866 118.06 300.086 115.06 300.086 108.94C300.086 102.76 297.866 99.94 294.086 99.94C290.366 99.94 288.146 102.76 288.146 108.94C288.146 115.06 290.366 118.06 294.086 118.06ZM323.315 101.74C324.875 96.34 328.175 93.28 333.335 93.28H333.935V102.46C333.335 102.4 332.855 102.4 332.135 102.4C329.555 102.4 327.635 103.06 326.315 104.2C324.395 106 323.915 108.7 323.915 111.76V124H314.255V94H323.315V101.74ZM358.182 124L351.042 111.88L347.742 115.42V124H338.082V80.5H347.742V105.76L357.462 94H368.622L357.702 105.94L368.922 124H358.182ZM394.367 124.72C387.767 124.72 382.367 122.26 379.487 117.52L385.067 113.32C387.167 116.56 390.407 118.18 394.547 118.18C397.667 118.18 399.227 117.22 399.227 115.54C399.227 113.74 398.267 113.08 394.967 112.6L390.647 112C384.167 111.04 381.107 107.86 381.107 102.76C381.107 96.94 386.027 93.28 394.307 93.28C400.367 93.28 405.467 95.5 407.927 99.22L402.947 103.72C400.727 101.2 397.727 99.7 394.007 99.7C391.127 99.7 389.807 100.48 389.807 102.16C389.807 103.6 390.707 104.38 393.347 104.74L398.687 105.58C405.107 106.48 407.627 109.66 407.627 114.82C407.627 120.94 402.767 124.72 394.367 124.72ZM411.877 94H421.117V99.4C423.037 95.26 425.917 93.22 430.357 93.22C434.617 93.22 437.377 95.2 438.877 99.46C441.037 95.26 444.157 93.22 448.477 93.22C454.297 93.22 457.717 97.36 457.717 104.38V124H448.117V106.42C448.117 102.4 446.857 100.6 444.097 100.6C441.217 100.6 439.597 102.76 439.597 106.78V124H429.997V106.36C429.997 102.46 428.677 100.6 426.037 100.6C423.157 100.6 421.537 102.82 421.537 106.84V124H411.877V94ZM471.916 124.72C465.736 124.72 461.596 121.18 461.596 115.84C461.596 113.02 462.616 110.8 464.656 109.36C466.636 107.98 469.516 107.02 474.076 106.42L481.336 105.4V104.38C481.336 100.96 479.896 99.46 476.896 99.46C473.956 99.46 472.276 101.02 472.096 103.9H462.556C463.036 97.24 468.436 93.28 476.956 93.28C486.616 93.28 490.936 97.06 490.936 105.7V115.66C490.936 119.2 491.236 122.14 491.776 124H482.416C482.116 122.56 481.996 120.94 481.936 119.26C480.436 122.62 476.596 124.72 471.916 124.72ZM475.516 118.6C479.176 118.6 481.636 116.14 481.636 112.54V110.14L476.476 110.98C472.936 111.64 471.316 112.9 471.316 115.12C471.316 117.22 472.996 118.6 475.516 118.6ZM506.31 101.74C507.87 96.34 511.17 93.28 516.33 93.28H516.93V102.46C516.33 102.4 515.85 102.4 515.13 102.4C512.55 102.4 510.63 103.06 509.31 104.2C507.39 106 506.91 108.7 506.91 111.76V124H497.25V94H506.31V101.74ZM518.932 100.42V94H524.152V86.8L533.752 83.08V94H540.892V100.42H533.752V112.12C533.752 115.12 535.252 116.68 538.132 116.68C539.272 116.68 539.992 116.56 540.892 116.38V124C538.672 124.42 537.172 124.6 535.432 124.6C527.452 124.6 524.152 120.94 524.152 114.4V100.42H518.932ZM572.315 108.28V111.16H551.495C551.555 115.24 554.375 117.82 558.395 117.82C561.335 117.82 563.555 116.38 564.935 113.62L572.015 116.86C569.615 121.78 564.515 124.72 558.275 124.72C548.375 124.72 542.375 119.02 542.375 109.3C542.375 99.46 548.255 93.28 557.615 93.28C567.035 93.28 572.315 98.74 572.315 108.28ZM563.015 105.76V105.52C563.015 101.26 561.035 98.98 557.435 98.98C553.715 98.98 551.615 101.5 551.495 105.76H563.015ZM586.207 101.74C587.767 96.34 591.067 93.28 596.227 93.28H596.827V102.46C596.227 102.4 595.747 102.4 595.027 102.4C592.447 102.4 590.527 103.06 589.207 104.2C587.287 106 586.807 108.7 586.807 111.76V124H577.147V94H586.207V101.74Z" fill="black"/>
<g style="mix-blend-mode:color">
<rect width="960" height="960" fill="url(#paint0_linear_62_3131)"/>
</g>
</g>
<defs>
<linearGradient id="paint0_linear_62_3131" x1="480" y1="0" x2="480" y2="960" gradientUnits="userSpaceOnUse">
<stop stop-color="#CBC4F7"/>
<stop offset="1" stop-color="#EEB3FD"/>
</linearGradient>
<clipPath id="clip0_62_3131">
<rect width="960" height="960" rx="30" fill="white"/>
</clipPath>
</defs>
</svg>
