<svg width="960" height="960" viewBox="0 0 960 960" fill="none" xmlns="http://www.w3.org/2000/svg">
<g clip-path="url(#clip0_192_382)">
<rect width="960" height="960" rx="30" fill="white"/>
<path d="M336.931 849.855C335.864 850.141 335.231 851.237 335.516 852.304L340.171 869.692C340.457 870.759 341.554 871.392 342.621 871.107C343.688 870.821 344.321 869.725 344.035 868.658L339.897 853.202L355.353 849.064C356.42 848.778 357.054 847.682 356.768 846.615C356.482 845.548 355.386 844.914 354.319 845.2L336.931 849.855ZM622.5 851.817L621.5 850.085C578.47 874.928 529.657 888.005 479.97 888L479.97 890L479.97 892C530.359 892.005 579.862 878.744 623.5 853.549L622.5 851.817ZM479.97 890L479.97 888C430.283 887.995 381.474 874.908 338.449 850.055L337.448 851.787L336.448 853.519C380.081 878.723 429.581 891.994 479.97 892L479.97 890Z" fill="#9D9D9D"/>
<path d="M750.161 518.769C751.145 519.27 752.35 518.879 752.851 517.895L761.027 501.859C761.528 500.875 761.137 499.67 760.153 499.169C759.169 498.667 757.965 499.058 757.463 500.042L750.196 514.297L735.941 507.03C734.957 506.528 733.753 506.919 733.251 507.903C732.75 508.887 733.141 510.092 734.125 510.593L750.161 518.769ZM622.5 358.183L621.5 359.915C682.083 394.892 727.564 451.069 749.167 517.604L751.07 516.987L752.972 516.369C731.063 448.893 684.939 391.922 623.5 356.451L622.5 358.183Z" fill="#9D9D9D"/>
<path d="M338.018 356.251C339.085 356.537 339.718 357.633 339.432 358.7L334.773 376.087C334.487 377.154 333.391 377.787 332.324 377.501C331.257 377.215 330.624 376.119 330.909 375.052L335.051 359.597L319.596 355.456C318.529 355.17 317.896 354.073 318.181 353.006C318.467 351.939 319.564 351.306 320.631 351.592L338.018 356.251ZM337.5 358.183L338.5 359.915C277.917 394.892 232.436 451.069 210.833 517.604L208.93 516.987L207.028 516.369C228.937 448.893 275.061 391.922 336.5 356.451L337.5 358.183Z" fill="#9D9D9D"/>
<circle cx="233" cy="747" r="120" fill="#666666"/>
<path d="M240.246 812H225.754C219.587 812 214.541 806.926 214.541 800.725C214.541 800.341 214.853 800.028 215.234 800.028H250.766C251.147 800.028 251.459 800.341 251.459 800.725C251.459 806.926 246.413 812 240.246 812ZM252.834 798.348H213.166C212.544 798.348 212.04 797.799 212.04 797.121V795.584C212.04 794.906 212.544 794.357 213.166 794.357H252.834C253.456 794.357 253.96 794.906 253.96 795.584V797.121C253.96 797.799 253.456 798.348 252.834 798.348ZM253.999 792.521H212.001C211.343 792.521 210.809 791.971 210.809 791.293V789.757C210.809 789.079 211.343 788.529 212.001 788.529H253.999C254.657 788.529 255.191 789.079 255.191 789.757V791.293C255.191 791.971 254.657 792.521 253.999 792.521ZM254.506 782.781H211.494C210.82 782.781 210.273 783.331 210.273 784.009V785.545C210.273 786.223 210.82 786.773 211.494 786.773H254.506C255.18 786.773 255.727 786.223 255.727 785.545V784.009C255.727 783.331 255.18 782.781 254.506 782.781ZM271.706 707.809C269.595 702.785 266.573 698.271 262.724 694.395C258.875 690.518 254.392 687.472 249.399 685.341C244.23 683.134 238.738 682.01 233.077 682C233.051 682 233.026 682 232.999 682C227.359 682 221.881 683.111 216.716 685.303C214.224 686.361 211.819 687.671 209.569 689.197C207.341 690.708 205.246 692.444 203.341 694.356C201.436 696.268 199.706 698.371 198.2 700.608C196.678 702.868 195.371 705.283 194.314 707.787C192.115 713 191 718.532 191 724.231C191 729.032 191.795 733.743 193.364 738.232C194.88 742.572 197.085 746.616 199.918 750.252C206.148 758.248 209.578 768.174 209.578 778.201V778.446C209.578 779.81 210.683 780.92 212.04 780.92H253.96C255.317 780.92 256.422 779.81 256.422 778.446V778.059C256.422 768.093 259.835 758.239 266.033 750.313C268.881 746.672 271.098 742.62 272.623 738.27C274.2 733.769 275 729.046 275 724.231C275 718.537 273.892 713.012 271.706 707.809Z" fill="white"/>
<path d="M225.754 812H240.246C246.413 812 251.459 806.926 251.459 800.725C251.459 800.341 251.147 800.028 250.766 800.028H215.234C214.853 800.028 214.541 800.341 214.541 800.725C214.541 806.926 219.587 812 225.754 812Z" fill="#D9D9D9"/>
<path d="M213.166 798.348H252.834C253.456 798.348 253.96 797.799 253.96 797.121V795.584C253.96 794.906 253.456 794.357 252.834 794.357H213.166C212.544 794.357 212.04 794.906 212.04 795.584V797.121C212.04 797.799 212.544 798.348 213.166 798.348Z" fill="#D9D9D9"/>
<path d="M212.001 792.521H253.999C254.657 792.521 255.191 791.971 255.191 791.293V789.756C255.191 789.079 254.657 788.529 253.999 788.529H212.001C211.343 788.529 210.809 789.079 210.809 789.756V791.293C210.809 791.971 211.343 792.521 212.001 792.521Z" fill="#D9D9D9"/>
<path d="M211.494 782.781H254.506C255.18 782.781 255.727 783.331 255.727 784.009V785.545C255.727 786.223 255.18 786.773 254.506 786.773H211.494C210.82 786.773 210.273 786.223 210.273 785.545V784.009C210.273 783.331 210.82 782.781 211.494 782.781Z" fill="#D9D9D9"/>
<circle cx="727" cy="747" r="120" fill="#666666"/>
<path d="M740.041 683C741.698 683 743.041 684.343 743.041 686C743.041 687.657 741.698 689 740.041 689H738.041V712.99L771.834 805.123C772.791 807.733 770.859 810.5 768.079 810.5H686.003C683.223 810.5 681.291 807.733 682.248 805.123L716.041 712.988V689H714.041C712.384 689 711.041 687.657 711.041 686C711.041 684.343 712.384 683 714.041 683H740.041Z" fill="white"/>
<path d="M698.182 772.573C700.216 772.573 703.059 772.573 706.293 772.573H757.766L761.508 782.779L769.956 805.812C770.435 807.117 769.469 808.5 768.079 808.5H686.003L685.874 808.496C684.554 808.414 683.662 807.076 684.126 805.812L692.574 782.778L696.316 772.573C696.82 772.573 697.449 772.572 698.182 772.573Z" fill="#D9D9D9" stroke="white" stroke-width="4"/>
<circle cx="480" cy="320" r="120" fill="#666666"/>
<path d="M519.33 256.631L537.836 275.204C538.452 275.822 538.452 276.834 537.836 277.452L536.268 279.026L543.519 286.303L544.891 284.926C545.507 284.308 546.515 284.308 547.131 284.926L556.538 294.395C557.154 295.014 557.154 296.025 556.538 296.643L540.608 312.631C539.992 313.25 538.984 313.25 538.368 312.631L528.933 303.162C528.317 302.544 528.317 301.533 528.933 300.914L531.817 298.02L524.565 290.743L521.682 293.637C521.066 294.255 520.058 294.255 519.442 293.637L515.438 289.619L486.853 319.235C488.029 320.415 488.029 322.325 486.853 323.506L431.867 378.663C431.419 379.112 430.719 379.112 430.271 378.663C424.755 375.741 420.248 371.217 417.336 365.681C416.888 365.232 416.888 364.529 417.336 364.08L472.322 308.922C473.498 307.742 475.402 307.742 476.578 308.922L506.087 280.234L502.083 276.216C501.468 275.598 501.468 274.586 502.083 273.968C505.471 270.568 505.947 265.229 503.203 261.296C496.288 251.461 485.705 246.74 481.338 245.139C480.75 244.914 480.806 244.071 481.422 243.931C502.671 238.789 519.33 256.631 519.33 256.631Z" fill="white"/>
<path d="M486.853 323.506C488.029 322.325 488.029 320.415 486.853 319.235L476.578 308.922C475.402 307.742 473.498 307.742 472.322 308.922L417.336 364.08C416.888 364.529 416.888 365.232 417.336 365.681C420.248 371.217 424.755 375.741 430.271 378.663C430.719 379.112 431.419 379.112 431.867 378.663L486.853 323.506Z" fill="#D9D9D9"/>
<path d="M450.419 476.2C454.099 476.76 456.259 479.24 456.259 483C456.259 487.48 453.099 491 446.619 491H433.299V462.6H446.099C452.579 462.6 455.539 465.76 455.539 469.92C455.539 472.88 453.739 475.32 450.419 476.2ZM444.299 467.36H440.059V474.28H444.299C447.339 474.28 448.499 472.72 448.499 470.8C448.499 468.8 447.219 467.36 444.299 467.36ZM444.739 486.24C447.819 486.24 449.219 484.6 449.219 482.44C449.219 480.24 447.739 478.76 444.899 478.76H440.059V486.24H444.739ZM466.246 491.48C461.526 491.48 459.526 488.64 459.526 483.96V471H465.926V482.84C465.926 485.32 466.926 486.6 468.806 486.6C470.886 486.6 472.166 484.96 472.166 482.44V471H478.606V491H472.486V487.36C471.526 489.88 469.166 491.48 466.246 491.48ZM483.467 468.12V462.28H490.147V468.12H483.467ZM483.547 491V471H489.987V491H483.547ZM501.584 462V491H495.144V462H501.584ZM513.332 491.48C508.532 491.48 505.332 487.32 505.332 481.08C505.332 474.72 508.692 470.52 513.692 470.52C516.332 470.52 518.332 471.6 519.332 473.68V462H525.732V491H519.652V487.56C518.652 489.96 516.252 491.48 513.332 491.48ZM515.852 487.04C518.052 487.04 519.412 485.08 519.412 481.96V480.24C519.412 476.84 518.052 474.96 515.772 474.96C513.332 474.96 511.932 477.12 511.932 480.96C511.932 484.72 513.412 487.04 515.852 487.04ZM439.08 531.48C435 531.48 432.32 529.16 432.32 525.6C432.32 523.6 433.32 521.88 435.12 520.88C436.64 520.12 438.56 519.64 441.84 519.24L445.56 518.8V518.48C445.56 514.8 444.24 513.32 441.16 513.32C438.44 513.32 436.76 514.76 436.6 517.28H432.96C433.24 513.2 436.44 510.52 441.12 510.52C446.6 510.52 449 513 449 518.84V524.24C449 527.32 449.2 529.44 449.68 531H446.12C445.96 529.96 445.84 528.64 445.8 527.36C444.88 529.92 442.36 531.48 439.08 531.48ZM439.84 528.68C443.32 528.68 445.6 526.16 445.6 522.28V521.28L440.16 522.08C437.2 522.52 435.92 523.56 435.92 525.52C435.92 527.48 437.4 528.68 439.84 528.68ZM461.882 513.8V511H465.602V505.76L469.002 504.32V511H474.002V513.8H469.002V524.88C469.002 527.16 469.882 528.16 471.922 528.16C472.802 528.16 473.322 528.04 474.002 527.88V531C473.122 531.24 472.322 531.36 471.042 531.36C466.722 531.36 465.602 528.72 465.602 525V513.8H461.882ZM493.602 519.6V522H479.402C479.442 525.92 481.802 528.48 485.362 528.48C487.922 528.48 489.802 527.12 490.682 524.68L493.482 525.92C492.082 529.56 489.162 531.48 485.122 531.48C479.402 531.48 476.002 527.84 476.002 521.24C476.002 514.56 479.362 510.52 485.082 510.52C490.482 510.52 493.602 513.6 493.602 519.6ZM490.162 519.24V518.8C490.162 515.12 488.282 513.2 485.002 513.2C481.482 513.2 479.482 515.48 479.402 519.24H490.162ZM505.449 531.48C500.689 531.48 497.529 529.12 496.809 524.84L500.249 524.24C500.769 527.16 502.649 528.68 505.609 528.68C508.289 528.68 509.769 527.56 509.769 525.68C509.769 523.68 508.729 522.8 506.569 522.56L503.329 522.2C499.369 521.76 497.489 519.52 497.489 516.44C497.489 512.8 500.369 510.52 505.089 510.52C509.649 510.52 512.729 512.92 513.169 516.6L509.809 517.36C509.369 514.96 507.729 513.28 505.009 513.28C502.369 513.28 500.809 514.36 500.809 516.28C500.809 518 501.929 519.04 504.409 519.32L507.609 519.68C511.569 520.12 513.129 522.2 513.129 525.36C513.129 529.16 510.329 531.48 505.449 531.48ZM514.979 513.8V511H518.699V505.76L522.099 504.32V511H527.099V513.8H522.099V524.88C522.099 527.16 522.979 528.16 525.019 528.16C525.899 528.16 526.419 528.04 527.099 527.88V531C526.219 531.24 525.419 531.36 524.139 531.36C519.819 531.36 518.699 528.72 518.699 525V513.8H514.979Z" fill="#333333"/>
<path d="M182.119 562V533.6H188.879V556.52H200.399V562H182.119ZM221.872 551.52V553.44H207.992C208.032 556.16 209.912 557.88 212.592 557.88C214.552 557.88 216.032 556.92 216.952 555.08L221.672 557.24C220.072 560.52 216.672 562.48 212.512 562.48C205.912 562.48 201.912 558.68 201.912 552.2C201.912 545.64 205.832 541.52 212.072 541.52C218.352 541.52 221.872 545.16 221.872 551.52ZM215.672 549.84V549.68C215.672 546.84 214.352 545.32 211.952 545.32C209.472 545.32 208.072 547 207.992 549.84H215.672ZM230.772 562.48C226.652 562.48 223.892 560.12 223.892 556.56C223.892 554.68 224.572 553.2 225.932 552.24C227.252 551.32 229.172 550.68 232.212 550.28L237.052 549.6V548.92C237.052 546.64 236.092 545.64 234.092 545.64C232.132 545.64 231.012 546.68 230.892 548.6H224.532C224.852 544.16 228.452 541.52 234.132 541.52C240.572 541.52 243.452 544.04 243.452 549.8V556.44C243.452 558.8 243.652 560.76 244.012 562H237.772C237.572 561.04 237.492 559.96 237.452 558.84C236.452 561.08 233.892 562.48 230.772 562.48ZM233.172 558.4C235.612 558.4 237.252 556.76 237.252 554.36V552.76L233.812 553.32C231.452 553.76 230.372 554.6 230.372 556.08C230.372 557.48 231.492 558.4 233.172 558.4ZM254.101 547.16C255.141 543.56 257.341 541.52 260.781 541.52H261.181V547.64C260.781 547.6 260.461 547.6 259.981 547.6C258.261 547.6 256.981 548.04 256.101 548.8C254.821 550 254.501 551.8 254.501 553.84V562H248.061V542H254.101V547.16ZM264.146 562V542H270.306V545.84C271.706 542.92 273.906 541.48 276.946 541.48C281.266 541.48 283.466 544.24 283.466 549.6V562H277.066V550.48C277.066 547.72 276.106 546.4 274.066 546.4C271.826 546.4 270.586 548.12 270.586 551.2V562H264.146ZM146.4 602.48C142.32 602.48 139.64 600.16 139.64 596.6C139.64 594.6 140.64 592.88 142.44 591.88C143.96 591.12 145.88 590.64 149.16 590.24L152.88 589.8V589.48C152.88 585.8 151.56 584.32 148.48 584.32C145.76 584.32 144.08 585.76 143.92 588.28H140.28C140.56 584.2 143.76 581.52 148.44 581.52C153.92 581.52 156.32 584 156.32 589.84V595.24C156.32 598.32 156.52 600.44 157 602H153.44C153.28 600.96 153.16 599.64 153.12 598.36C152.2 600.92 149.68 602.48 146.4 602.48ZM147.16 599.68C150.64 599.68 152.92 597.16 152.92 593.28V592.28L147.48 593.08C144.52 593.52 143.24 594.56 143.24 596.52C143.24 598.48 144.72 599.68 147.16 599.68ZM162.602 602V582H165.802V585.96C167.122 582.92 169.322 581.44 172.482 581.44C176.882 581.44 179.162 584.2 179.162 589.56V602H175.762V589.76C175.762 586.24 174.282 584.44 171.362 584.44C168.042 584.44 166.002 587.12 166.002 591.56V602H162.602ZM191.686 602.48C186.846 602.48 183.566 598.28 183.566 592C183.566 585.84 187.086 581.52 192.086 581.52C194.726 581.52 196.686 582.6 197.966 584.96V573H201.366V602H198.166V598.28C196.966 600.96 194.806 602.48 191.686 602.48ZM192.606 599.48C195.926 599.48 198.046 596.76 198.046 592.48V591.56C198.046 587.2 195.966 584.52 192.606 584.52C189.206 584.52 187.166 587.28 187.166 592C187.166 596.68 189.206 599.48 192.606 599.48ZM218.115 578.28V574H221.995V578.28H218.115ZM218.355 602V582H221.755V602H218.355ZM225.541 584.8V582H229.261V576.76L232.661 575.32V582H237.661V584.8H232.661V595.88C232.661 598.16 233.541 599.16 235.581 599.16C236.461 599.16 236.981 599.04 237.661 598.88V602C236.781 602.24 235.981 602.36 234.701 602.36C230.381 602.36 229.261 599.72 229.261 596V584.8H225.541ZM257.262 590.6V593H243.062C243.102 596.92 245.462 599.48 249.022 599.48C251.582 599.48 253.462 598.12 254.342 595.68L257.142 596.92C255.742 600.56 252.822 602.48 248.782 602.48C243.062 602.48 239.662 598.84 239.662 592.24C239.662 585.56 243.022 581.52 248.742 581.52C254.142 581.52 257.262 584.6 257.262 590.6ZM253.822 590.24V589.8C253.822 586.12 251.942 584.2 248.662 584.2C245.142 584.2 243.142 586.48 243.062 590.24H253.822ZM265.628 586.56C266.588 583.76 268.668 581.52 271.708 581.52C271.948 581.52 272.188 581.52 272.428 581.56V584.88H272.268C270.188 584.88 268.828 585.48 267.868 586.44C265.948 588.36 265.868 591.04 265.868 593.44V602H262.468V582H265.628V586.56ZM281.012 602.48C276.932 602.48 274.252 600.16 274.252 596.6C274.252 594.6 275.252 592.88 277.052 591.88C278.572 591.12 280.492 590.64 283.772 590.24L287.492 589.8V589.48C287.492 585.8 286.172 584.32 283.092 584.32C280.372 584.32 278.692 585.76 278.532 588.28H274.892C275.172 584.2 278.372 581.52 283.052 581.52C288.532 581.52 290.932 584 290.932 589.84V595.24C290.932 598.32 291.132 600.44 291.612 602H288.052C287.892 600.96 287.772 599.64 287.732 598.36C286.812 600.92 284.292 602.48 281.012 602.48ZM281.772 599.68C285.252 599.68 287.532 597.16 287.532 593.28V592.28L282.092 593.08C279.132 593.52 277.852 594.56 277.852 596.52C277.852 598.48 279.332 599.68 281.772 599.68ZM293.434 584.8V582H297.154V576.76L300.554 575.32V582H305.554V584.8H300.554V595.88C300.554 598.16 301.434 599.16 303.474 599.16C304.354 599.16 304.874 599.04 305.554 598.88V602C304.674 602.24 303.874 602.36 302.594 602.36C298.274 602.36 297.154 599.72 297.154 596V584.8H293.434ZM325.154 590.6V593H310.954C310.994 596.92 313.354 599.48 316.914 599.48C319.474 599.48 321.354 598.12 322.234 595.68L325.034 596.92C323.634 600.56 320.714 602.48 316.674 602.48C310.954 602.48 307.554 598.84 307.554 592.24C307.554 585.56 310.914 581.52 316.634 581.52C322.034 581.52 325.154 584.6 325.154 590.6ZM321.714 590.24V589.8C321.714 586.12 319.834 584.2 316.554 584.2C313.034 584.2 311.034 586.48 310.954 590.24H321.714Z" fill="#333333"/>
<path d="M648.277 566V537.6H657.557L662.797 555C663.197 556.36 663.357 557.44 663.477 558.44H663.557C663.677 557.44 663.877 556.32 664.277 554.92L669.277 537.6H678.677V566H672.517V546.64C672.517 545.56 672.557 544.52 672.677 543.44H672.557C672.477 544.24 672.197 545.44 671.957 546.2L666.237 566H660.557L654.597 546.2C654.317 545.44 654.077 544.24 653.997 543.48H653.877C653.957 544.44 654.037 545.52 654.037 546.64V566H648.277ZM702.365 555.52V557.44H688.485C688.525 560.16 690.405 561.88 693.085 561.88C695.045 561.88 696.525 560.92 697.445 559.08L702.165 561.24C700.565 564.52 697.165 566.48 693.005 566.48C686.405 566.48 682.405 562.68 682.405 556.2C682.405 549.64 686.325 545.52 692.565 545.52C698.845 545.52 702.365 549.16 702.365 555.52ZM696.165 553.84V553.68C696.165 550.84 694.845 549.32 692.445 549.32C689.965 549.32 688.565 551 688.485 553.84H696.165ZM711.265 566.48C707.145 566.48 704.385 564.12 704.385 560.56C704.385 558.68 705.065 557.2 706.425 556.24C707.745 555.32 709.665 554.68 712.705 554.28L717.545 553.6V552.92C717.545 550.64 716.585 549.64 714.585 549.64C712.625 549.64 711.505 550.68 711.385 552.6H705.025C705.345 548.16 708.945 545.52 714.625 545.52C721.065 545.52 723.945 548.04 723.945 553.8V560.44C723.945 562.8 724.145 564.76 724.505 566H718.265C718.065 565.04 717.985 563.96 717.945 562.84C716.945 565.08 714.385 566.48 711.265 566.48ZM713.665 562.4C716.105 562.4 717.745 560.76 717.745 558.36V556.76L714.305 557.32C711.945 557.76 710.865 558.6 710.865 560.08C710.865 561.48 711.985 562.4 713.665 562.4ZM736.355 566.48C731.955 566.48 728.355 564.84 726.435 561.68L730.155 558.88C731.555 561.04 733.715 562.12 736.475 562.12C738.555 562.12 739.595 561.48 739.595 560.36C739.595 559.16 738.955 558.72 736.755 558.4L733.875 558C729.555 557.36 727.515 555.24 727.515 551.84C727.515 547.96 730.795 545.52 736.315 545.52C740.355 545.52 743.755 547 745.395 549.48L742.075 552.48C740.595 550.8 738.595 549.8 736.115 549.8C734.195 549.8 733.315 550.32 733.315 551.44C733.315 552.4 733.915 552.92 735.675 553.16L739.235 553.72C743.515 554.32 745.195 556.44 745.195 559.88C745.195 563.96 741.955 566.48 736.355 566.48ZM754.828 566.48C750.108 566.48 748.108 563.64 748.108 558.96V546H754.508V557.84C754.508 560.32 755.508 561.6 757.388 561.6C759.468 561.6 760.748 559.96 760.748 557.44V546H767.188V566H761.068V562.36C760.108 564.88 757.748 566.48 754.828 566.48ZM778.17 551.16C779.21 547.56 781.41 545.52 784.85 545.52H785.25V551.64C784.85 551.6 784.53 551.6 784.05 551.6C782.33 551.6 781.05 552.04 780.17 552.8C778.89 554 778.57 555.8 778.57 557.84V566H772.13V546H778.17V551.16ZM806.342 555.52V557.44H792.462C792.502 560.16 794.382 561.88 797.062 561.88C799.022 561.88 800.502 560.92 801.422 559.08L806.142 561.24C804.542 564.52 801.142 566.48 796.982 566.48C790.382 566.48 786.382 562.68 786.382 556.2C786.382 549.64 790.302 545.52 796.542 545.52C802.822 545.52 806.342 549.16 806.342 555.52ZM800.142 553.84V553.68C800.142 550.84 798.822 549.32 796.422 549.32C793.942 549.32 792.542 551 792.462 553.84H800.142ZM631.899 582.28V578H635.779V582.28H631.899ZM632.139 606V586H635.539V606H632.139ZM639.325 588.8V586H643.045V580.76L646.445 579.32V586H651.445V588.8H646.445V599.88C646.445 602.16 647.325 603.16 649.365 603.16C650.245 603.16 650.765 603.04 651.445 602.88V606C650.565 606.24 649.765 606.36 648.485 606.36C644.165 606.36 643.045 603.72 643.045 600V588.8H639.325ZM662.471 606.48C657.711 606.48 654.551 604.12 653.831 599.84L657.271 599.24C657.791 602.16 659.671 603.68 662.631 603.68C665.311 603.68 666.791 602.56 666.791 600.68C666.791 598.68 665.751 597.8 663.591 597.56L660.351 597.2C656.391 596.76 654.511 594.52 654.511 591.44C654.511 587.8 657.391 585.52 662.111 585.52C666.671 585.52 669.751 587.92 670.191 591.6L666.831 592.36C666.391 589.96 664.751 588.28 662.031 588.28C659.391 588.28 657.831 589.36 657.831 591.28C657.831 593 658.951 594.04 661.431 594.32L664.631 594.68C668.591 595.12 670.151 597.2 670.151 600.36C670.151 604.16 667.351 606.48 662.471 606.48ZM691.827 606.48C687.067 606.48 683.907 604.12 683.187 599.84L686.627 599.24C687.147 602.16 689.027 603.68 691.987 603.68C694.667 603.68 696.147 602.56 696.147 600.68C696.147 598.68 695.107 597.8 692.947 597.56L689.707 597.2C685.747 596.76 683.867 594.52 683.867 591.44C683.867 587.8 686.747 585.52 691.467 585.52C696.027 585.52 699.107 587.92 699.547 591.6L696.187 592.36C695.747 589.96 694.107 588.28 691.387 588.28C688.747 588.28 687.187 589.36 687.187 591.28C687.187 593 688.307 594.04 690.787 594.32L693.987 594.68C697.947 595.12 699.507 597.2 699.507 600.36C699.507 604.16 696.707 606.48 691.827 606.48ZM710.793 606.48C705.753 606.48 703.953 603.44 703.953 598.76V586H707.353V598.36C707.353 601.72 708.793 603.56 711.433 603.56C714.633 603.56 716.793 600.84 716.793 596.76V586H720.193V606H716.993V602.24C716.073 604.68 713.593 606.48 710.793 606.48ZM734.405 606.48C728.805 606.48 725.205 602.4 725.205 596C725.205 589.48 728.725 585.52 734.405 585.52C739.085 585.52 742.125 588.2 742.645 592.8L739.165 593.2C738.805 590.16 737.045 588.48 734.325 588.48C730.885 588.48 728.805 591.28 728.805 595.96C728.805 600.76 730.885 603.52 734.445 603.52C737.165 603.52 738.845 601.88 739.365 598.76L742.605 599.28C741.885 603.84 738.885 606.48 734.405 606.48ZM755.059 606.48C749.459 606.48 745.859 602.4 745.859 596C745.859 589.48 749.379 585.52 755.059 585.52C759.739 585.52 762.779 588.2 763.299 592.8L759.819 593.2C759.459 590.16 757.699 588.48 754.979 588.48C751.539 588.48 749.459 591.28 749.459 595.96C749.459 600.76 751.539 603.52 755.099 603.52C757.819 603.52 759.499 601.88 760.019 598.76L763.259 599.28C762.539 603.84 759.539 606.48 755.059 606.48ZM784.114 594.6V597H769.914C769.954 600.92 772.314 603.48 775.874 603.48C778.434 603.48 780.314 602.12 781.194 599.68L783.994 600.92C782.594 604.56 779.674 606.48 775.634 606.48C769.914 606.48 766.514 602.84 766.514 596.24C766.514 589.56 769.874 585.52 775.594 585.52C780.994 585.52 784.114 588.6 784.114 594.6ZM780.674 594.24V593.8C780.674 590.12 778.794 588.2 775.514 588.2C771.994 588.2 769.994 590.48 769.914 594.24H780.674ZM795.96 606.48C791.2 606.48 788.04 604.12 787.32 599.84L790.76 599.24C791.28 602.16 793.16 603.68 796.12 603.68C798.8 603.68 800.28 602.56 800.28 600.68C800.28 598.68 799.24 597.8 797.08 597.56L793.84 597.2C789.88 596.76 788 594.52 788 591.44C788 587.8 790.88 585.52 795.6 585.52C800.16 585.52 803.24 587.92 803.68 591.6L800.32 592.36C799.88 589.96 798.24 588.28 795.52 588.28C792.88 588.28 791.32 589.36 791.32 591.28C791.32 593 792.44 594.04 794.92 594.32L798.12 594.68C802.08 595.12 803.64 597.2 803.64 600.36C803.64 604.16 800.84 606.48 795.96 606.48ZM814.935 606.48C810.175 606.48 807.015 604.12 806.295 599.84L809.735 599.24C810.255 602.16 812.135 603.68 815.095 603.68C817.775 603.68 819.255 602.56 819.255 600.68C819.255 598.68 818.215 597.8 816.055 597.56L812.815 597.2C808.855 596.76 806.975 594.52 806.975 591.44C806.975 587.8 809.855 585.52 814.575 585.52C819.135 585.52 822.215 587.92 822.655 591.6L819.295 592.36C818.855 589.96 817.215 588.28 814.495 588.28C811.855 588.28 810.295 589.36 810.295 591.28C810.295 593 811.415 594.04 813.895 594.32L817.095 594.68C821.055 595.12 822.615 597.2 822.615 600.36C822.615 604.16 819.815 606.48 814.935 606.48Z" fill="#333333"/>
<path d="M44.97 31.67C46.38 31.73 47.58 32.15 48.54 32.96C49.53 33.77 50.01 34.85 50.01 36.23C50.01 37.55 49.47 38.84 48.42 40.1C47.37 41.33 46.05 42.38 44.52 43.19C41.49 44.84 37.98 45.89 35.55 45.89C34.14 45.89 33.18 45.59 32.7 45.02C32.25 44.45 32.01 43.4 32.01 41.93C32.01 41.3 32.04 40.37 32.13 39.14C32.22 37.91 32.25 36.95 32.25 36.32V34.4C32.25 32.6 32.19 31.28 32.1 30.44C32.07 30.2 31.92 29.21 31.89 28.85C31.89 28.22 31.83 27.26 32.01 26.63C32.28 25.73 33.42 24.98 35.43 24.38C37.47 23.75 39.12 23.45 40.41 23.45C41.34 23.45 42.24 23.6 43.11 23.87C44.88 24.38 46.47 25.79 46.47 27.71C46.47 28.94 45.96 30.26 44.97 31.67ZM43.17 36.47C42.18 36.47 40.95 36.62 39.48 36.89C38.04 37.16 36.93 37.52 36.12 37.91V41.09C40.47 40.31 43.41 39.44 44.97 38.48C45.75 37.97 46.14 37.58 46.14 37.37C46.05 37.04 45.66 36.83 44.97 36.68C44.28 36.53 43.68 36.47 43.17 36.47ZM40.11 28.7C38.1 28.7 36.57 29.09 35.49 29.87L35.7 32.66C36.75 32.39 38.1 31.91 39.69 31.19C41.31 30.44 42.18 29.78 42.33 29.15C41.82 28.85 41.07 28.7 40.11 28.7ZM63.7188 42.35C60.1788 44.3 57.3888 45.26 55.3188 45.26C54.2688 45.26 53.5488 45.08 53.1588 44.72C52.8588 44.45 52.6188 43.55 52.4688 42.02C52.3188 40.49 52.2588 39.2 52.2588 38.15C52.2588 36.92 52.4088 34.79 52.7388 31.7C53.0688 28.61 53.3988 26.81 53.7288 26.33C54.0588 25.88 54.4188 25.67 54.8388 25.67C55.2888 25.67 55.7388 25.94 56.2188 26.45C56.7288 26.96 56.9688 27.41 56.9688 27.83C56.9688 28.64 56.8788 29.84 56.6688 31.4C56.4588 32.96 56.3688 34.13 56.3688 34.91V39.77C57.6588 39.65 59.3388 39.05 60.3288 38.54C60.8388 38.27 61.5288 37.94 62.3388 37.49C63.1788 37.04 63.7788 36.74 64.1688 36.56C64.2288 36.05 64.2588 35.51 64.2588 34.97C64.2888 34.16 64.3488 32.96 64.3788 31.4L64.4988 28.28C64.4988 27.95 64.4688 27.05 64.4688 26.66C64.4688 24.68 65.0688 23.69 66.2388 23.69C67.2888 23.69 67.9788 24.23 68.2488 25.19C68.5788 26.15 68.6088 26.81 68.6088 27.98C68.6088 29.87 68.4588 33.02 68.1288 37.43C67.7988 41.81 67.4988 44.33 67.1988 44.99C66.8988 45.59 66.4788 45.89 65.9088 45.89C65.2788 45.89 64.7688 45.47 64.3488 44.63C63.9288 43.82 63.7188 43.04 63.7188 42.35ZM90.2559 27.14C90.2559 28.07 89.9559 29 89.3859 29.9C88.8159 30.8 88.0959 31.25 87.2259 31.25C86.1459 31.25 85.5159 30.35 85.2759 29.51C85.0359 28.64 84.4659 27.74 83.4759 27.74C82.5159 27.74 81.3159 28.31 79.8759 29.42C78.4659 30.53 77.3259 31.58 76.5159 32.6C77.3859 32.99 78.6759 33.17 80.3559 33.17C81.0459 33.17 82.0359 33.11 83.3859 32.96C84.7359 32.81 85.7259 32.75 86.3859 32.75C87.4359 32.75 88.5159 32.93 89.6259 33.32C90.7959 33.71 91.5759 34.61 91.5759 35.72C91.5759 36.8 91.1559 37.91 90.2859 39.02C89.4459 40.13 88.4559 41.12 87.3459 42.02C86.1159 43.01 84.6459 43.85 82.9359 44.54C81.2559 45.23 79.6659 45.59 78.1659 45.59C77.5659 45.59 76.9959 45.53 76.4559 45.41C75.5859 45.23 74.5659 44.84 73.3659 44.21C72.1659 43.61 71.5659 43.01 71.5659 42.41C71.5659 41.75 71.9559 41.18 72.7059 40.67C73.4559 40.16 74.1759 39.89 74.8659 39.89C75.4959 39.89 76.5759 40.04 78.1659 40.34C79.7559 40.61 80.9859 40.76 81.8559 40.76C82.6059 40.76 83.4159 40.49 84.2859 39.92C85.1559 39.35 85.8759 38.75 86.4459 38.06C86.0559 37.82 85.4259 37.7 84.5559 37.7C84.1059 37.7 83.4159 37.73 82.4859 37.79C81.5859 37.85 80.8959 37.88 80.4459 37.88H78.9759L77.0559 37.79C76.2159 37.73 75.4659 37.64 74.8059 37.49C72.8559 37.13 70.6059 36.41 70.7559 34.97C70.7559 34.07 71.4159 32.75 72.7659 31.04C74.5059 28.88 76.6059 27.02 79.0659 25.46C81.5259 23.9 83.9559 23.12 86.3559 23.12C88.6659 23.12 90.2559 24.83 90.2559 27.14ZM96.5243 24.74C97.4843 24.74 98.1143 25.28 98.3543 26.33C98.5943 27.38 98.6243 27.89 98.6243 28.94C98.6243 29.45 98.5943 30.2 98.5043 31.25C98.4443 32.3 98.4143 33.08 98.4143 33.59C98.4143 34.52 98.4443 35.93 98.5043 37.76C98.5943 39.59 98.6243 41 98.6243 41.93C98.6243 43.28 97.7843 44.72 96.4643 44.72C95.7443 44.72 95.2343 44.15 94.9643 43.01C94.6343 41.72 94.4843 37.55 94.4843 30.44V28.73C94.4843 27.92 94.5743 27.2 94.8143 26.27C95.0843 25.34 95.6843 24.74 96.5243 24.74ZM115.541 35.72C115.571 35.45 115.571 34.64 115.601 33.32L115.661 29.84C115.691 28.85 115.781 27.8 115.901 26.75C116.021 25.67 116.171 24.95 116.351 24.59C116.711 23.81 117.221 23.42 117.881 23.42C119.381 23.45 119.981 25.85 119.921 27.05C119.921 28.16 119.771 29.81 119.501 32C119.231 34.19 119.111 35.84 119.111 36.92C119.111 37.37 119.141 38 119.171 38.84C119.231 39.65 119.261 40.28 119.261 40.7C119.261 42.77 118.631 43.82 117.341 43.82C116.831 43.82 116.261 43.61 115.691 43.19C115.061 42.8 114.131 41.99 112.901 40.82C111.671 39.62 110.321 38.24 108.851 36.68C107.381 35.09 106.451 34.13 106.061 33.74C106.031 34.07 106.001 35.03 105.971 36.65C105.941 38.24 105.911 39.71 105.851 41.06C105.791 42.41 105.701 43.22 105.611 43.52C105.371 44.27 104.711 44.81 103.901 44.81C102.431 44.81 101.921 43.22 101.921 41.45C101.921 39.98 102.041 37.73 102.311 34.76C102.581 31.76 102.731 29.51 102.731 28.04C102.731 26.69 103.571 25.43 104.861 25.43C105.491 25.43 106.031 25.73 106.511 26.33C108.761 29.15 111.761 32.27 115.541 35.72ZM127.01 31.28L126.83 33.08C130.7 32.6 133.4 32.36 134.93 32.36C136.76 32.36 137.66 32.93 137.66 34.07C137.66 34.97 137.27 35.69 136.49 36.23C135.5 36.86 132.23 37.43 126.68 37.91C126.68 38.27 126.59 39.17 126.44 40.61L129.59 40.16C132.44 39.68 134.48 39.44 136.49 39.44C137.6 39.44 138.14 40.01 138.14 41.18C138.14 42.38 137.24 43.31 136.16 43.79C135.62 44.03 134.96 44.24 134.15 44.39C132.59 44.72 131.57 44.78 130.22 44.87C129.98 44.87 129.83 44.9 129.68 44.9C129.29 44.93 128.66 45.05 127.79 45.29C126.92 45.53 126.26 45.65 125.75 45.65C123.5 45.65 122.3 43.79 122.3 41.51C122.3 40.97 122.36 40.19 122.51 39.2C122.66 38.21 122.75 37.52 122.78 37.13L122.96 33.47C123.05 31.61 123.14 30.2 123.23 29.21C123.35 28.22 123.8 27.29 124.58 26.48C125.39 25.67 126.29 25.13 127.28 24.92C130.37 24.23 133.25 23.9 135.86 23.9C136.67 23.9 137.42 24.05 138.11 24.38C138.8 24.68 139.16 25.16 139.16 25.85C139.16 26.45 138.86 27.02 138.26 27.56C137.69 28.07 137.06 28.4 136.43 28.55C135.56 28.73 134.09 28.91 131.99 29.09C129.89 29.24 128.3 29.48 127.19 29.78L127.01 31.28ZM154.506 38.24C154.506 37.88 153.786 37.64 152.856 37.52C151.926 37.4 151.266 37.37 150.786 37.37C150.216 37.37 149.376 37.4 148.236 37.46C147.126 37.52 146.286 37.55 145.716 37.55C142.026 37.55 140.196 36.83 140.196 35.39C140.196 33.95 141.066 32.24 142.776 30.26C144.516 28.28 146.466 26.6 148.626 25.25C150.786 23.87 152.496 23.18 153.756 23.18C155.826 23.18 157.566 24.44 157.566 26.48C157.566 27.29 157.326 28.07 156.846 28.76C156.366 29.45 155.736 29.78 154.956 29.78C154.326 29.78 153.606 29.42 152.826 28.73C152.676 28.46 152.136 28.04 151.896 28.04C151.086 28.04 150.006 28.52 148.626 29.48C147.246 30.44 146.196 31.31 145.476 32.12C145.986 32.27 146.886 32.36 148.206 32.36H149.916C150.666 32.33 151.146 32.33 151.416 32.33C152.976 32.33 154.236 32.42 156.246 32.81C158.286 33.17 159.606 34.16 159.606 35.6C159.606 36.38 159.186 37.4 158.346 38.63C157.116 40.46 155.436 42.17 153.306 43.79C151.176 45.41 149.226 46.22 147.456 46.22C145.326 46.22 140.766 45.08 140.766 42.35C140.766 40.88 141.456 40.13 142.836 40.13C143.586 40.13 144.696 40.28 146.166 40.58C147.636 40.88 148.776 41.03 149.526 41.03C151.416 41.03 153.336 39.83 154.506 38.24ZM175.026 37.7H174.726C174.096 37.7 173.136 37.76 171.906 37.85C170.676 37.94 169.746 37.97 169.116 37.97C168.126 37.97 166.836 37.88 165.156 37.55C163.506 37.22 162.276 36.47 162.276 35.48C162.276 35 162.456 34.43 162.846 33.8C163.236 33.17 163.596 32.63 163.956 32.24C164.346 31.82 164.886 31.25 165.576 30.56L166.806 29.3C168.096 27.95 169.656 26.69 171.516 25.49C173.406 24.26 175.026 23.66 176.406 23.66C178.806 23.66 180.756 24.74 180.756 26.99C180.756 27.8 180.486 28.55 179.916 29.3C179.346 30.02 178.686 30.38 177.906 30.38C177.126 30.38 176.706 30.14 176.316 29.9C176.106 29.78 175.866 29.3 175.746 29.15L175.236 28.13C175.026 28.04 174.846 27.98 174.666 27.98C173.676 27.98 172.476 28.52 171.126 29.6C169.776 30.65 168.696 31.73 167.886 32.78C168.456 33.05 169.356 33.17 170.616 33.17C171.426 33.17 172.686 33.11 174.366 33.02C176.046 32.9 177.306 32.84 178.146 32.84C179.076 32.84 179.976 33.11 180.846 33.62C181.746 34.13 182.196 34.79 182.196 35.66C182.196 36.11 182.076 36.56 181.866 37.07C180.786 39.53 179.046 41.63 176.646 43.34C174.276 45.05 171.786 45.92 169.206 45.92C167.676 45.92 166.266 45.56 165.036 44.84C163.806 44.15 163.176 43.1 163.176 41.69C163.176 40.61 164.166 40.1 165.336 40.1C166.356 40.04 168.366 40.76 169.296 40.97C169.986 41.12 170.946 41.21 172.176 41.21C173.886 41.21 175.596 39.95 176.796 38.3C176.646 37.91 176.046 37.7 175.026 37.7ZM201.584 45.17C198.854 45.17 196.694 44.39 195.044 42.8C193.424 41.21 192.614 39.05 192.614 36.32C192.614 32.72 193.574 29.78 195.524 27.5C197.474 25.22 200.234 24.08 203.744 24.08C208.964 24.08 214.154 27.17 214.154 32.87C214.154 33.62 214.004 34.52 213.734 35.57C213.134 37.97 212.144 39.86 210.764 41.27C209.414 42.65 207.494 43.79 205.064 44.66C204.134 44.99 202.964 45.17 201.584 45.17ZM209.774 34.52C209.774 33.65 209.564 32.72 209.114 31.79C208.694 30.83 208.154 30.11 207.464 29.63C206.414 28.88 204.854 28.49 202.844 28.49C200.714 28.94 199.154 29.6 198.164 30.44C197.204 31.28 196.724 32.72 196.724 34.76C196.724 36.53 197.384 37.91 198.734 38.96C200.084 40.01 201.644 40.52 203.444 40.52C205.304 40.52 206.834 39.98 208.004 38.9C209.174 37.79 209.774 36.35 209.774 34.52ZM227.791 42.35C224.251 44.3 221.461 45.26 219.391 45.26C218.341 45.26 217.621 45.08 217.231 44.72C216.931 44.45 216.691 43.55 216.541 42.02C216.391 40.49 216.331 39.2 216.331 38.15C216.331 36.92 216.481 34.79 216.811 31.7C217.141 28.61 217.471 26.81 217.801 26.33C218.131 25.88 218.491 25.67 218.911 25.67C219.361 25.67 219.811 25.94 220.291 26.45C220.801 26.96 221.041 27.41 221.041 27.83C221.041 28.64 220.951 29.84 220.741 31.4C220.531 32.96 220.441 34.13 220.441 34.91V39.77C221.731 39.65 223.411 39.05 224.401 38.54C224.911 38.27 225.601 37.94 226.411 37.49C227.251 37.04 227.851 36.74 228.241 36.56C228.301 36.05 228.331 35.51 228.331 34.97C228.361 34.16 228.421 32.96 228.451 31.4L228.571 28.28C228.571 27.95 228.541 27.05 228.541 26.66C228.541 24.68 229.141 23.69 230.311 23.69C231.361 23.69 232.051 24.23 232.321 25.19C232.651 26.15 232.681 26.81 232.681 27.98C232.681 29.87 232.531 33.02 232.201 37.43C231.871 41.81 231.571 44.33 231.271 44.99C230.971 45.59 230.551 45.89 229.981 45.89C229.351 45.89 228.841 45.47 228.421 44.63C228.001 43.82 227.791 43.04 227.791 42.35ZM253.518 42.68C253.518 43.88 252.198 44.39 250.878 44.39C250.068 44.39 248.118 43.25 244.998 41C244.608 40.7 244.158 40.43 243.678 40.16C243.228 39.89 242.598 39.59 241.848 39.23L240.468 38.54C240.678 40.61 240.798 41.99 240.798 42.74C240.798 44.15 240.018 45.47 238.698 45.47C237.828 45.47 237.258 44.72 236.958 43.25C236.748 42.08 236.598 40.82 236.478 39.47L236.208 34.91C236.118 33.23 236.058 31.94 235.968 31.04C235.938 30.71 235.878 30.14 235.728 29.27C235.608 28.4 235.548 27.71 235.548 27.23C235.548 26.42 236.208 25.67 237.528 24.95C238.878 24.2 240.048 23.75 241.098 23.57C242.568 23.3 243.918 23.18 245.178 23.18C246.618 23.18 247.788 23.39 248.688 23.84C249.588 24.29 250.368 24.98 250.998 25.94C251.628 26.87 251.958 27.83 251.958 28.79C251.958 31.37 250.098 33.65 246.378 35.63C247.668 36.35 248.988 37.31 250.668 38.66C252.348 39.98 253.518 41.51 253.518 42.68ZM248.298 29.21C248.298 28.91 247.968 28.7 247.308 28.58C246.648 28.43 246.048 28.37 245.478 28.37C243.228 28.37 241.248 28.79 239.538 29.6L239.958 33.68C241.368 33.53 243.018 33.17 244.938 32.48C246.858 31.79 248.298 30.62 248.298 29.21ZM267.649 37.7H267.349C266.719 37.7 265.789 37.76 264.559 37.85C263.329 37.94 262.369 37.97 261.739 37.97C260.749 37.97 259.459 37.88 257.809 37.55C256.159 37.22 254.929 36.47 254.929 35.48C254.929 35 255.109 34.43 255.499 33.8C255.889 33.17 256.249 32.63 256.609 32.24C256.999 31.82 257.539 31.25 258.229 30.56L259.459 29.3C260.749 27.95 262.309 26.69 264.169 25.49C266.059 24.26 267.679 23.66 269.059 23.66C270.229 23.66 271.249 23.93 272.089 24.5C272.959 25.04 273.379 25.88 273.379 26.99C273.379 27.8 273.109 28.55 272.539 29.3C271.969 30.02 271.309 30.38 270.559 30.38C269.599 30.38 269.179 30.17 268.789 29.72L268.459 29.3C268.429 29.21 268.309 29.03 268.159 28.73L267.889 28.13C267.649 28.04 267.469 27.98 267.319 27.98C266.299 27.98 265.129 28.52 263.779 29.6C262.429 30.65 261.349 31.73 260.539 32.78C261.109 33.05 262.009 33.17 263.269 33.17C264.079 33.17 265.339 33.11 267.019 33.02C268.699 32.9 269.959 32.84 270.799 32.84C271.729 32.84 272.629 33.11 273.499 33.62C274.399 34.13 274.849 34.79 274.849 35.66C274.849 36.02 274.729 36.5 274.519 37.07C273.409 39.53 271.669 41.63 269.269 43.34C266.899 45.05 264.409 45.92 261.859 45.92C260.329 45.92 258.919 45.56 257.689 44.84C256.459 44.15 255.829 43.1 255.829 41.69C255.829 40.61 256.819 40.1 257.989 40.1C258.499 40.1 259.279 40.25 260.299 40.52L261.949 40.97C262.639 41.12 263.599 41.21 264.829 41.21C266.479 41.21 268.009 40.25 269.419 38.3C269.269 37.91 268.669 37.7 267.649 37.7ZM280.874 25.91C280.844 26.63 280.814 27.68 280.814 29.06C280.814 29.45 280.874 30.35 280.874 30.71C280.874 31.46 280.574 32.36 279.974 32.36C279.404 32.36 279.134 31.79 279.134 30.68C279.134 30.17 279.164 29.42 279.194 28.43C279.224 27.44 279.254 26.69 279.254 26.21C278.594 26.33 277.934 26.39 277.274 26.39C276.764 26.39 276.104 26.21 276.104 25.76C276.104 25.37 276.314 25.04 276.734 24.74C276.944 24.56 277.244 24.44 277.574 24.41C278.744 24.29 279.674 24.17 280.334 24.08C280.544 24.05 280.904 23.99 281.444 23.87C282.014 23.75 282.434 23.69 282.704 23.69C283.154 23.69 283.394 23.87 283.394 24.23C283.394 24.62 283.184 25.28 282.854 25.43C282.434 25.7 281.774 25.85 280.874 25.91ZM289.394 26.75C288.884 27.62 288.554 28.43 288.344 29.15C288.314 29.18 288.284 29.42 288.194 29.84C288.104 30.23 288.044 30.53 287.954 30.74C287.774 31.37 287.294 32.48 286.574 32.33C286.304 32.33 286.094 32.21 285.944 32C285.854 31.82 285.734 31.28 285.584 30.35C285.434 29.63 285.224 28.88 284.924 28.13L284.624 29.36C284.294 30.77 283.964 32.12 283.874 32.27C283.724 32.48 283.544 32.6 283.274 32.6C282.794 32.6 282.464 32.06 282.464 31.58C282.464 31.43 282.584 30.86 282.854 29.87C283.574 26.75 284.234 24.86 284.834 24.23C284.954 24.02 285.134 23.9 285.344 23.9C285.674 23.9 285.944 24.17 286.154 24.74L286.394 25.43C286.514 25.82 286.664 26.66 286.664 26.75C286.694 26.96 286.844 27.44 287.084 28.16C287.294 27.71 287.714 26.69 287.954 26.21C288.194 25.7 288.614 24.92 289.064 24.35C289.334 24.08 289.754 23.45 290.144 23.45C290.684 23.45 291.164 24.41 291.554 26.3C291.944 28.19 292.154 29.57 292.154 30.47C292.154 31.1 291.794 32 291.224 32C290.834 32 290.504 31.67 290.264 30.98C290.024 30.29 289.844 29.45 289.694 28.46C289.544 27.47 289.454 26.9 289.394 26.75ZM321.46 29.03C321.46 30.38 320.98 31.7 320.02 32.99C319.06 34.25 317.86 35.3 316.45 36.14C313.6 37.82 310.36 38.93 307.81 39.14C307.81 39.23 307.78 39.53 307.75 40.04C307.72 41 307.63 41.36 307.48 42.35C307.36 43.34 307.09 43.85 306.73 44.48C306.37 45.17 305.77 45.47 305.05 45.47C304.6 45.47 304.21 45.2 303.91 44.63C303.61 44.09 303.46 43.58 303.46 43.07C303.46 42.8 303.55 42.32 303.73 41.6C303.94 40.85 304.03 39.89 304.03 38.69C304.06 37.82 304.06 36.47 304.06 34.67V32.36C304.06 31.97 304.03 31.43 303.97 30.68C303.91 29.93 303.88 29.36 303.88 28.97C303.88 27.68 304.15 26.93 305.11 26.33C306.34 25.58 307.81 24.98 309.55 24.56C311.32 24.11 312.97 23.9 314.53 23.9C319.15 23.9 321.46 25.61 321.46 29.03ZM317.23 29.78C316.81 29.24 315.88 28.97 314.44 28.97C312.61 28.97 310.36 29.39 307.66 30.26C307.81 31.76 307.9 33.17 307.9 34.49C309.49 34.34 311.26 34.01 313.3 33.32C315.34 32.6 316.96 31.34 317.23 29.78ZM335.054 39.2C337.694 39.2 339.014 40.07 339.014 41.84C339.014 43.07 337.724 43.88 336.374 44.09C335.864 44.18 335.114 44.27 334.124 44.36C333.164 44.45 332.534 44.54 332.234 44.57C331.934 44.6 331.064 44.75 329.594 44.99C328.124 45.26 327.224 45.38 326.834 45.38C324.704 45.38 323.624 44.42 323.624 42.53C323.624 41.96 323.654 41.09 323.744 39.92C323.834 38.75 323.864 37.88 323.864 37.31V36.5C323.864 35.99 323.864 35.21 323.834 34.13C323.804 33.05 323.804 32.24 323.804 31.7C323.804 29.57 323.924 27.71 324.194 26.15C324.374 24.83 324.794 24.17 325.454 24.17C326.924 24.17 327.674 25.19 327.674 27.23C327.674 27.68 327.644 28.31 327.584 29.18C327.554 30.05 327.524 30.68 327.524 31.13C327.524 34.1 327.494 37.04 327.434 39.98C327.974 39.92 328.784 39.83 329.834 39.68C331.964 39.35 333.584 39.2 335.054 39.2ZM357.706 44.6C356.716 44.6 356.086 43.82 355.546 42.86C355.216 42.29 354.886 41.21 354.736 40.7L354.466 39.65L354.256 38.81C353.866 38.96 353.416 39.08 352.906 39.2C351.916 39.41 351.286 39.47 349.876 39.59L348.376 39.68C348.076 39.68 347.536 39.71 346.786 39.74C346.036 39.77 345.616 39.77 345.466 39.77C345.376 39.98 345.256 40.4 345.076 41.03C344.896 41.66 344.716 42.2 344.566 42.65C344.086 44.03 343.156 45.86 341.776 45.71C340.936 45.71 340.516 44.93 340.516 43.4C340.516 41.72 341.206 39.2 342.616 35.84C344.026 32.48 345.376 29.78 346.636 27.71L347.326 26.42L348.256 24.71C348.766 23.87 349.756 22.85 350.596 22.85C351.466 22.85 352.366 23.39 353.356 24.44C354.346 25.49 355.216 26.78 355.966 28.28C357.526 31.28 358.696 34.22 359.086 35.9C359.176 36.29 359.356 36.89 359.596 37.7C360.106 39.29 360.436 40.58 360.436 41.75C360.436 42.47 360.166 43.13 359.596 43.73C359.056 44.3 358.426 44.6 357.706 44.6ZM352.936 34.73C351.946 31.94 351.016 30.05 350.206 29.06C348.946 30.77 347.926 32.87 347.116 35.36H347.356C347.566 35.36 347.926 35.36 348.376 35.33C348.856 35.3 349.186 35.27 349.396 35.27C350.506 35.27 351.706 35.09 352.936 34.73ZM367.388 36.05L366.608 35.54L365.648 34.88L364.688 34.19C364.238 33.83 363.878 33.56 363.668 33.35C363.278 32.96 362.288 32.15 361.898 31.64C361.238 30.8 360.548 29.69 360.638 28.82C360.638 28.25 360.848 27.59 361.298 26.9C361.748 26.21 362.228 25.85 362.798 25.85C363.338 25.85 363.968 26.12 364.658 26.63C365.348 27.14 366.098 27.8 366.878 28.61C367.688 29.39 368.228 29.9 368.498 30.11L370.328 31.34L370.958 30.35C371.648 29.27 372.038 28.73 372.788 27.56C373.598 26.39 374.228 25.7 375.038 24.89C375.848 24.08 376.628 23.69 377.258 23.69C378.068 23.69 378.578 24.32 378.578 25.07C378.578 25.64 378.068 26.63 377.588 27.32L376.718 28.58L376.088 29.48C374.078 32.39 372.488 34.85 371.288 36.83C370.928 37.43 370.268 38.66 369.308 40.55C368.378 42.41 367.538 43.82 366.848 44.75C366.278 45.5 365.708 45.89 365.108 45.89C363.638 45.77 363.248 44.03 364.118 41.87C364.448 41.09 364.748 40.46 365.018 39.95C365.288 39.44 365.738 38.69 366.338 37.76C366.938 36.8 367.298 36.23 367.388 36.05ZM401.072 36.47C401.072 37.7 400.472 39.02 399.242 40.43C397.592 42.29 395.342 43.61 392.492 44.42C389.642 45.23 386.702 45.65 383.612 45.65C382.322 45.65 381.452 45.08 381.062 44.09C380.702 43.1 380.582 42.23 380.582 41C380.582 39.59 380.672 37.55 380.882 34.94C381.092 32.33 381.212 30.5 381.242 29.45C381.272 28.46 381.422 27.71 381.662 27.2C381.902 26.69 382.412 26.15 383.222 25.64C384.212 25.01 385.772 24.44 387.902 23.93C390.032 23.39 391.772 23.12 393.062 23.12C394.412 23.12 395.612 23.51 396.692 24.26C397.772 25.01 398.312 26.03 398.312 27.32C398.312 28.79 397.832 30.32 396.842 31.91C399.152 32.63 401.072 34.28 401.072 36.47ZM396.512 38.06C396.512 37.67 396.002 37.34 395.012 37.07C394.022 36.8 393.242 36.65 392.642 36.65C390.392 36.65 387.752 37.13 384.692 38.12C384.602 39.05 384.542 39.89 384.542 40.61H385.622C386.972 40.61 389.132 40.37 392.072 39.86C395.042 39.35 396.512 38.75 396.512 38.06ZM384.782 33.08C388.652 32.39 391.232 31.7 392.552 31.07C393.542 30.62 394.052 30.11 394.052 29.6C393.932 28.67 393.242 28.61 392.372 28.61C390.482 28.61 387.992 29.21 384.872 30.44C384.872 31.31 384.842 32.18 384.782 33.08ZM411.743 45.17C409.013 45.17 406.853 44.39 405.203 42.8C403.583 41.21 402.773 39.05 402.773 36.32C402.773 32.72 403.733 29.78 405.683 27.5C407.633 25.22 410.393 24.08 413.903 24.08C419.123 24.08 424.313 27.17 424.313 32.87C424.313 33.62 424.163 34.52 423.893 35.57C423.293 37.97 422.303 39.86 420.923 41.27C419.573 42.65 417.653 43.79 415.223 44.66C414.293 44.99 413.123 45.17 411.743 45.17ZM419.933 34.52C419.933 33.65 419.723 32.72 419.273 31.79C418.853 30.83 418.313 30.11 417.623 29.63C416.573 28.88 415.013 28.49 413.003 28.49C410.873 28.94 409.313 29.6 408.323 30.44C407.363 31.28 406.883 32.72 406.883 34.76C406.883 36.53 407.543 37.91 408.893 38.96C410.243 40.01 411.803 40.52 413.603 40.52C415.463 40.52 416.993 39.98 418.163 38.9C419.333 37.79 419.933 36.35 419.933 34.52ZM435.593 45.17C433.193 45.17 431.123 44.27 429.383 42.44C427.673 40.61 426.803 38.51 426.803 36.08C426.713 29.09 432.773 24.17 439.553 24.32C440.663 24.32 441.803 24.62 443.033 25.25C444.263 25.88 445.283 26.6 446.063 27.47C446.663 28.1 447.113 29 447.413 30.11C447.713 31.22 447.863 32.33 447.863 33.41C447.863 35.15 447.503 36.71 446.783 38.06C445.793 39.95 444.173 41.6 441.983 43.04C439.793 44.45 437.663 45.17 435.593 45.17ZM439.133 29.45C437.783 29.45 436.493 29.66 435.293 30.08C434.093 30.5 433.043 31.22 432.173 32.21C431.303 33.2 430.883 34.37 430.883 35.75C430.883 37.16 431.423 38.24 432.473 38.96C433.523 39.68 434.813 40.04 436.313 40.04C437.423 40.04 438.533 39.86 439.613 39.5C440.723 39.14 441.683 38.54 442.493 37.73C443.303 36.89 443.723 35.9 443.723 34.76C443.723 33.74 443.393 32.63 442.763 31.43C442.133 30.23 441.353 29.57 440.453 29.48C440.183 29.45 439.733 29.45 439.133 29.45ZM464.411 44.9C463.871 44.9 463.121 44.51 462.161 43.73C461.231 42.95 460.211 42.05 459.101 41.03C458.021 40.01 457.211 39.35 456.701 39.02C455.831 38.48 455.111 38.09 454.511 37.82L454.421 41.51C454.421 41.96 454.631 43.1 454.631 43.58C454.631 44.87 453.911 46.07 452.681 46.07C451.631 46.07 450.941 45.35 450.671 44.12C450.401 42.89 450.341 42.02 450.341 40.7C450.341 38.87 450.401 36.14 450.551 32.54C450.701 28.94 450.851 26.9 451.031 26.42C451.391 25.31 452.171 24.44 453.161 24.44C454.361 24.44 454.991 25.19 454.991 26.39C454.991 26.72 454.931 27.17 454.841 27.77C454.751 28.34 454.721 28.79 454.721 29.06C454.661 29.81 454.631 30.95 454.631 32.45C454.931 32.21 455.471 31.79 456.251 31.22C457.811 30.05 458.831 29.21 459.701 28.22C461.861 25.85 463.421 24.41 464.381 23.84C464.771 23.63 465.101 23.51 465.341 23.51C466.571 23.51 467.201 23.99 467.201 24.92C467.201 25.85 466.301 27.2 464.711 28.67C463.931 29.42 463.211 30.05 462.581 30.62C461.951 31.16 461.171 31.79 460.271 32.48C459.371 33.17 458.831 33.59 458.681 33.74C460.001 34.55 461.711 35.84 463.421 37.43C465.191 38.99 466.481 40.88 466.481 42.2C466.481 43.55 465.701 44.9 464.411 44.9Z" fill="black"/>
<path d="M808.939 45.17C806.539 45.17 804.469 44.27 802.729 42.44C801.019 40.61 800.149 38.51 800.149 36.08C800.059 29.09 806.119 24.17 812.899 24.32C814.009 24.32 815.149 24.62 816.379 25.25C817.609 25.88 818.629 26.6 819.409 27.47C820.009 28.1 820.459 29 820.759 30.11C821.059 31.22 821.209 32.33 821.209 33.41C821.209 35.18 820.849 36.71 820.099 38.06C819.109 39.95 817.519 41.6 815.329 43.04C813.139 44.45 811.009 45.17 808.939 45.17ZM812.479 29.45C811.129 29.45 809.839 29.66 808.639 30.08C807.439 30.5 806.389 31.22 805.519 32.21C804.649 33.2 804.229 34.37 804.229 35.75C804.229 37.16 804.769 38.24 805.819 38.96C806.869 39.68 808.159 40.04 809.659 40.04C811.459 40.04 813.139 39.59 814.699 38.66C816.259 37.73 817.039 36.41 817.039 34.76C817.039 33.74 816.709 32.63 816.079 31.43C815.449 30.23 814.699 29.57 813.799 29.48C813.529 29.45 813.079 29.45 812.479 29.45ZM835.041 41.75C833.811 42.5 832.191 43.31 830.211 44.18C828.261 45.05 826.761 45.5 825.771 45.5C824.961 45.5 824.361 45.17 823.971 44.48C823.731 44.03 823.521 43.07 823.371 41.6C823.221 40.13 823.131 38.93 823.131 38.06C823.131 37.19 823.341 35.09 823.791 31.79C824.241 28.49 824.601 26.66 824.871 26.3C825.111 25.91 825.471 25.73 825.951 25.73C827.271 25.73 827.931 26.93 827.931 29.36C827.931 30.77 827.811 32.06 827.571 33.17C827.301 34.34 827.181 35.87 827.181 37.73V39.56C828.891 39.08 831.531 37.73 835.041 35.51C835.041 34.34 835.011 32.6 834.981 30.29C834.951 27.98 834.951 26.24 834.951 25.07C834.951 24.32 836.031 23.57 836.781 23.57C838.161 23.57 838.851 25.55 838.851 29.54V29.96C838.851 30.98 838.881 32.51 838.911 34.52C838.941 36.53 838.971 38.06 838.971 39.05V39.68C838.971 43.55 838.251 45.47 836.781 45.47C836.151 45.47 835.701 45.05 835.431 44.21C835.161 43.37 835.041 42.56 835.041 41.75ZM858.715 44.27C858.055 44.27 857.125 43.91 855.895 43.16C852.445 41.12 849.145 39.65 846.055 38.72C846.235 41.72 846.325 43.22 846.325 43.25C846.325 44.54 845.575 45.71 844.345 45.71C843.655 45.71 843.025 45.2 842.815 44.51C842.395 43.52 842.185 38.09 842.185 28.22C842.185 27.23 842.755 26.48 843.925 25.97C845.095 25.37 846.505 24.86 848.155 24.44C849.805 23.99 851.215 23.78 852.445 23.78C856.975 23.78 859.225 25.16 859.225 27.89C859.225 29.39 858.565 30.83 857.245 32.21C855.955 33.59 854.485 34.7 852.835 35.57C854.245 36.05 855.895 36.86 857.665 37.97C859.465 39.08 860.785 40.61 860.785 42.02C860.785 43.37 860.065 44.27 858.715 44.27ZM845.905 30.44V31.37C845.905 32.54 845.935 33.41 845.965 33.98C847.045 33.77 848.815 33.29 850.825 32.54C852.865 31.79 854.485 30.65 854.485 29.6C854.485 29.33 854.155 29.15 853.525 29.06C852.895 28.94 852.295 28.88 851.785 28.88C849.835 28.88 847.885 29.39 845.905 30.44ZM862.874 41.27C862.874 40.04 864.254 39.53 865.604 39.53C866.354 39.53 867.434 39.74 868.874 40.16C870.344 40.55 871.424 40.76 872.144 40.76C874.064 40.76 876.104 39.53 876.824 37.82C876.134 37.61 875.054 37.49 873.554 37.49C873.044 37.49 872.354 37.52 871.424 37.55C870.524 37.58 869.894 37.58 869.564 37.58C868.394 37.58 866.804 37.4 865.004 36.95C863.234 36.47 861.854 35.51 861.854 34.31C861.854 32.9 864.164 30.47 868.814 27.05C870.104 26.06 871.544 25.22 873.074 24.47C874.634 23.72 876.044 23.36 877.304 23.36C878.294 23.36 879.194 23.72 880.064 24.41C880.934 25.1 881.354 25.94 881.354 26.9C881.354 28.67 880.064 30.02 878.264 30.02C876.764 30.02 876.944 27.89 874.664 27.89C873.884 27.89 872.774 28.4 871.334 29.42C869.924 30.44 868.814 31.37 868.064 32.18C868.514 32.63 869.714 32.84 871.694 32.84C872.144 32.84 872.744 32.84 873.434 32.81C874.154 32.78 874.604 32.75 874.754 32.75C879.704 32.75 882.194 33.77 882.194 35.81C882.194 36.98 881.534 38.3 880.244 39.77C878.954 41.24 877.514 42.5 875.894 43.55C874.274 44.6 872.894 45.23 871.724 45.5C870.974 45.65 870.254 45.74 869.504 45.74C867.974 45.74 866.504 45.35 865.034 44.54C863.594 43.73 862.874 42.65 862.874 41.27ZM882.652 43.52C882.652 42.53 883.132 41.69 884.092 41C885.052 40.31 886.042 39.95 887.092 39.95C888.622 39.95 889.912 40.67 889.912 42.11C889.912 42.95 889.342 43.73 888.202 44.42C887.062 45.11 886.042 45.47 885.112 45.47C883.792 45.47 882.652 44.81 882.652 43.52ZM911.927 36.74C911.927 38.09 910.967 39.68 909.017 41.51C907.547 42.89 905.687 43.91 903.377 44.57C901.067 45.26 898.757 45.59 896.387 45.59C895.817 45.59 895.277 45.56 894.767 45.47C893.777 45.32 892.577 44.63 892.577 43.52C892.577 43.19 892.607 42.68 892.637 42.05C892.667 41.42 892.697 41 892.697 40.79C892.787 39.08 892.817 36.47 892.817 32.99C892.817 32.48 892.757 31.79 892.667 30.92C892.577 30.02 892.517 29.39 892.517 29.03C892.517 27.68 892.907 26.69 893.687 26.09C894.437 25.52 895.727 25.01 897.557 24.56C899.387 24.11 900.857 23.9 902.027 23.9C904.337 23.9 908.297 24.68 908.297 27.62C908.297 28.97 907.367 30.56 905.537 32.36C909.797 32.93 911.927 34.37 911.927 36.74ZM907.607 38.3C907.037 37.85 906.227 37.49 905.177 37.28C904.127 37.04 903.137 36.92 902.237 36.92C900.587 36.92 898.667 37.19 896.537 37.7L896.567 40.76H897.107C898.727 40.76 900.707 40.55 903.077 40.1C905.447 39.65 906.977 39.05 907.607 38.3ZM896.477 30.05L896.537 32.84C897.647 32.57 899.147 32 901.097 31.19C903.047 30.35 904.007 29.66 904.007 29.15C903.917 29.03 903.587 28.94 902.957 28.85C902.357 28.76 901.907 28.7 901.577 28.7C899.747 28.7 898.067 29.15 896.477 30.05ZM928.604 25.43C928.604 25.94 928.394 26.48 927.944 27.08C927.584 27.65 927.014 28.43 926.264 29.45C925.514 30.47 924.974 31.25 924.644 31.76L922.364 35.15C921.014 37.16 920.024 38.69 919.394 39.77C921.974 39.26 924.014 39.02 925.514 39.02C926.954 39.02 927.704 39.35 927.704 40.7C927.704 42.02 926.594 43.43 925.364 43.94C925.064 44.09 923.384 44.39 920.354 44.9C917.324 45.41 915.644 45.65 915.314 45.65C914.144 45.65 912.884 45.05 912.884 43.94C912.884 43.49 913.094 42.86 913.484 42.11C913.874 41.33 914.444 40.43 915.134 39.38L916.304 37.58C916.544 37.22 916.874 36.68 917.264 35.99C917.654 35.27 917.954 34.76 918.164 34.43C918.524 33.83 919.124 32.96 919.934 31.85C920.744 30.71 921.344 29.87 921.674 29.3C921.524 29.33 921.164 29.42 920.624 29.51L919.424 29.72C919.064 29.81 918.524 29.99 917.774 30.26C916.334 30.77 915.224 31.1 914.144 31.1C912.974 31.1 912.374 30.2 912.374 29.03C912.374 27.44 913.784 26.18 915.464 25.43C915.794 25.28 916.844 25.07 918.554 24.74C920.294 24.41 921.494 24.2 922.124 24.11C924.464 23.93 925.664 23.84 925.694 23.84C927.644 23.84 928.604 24.38 928.604 25.43Z" fill="black"/>
<line x1="30" y1="58" x2="930" y2="58" stroke="black" stroke-width="4"/>
<path d="M71.1 81.4V124H60.96V106.3H44.58V124H34.44V81.4H44.58V98.5H60.96V81.4H71.1ZM91.6073 124.72C82.7873 124.72 76.0673 119.26 76.0673 108.94C76.0673 98.62 82.7873 93.28 91.6073 93.28C100.487 93.28 107.207 98.62 107.207 108.94C107.207 119.26 100.487 124.72 91.6073 124.72ZM91.6073 118.06C95.3873 118.06 97.6073 115.06 97.6073 108.94C97.6073 102.76 95.3873 99.94 91.6073 99.94C87.8873 99.94 85.6673 102.76 85.6673 108.94C85.6673 115.06 87.8873 118.06 91.6073 118.06ZM115.935 124L107.895 94H117.075L120.855 112.36C120.975 113.2 121.155 114.22 121.275 115.24H121.395C121.515 114.22 121.635 113.2 121.875 112.36L126.255 94H134.415L138.795 112.36C138.975 113.2 139.155 114.22 139.275 115.24H139.395C139.515 114.22 139.635 113.2 139.815 112.36L143.535 94H152.715L144.735 124H135.375L130.815 106.3C130.575 105.52 130.455 104.5 130.395 103.78H130.275C130.215 104.5 130.035 105.52 129.855 106.3L125.295 124H115.935ZM164.484 100.42V94H169.704V86.8L179.304 83.08V94H186.444V100.42H179.304V112.12C179.304 115.12 180.804 116.68 183.684 116.68C184.824 116.68 185.544 116.56 186.444 116.38V124C184.224 124.42 182.724 124.6 180.984 124.6C173.004 124.6 169.704 120.94 169.704 114.4V100.42H164.484ZM203.468 124.72C194.648 124.72 187.928 119.26 187.928 108.94C187.928 98.62 194.648 93.28 203.468 93.28C212.348 93.28 219.068 98.62 219.068 108.94C219.068 119.26 212.348 124.72 203.468 124.72ZM203.468 118.06C207.248 118.06 209.468 115.06 209.468 108.94C209.468 102.76 207.248 99.94 203.468 99.94C199.748 99.94 197.528 102.76 197.528 108.94C197.528 115.06 199.748 118.06 203.468 118.06ZM250.521 124.72C241.701 124.72 234.981 119.26 234.981 108.94C234.981 98.62 241.701 93.28 250.521 93.28C259.401 93.28 266.121 98.62 266.121 108.94C266.121 119.26 259.401 124.72 250.521 124.72ZM250.521 118.06C254.301 118.06 256.521 115.06 256.521 108.94C256.521 102.76 254.301 99.94 250.521 99.94C246.801 99.94 244.581 102.76 244.581 108.94C244.581 115.06 246.801 118.06 250.521 118.06ZM270.69 135.7V94H279.93V98.8C281.79 95.2 285.21 93.28 289.29 93.28C296.55 93.28 301.29 99.4 301.29 108.94C301.29 118.54 296.37 124.72 288.93 124.72C285.15 124.72 282.33 123.04 280.35 120.22V135.7H270.69ZM285.75 118.06C289.23 118.06 291.39 114.58 291.39 108.94C291.39 103.18 289.35 99.94 285.69 99.94C282.21 99.94 280.11 102.82 280.11 108.28V109.96C280.11 114.88 282.27 118.06 285.75 118.06ZM301.922 100.42V94H307.142V86.8L316.742 83.08V94H323.882V100.42H316.742V112.12C316.742 115.12 318.242 116.68 321.122 116.68C322.262 116.68 322.982 116.56 323.882 116.38V124C321.662 124.42 320.162 124.6 318.422 124.6C310.442 124.6 307.142 120.94 307.142 114.4V100.42H301.922ZM328.111 89.68V80.92H338.131V89.68H328.111ZM328.231 124V94H337.891V124H328.231ZM344.726 94H353.966V99.4C355.886 95.26 358.766 93.22 363.206 93.22C367.466 93.22 370.226 95.2 371.726 99.46C373.886 95.26 377.006 93.22 381.326 93.22C387.146 93.22 390.566 97.36 390.566 104.38V124H380.966V106.42C380.966 102.4 379.706 100.6 376.946 100.6C374.066 100.6 372.446 102.76 372.446 106.78V124H362.846V106.36C362.846 102.46 361.526 100.6 358.886 100.6C356.006 100.6 354.386 102.82 354.386 106.84V124H344.726V94ZM396.785 89.68V80.92H406.805V89.68H396.785ZM396.905 124V94H406.565V124H396.905ZM410.7 118.36L424.98 100.78H411.42V94H436.2V99.46L422.34 117.1H437.1V124H410.7V118.36ZM467.341 108.28V111.16H446.521C446.581 115.24 449.401 117.82 453.421 117.82C456.361 117.82 458.581 116.38 459.961 113.62L467.041 116.86C464.641 121.78 459.541 124.72 453.301 124.72C443.401 124.72 437.401 119.02 437.401 109.3C437.401 99.46 443.281 93.28 452.641 93.28C462.061 93.28 467.341 98.74 467.341 108.28ZM458.041 105.76V105.52C458.041 101.26 456.061 98.98 452.461 98.98C448.741 98.98 446.641 101.5 446.521 105.76H458.041ZM493.657 124.72C487.477 124.72 483.337 121.18 483.337 115.84C483.337 113.02 484.357 110.8 486.397 109.36C488.377 107.98 491.257 107.02 495.817 106.42L503.077 105.4V104.38C503.077 100.96 501.637 99.46 498.637 99.46C495.697 99.46 494.017 101.02 493.837 103.9H484.297C484.777 97.24 490.177 93.28 498.697 93.28C508.357 93.28 512.677 97.06 512.677 105.7V115.66C512.677 119.2 512.977 122.14 513.517 124H504.157C503.857 122.56 503.737 120.94 503.677 119.26C502.177 122.62 498.337 124.72 493.657 124.72ZM497.257 118.6C500.917 118.6 503.377 116.14 503.377 112.54V110.14L498.217 110.98C494.677 111.64 493.057 112.9 493.057 115.12C493.057 117.22 494.737 118.6 497.257 118.6ZM532.615 135.7V94H541.855V98.8C543.715 95.2 547.135 93.28 551.215 93.28C558.475 93.28 563.215 99.4 563.215 108.94C563.215 118.54 558.295 124.72 550.855 124.72C547.075 124.72 544.255 123.04 542.275 120.22V135.7H532.615ZM547.675 118.06C551.155 118.06 553.315 114.58 553.315 108.94C553.315 103.18 551.275 99.94 547.615 99.94C544.135 99.94 542.035 102.82 542.035 108.28V109.96C542.035 114.88 544.195 118.06 547.675 118.06ZM577.096 101.74C578.656 96.34 581.956 93.28 587.116 93.28H587.716V102.46C587.116 102.4 586.636 102.4 585.916 102.4C583.336 102.4 581.416 103.06 580.096 104.2C578.176 106 577.696 108.7 577.696 111.76V124H568.036V94H577.096V101.74ZM604.354 124.72C595.534 124.72 588.814 119.26 588.814 108.94C588.814 98.62 595.534 93.28 604.354 93.28C613.234 93.28 619.954 98.62 619.954 108.94C619.954 119.26 613.234 124.72 604.354 124.72ZM604.354 118.06C608.134 118.06 610.354 115.06 610.354 108.94C610.354 102.76 608.134 99.94 604.354 99.94C600.634 99.94 598.414 102.76 598.414 108.94C598.414 115.06 600.634 118.06 604.354 118.06ZM634.775 124.72C627.575 124.72 622.775 118.48 622.775 109.12C622.775 99.58 627.815 93.28 635.315 93.28C639.275 93.28 642.275 94.9 643.775 98.02V80.5H653.375V124H644.255V118.84C642.755 122.44 639.155 124.72 634.775 124.72ZM638.555 118.06C641.855 118.06 643.895 115.12 643.895 110.44V107.86C643.895 102.76 641.855 99.94 638.435 99.94C634.775 99.94 632.675 103.18 632.675 108.94C632.675 114.58 634.895 118.06 638.555 118.06ZM670.189 124.72C663.109 124.72 660.109 120.46 660.109 113.44V94H669.709V111.76C669.709 115.48 671.209 117.4 674.029 117.4C677.149 117.4 679.069 114.94 679.069 111.16V94H688.729V124H679.549V118.54C678.109 122.32 674.569 124.72 670.189 124.72ZM709.041 124.72C699.561 124.72 693.261 118.54 693.261 109C693.261 99.22 699.321 93.28 709.161 93.28C717.021 93.28 722.241 97.12 723.381 103.9L714.321 105.76C713.781 102.22 711.861 100.36 708.921 100.36C705.261 100.36 703.041 103.48 703.041 108.7C703.041 114.34 705.201 117.58 708.981 117.58C711.981 117.58 713.841 115.6 714.381 112L723.381 113.98C722.301 120.58 716.721 124.72 709.041 124.72ZM723.551 100.42V94H728.771V86.8L738.371 83.08V94H745.511V100.42H738.371V112.12C738.371 115.12 739.871 116.68 742.751 116.68C743.891 116.68 744.611 116.56 745.511 116.38V124C743.291 124.42 741.791 124.6 740.051 124.6C732.071 124.6 728.771 120.94 728.771 114.4V100.42H723.551Z" fill="black"/>
<g style="mix-blend-mode:color">
<rect width="960" height="960" fill="url(#paint0_linear_192_382)"/>
</g>
</g>
<defs>
<linearGradient id="paint0_linear_192_382" x1="480" y1="0" x2="480" y2="960" gradientUnits="userSpaceOnUse">
<stop stop-color="#CBC4F7"/>
<stop offset="1" stop-color="#EEB3FD"/>
</linearGradient>
<clipPath id="clip0_192_382">
<rect width="960" height="960" rx="30" fill="white"/>
</clipPath>
</defs>
</svg>
