<svg width="960" height="960" viewBox="0 0 960 960" fill="none" xmlns="http://www.w3.org/2000/svg">
<g clip-path="url(#clip0_236_2235)">
<rect width="960" height="960" rx="30" fill="white"/>
<mask id="mask0_236_2235" style="mask-type:alpha" maskUnits="userSpaceOnUse" x="-47" y="305" width="1054" height="912">
<path d="M480 1216.75L216.5 761.25L-47 305.75H480L1007 305.75L743.5 761.25L480 1216.75Z" fill="white"/>
</mask>
<g mask="url(#mask0_236_2235)">
<path d="M480 208C615.31 208 725 317.69 725 453C725 457.621 724.871 462.211 724.618 466.769C644.435 426.215 551.267 433.901 480 480.482C408.733 433.901 315.564 426.214 235.381 466.769C235.128 462.211 235 457.621 235 453C235 317.69 344.69 208 480 208Z" fill="#D9D9D9"/>
<path d="M235.381 466.769C240.351 556.487 293.593 633.329 369.567 671.758C364.86 756.768 404.787 841.297 480 890.461C476.179 892.958 472.268 895.366 468.266 897.677C351.085 965.332 201.244 925.182 133.59 808C65.9348 690.818 106.085 540.979 223.266 473.324C227.268 471.014 231.307 468.829 235.381 466.769Z" fill="#D9D9D9"/>
<path d="M724.618 466.769C728.692 468.829 732.733 471.014 736.735 473.324C853.916 540.979 894.065 690.818 826.41 808C758.756 925.182 608.916 965.331 491.735 897.676C487.733 895.365 483.821 892.958 480 890.461C555.213 841.297 595.14 756.768 590.433 671.758C666.407 633.329 719.648 556.487 724.618 466.769Z" fill="#D9D9D9"/>
<path d="M590.433 671.758C595.14 756.768 555.213 841.298 480.001 890.461C404.788 841.298 364.86 756.768 369.567 671.758C402.751 688.543 440.271 698 480.001 698C519.73 698 557.25 688.543 590.433 671.758Z" fill="#9D9D9D"/>
<path d="M235.381 466.768C315.564 426.214 408.733 433.901 480 480.482C448.872 500.828 421.922 528.593 402.058 563C382.193 597.406 371.622 634.628 369.566 671.758C293.593 633.329 240.351 556.486 235.381 466.768Z" fill="#9D9D9D"/>
<path d="M480 480.483C551.267 433.902 644.436 426.215 724.618 466.769C719.648 556.487 666.407 633.329 590.433 671.758C588.377 634.628 577.807 597.407 557.943 563.001C538.078 528.594 511.128 500.829 480 480.483Z" fill="#9D9D9D"/>
<path d="M480 480.482C511.128 500.828 538.078 528.594 557.943 563C577.807 597.406 588.377 634.628 590.433 671.758C557.249 688.543 519.729 698 480 698C440.271 698 402.751 688.543 369.567 671.758C371.623 634.628 382.193 597.406 402.058 563C421.922 528.594 448.872 500.828 480 480.482Z" fill="#666666"/>
</g>
<path d="M44.7077 806V777.6H51.4677V800.52H62.9877V806H44.7077ZM84.4598 795.52V797.44H70.5798C70.6198 800.16 72.4998 801.88 75.1798 801.88C77.1398 801.88 78.6198 800.92 79.5398 799.08L84.2598 801.24C82.6598 804.52 79.2598 806.48 75.0998 806.48C68.4998 806.48 64.4998 802.68 64.4998 796.2C64.4998 789.64 68.4198 785.52 74.6598 785.52C80.9398 785.52 84.4598 789.16 84.4598 795.52ZM78.2598 793.84V793.68C78.2598 790.84 76.9398 789.32 74.5398 789.32C72.0598 789.32 70.6598 791 70.5798 793.84H78.2598ZM93.3598 806.48C89.2398 806.48 86.4798 804.12 86.4798 800.56C86.4798 798.68 87.1598 797.2 88.5198 796.24C89.8398 795.32 91.7598 794.68 94.7998 794.28L99.6398 793.6V792.92C99.6398 790.64 98.6798 789.64 96.6798 789.64C94.7198 789.64 93.5998 790.68 93.4798 792.6H87.1198C87.4398 788.16 91.0398 785.52 96.7198 785.52C103.16 785.52 106.04 788.04 106.04 793.8V800.44C106.04 802.8 106.24 804.76 106.6 806H100.36C100.16 805.04 100.08 803.96 100.04 802.84C99.0398 805.08 96.4798 806.48 93.3598 806.48ZM95.7598 802.4C98.1998 802.4 99.8398 800.76 99.8398 798.36V796.76L96.3998 797.32C94.0398 797.76 92.9598 798.6 92.9598 800.08C92.9598 801.48 94.0798 802.4 95.7598 802.4ZM116.69 791.16C117.73 787.56 119.93 785.52 123.37 785.52H123.77V791.64C123.37 791.6 123.05 791.6 122.57 791.6C120.85 791.6 119.57 792.04 118.69 792.8C117.41 794 117.09 795.8 117.09 797.84V806H110.65V786H116.69V791.16ZM126.734 806V786H132.894V789.84C134.294 786.92 136.494 785.48 139.534 785.48C143.854 785.48 146.054 788.24 146.054 793.6V806H139.654V794.48C139.654 791.72 138.694 790.4 136.654 790.4C134.414 790.4 133.174 792.12 133.174 795.2V806H126.734ZM150.629 783.12V777.28H157.309V783.12H150.629ZM150.709 806V786H157.149V806H150.709ZM162.106 806V786H168.266V789.84C169.666 786.92 171.866 785.48 174.906 785.48C179.226 785.48 181.426 788.24 181.426 793.6V806H175.026V794.48C175.026 791.72 174.066 790.4 172.026 790.4C169.786 790.4 168.546 792.12 168.546 795.2V806H162.106ZM205.801 786.92C205.121 786.8 204.561 786.72 203.961 786.72C202.881 786.72 202.001 786.96 201.361 787.44C202.841 788.6 203.681 790.24 203.681 792.2C203.681 796.28 200.201 799 194.561 799C193.001 799 191.641 798.8 190.441 798.4C190.041 798.68 189.841 799 189.841 799.48C189.841 800.48 190.681 801.12 192.601 801.12H198.201C203.081 801.12 205.561 803.16 205.561 806.96C205.561 811.52 201.561 814.28 194.041 814.28C187.401 814.28 184.201 812.32 184.201 809.48C184.201 807.88 185.361 806.6 187.641 805.88C185.801 805.16 184.921 803.84 184.921 802.12C184.921 799.96 186.241 798.4 188.521 797.56C186.521 796.36 185.401 794.52 185.401 792.2C185.401 788.16 188.921 785.52 194.561 785.52C196.321 785.52 197.841 785.76 199.161 786.24C199.841 784 201.801 782.6 204.961 782.6C205.241 782.6 205.481 782.6 205.801 782.64V786.92ZM194.561 795.72C196.401 795.72 197.641 794.28 197.641 792.2C197.641 790.16 196.401 788.8 194.561 788.8C192.681 788.8 191.441 790.16 191.441 792.2C191.441 794.24 192.681 795.72 194.561 795.72ZM197.521 806.48L191.201 806.44C190.681 806.44 190.201 806.4 189.761 806.36C189.201 806.88 188.961 807.52 188.961 808.24C188.961 810 191.001 810.76 194.321 810.76C198.481 810.76 200.201 809.84 200.201 808.4C200.201 807.12 199.321 806.48 197.521 806.48ZM42.9769 826V828.8H37.9769V846H34.5769V828.8H30.8969V826H34.5769V822.84C34.5769 819.2 36.8569 816.76 40.4169 816.76C41.3769 816.76 42.2169 816.84 42.9769 817.04V819.96C42.2569 819.84 41.4969 819.76 40.8569 819.76C38.8169 819.76 37.9769 820.88 37.9769 823.32V826H42.9769ZM50.3241 830.56C51.2841 827.76 53.3641 825.52 56.4041 825.52C56.6441 825.52 56.8841 825.52 57.1241 825.56V828.88H56.9641C54.8841 828.88 53.5241 829.48 52.5641 830.44C50.6441 832.36 50.5641 835.04 50.5641 837.44V846H47.1641V826H50.3241V830.56ZM68.0731 846.48C62.4331 846.48 58.7531 842.52 58.7531 836C58.7531 829.48 62.4331 825.52 68.0731 825.52C73.7131 825.52 77.3931 829.48 77.3931 836C77.3931 842.52 73.7131 846.48 68.0731 846.48ZM68.0731 843.52C71.6731 843.52 73.7931 840.96 73.7931 836C73.7931 831.04 71.6731 828.48 68.0731 828.48C64.4731 828.48 62.3531 831.04 62.3531 836C62.3531 840.96 64.4731 843.52 68.0731 843.52ZM82.3797 826H85.5797V829.48C86.6997 826.8 88.6197 825.44 91.2997 825.44C94.0597 825.44 96.0597 826.88 96.9797 829.52C98.2997 826.8 100.34 825.44 103.06 825.44C106.9 825.44 109.14 828.2 109.14 832.88V846H105.74V833.16C105.74 830.04 104.46 828.44 101.94 828.44C99.0997 828.44 97.4597 830.52 97.4597 834.16V846H94.0597V833C94.0597 830.08 92.6997 828.44 90.2997 828.44C87.4997 828.44 85.7797 830.68 85.7797 834.32V846H82.3797V826ZM131.57 846.48C126.53 846.48 124.73 843.44 124.73 838.76V826H128.13V838.36C128.13 841.72 129.57 843.56 132.21 843.56C135.41 843.56 137.57 840.84 137.57 836.76V826H140.97V846H137.77V842.24C136.85 844.68 134.37 846.48 131.57 846.48ZM154.421 846.48C149.661 846.48 146.501 844.12 145.781 839.84L149.221 839.24C149.741 842.16 151.621 843.68 154.581 843.68C157.261 843.68 158.741 842.56 158.741 840.68C158.741 838.68 157.701 837.8 155.541 837.56L152.301 837.2C148.341 836.76 146.461 834.52 146.461 831.44C146.461 827.8 149.341 825.52 154.061 825.52C158.621 825.52 161.701 827.92 162.141 831.6L158.781 832.36C158.341 829.96 156.701 828.28 153.981 828.28C151.341 828.28 149.781 829.36 149.781 831.28C149.781 833 150.901 834.04 153.381 834.32L156.581 834.68C160.541 835.12 162.101 837.2 162.101 840.36C162.101 844.16 159.301 846.48 154.421 846.48ZM182.947 834.6V837H168.747C168.787 840.92 171.147 843.48 174.707 843.48C177.267 843.48 179.147 842.12 180.027 839.68L182.827 840.92C181.427 844.56 178.507 846.48 174.467 846.48C168.747 846.48 165.347 842.84 165.347 836.24C165.347 829.56 168.707 825.52 174.427 825.52C179.827 825.52 182.947 828.6 182.947 834.6ZM179.507 834.24V833.8C179.507 830.12 177.627 828.2 174.347 828.2C170.827 828.2 168.827 830.48 168.747 834.24H179.507ZM191.313 830.56C192.273 827.76 194.353 825.52 197.393 825.52C197.633 825.52 197.873 825.52 198.113 825.56V828.88H197.953C195.873 828.88 194.513 829.48 193.553 830.44C191.633 832.36 191.553 835.04 191.553 837.44V846H188.153V826H191.313V830.56ZM208.377 846.48C203.617 846.48 200.457 844.12 199.737 839.84L203.177 839.24C203.697 842.16 205.577 843.68 208.537 843.68C211.217 843.68 212.697 842.56 212.697 840.68C212.697 838.68 211.657 837.8 209.497 837.56L206.257 837.2C202.297 836.76 200.417 834.52 200.417 831.44C200.417 827.8 203.297 825.52 208.017 825.52C212.577 825.52 215.657 827.92 216.097 831.6L212.737 832.36C212.297 829.96 210.657 828.28 207.937 828.28C205.297 828.28 203.737 829.36 203.737 831.28C203.737 833 204.857 834.04 207.337 834.32L210.537 834.68C214.497 835.12 216.057 837.2 216.057 840.36C216.057 844.16 213.257 846.48 208.377 846.48Z" fill="#333333"/>
<path d="M433.356 236.68C427.236 236.68 422.836 234.08 420.876 230.08L425.876 226.56C427.356 229.48 429.836 231.44 433.596 231.44C436.316 231.44 438.476 230.44 438.476 228.2C438.476 226.08 437.236 225.28 434.356 224.68L430.556 223.88C425.596 222.8 422.716 220.12 422.716 215.36C422.716 210.16 426.956 206.92 433.796 206.92C438.836 206.92 443.076 208.76 445.076 212.56L440.676 216.28C439.236 213.52 436.596 211.92 433.356 211.92C430.676 211.92 428.956 213.04 428.956 214.84C428.956 216.68 430.076 217.6 433.076 218.28L437.196 219.16C442.236 220.28 444.956 222.68 444.956 227.56C444.956 232.96 440.796 236.68 433.356 236.68ZM448.275 243.8V216H454.435V219.2C455.675 216.8 457.955 215.52 460.675 215.52C465.515 215.52 468.675 219.6 468.675 225.96C468.675 232.36 465.395 236.48 460.435 236.48C457.915 236.48 456.035 235.36 454.715 233.48V243.8H448.275ZM458.315 232.04C460.635 232.04 462.075 229.72 462.075 225.96C462.075 222.12 460.715 219.96 458.275 219.96C455.955 219.96 454.555 221.88 454.555 225.52V226.64C454.555 229.92 455.995 232.04 458.315 232.04ZM490.964 225.52V227.44H477.084C477.124 230.16 479.004 231.88 481.684 231.88C483.644 231.88 485.124 230.92 486.044 229.08L490.764 231.24C489.164 234.52 485.764 236.48 481.604 236.48C475.004 236.48 471.004 232.68 471.004 226.2C471.004 219.64 474.924 215.52 481.164 215.52C487.444 215.52 490.964 219.16 490.964 225.52ZM484.764 223.84V223.68C484.764 220.84 483.444 219.32 481.044 219.32C478.564 219.32 477.164 221 477.084 223.84H484.764ZM513.259 225.52V227.44H499.379C499.419 230.16 501.299 231.88 503.979 231.88C505.939 231.88 507.419 230.92 508.339 229.08L513.059 231.24C511.459 234.52 508.059 236.48 503.899 236.48C497.299 236.48 493.299 232.68 493.299 226.2C493.299 219.64 497.219 215.52 503.459 215.52C509.739 215.52 513.259 219.16 513.259 225.52ZM507.059 223.84V223.68C507.059 220.84 505.739 219.32 503.339 219.32C500.859 219.32 499.459 221 499.379 223.84H507.059ZM523.714 236.48C518.914 236.48 515.714 232.32 515.714 226.08C515.714 219.72 519.074 215.52 524.074 215.52C526.714 215.52 528.714 216.6 529.714 218.68V207H536.114V236H530.034V232.56C529.034 234.96 526.634 236.48 523.714 236.48ZM526.234 232.04C528.434 232.04 529.794 230.08 529.794 226.96V225.24C529.794 221.84 528.434 219.96 526.154 219.96C523.714 219.96 522.314 222.12 522.314 225.96C522.314 229.72 523.794 232.04 526.234 232.04ZM396.887 258.8V256H400.607V250.76L404.007 249.32V256H409.007V258.8H404.007V269.88C404.007 272.16 404.887 273.16 406.927 273.16C407.807 273.16 408.327 273.04 409.007 272.88V276C408.127 276.24 407.327 276.36 406.047 276.36C401.727 276.36 400.607 273.72 400.607 270V258.8H396.887ZM420.328 276.48C414.688 276.48 411.008 272.52 411.008 266C411.008 259.48 414.688 255.52 420.328 255.52C425.968 255.52 429.648 259.48 429.648 266C429.648 272.52 425.968 276.48 420.328 276.48ZM420.328 273.52C423.928 273.52 426.048 270.96 426.048 266C426.048 261.04 423.928 258.48 420.328 258.48C416.728 258.48 414.608 261.04 414.608 266C414.608 270.96 416.728 273.52 420.328 273.52ZM444.625 256H447.825V259.48C448.945 256.8 450.865 255.44 453.545 255.44C456.305 255.44 458.305 256.88 459.225 259.52C460.545 256.8 462.585 255.44 465.305 255.44C469.145 255.44 471.385 258.2 471.385 262.88V276H467.985V263.16C467.985 260.04 466.705 258.44 464.185 258.44C461.345 258.44 459.705 260.52 459.705 264.16V276H456.305V263C456.305 260.08 454.945 258.44 452.545 258.44C449.745 258.44 448.025 260.68 448.025 264.32V276H444.625V256ZM482.544 276.48C478.464 276.48 475.784 274.16 475.784 270.6C475.784 268.6 476.784 266.88 478.584 265.88C480.104 265.12 482.024 264.64 485.304 264.24L489.024 263.8V263.48C489.024 259.8 487.704 258.32 484.624 258.32C481.904 258.32 480.224 259.76 480.064 262.28H476.424C476.704 258.2 479.904 255.52 484.584 255.52C490.064 255.52 492.464 258 492.464 263.84V269.24C492.464 272.32 492.664 274.44 493.144 276H489.584C489.424 274.96 489.304 273.64 489.264 272.36C488.344 274.92 485.824 276.48 482.544 276.48ZM483.304 273.68C486.784 273.68 489.064 271.16 489.064 267.28V266.28L483.624 267.08C480.664 267.52 479.384 268.56 479.384 270.52C479.384 272.48 480.864 273.68 483.304 273.68ZM501.907 260.56C502.867 257.76 504.947 255.52 507.987 255.52C508.227 255.52 508.467 255.52 508.707 255.56V258.88H508.547C506.467 258.88 505.107 259.48 504.147 260.44C502.227 262.36 502.147 265.04 502.147 267.44V276H498.747V256H501.907V260.56ZM526.002 276L519.962 266.2L516.322 269.88V276H512.922V247H516.322V265.84L525.282 256H529.722L522.402 263.72L530.202 276H526.002ZM548.591 264.6V267H534.391C534.431 270.92 536.791 273.48 540.351 273.48C542.911 273.48 544.791 272.12 545.671 269.68L548.471 270.92C547.071 274.56 544.151 276.48 540.111 276.48C534.391 276.48 530.991 272.84 530.991 266.24C530.991 259.56 534.351 255.52 540.071 255.52C545.471 255.52 548.591 258.6 548.591 264.6ZM545.151 264.24V263.8C545.151 260.12 543.271 258.2 539.991 258.2C536.471 258.2 534.471 260.48 534.391 264.24H545.151ZM550.211 258.8V256H553.931V250.76L557.331 249.32V256H562.331V258.8H557.331V269.88C557.331 272.16 558.211 273.16 560.251 273.16C561.131 273.16 561.651 273.04 562.331 272.88V276C561.451 276.24 560.651 276.36 559.371 276.36C555.051 276.36 553.931 273.72 553.931 270V258.8H550.211Z" fill="#333333"/>
<path d="M802.637 782.72H789.957V789.28H801.918V794.32H789.957V806H783.197V777.6H802.637V782.72ZM814.522 806.48C808.642 806.48 804.162 802.84 804.162 795.96C804.162 789.08 808.642 785.52 814.522 785.52C820.442 785.52 824.922 789.08 824.922 795.96C824.922 802.84 820.442 806.48 814.522 806.48ZM814.522 802.04C817.042 802.04 818.522 800.04 818.522 795.96C818.522 791.84 817.042 789.96 814.522 789.96C812.042 789.96 810.562 791.84 810.562 795.96C810.562 800.04 812.042 802.04 814.522 802.04ZM837.602 806.48C831.282 806.48 827.082 802.36 827.082 796C827.082 789.48 831.122 785.52 837.682 785.52C842.922 785.52 846.402 788.08 847.162 792.6L841.122 793.84C840.762 791.48 839.482 790.24 837.522 790.24C835.082 790.24 833.602 792.32 833.602 795.8C833.602 799.56 835.042 801.72 837.562 801.72C839.562 801.72 840.802 800.4 841.162 798L847.162 799.32C846.442 803.72 842.722 806.48 837.602 806.48ZM856.868 806.48C852.148 806.48 850.148 803.64 850.148 798.96V786H856.548V797.84C856.548 800.32 857.548 801.6 859.428 801.6C861.508 801.6 862.788 799.96 862.788 797.44V786H869.228V806H863.108V802.36C862.148 804.88 859.788 806.48 856.868 806.48ZM881.969 806.48C877.569 806.48 873.969 804.84 872.049 801.68L875.769 798.88C877.169 801.04 879.329 802.12 882.089 802.12C884.169 802.12 885.209 801.48 885.209 800.36C885.209 799.16 884.569 798.72 882.369 798.4L879.489 798C875.169 797.36 873.129 795.24 873.129 791.84C873.129 787.96 876.409 785.52 881.929 785.52C885.969 785.52 889.369 787 891.009 789.48L887.689 792.48C886.209 790.8 884.209 789.8 881.729 789.8C879.809 789.8 878.929 790.32 878.929 791.44C878.929 792.4 879.529 792.92 881.289 793.16L884.849 793.72C889.129 794.32 890.809 796.44 890.809 799.88C890.809 803.96 887.569 806.48 881.969 806.48ZM753.143 846.48C747.503 846.48 743.823 842.52 743.823 836C743.823 829.48 747.503 825.52 753.143 825.52C758.783 825.52 762.463 829.48 762.463 836C762.463 842.52 758.783 846.48 753.143 846.48ZM753.143 843.52C756.743 843.52 758.863 840.96 758.863 836C758.863 831.04 756.743 828.48 753.143 828.48C749.543 828.48 747.423 831.04 747.423 836C747.423 840.96 749.543 843.52 753.143 843.52ZM767.45 846V826H770.65V829.96C771.97 826.92 774.17 825.44 777.33 825.44C781.73 825.44 784.01 828.2 784.01 833.56V846H780.61V833.76C780.61 830.24 779.13 828.44 776.21 828.44C772.89 828.44 770.85 831.12 770.85 835.56V846H767.45ZM805.165 846.48C801.085 846.48 798.405 844.16 798.405 840.6C798.405 838.6 799.405 836.88 801.205 835.88C802.725 835.12 804.645 834.64 807.925 834.24L811.645 833.8V833.48C811.645 829.8 810.325 828.32 807.245 828.32C804.525 828.32 802.845 829.76 802.685 832.28H799.045C799.325 828.2 802.525 825.52 807.205 825.52C812.685 825.52 815.085 828 815.085 833.84V839.24C815.085 842.32 815.285 844.44 815.765 846H812.205C812.045 844.96 811.925 843.64 811.885 842.36C810.965 844.92 808.445 846.48 805.165 846.48ZM805.925 843.68C809.405 843.68 811.685 841.16 811.685 837.28V836.28L806.245 837.08C803.285 837.52 802.005 838.56 802.005 840.52C802.005 842.48 803.485 843.68 805.925 843.68ZM834.382 846L827.142 826H830.822L835.302 839.48C835.662 840.56 835.942 841.6 836.142 842.52H836.262C836.462 841.6 836.742 840.56 837.102 839.48L841.582 826H845.262L838.022 846H834.382ZM848.608 822.28V818H852.488V822.28H848.608ZM848.848 846V826H852.248V846H848.848ZM865.674 846.48C860.914 846.48 857.754 844.12 857.034 839.84L860.474 839.24C860.994 842.16 862.874 843.68 865.834 843.68C868.514 843.68 869.994 842.56 869.994 840.68C869.994 838.68 868.954 837.8 866.794 837.56L863.554 837.2C859.594 836.76 857.714 834.52 857.714 831.44C857.714 827.8 860.594 825.52 865.314 825.52C869.874 825.52 872.954 827.92 873.394 831.6L870.034 832.36C869.594 829.96 867.954 828.28 865.234 828.28C862.594 828.28 861.034 829.36 861.034 831.28C861.034 833 862.154 834.04 864.634 834.32L867.834 834.68C871.794 835.12 873.354 837.2 873.354 840.36C873.354 844.16 870.554 846.48 865.674 846.48ZM878.16 822.28V818H882.04V822.28H878.16ZM878.4 846V826H881.8V846H878.4ZM896.106 846.48C890.466 846.48 886.786 842.52 886.786 836C886.786 829.48 890.466 825.52 896.106 825.52C901.746 825.52 905.426 829.48 905.426 836C905.426 842.52 901.746 846.48 896.106 846.48ZM896.106 843.52C899.706 843.52 901.826 840.96 901.826 836C901.826 831.04 899.706 828.48 896.106 828.48C892.506 828.48 890.386 831.04 890.386 836C890.386 840.96 892.506 843.52 896.106 843.52ZM910.413 846V826H913.613V829.96C914.933 826.92 917.133 825.44 920.293 825.44C924.693 825.44 926.973 828.2 926.973 833.56V846H923.573V833.76C923.573 830.24 922.093 828.44 919.173 828.44C915.853 828.44 913.813 831.12 913.813 835.56V846H910.413Z" fill="#333333"/>
<path d="M238.542 705.97C240.252 705.97 241.662 705.28 242.352 704.59C243.042 703.9 243.912 703.21 244.752 703.21C246.042 703.21 246.912 703.99 246.912 705.22C246.912 706.15 246.492 707.02 245.652 707.83C243.972 709.42 241.752 710.32 239.952 710.56C239.502 710.62 238.842 710.65 237.972 710.65C235.272 710.65 233.292 710.29 232.002 709.6C229.122 708.13 227.622 705.31 227.622 702.04C227.622 699.67 228.162 697.48 229.212 695.44C230.292 693.4 231.792 691.75 233.742 690.52C235.692 689.29 237.852 688.66 240.222 688.66C241.632 688.66 242.892 688.96 244.002 689.53C245.112 690.1 245.652 691 245.652 692.29C245.652 693.97 244.542 695.44 242.862 695.44C240.612 695.44 241.512 692.74 238.782 692.74C236.892 692.74 235.302 693.58 234.072 695.26C232.842 696.94 232.242 698.77 232.242 700.75C232.242 702.34 232.872 703.63 234.162 704.56C235.452 705.49 236.892 705.97 238.542 705.97ZM265.82 704.2C265.82 705.13 265.73 706.03 265.46 707.23C265.19 708.43 264.53 709.24 263.6 709.24C262.34 709.24 261.71 708.19 261.71 706.09C261.71 705.7 261.77 704.95 261.77 704.71C261.77 704.29 261.74 703.66 261.71 702.79C261.68 701.92 261.65 701.29 261.65 700.84C257.78 701.08 255.02 701.65 253.37 702.55C253.37 702.97 253.37 703.6 253.4 704.47C253.43 705.34 253.43 705.97 253.43 706.42C253.43 708.07 253.04 710.5 250.94 710.5C249.77 710.5 249.17 709.69 249.17 708.49C249.17 708.04 249.23 707.41 249.32 706.57C249.41 705.73 249.47 705.1 249.47 704.68C249.47 703.51 249.47 701.74 249.44 699.4C249.41 697.06 249.41 695.29 249.41 694.12C249.41 691.57 250.22 690.31 251.87 690.31C252.38 690.31 252.77 690.55 253.01 691C253.22 691.57 253.34 693.22 253.34 695.89V696.88C256.37 696.22 259.16 695.86 261.77 695.77C261.77 695.26 261.74 694.54 261.68 693.58C261.65 692.59 261.62 691.87 261.62 691.39C261.62 690.1 262.79 688.99 264.08 688.99C265.1 688.99 265.61 689.95 265.61 691.84C265.61 692.17 265.58 692.65 265.55 693.28C265.52 693.91 265.52 694.27 265.52 694.36C265.52 695.47 265.58 697.09 265.67 699.28C265.76 701.47 265.82 703.09 265.82 704.2ZM285.783 709.81C284.913 709.81 284.283 709.27 283.923 708.4C283.773 707.95 283.623 707.5 283.533 707.08C283.383 706.21 283.203 704.95 283.053 704.44C281.043 704.74 277.983 705.16 273.903 705.67L273.153 706.84C272.763 707.47 272.463 707.95 272.253 708.22C271.803 708.79 270.813 709.57 269.823 709.57C268.863 709.57 268.263 708.91 268.263 707.95C268.263 707.35 268.533 706.51 269.103 705.43C269.583 704.62 270.333 703.42 271.383 701.89C272.433 700.36 273.183 699.19 273.633 698.41C274.053 697.69 274.683 696.37 275.523 694.48C276.363 692.56 277.173 691.03 277.923 689.92C278.613 688.87 279.333 688.36 280.083 688.36C280.473 688.36 280.893 688.51 281.313 688.84C282.153 689.47 282.723 690.16 283.473 691.57C283.863 692.26 284.163 692.8 284.373 693.25L285.153 694.93C285.483 695.62 285.663 696.04 285.693 696.13C286.503 697.81 287.193 699.61 287.793 701.5C288.393 703.39 288.693 705.04 288.693 706.45C288.693 708.28 287.583 709.81 285.783 709.81ZM281.493 700.33C280.383 697.69 279.603 696.01 279.153 695.29L276.333 701.08C278.403 700.87 280.143 700.63 281.493 700.33ZM299.34 710.17C296.94 710.17 294.87 709.27 293.13 707.44C291.42 705.61 290.55 703.51 290.55 701.08C290.46 694.09 296.52 689.17 303.3 689.32C304.41 689.32 305.55 689.62 306.78 690.25C308.01 690.88 309.03 691.6 309.81 692.47C310.41 693.1 310.86 694 311.16 695.11C311.46 696.22 311.61 697.33 311.61 698.41C311.61 700.18 311.25 701.71 310.5 703.06C309.51 704.95 307.92 706.6 305.73 708.04C303.54 709.45 301.41 710.17 299.34 710.17ZM302.88 694.45C301.53 694.45 300.24 694.66 299.04 695.08C297.84 695.5 296.79 696.22 295.92 697.21C295.05 698.2 294.63 699.37 294.63 700.75C294.63 702.16 295.17 703.24 296.22 703.96C297.27 704.68 298.56 705.04 300.06 705.04C301.86 705.04 303.54 704.59 305.1 703.66C306.66 702.73 307.44 701.41 307.44 699.76C307.44 698.74 307.11 697.63 306.48 696.43C305.85 695.23 305.1 694.57 304.2 694.48C303.93 694.45 303.48 694.45 302.88 694.45ZM314.131 706.27C314.131 705.04 315.511 704.53 316.861 704.53C317.611 704.53 318.691 704.74 320.131 705.16C321.601 705.55 322.681 705.76 323.401 705.76C325.321 705.76 327.361 704.53 328.081 702.82C327.391 702.61 326.311 702.49 324.811 702.49C324.301 702.49 323.611 702.52 322.681 702.55C321.781 702.58 321.151 702.58 320.821 702.58C319.651 702.58 318.061 702.4 316.261 701.95C314.491 701.47 313.111 700.51 313.111 699.31C313.111 697.9 315.421 695.47 320.071 692.05C321.361 691.06 322.801 690.22 324.331 689.47C325.891 688.72 327.301 688.36 328.561 688.36C329.551 688.36 330.451 688.72 331.321 689.41C332.191 690.1 332.611 690.94 332.611 691.9C332.611 693.67 331.321 695.02 329.521 695.02C328.021 695.02 328.201 692.89 325.921 692.89C325.141 692.89 324.031 693.4 322.591 694.42C321.181 695.44 320.071 696.37 319.321 697.18C319.771 697.63 320.971 697.84 322.951 697.84C323.401 697.84 324.001 697.84 324.691 697.81C325.411 697.78 325.861 697.75 326.011 697.75C330.961 697.75 333.451 698.77 333.451 700.81C333.451 701.98 332.791 703.3 331.501 704.77C330.211 706.24 328.771 707.5 327.151 708.55C325.531 709.6 324.151 710.23 322.981 710.5C322.231 710.65 321.511 710.74 320.761 710.74C319.231 710.74 317.761 710.35 316.291 709.54C314.851 708.73 314.131 707.65 314.131 706.27Z" fill="#666666"/>
<path d="M650.831 704.2C650.831 705.13 650.741 706.03 650.471 707.23C650.201 708.43 649.541 709.24 648.611 709.24C647.351 709.24 646.721 708.19 646.721 706.09C646.721 705.7 646.781 704.95 646.781 704.71C646.781 704.29 646.751 703.66 646.721 702.79C646.691 701.92 646.661 701.29 646.661 700.84C642.791 701.08 640.031 701.65 638.381 702.55C638.381 702.97 638.381 703.6 638.411 704.47C638.441 705.34 638.441 705.97 638.441 706.42C638.441 708.07 638.051 710.5 635.951 710.5C634.781 710.5 634.181 709.69 634.181 708.49C634.181 708.04 634.241 707.41 634.331 706.57C634.421 705.73 634.481 705.1 634.481 704.68C634.481 703.51 634.481 701.74 634.451 699.4C634.421 697.06 634.421 695.29 634.421 694.12C634.421 691.57 635.231 690.31 636.881 690.31C637.391 690.31 637.781 690.55 638.021 691C638.231 691.57 638.351 693.22 638.351 695.89V696.88C641.381 696.22 644.171 695.86 646.781 695.77C646.781 695.26 646.751 694.54 646.691 693.58C646.661 692.59 646.631 691.87 646.631 691.39C646.631 690.1 647.801 688.99 649.091 688.99C650.111 688.99 650.621 689.95 650.621 691.84C650.621 692.17 650.591 692.65 650.561 693.28C650.531 693.91 650.531 694.27 650.531 694.36C650.531 695.47 650.591 697.09 650.681 699.28C650.771 701.47 650.831 703.09 650.831 704.2ZM654.084 704.2C653.514 702.79 653.214 701.59 653.214 700.66C653.214 699.25 653.514 697.78 654.144 696.22C654.774 694.66 655.584 693.37 656.574 692.38C657.654 691.27 659.034 690.37 660.744 689.74C662.454 689.11 664.164 688.78 665.814 688.78C668.244 688.78 670.314 689.5 672.054 690.97C673.464 692.17 674.184 694.3 674.184 697.36C674.184 701.11 673.074 704.08 670.824 706.33C668.574 708.55 665.604 709.66 661.854 709.66C658.104 709.66 655.524 707.83 654.084 704.2ZM663.864 693.94C662.244 693.94 660.774 694.39 659.454 695.29C658.134 696.19 657.474 697.42 657.474 698.98C657.474 702.58 659.934 704.44 663.624 704.44C668.034 704.44 670.614 702.28 670.614 697.99C670.614 696.22 669.894 695.08 668.424 694.63C666.924 694.18 665.394 693.94 663.864 693.94ZM689.213 696.67C690.623 696.73 691.823 697.15 692.783 697.96C693.773 698.77 694.253 699.85 694.253 701.23C694.253 702.55 693.713 703.84 692.663 705.1C691.613 706.33 690.293 707.38 688.763 708.19C685.733 709.84 682.223 710.89 679.793 710.89C678.383 710.89 677.423 710.59 676.943 710.02C676.493 709.45 676.253 708.4 676.253 706.93C676.253 706.3 676.283 705.37 676.373 704.14C676.463 702.91 676.493 701.95 676.493 701.32V699.4C676.493 697.6 676.433 696.28 676.343 695.44C676.313 695.2 676.163 694.21 676.133 693.85C676.133 693.22 676.073 692.26 676.253 691.63C676.523 690.73 677.663 689.98 679.673 689.38C681.713 688.75 683.363 688.45 684.653 688.45C685.583 688.45 686.483 688.6 687.353 688.87C689.123 689.38 690.713 690.79 690.713 692.71C690.713 693.94 690.203 695.26 689.213 696.67ZM687.413 701.47C686.423 701.47 685.193 701.62 683.723 701.89C682.283 702.16 681.173 702.52 680.363 702.91V706.09C684.713 705.31 687.653 704.44 689.213 703.48C689.993 702.97 690.383 702.58 690.383 702.37C690.293 702.04 689.903 701.83 689.213 701.68C688.523 701.53 687.923 701.47 687.413 701.47ZM684.353 693.7C682.343 693.7 680.813 694.09 679.733 694.87L679.943 697.66C680.993 697.39 682.343 696.91 683.933 696.19C685.553 695.44 686.423 694.78 686.573 694.15C686.063 693.85 685.313 693.7 684.353 693.7ZM716.093 701.74C716.093 703.09 715.133 704.68 713.183 706.51C711.713 707.89 709.823 708.91 707.513 709.57C705.233 710.26 702.923 710.59 700.553 710.59C699.983 710.59 699.443 710.56 698.933 710.47C697.943 710.32 696.743 709.63 696.743 708.52C696.743 708.19 696.803 707.29 696.893 705.79C696.953 704.08 696.983 701.47 696.983 697.99C696.983 697.48 696.923 696.79 696.833 695.92C696.743 695.02 696.713 694.39 696.713 694.03C696.713 692.65 697.103 691.66 697.883 691.09C698.633 690.52 699.923 690.01 701.753 689.56C703.583 689.11 705.053 688.9 706.223 688.9C707.513 688.9 708.833 689.14 710.183 689.65C711.533 690.16 712.493 691.21 712.493 692.62C712.493 693.97 711.563 695.53 709.703 697.36C713.963 697.93 716.093 699.37 716.093 701.74ZM711.773 703.3C711.203 702.85 710.393 702.49 709.343 702.28C708.293 702.04 707.333 701.92 706.403 701.92C704.783 701.92 702.893 702.19 700.703 702.7L700.763 705.76H701.273C702.893 705.76 704.873 705.55 707.243 705.1C709.613 704.65 711.143 704.05 711.773 703.3ZM700.643 695.05L700.703 697.84C701.813 697.57 703.313 697 705.263 696.19C707.213 695.35 708.203 694.66 708.203 694.15C708.113 694.03 707.753 693.94 707.123 693.85C706.523 693.76 706.073 693.7 705.743 693.7C703.913 693.7 702.233 694.15 700.643 695.05ZM722.715 701.05L721.935 700.54L720.975 699.88L720.015 699.19C719.565 698.83 719.205 698.56 718.995 698.35C718.605 697.96 717.615 697.15 717.225 696.64C716.565 695.8 715.875 694.69 715.965 693.82C715.965 693.25 716.175 692.59 716.625 691.9C717.075 691.21 717.555 690.85 718.125 690.85C718.665 690.85 719.295 691.12 719.985 691.63C720.675 692.14 721.425 692.8 722.205 693.61C723.015 694.39 723.555 694.9 723.825 695.11L725.655 696.34L726.285 695.35C726.975 694.27 727.365 693.73 728.115 692.56C728.925 691.39 729.555 690.7 730.365 689.89C731.175 689.08 731.955 688.69 732.585 688.69C733.395 688.69 733.905 689.32 733.905 690.07C733.905 690.64 733.395 691.63 732.915 692.32L732.045 693.58L731.415 694.48C729.405 697.39 727.815 699.85 726.615 701.83C726.255 702.43 725.595 703.66 724.635 705.55C723.705 707.41 722.865 708.82 722.175 709.75C721.605 710.5 721.035 710.89 720.435 710.89C718.965 710.77 718.575 709.03 719.445 706.87C719.775 706.09 720.075 705.46 720.345 704.95C720.615 704.44 721.065 703.69 721.665 702.76C722.265 701.8 722.625 701.23 722.715 701.05Z" fill="#666666"/>
<path d="M451.192 394.7H450.892C450.262 394.7 449.332 394.76 448.102 394.85C446.872 394.94 445.912 394.97 445.282 394.97C444.292 394.97 443.002 394.88 441.352 394.55C439.702 394.22 438.472 393.47 438.472 392.48C438.472 392 438.652 391.43 439.042 390.8C439.432 390.17 439.792 389.63 440.152 389.24C440.542 388.82 441.082 388.25 441.772 387.56L443.002 386.3C444.292 384.95 445.852 383.69 447.712 382.49C449.602 381.26 451.222 380.66 452.602 380.66C453.772 380.66 454.792 380.93 455.632 381.5C456.502 382.04 456.922 382.88 456.922 383.99C456.922 384.8 456.652 385.55 456.082 386.3C455.512 387.02 454.852 387.38 454.102 387.38C453.142 387.38 452.722 387.17 452.332 386.72L452.002 386.3C451.972 386.21 451.852 386.03 451.702 385.73L451.432 385.13C451.192 385.04 451.012 384.98 450.862 384.98C449.842 384.98 448.672 385.52 447.322 386.6C445.972 387.65 444.892 388.73 444.082 389.78C444.652 390.05 445.552 390.17 446.812 390.17C447.622 390.17 448.882 390.11 450.562 390.02C452.242 389.9 453.502 389.84 454.342 389.84C455.272 389.84 456.172 390.11 457.042 390.62C457.942 391.13 458.392 391.79 458.392 392.66C458.392 393.02 458.272 393.5 458.062 394.07C456.952 396.53 455.212 398.63 452.812 400.34C450.442 402.05 447.952 402.92 445.402 402.92C443.872 402.92 442.462 402.56 441.232 401.84C440.002 401.15 439.372 400.1 439.372 398.69C439.372 397.61 440.362 397.1 441.532 397.1C442.042 397.1 442.822 397.25 443.842 397.52L445.492 397.97C446.182 398.12 447.142 398.21 448.372 398.21C450.022 398.21 451.552 397.25 452.962 395.3C452.812 394.91 452.212 394.7 451.192 394.7ZM465.647 383.54C465.647 383.99 465.617 384.44 465.557 384.92C465.527 385.37 465.437 385.94 465.317 386.63L465.107 388.01C465.017 388.82 464.927 389.69 464.867 390.62L464.687 393.86L464.597 396.47C467.507 396.02 469.247 395.75 469.817 395.69C470.147 395.66 470.987 395.48 472.337 395.21C473.717 394.94 474.767 394.79 475.487 394.79C475.997 394.79 476.537 394.91 477.077 395.18C477.617 395.45 477.887 395.81 477.887 396.29C477.887 396.74 477.647 397.28 477.197 397.91C476.747 398.54 476.297 399.02 475.847 399.35C475.217 399.8 473.297 400.28 470.087 400.73C466.907 401.18 464.627 401.39 463.217 401.39C461.417 401.39 460.787 400.7 460.787 398.87C460.787 398.48 460.817 397.97 460.877 397.28C460.937 396.59 460.967 396.08 460.967 395.78L461.147 391.91C461.237 390.2 461.327 388.91 461.387 388.04C461.417 387.86 461.417 387.29 461.447 386.33C461.477 385.34 461.537 384.59 461.627 384.08C461.957 382.19 462.587 381.26 463.517 381.26C464.687 381.26 465.647 382.37 465.647 383.54ZM488.071 402.17C485.671 402.17 483.601 401.27 481.861 399.44C480.151 397.61 479.281 395.51 479.281 393.08C479.191 386.09 485.251 381.17 492.031 381.32C493.141 381.32 494.281 381.62 495.511 382.25C496.741 382.88 497.761 383.6 498.541 384.47C499.141 385.1 499.591 386 499.891 387.11C500.191 388.22 500.341 389.33 500.341 390.41C500.341 392.18 499.981 393.71 499.231 395.06C498.241 396.95 496.651 398.6 494.461 400.04C492.271 401.45 490.141 402.17 488.071 402.17ZM491.611 386.45C490.261 386.45 488.971 386.66 487.771 387.08C486.571 387.5 485.521 388.22 484.651 389.21C483.781 390.2 483.361 391.37 483.361 392.75C483.361 394.16 483.901 395.24 484.951 395.96C486.001 396.68 487.291 397.04 488.791 397.04C490.591 397.04 492.271 396.59 493.831 395.66C495.391 394.73 496.171 393.41 496.171 391.76C496.171 390.74 495.841 389.63 495.211 388.43C494.581 387.23 493.831 386.57 492.931 386.48C492.661 386.45 492.211 386.45 491.611 386.45ZM507.302 395.21V396.56C507.302 398.03 507.242 399.02 506.912 400.34C506.582 401.66 505.802 402.41 504.632 402.41C503.612 402.41 503.102 401.57 503.102 399.92C503.102 398.81 503.162 397.16 503.252 394.97C503.342 392.78 503.402 391.13 503.402 390.02C503.402 389.57 503.372 388.91 503.342 388.04C503.312 387.17 503.312 386.51 503.312 386.06C503.312 384.95 503.432 384.2 503.672 383.78C503.942 383.33 504.542 382.94 505.472 382.55C508.592 381.02 511.352 380.24 513.722 380.24C517.082 380.24 520.532 380.9 520.532 385.04C520.532 387.11 519.362 389.18 517.592 390.74C515.822 392.27 513.962 393.38 512.012 394.22C510.632 394.79 509.072 395.12 507.302 395.21ZM507.392 390.77C509.942 390.77 512.942 389.78 515.132 388.34C516.062 387.65 516.542 387.2 516.542 386.93C516.542 385.64 515.342 385.16 513.992 385.16C512.162 385.16 510.002 385.76 507.482 386.93C507.482 387.86 507.452 389.81 507.392 390.77Z" fill="#666666"/>
<path d="M611.864 511.63C611.864 513.67 611.114 515.8 609.704 517.75C608.294 519.67 607.184 520.93 605.474 522.61C604.214 523.84 602.684 525.01 600.854 526.15C599.054 527.32 597.524 527.89 596.264 527.89C594.674 527.89 594.194 526.87 594.194 525.19C594.194 524.83 594.254 524.02 594.254 523.69C594.254 522.85 594.284 521.62 594.374 519.97C594.464 518.32 594.494 517.06 594.494 516.25C594.494 515.44 594.434 514.27 594.314 512.68C594.224 511.09 594.164 509.92 594.164 509.14C594.284 507.58 595.274 506.62 597.014 506.14C598.244 505.78 599.054 505.63 600.494 505.54C601.214 505.51 601.754 505.48 602.084 505.48C602.444 505.45 602.894 505.45 603.434 505.45C605.624 505.45 607.454 505.84 609.134 506.71C610.844 507.58 611.864 509.32 611.864 511.63ZM607.424 513.1C607.424 512.38 607.184 511.81 606.704 511.36C605.744 510.49 604.604 510.31 603.164 510.31C601.514 510.31 599.894 510.52 598.244 510.97C598.424 513.94 598.574 517.54 598.664 521.77C599.774 521.32 600.944 520.66 602.234 519.79C603.524 518.92 604.694 517.84 605.774 516.61C606.884 515.35 607.424 514.18 607.424 513.1ZM625.518 524.35C621.978 526.3 619.188 527.26 617.118 527.26C616.068 527.26 615.348 527.08 614.958 526.72C614.658 526.45 614.418 525.55 614.268 524.02C614.118 522.49 614.058 521.2 614.058 520.15C614.058 518.92 614.208 516.79 614.538 513.7C614.868 510.61 615.198 508.81 615.528 508.33C615.858 507.88 616.218 507.67 616.638 507.67C617.088 507.67 617.538 507.94 618.018 508.45C618.528 508.96 618.768 509.41 618.768 509.83C618.768 510.64 618.678 511.84 618.468 513.4C618.258 514.96 618.168 516.13 618.168 516.91V521.77C619.458 521.65 621.138 521.05 622.128 520.54C622.638 520.27 623.328 519.94 624.138 519.49C624.978 519.04 625.578 518.74 625.968 518.56C626.028 518.05 626.058 517.51 626.058 516.97C626.088 516.16 626.148 514.96 626.178 513.4L626.298 510.28C626.298 509.95 626.268 509.05 626.268 508.66C626.268 506.68 626.868 505.69 628.038 505.69C629.088 505.69 629.778 506.23 630.048 507.19C630.378 508.15 630.408 508.81 630.408 509.98C630.408 511.87 630.258 515.02 629.928 519.43C629.598 523.81 629.298 526.33 628.998 526.99C628.698 527.59 628.278 527.89 627.708 527.89C627.078 527.89 626.568 527.47 626.148 526.63C625.728 525.82 625.518 525.04 625.518 524.35ZM653.046 510.7C653.046 512.14 652.476 513.73 651.336 515.5C650.226 517.27 648.816 518.89 647.166 520.39C643.896 523.36 640.236 525.88 637.566 527.05C636.366 527.5 635.646 527.71 635.406 527.71C634.356 527.71 633.696 527.08 633.456 525.97C633.216 524.8 633.186 524.29 633.186 523.12C633.186 522.1 633.216 520.57 633.276 518.53C633.336 516.49 633.366 514.96 633.366 513.94C633.366 513.61 633.336 513.13 633.306 512.47C633.276 511.78 633.276 511.27 633.276 510.94C633.276 509.5 633.636 508.63 634.746 507.91C635.976 507.16 637.506 506.53 639.336 506.08C641.166 505.6 642.876 505.36 644.436 505.36C646.026 505.36 648.006 505.81 649.836 506.65C651.666 507.46 653.046 508.99 653.046 510.7ZM643.716 510.4C642.366 510.4 640.176 510.85 637.086 511.78C637.236 513.97 637.326 517.33 637.326 521.8C639.516 520.96 641.736 519.76 643.956 518.23C646.176 516.7 647.736 515.08 648.636 513.37C648.756 513.22 648.816 513.07 648.816 512.95C648.516 512.05 647.856 511.39 646.866 511C645.876 510.61 644.826 510.4 643.716 510.4Z" fill="white"/>
<path d="M447.375 761.27C447.375 761.48 447.405 762.08 447.465 763.1C447.555 764.09 447.585 764.87 447.585 765.41C447.585 767.24 447.225 769.04 446.535 770.81C445.845 772.58 444.825 773.96 443.475 774.95C442.575 775.61 441.495 776.15 440.265 776.6C439.035 777.05 437.895 777.26 436.845 777.26C435.195 777.26 433.785 776.69 432.555 775.52C431.355 774.35 430.755 772.94 430.755 771.29C430.755 770.45 431.025 769.64 431.535 768.89C432.045 768.14 432.735 767.75 433.545 767.75C434.295 767.75 434.805 767.9 435.045 768.17C435.315 768.44 435.555 768.92 435.795 769.67C435.795 769.76 435.825 769.85 435.885 769.97C436.365 771.5 436.935 771.71 438.525 771.71C439.905 771.71 441.135 771.38 442.185 770.72C443.265 770.03 443.805 769.04 443.805 767.75C443.805 765.14 443.775 763.19 443.745 761.87C443.505 761.9 443.025 761.96 442.335 762.08C441.645 762.2 441.135 762.26 440.745 762.26C440.175 762.26 439.575 762.11 438.885 761.84C438.195 761.57 437.865 761.18 437.865 760.73C437.865 759.92 438.375 758.9 439.005 758.39C439.755 757.76 441.435 757.19 444.015 756.74C446.625 756.26 448.635 756.02 450.105 756.02C451.455 756.02 452.565 756.8 452.565 758.15C452.565 758.87 451.755 759.89 451.005 760.46C450.585 760.76 449.385 761.03 447.375 761.27ZM457.886 763.28L457.706 765.08C461.576 764.6 464.276 764.36 465.806 764.36C467.636 764.36 468.536 764.93 468.536 766.07C468.536 766.97 468.146 767.69 467.366 768.23C466.376 768.86 463.106 769.43 457.556 769.91C457.556 770.27 457.466 771.17 457.316 772.61L460.466 772.16C463.316 771.68 465.356 771.44 467.366 771.44C468.476 771.44 469.016 772.01 469.016 773.18C469.016 774.38 468.116 775.31 467.036 775.79C466.496 776.03 465.836 776.24 465.026 776.39C463.466 776.72 462.446 776.78 461.096 776.87C460.856 776.87 460.706 776.9 460.556 776.9C460.166 776.93 459.536 777.05 458.666 777.29C457.796 777.53 457.136 777.65 456.626 777.65C454.376 777.65 453.176 775.79 453.176 773.51C453.176 772.97 453.236 772.19 453.386 771.2C453.536 770.21 453.626 769.52 453.656 769.13L453.836 765.47C453.926 763.61 454.016 762.2 454.106 761.21C454.226 760.22 454.676 759.29 455.456 758.48C456.266 757.67 457.166 757.13 458.156 756.92C461.246 756.23 464.126 755.9 466.736 755.9C467.546 755.9 468.296 756.05 468.986 756.38C469.676 756.68 470.036 757.16 470.036 757.85C470.036 758.45 469.736 759.02 469.136 759.56C468.566 760.07 467.936 760.4 467.306 760.55C466.436 760.73 464.966 760.91 462.866 761.09C460.766 761.24 459.176 761.48 458.066 761.78L457.886 763.28ZM477.102 766.76L477.852 764.66C477.942 764.48 478.122 763.94 478.422 763.04C478.722 762.14 478.992 761.39 479.262 760.76C479.532 760.13 479.862 759.44 480.252 758.69C481.062 757.13 482.022 756.26 483.072 756.26C483.642 756.26 484.242 756.83 484.812 757.94C485.382 759.05 485.772 760.01 485.952 760.82C486.432 763.01 487.302 765.38 488.592 767.96L489.132 766.34L489.642 764.99C489.762 764.66 489.912 763.94 490.092 762.83C490.272 761.69 490.452 760.64 490.632 759.71C490.842 758.75 491.172 757.88 491.652 757.1C492.132 756.29 492.702 755.9 493.392 755.9C494.352 755.9 494.802 756.86 494.802 757.91C494.802 759.5 494.082 762.62 492.642 767.3C491.202 771.95 490.032 774.74 489.102 775.61C488.712 776.03 488.262 776.24 487.752 776.24C486.372 776.24 485.292 774.59 484.272 772.64C483.642 771.41 482.982 769.49 482.592 768.38L481.992 766.43L481.572 765.08L480.822 767.18C480.462 768.29 480.102 769.34 479.712 770.36C479.352 771.38 478.932 772.43 478.422 773.54C477.462 775.7 476.322 777.14 475.272 777.14C474.342 777.14 473.622 776.15 473.112 774.17C472.872 773.27 472.662 772.25 472.452 771.11C472.242 769.97 472.032 768.65 471.822 767.15L471.372 764.03L471.102 762.89C470.952 762.2 470.892 761.66 470.892 761.3C470.892 759.29 471.942 757.55 473.862 757.55C474.552 757.55 475.092 757.85 475.422 758.48C475.632 758.84 475.812 759.56 476.022 760.64C476.232 761.72 476.442 762.92 476.652 764.21C476.862 765.5 477.012 766.34 477.102 766.76ZM500.135 763.28L499.955 765.08C503.825 764.6 506.525 764.36 508.055 764.36C509.885 764.36 510.785 764.93 510.785 766.07C510.785 766.97 510.395 767.69 509.615 768.23C508.625 768.86 505.355 769.43 499.805 769.91C499.805 770.27 499.715 771.17 499.565 772.61L502.715 772.16C505.565 771.68 507.605 771.44 509.615 771.44C510.725 771.44 511.265 772.01 511.265 773.18C511.265 774.38 510.365 775.31 509.285 775.79C508.745 776.03 508.085 776.24 507.275 776.39C505.715 776.72 504.695 776.78 503.345 776.87C503.105 776.87 502.955 776.9 502.805 776.9C502.415 776.93 501.785 777.05 500.915 777.29C500.045 777.53 499.385 777.65 498.875 777.65C496.625 777.65 495.425 775.79 495.425 773.51C495.425 772.97 495.485 772.19 495.635 771.2C495.785 770.21 495.875 769.52 495.905 769.13L496.085 765.47C496.175 763.61 496.265 762.2 496.355 761.21C496.475 760.22 496.925 759.29 497.705 758.48C498.515 757.67 499.415 757.13 500.405 756.92C503.495 756.23 506.375 755.9 508.985 755.9C509.795 755.9 510.545 756.05 511.235 756.38C511.925 756.68 512.285 757.16 512.285 757.85C512.285 758.45 511.985 759.02 511.385 759.56C510.815 760.07 510.185 760.4 509.555 760.55C508.685 760.73 507.215 760.91 505.115 761.09C503.015 761.24 501.425 761.48 500.315 761.78L500.135 763.28ZM518.991 758.54C518.991 758.99 518.961 759.44 518.901 759.92C518.871 760.37 518.781 760.94 518.661 761.63L518.451 763.01C518.361 763.82 518.271 764.69 518.211 765.62L518.031 768.86L517.941 771.47C520.851 771.02 522.591 770.75 523.161 770.69C523.491 770.66 524.331 770.48 525.681 770.21C527.061 769.94 528.111 769.79 528.831 769.79C529.341 769.79 529.881 769.91 530.421 770.18C530.961 770.45 531.231 770.81 531.231 771.29C531.231 771.74 530.991 772.28 530.541 772.91C530.091 773.54 529.641 774.02 529.191 774.35C528.561 774.8 526.641 775.28 523.431 775.73C520.251 776.18 517.971 776.39 516.561 776.39C514.761 776.39 514.131 775.7 514.131 773.87C514.131 773.48 514.161 772.97 514.221 772.28C514.281 771.59 514.311 771.08 514.311 770.78L514.491 766.91C514.581 765.2 514.671 763.91 514.731 763.04C514.761 762.86 514.761 762.29 514.791 761.33C514.821 760.34 514.881 759.59 514.971 759.08C515.301 757.19 515.931 756.26 516.861 756.26C518.031 756.26 518.991 757.37 518.991 758.54Z" fill="white"/>
<path d="M295.079 511.03C295.079 512.38 294.599 513.7 293.639 514.99C292.679 516.25 291.479 517.3 290.069 518.14C287.219 519.82 283.979 520.93 281.429 521.14C281.429 521.23 281.399 521.53 281.369 522.04C281.339 523 281.249 523.36 281.099 524.35C280.979 525.34 280.709 525.85 280.349 526.48C279.989 527.17 279.389 527.47 278.669 527.47C278.219 527.47 277.829 527.2 277.529 526.63C277.229 526.09 277.079 525.58 277.079 525.07C277.079 524.8 277.169 524.32 277.349 523.6C277.559 522.85 277.649 521.89 277.649 520.69C277.679 519.82 277.679 518.47 277.679 516.67V514.36C277.679 513.97 277.649 513.43 277.589 512.68C277.529 511.93 277.499 511.36 277.499 510.97C277.499 509.68 277.769 508.93 278.729 508.33C279.959 507.58 281.429 506.98 283.169 506.56C284.939 506.11 286.589 505.9 288.149 505.9C292.769 505.9 295.079 507.61 295.079 511.03ZM290.849 511.78C290.429 511.24 289.499 510.97 288.059 510.97C286.229 510.97 283.979 511.39 281.279 512.26C281.429 513.76 281.519 515.17 281.519 516.49C283.109 516.34 284.879 516.01 286.919 515.32C288.959 514.6 290.579 513.34 290.849 511.78ZM299.494 506.74C300.454 506.74 301.084 507.28 301.324 508.33C301.564 509.38 301.594 509.89 301.594 510.94C301.594 511.45 301.564 512.2 301.474 513.25C301.414 514.3 301.384 515.08 301.384 515.59C301.384 516.52 301.414 517.93 301.474 519.76C301.564 521.59 301.594 523 301.594 523.93C301.594 525.28 300.754 526.72 299.434 526.72C298.714 526.72 298.204 526.15 297.934 525.01C297.604 523.72 297.454 519.55 297.454 512.44V510.73C297.454 509.92 297.544 509.2 297.784 508.27C298.054 507.34 298.654 506.74 299.494 506.74ZM318.51 517.72C318.54 517.45 318.54 516.64 318.57 515.32L318.63 511.84C318.66 510.85 318.75 509.8 318.87 508.75C318.99 507.67 319.14 506.95 319.32 506.59C319.68 505.81 320.19 505.42 320.85 505.42C322.35 505.45 322.95 507.85 322.89 509.05C322.89 510.16 322.74 511.81 322.47 514C322.2 516.19 322.08 517.84 322.08 518.92C322.08 519.37 322.11 520 322.14 520.84C322.2 521.65 322.23 522.28 322.23 522.7C322.23 524.77 321.6 525.82 320.31 525.82C319.8 525.82 319.23 525.61 318.66 525.19C318.03 524.8 317.1 523.99 315.87 522.82C314.64 521.62 313.29 520.24 311.82 518.68C310.35 517.09 309.42 516.13 309.03 515.74C309 516.07 308.97 517.03 308.94 518.65C308.91 520.24 308.88 521.71 308.82 523.06C308.76 524.41 308.67 525.22 308.58 525.52C308.34 526.27 307.68 526.81 306.87 526.81C305.4 526.81 304.89 525.22 304.89 523.45C304.89 521.98 305.01 519.73 305.28 516.76C305.55 513.76 305.7 511.51 305.7 510.04C305.7 508.69 306.54 507.43 307.83 507.43C308.46 507.43 309 507.73 309.48 508.33C311.73 511.15 314.73 514.27 318.51 517.72ZM345.04 518.74C345.04 520.09 344.08 521.68 342.13 523.51C340.66 524.89 338.8 525.91 336.49 526.57C334.18 527.26 331.87 527.59 329.5 527.59C328.93 527.59 328.39 527.56 327.88 527.47C326.89 527.32 325.69 526.63 325.69 525.52C325.69 525.19 325.72 524.68 325.75 524.05C325.78 523.42 325.81 523 325.81 522.79C325.9 521.08 325.93 518.47 325.93 514.99C325.93 514.48 325.87 513.79 325.78 512.92C325.69 512.02 325.63 511.39 325.63 511.03C325.63 509.68 326.02 508.69 326.8 508.09C327.55 507.52 328.84 507.01 330.67 506.56C332.5 506.11 333.97 505.9 335.14 505.9C337.45 505.9 341.41 506.68 341.41 509.62C341.41 510.97 340.48 512.56 338.65 514.36C342.91 514.93 345.04 516.37 345.04 518.74ZM340.72 520.3C340.15 519.85 339.34 519.49 338.29 519.28C337.24 519.04 336.25 518.92 335.35 518.92C333.7 518.92 331.78 519.19 329.65 519.7L329.68 522.76H330.22C331.84 522.76 333.82 522.55 336.19 522.1C338.56 521.65 340.09 521.05 340.72 520.3ZM329.59 512.05L329.65 514.84C330.76 514.57 332.26 514 334.21 513.19C336.16 512.35 337.12 511.66 337.12 511.15C337.03 511.03 336.7 510.94 336.07 510.85C335.47 510.76 335.02 510.7 334.69 510.7C332.86 510.7 331.18 511.15 329.59 512.05ZM362.588 526.99C361.718 526.99 360.908 526.24 360.398 525.04C359.888 523.81 359.588 523 359.318 521.92C359.288 521.8 359.258 521.77 359.258 521.68C355.838 522.4 353.318 522.76 351.668 522.76C351.578 522.76 351.188 522.73 350.528 522.67C350.498 522.7 350.438 522.91 350.318 523.24L350.048 523.96C349.958 524.23 349.658 525.1 349.448 525.46C349.238 525.79 348.908 526.48 348.578 526.75C348.098 527.29 347.528 527.71 346.808 527.71C345.878 527.71 345.398 527.11 345.398 526.18C345.398 525.58 346.718 522.34 349.358 516.46C352.028 510.55 353.738 507.19 354.488 506.35C355.118 505.69 355.718 505.36 356.288 505.36C356.678 505.36 357.278 505.87 357.848 506.71C358.148 507.1 358.418 507.49 358.658 507.88C359.138 508.6 359.738 509.62 359.858 509.83C361.028 511.78 362.168 514.12 363.218 516.88C364.298 519.64 364.838 521.92 364.838 523.69C364.838 524.32 364.598 525.01 364.118 525.82C363.668 526.6 363.158 526.99 362.588 526.99ZM357.848 517.69C357.698 517.42 357.458 516.94 357.128 516.19C356.438 514.72 355.868 513.55 355.298 512.8C353.738 515.5 352.808 517.3 352.478 518.23C355.568 517.96 357.368 517.78 357.848 517.69ZM371.851 510.64C371.851 511.99 371.761 513.91 371.581 516.4C371.431 518.89 371.311 520.6 371.281 521.53C373.591 521.44 376.321 521.17 379.471 520.69C380.281 520.54 380.911 520.45 381.361 520.45C382.441 520.45 383.191 521.59 383.191 522.76C383.191 523.63 382.651 524.35 381.541 524.98C380.461 525.58 379.081 526 377.431 526.27C374.161 526.78 371.821 526.93 369.811 526.93C368.131 526.93 367.471 525.22 367.471 523.3C367.471 523.03 367.531 522.52 367.681 521.71C367.771 521.26 367.831 520.6 367.831 519.73V518.17V515.98C367.831 511.27 367.921 508.54 368.071 507.85C368.341 506.83 368.971 506.32 369.901 506.32C371.191 506.32 371.851 507.76 371.851 510.64ZM397.831 521.2C400.471 521.2 401.791 522.07 401.791 523.84C401.791 525.07 400.501 525.88 399.151 526.09C398.641 526.18 397.891 526.27 396.901 526.36C395.941 526.45 395.311 526.54 395.011 526.57C394.711 526.6 393.841 526.75 392.371 526.99C390.901 527.26 390.001 527.38 389.611 527.38C387.481 527.38 386.401 526.42 386.401 524.53C386.401 523.96 386.431 523.09 386.521 521.92C386.611 520.75 386.641 519.88 386.641 519.31V518.5C386.641 517.99 386.641 517.21 386.611 516.13C386.581 515.05 386.581 514.24 386.581 513.7C386.581 511.57 386.701 509.71 386.971 508.15C387.151 506.83 387.571 506.17 388.231 506.17C389.701 506.17 390.451 507.19 390.451 509.23C390.451 509.68 390.421 510.31 390.361 511.18C390.331 512.05 390.301 512.68 390.301 513.13C390.301 516.1 390.271 519.04 390.211 521.98C390.751 521.92 391.561 521.83 392.611 521.68C394.741 521.35 396.361 521.2 397.831 521.2Z" fill="white"/>
<path fill-rule="evenodd" clip-rule="evenodd" d="M467.516 615.43L512.168 562.731C513.137 561.587 514.317 562.977 515.227 563.751L525.379 572.352C526.523 573.321 525.133 574.501 524.359 575.411L468.57 641.251C467.402 642.63 466.094 640.505 465.375 639.677L435.313 604.966C434.333 603.833 435.887 602.88 436.79 602.098L446.845 593.391C447.977 592.411 448.931 593.966 449.712 594.868L467.516 615.43Z" fill="#D9D9D9"/>
<path d="M44.97 31.67C46.38 31.73 47.58 32.15 48.54 32.96C49.53 33.77 50.01 34.85 50.01 36.23C50.01 37.55 49.47 38.84 48.42 40.1C47.37 41.33 46.05 42.38 44.52 43.19C41.49 44.84 37.98 45.89 35.55 45.89C34.14 45.89 33.18 45.59 32.7 45.02C32.25 44.45 32.01 43.4 32.01 41.93C32.01 41.3 32.04 40.37 32.13 39.14C32.22 37.91 32.25 36.95 32.25 36.32V34.4C32.25 32.6 32.19 31.28 32.1 30.44C32.07 30.2 31.92 29.21 31.89 28.85C31.89 28.22 31.83 27.26 32.01 26.63C32.28 25.73 33.42 24.98 35.43 24.38C37.47 23.75 39.12 23.45 40.41 23.45C41.34 23.45 42.24 23.6 43.11 23.87C44.88 24.38 46.47 25.79 46.47 27.71C46.47 28.94 45.96 30.26 44.97 31.67ZM43.17 36.47C42.18 36.47 40.95 36.62 39.48 36.89C38.04 37.16 36.93 37.52 36.12 37.91V41.09C40.47 40.31 43.41 39.44 44.97 38.48C45.75 37.97 46.14 37.58 46.14 37.37C46.05 37.04 45.66 36.83 44.97 36.68C44.28 36.53 43.68 36.47 43.17 36.47ZM40.11 28.7C38.1 28.7 36.57 29.09 35.49 29.87L35.7 32.66C36.75 32.39 38.1 31.91 39.69 31.19C41.31 30.44 42.18 29.78 42.33 29.15C41.82 28.85 41.07 28.7 40.11 28.7ZM63.7188 42.35C60.1788 44.3 57.3888 45.26 55.3188 45.26C54.2688 45.26 53.5488 45.08 53.1588 44.72C52.8588 44.45 52.6188 43.55 52.4688 42.02C52.3188 40.49 52.2588 39.2 52.2588 38.15C52.2588 36.92 52.4088 34.79 52.7388 31.7C53.0688 28.61 53.3988 26.81 53.7288 26.33C54.0588 25.88 54.4188 25.67 54.8388 25.67C55.2888 25.67 55.7388 25.94 56.2188 26.45C56.7288 26.96 56.9688 27.41 56.9688 27.83C56.9688 28.64 56.8788 29.84 56.6688 31.4C56.4588 32.96 56.3688 34.13 56.3688 34.91V39.77C57.6588 39.65 59.3388 39.05 60.3288 38.54C60.8388 38.27 61.5288 37.94 62.3388 37.49C63.1788 37.04 63.7788 36.74 64.1688 36.56C64.2288 36.05 64.2588 35.51 64.2588 34.97C64.2888 34.16 64.3488 32.96 64.3788 31.4L64.4988 28.28C64.4988 27.95 64.4688 27.05 64.4688 26.66C64.4688 24.68 65.0688 23.69 66.2388 23.69C67.2888 23.69 67.9788 24.23 68.2488 25.19C68.5788 26.15 68.6088 26.81 68.6088 27.98C68.6088 29.87 68.4588 33.02 68.1288 37.43C67.7988 41.81 67.4988 44.33 67.1988 44.99C66.8988 45.59 66.4788 45.89 65.9088 45.89C65.2788 45.89 64.7688 45.47 64.3488 44.63C63.9288 43.82 63.7188 43.04 63.7188 42.35ZM90.2559 27.14C90.2559 28.07 89.9559 29 89.3859 29.9C88.8159 30.8 88.0959 31.25 87.2259 31.25C86.1459 31.25 85.5159 30.35 85.2759 29.51C85.0359 28.64 84.4659 27.74 83.4759 27.74C82.5159 27.74 81.3159 28.31 79.8759 29.42C78.4659 30.53 77.3259 31.58 76.5159 32.6C77.3859 32.99 78.6759 33.17 80.3559 33.17C81.0459 33.17 82.0359 33.11 83.3859 32.96C84.7359 32.81 85.7259 32.75 86.3859 32.75C87.4359 32.75 88.5159 32.93 89.6259 33.32C90.7959 33.71 91.5759 34.61 91.5759 35.72C91.5759 36.8 91.1559 37.91 90.2859 39.02C89.4459 40.13 88.4559 41.12 87.3459 42.02C86.1159 43.01 84.6459 43.85 82.9359 44.54C81.2559 45.23 79.6659 45.59 78.1659 45.59C77.5659 45.59 76.9959 45.53 76.4559 45.41C75.5859 45.23 74.5659 44.84 73.3659 44.21C72.1659 43.61 71.5659 43.01 71.5659 42.41C71.5659 41.75 71.9559 41.18 72.7059 40.67C73.4559 40.16 74.1759 39.89 74.8659 39.89C75.4959 39.89 76.5759 40.04 78.1659 40.34C79.7559 40.61 80.9859 40.76 81.8559 40.76C82.6059 40.76 83.4159 40.49 84.2859 39.92C85.1559 39.35 85.8759 38.75 86.4459 38.06C86.0559 37.82 85.4259 37.7 84.5559 37.7C84.1059 37.7 83.4159 37.73 82.4859 37.79C81.5859 37.85 80.8959 37.88 80.4459 37.88H78.9759L77.0559 37.79C76.2159 37.73 75.4659 37.64 74.8059 37.49C72.8559 37.13 70.6059 36.41 70.7559 34.97C70.7559 34.07 71.4159 32.75 72.7659 31.04C74.5059 28.88 76.6059 27.02 79.0659 25.46C81.5259 23.9 83.9559 23.12 86.3559 23.12C88.6659 23.12 90.2559 24.83 90.2559 27.14ZM96.5243 24.74C97.4843 24.74 98.1143 25.28 98.3543 26.33C98.5943 27.38 98.6243 27.89 98.6243 28.94C98.6243 29.45 98.5943 30.2 98.5043 31.25C98.4443 32.3 98.4143 33.08 98.4143 33.59C98.4143 34.52 98.4443 35.93 98.5043 37.76C98.5943 39.59 98.6243 41 98.6243 41.93C98.6243 43.28 97.7843 44.72 96.4643 44.72C95.7443 44.72 95.2343 44.15 94.9643 43.01C94.6343 41.72 94.4843 37.55 94.4843 30.44V28.73C94.4843 27.92 94.5743 27.2 94.8143 26.27C95.0843 25.34 95.6843 24.74 96.5243 24.74ZM115.541 35.72C115.571 35.45 115.571 34.64 115.601 33.32L115.661 29.84C115.691 28.85 115.781 27.8 115.901 26.75C116.021 25.67 116.171 24.95 116.351 24.59C116.711 23.81 117.221 23.42 117.881 23.42C119.381 23.45 119.981 25.85 119.921 27.05C119.921 28.16 119.771 29.81 119.501 32C119.231 34.19 119.111 35.84 119.111 36.92C119.111 37.37 119.141 38 119.171 38.84C119.231 39.65 119.261 40.28 119.261 40.7C119.261 42.77 118.631 43.82 117.341 43.82C116.831 43.82 116.261 43.61 115.691 43.19C115.061 42.8 114.131 41.99 112.901 40.82C111.671 39.62 110.321 38.24 108.851 36.68C107.381 35.09 106.451 34.13 106.061 33.74C106.031 34.07 106.001 35.03 105.971 36.65C105.941 38.24 105.911 39.71 105.851 41.06C105.791 42.41 105.701 43.22 105.611 43.52C105.371 44.27 104.711 44.81 103.901 44.81C102.431 44.81 101.921 43.22 101.921 41.45C101.921 39.98 102.041 37.73 102.311 34.76C102.581 31.76 102.731 29.51 102.731 28.04C102.731 26.69 103.571 25.43 104.861 25.43C105.491 25.43 106.031 25.73 106.511 26.33C108.761 29.15 111.761 32.27 115.541 35.72ZM127.01 31.28L126.83 33.08C130.7 32.6 133.4 32.36 134.93 32.36C136.76 32.36 137.66 32.93 137.66 34.07C137.66 34.97 137.27 35.69 136.49 36.23C135.5 36.86 132.23 37.43 126.68 37.91C126.68 38.27 126.59 39.17 126.44 40.61L129.59 40.16C132.44 39.68 134.48 39.44 136.49 39.44C137.6 39.44 138.14 40.01 138.14 41.18C138.14 42.38 137.24 43.31 136.16 43.79C135.62 44.03 134.96 44.24 134.15 44.39C132.59 44.72 131.57 44.78 130.22 44.87C129.98 44.87 129.83 44.9 129.68 44.9C129.29 44.93 128.66 45.05 127.79 45.29C126.92 45.53 126.26 45.65 125.75 45.65C123.5 45.65 122.3 43.79 122.3 41.51C122.3 40.97 122.36 40.19 122.51 39.2C122.66 38.21 122.75 37.52 122.78 37.13L122.96 33.47C123.05 31.61 123.14 30.2 123.23 29.21C123.35 28.22 123.8 27.29 124.58 26.48C125.39 25.67 126.29 25.13 127.28 24.92C130.37 24.23 133.25 23.9 135.86 23.9C136.67 23.9 137.42 24.05 138.11 24.38C138.8 24.68 139.16 25.16 139.16 25.85C139.16 26.45 138.86 27.02 138.26 27.56C137.69 28.07 137.06 28.4 136.43 28.55C135.56 28.73 134.09 28.91 131.99 29.09C129.89 29.24 128.3 29.48 127.19 29.78L127.01 31.28ZM154.506 38.24C154.506 37.88 153.786 37.64 152.856 37.52C151.926 37.4 151.266 37.37 150.786 37.37C150.216 37.37 149.376 37.4 148.236 37.46C147.126 37.52 146.286 37.55 145.716 37.55C142.026 37.55 140.196 36.83 140.196 35.39C140.196 33.95 141.066 32.24 142.776 30.26C144.516 28.28 146.466 26.6 148.626 25.25C150.786 23.87 152.496 23.18 153.756 23.18C155.826 23.18 157.566 24.44 157.566 26.48C157.566 27.29 157.326 28.07 156.846 28.76C156.366 29.45 155.736 29.78 154.956 29.78C154.326 29.78 153.606 29.42 152.826 28.73C152.676 28.46 152.136 28.04 151.896 28.04C151.086 28.04 150.006 28.52 148.626 29.48C147.246 30.44 146.196 31.31 145.476 32.12C145.986 32.27 146.886 32.36 148.206 32.36H149.916C150.666 32.33 151.146 32.33 151.416 32.33C152.976 32.33 154.236 32.42 156.246 32.81C158.286 33.17 159.606 34.16 159.606 35.6C159.606 36.38 159.186 37.4 158.346 38.63C157.116 40.46 155.436 42.17 153.306 43.79C151.176 45.41 149.226 46.22 147.456 46.22C145.326 46.22 140.766 45.08 140.766 42.35C140.766 40.88 141.456 40.13 142.836 40.13C143.586 40.13 144.696 40.28 146.166 40.58C147.636 40.88 148.776 41.03 149.526 41.03C151.416 41.03 153.336 39.83 154.506 38.24ZM175.026 37.7H174.726C174.096 37.7 173.136 37.76 171.906 37.85C170.676 37.94 169.746 37.97 169.116 37.97C168.126 37.97 166.836 37.88 165.156 37.55C163.506 37.22 162.276 36.47 162.276 35.48C162.276 35 162.456 34.43 162.846 33.8C163.236 33.17 163.596 32.63 163.956 32.24C164.346 31.82 164.886 31.25 165.576 30.56L166.806 29.3C168.096 27.95 169.656 26.69 171.516 25.49C173.406 24.26 175.026 23.66 176.406 23.66C178.806 23.66 180.756 24.74 180.756 26.99C180.756 27.8 180.486 28.55 179.916 29.3C179.346 30.02 178.686 30.38 177.906 30.38C177.126 30.38 176.706 30.14 176.316 29.9C176.106 29.78 175.866 29.3 175.746 29.15L175.236 28.13C175.026 28.04 174.846 27.98 174.666 27.98C173.676 27.98 172.476 28.52 171.126 29.6C169.776 30.65 168.696 31.73 167.886 32.78C168.456 33.05 169.356 33.17 170.616 33.17C171.426 33.17 172.686 33.11 174.366 33.02C176.046 32.9 177.306 32.84 178.146 32.84C179.076 32.84 179.976 33.11 180.846 33.62C181.746 34.13 182.196 34.79 182.196 35.66C182.196 36.11 182.076 36.56 181.866 37.07C180.786 39.53 179.046 41.63 176.646 43.34C174.276 45.05 171.786 45.92 169.206 45.92C167.676 45.92 166.266 45.56 165.036 44.84C163.806 44.15 163.176 43.1 163.176 41.69C163.176 40.61 164.166 40.1 165.336 40.1C166.356 40.04 168.366 40.76 169.296 40.97C169.986 41.12 170.946 41.21 172.176 41.21C173.886 41.21 175.596 39.95 176.796 38.3C176.646 37.91 176.046 37.7 175.026 37.7ZM201.584 45.17C198.854 45.17 196.694 44.39 195.044 42.8C193.424 41.21 192.614 39.05 192.614 36.32C192.614 32.72 193.574 29.78 195.524 27.5C197.474 25.22 200.234 24.08 203.744 24.08C208.964 24.08 214.154 27.17 214.154 32.87C214.154 33.62 214.004 34.52 213.734 35.57C213.134 37.97 212.144 39.86 210.764 41.27C209.414 42.65 207.494 43.79 205.064 44.66C204.134 44.99 202.964 45.17 201.584 45.17ZM209.774 34.52C209.774 33.65 209.564 32.72 209.114 31.79C208.694 30.83 208.154 30.11 207.464 29.63C206.414 28.88 204.854 28.49 202.844 28.49C200.714 28.94 199.154 29.6 198.164 30.44C197.204 31.28 196.724 32.72 196.724 34.76C196.724 36.53 197.384 37.91 198.734 38.96C200.084 40.01 201.644 40.52 203.444 40.52C205.304 40.52 206.834 39.98 208.004 38.9C209.174 37.79 209.774 36.35 209.774 34.52ZM227.791 42.35C224.251 44.3 221.461 45.26 219.391 45.26C218.341 45.26 217.621 45.08 217.231 44.72C216.931 44.45 216.691 43.55 216.541 42.02C216.391 40.49 216.331 39.2 216.331 38.15C216.331 36.92 216.481 34.79 216.811 31.7C217.141 28.61 217.471 26.81 217.801 26.33C218.131 25.88 218.491 25.67 218.911 25.67C219.361 25.67 219.811 25.94 220.291 26.45C220.801 26.96 221.041 27.41 221.041 27.83C221.041 28.64 220.951 29.84 220.741 31.4C220.531 32.96 220.441 34.13 220.441 34.91V39.77C221.731 39.65 223.411 39.05 224.401 38.54C224.911 38.27 225.601 37.94 226.411 37.49C227.251 37.04 227.851 36.74 228.241 36.56C228.301 36.05 228.331 35.51 228.331 34.97C228.361 34.16 228.421 32.96 228.451 31.4L228.571 28.28C228.571 27.95 228.541 27.05 228.541 26.66C228.541 24.68 229.141 23.69 230.311 23.69C231.361 23.69 232.051 24.23 232.321 25.19C232.651 26.15 232.681 26.81 232.681 27.98C232.681 29.87 232.531 33.02 232.201 37.43C231.871 41.81 231.571 44.33 231.271 44.99C230.971 45.59 230.551 45.89 229.981 45.89C229.351 45.89 228.841 45.47 228.421 44.63C228.001 43.82 227.791 43.04 227.791 42.35ZM253.518 42.68C253.518 43.88 252.198 44.39 250.878 44.39C250.068 44.39 248.118 43.25 244.998 41C244.608 40.7 244.158 40.43 243.678 40.16C243.228 39.89 242.598 39.59 241.848 39.23L240.468 38.54C240.678 40.61 240.798 41.99 240.798 42.74C240.798 44.15 240.018 45.47 238.698 45.47C237.828 45.47 237.258 44.72 236.958 43.25C236.748 42.08 236.598 40.82 236.478 39.47L236.208 34.91C236.118 33.23 236.058 31.94 235.968 31.04C235.938 30.71 235.878 30.14 235.728 29.27C235.608 28.4 235.548 27.71 235.548 27.23C235.548 26.42 236.208 25.67 237.528 24.95C238.878 24.2 240.048 23.75 241.098 23.57C242.568 23.3 243.918 23.18 245.178 23.18C246.618 23.18 247.788 23.39 248.688 23.84C249.588 24.29 250.368 24.98 250.998 25.94C251.628 26.87 251.958 27.83 251.958 28.79C251.958 31.37 250.098 33.65 246.378 35.63C247.668 36.35 248.988 37.31 250.668 38.66C252.348 39.98 253.518 41.51 253.518 42.68ZM248.298 29.21C248.298 28.91 247.968 28.7 247.308 28.58C246.648 28.43 246.048 28.37 245.478 28.37C243.228 28.37 241.248 28.79 239.538 29.6L239.958 33.68C241.368 33.53 243.018 33.17 244.938 32.48C246.858 31.79 248.298 30.62 248.298 29.21ZM267.649 37.7H267.349C266.719 37.7 265.789 37.76 264.559 37.85C263.329 37.94 262.369 37.97 261.739 37.97C260.749 37.97 259.459 37.88 257.809 37.55C256.159 37.22 254.929 36.47 254.929 35.48C254.929 35 255.109 34.43 255.499 33.8C255.889 33.17 256.249 32.63 256.609 32.24C256.999 31.82 257.539 31.25 258.229 30.56L259.459 29.3C260.749 27.95 262.309 26.69 264.169 25.49C266.059 24.26 267.679 23.66 269.059 23.66C270.229 23.66 271.249 23.93 272.089 24.5C272.959 25.04 273.379 25.88 273.379 26.99C273.379 27.8 273.109 28.55 272.539 29.3C271.969 30.02 271.309 30.38 270.559 30.38C269.599 30.38 269.179 30.17 268.789 29.72L268.459 29.3C268.429 29.21 268.309 29.03 268.159 28.73L267.889 28.13C267.649 28.04 267.469 27.98 267.319 27.98C266.299 27.98 265.129 28.52 263.779 29.6C262.429 30.65 261.349 31.73 260.539 32.78C261.109 33.05 262.009 33.17 263.269 33.17C264.079 33.17 265.339 33.11 267.019 33.02C268.699 32.9 269.959 32.84 270.799 32.84C271.729 32.84 272.629 33.11 273.499 33.62C274.399 34.13 274.849 34.79 274.849 35.66C274.849 36.02 274.729 36.5 274.519 37.07C273.409 39.53 271.669 41.63 269.269 43.34C266.899 45.05 264.409 45.92 261.859 45.92C260.329 45.92 258.919 45.56 257.689 44.84C256.459 44.15 255.829 43.1 255.829 41.69C255.829 40.61 256.819 40.1 257.989 40.1C258.499 40.1 259.279 40.25 260.299 40.52L261.949 40.97C262.639 41.12 263.599 41.21 264.829 41.21C266.479 41.21 268.009 40.25 269.419 38.3C269.269 37.91 268.669 37.7 267.649 37.7ZM280.874 25.91C280.844 26.63 280.814 27.68 280.814 29.06C280.814 29.45 280.874 30.35 280.874 30.71C280.874 31.46 280.574 32.36 279.974 32.36C279.404 32.36 279.134 31.79 279.134 30.68C279.134 30.17 279.164 29.42 279.194 28.43C279.224 27.44 279.254 26.69 279.254 26.21C278.594 26.33 277.934 26.39 277.274 26.39C276.764 26.39 276.104 26.21 276.104 25.76C276.104 25.37 276.314 25.04 276.734 24.74C276.944 24.56 277.244 24.44 277.574 24.41C278.744 24.29 279.674 24.17 280.334 24.08C280.544 24.05 280.904 23.99 281.444 23.87C282.014 23.75 282.434 23.69 282.704 23.69C283.154 23.69 283.394 23.87 283.394 24.23C283.394 24.62 283.184 25.28 282.854 25.43C282.434 25.7 281.774 25.85 280.874 25.91ZM289.394 26.75C288.884 27.62 288.554 28.43 288.344 29.15C288.314 29.18 288.284 29.42 288.194 29.84C288.104 30.23 288.044 30.53 287.954 30.74C287.774 31.37 287.294 32.48 286.574 32.33C286.304 32.33 286.094 32.21 285.944 32C285.854 31.82 285.734 31.28 285.584 30.35C285.434 29.63 285.224 28.88 284.924 28.13L284.624 29.36C284.294 30.77 283.964 32.12 283.874 32.27C283.724 32.48 283.544 32.6 283.274 32.6C282.794 32.6 282.464 32.06 282.464 31.58C282.464 31.43 282.584 30.86 282.854 29.87C283.574 26.75 284.234 24.86 284.834 24.23C284.954 24.02 285.134 23.9 285.344 23.9C285.674 23.9 285.944 24.17 286.154 24.74L286.394 25.43C286.514 25.82 286.664 26.66 286.664 26.75C286.694 26.96 286.844 27.44 287.084 28.16C287.294 27.71 287.714 26.69 287.954 26.21C288.194 25.7 288.614 24.92 289.064 24.35C289.334 24.08 289.754 23.45 290.144 23.45C290.684 23.45 291.164 24.41 291.554 26.3C291.944 28.19 292.154 29.57 292.154 30.47C292.154 31.1 291.794 32 291.224 32C290.834 32 290.504 31.67 290.264 30.98C290.024 30.29 289.844 29.45 289.694 28.46C289.544 27.47 289.454 26.9 289.394 26.75ZM321.46 29.03C321.46 30.38 320.98 31.7 320.02 32.99C319.06 34.25 317.86 35.3 316.45 36.14C313.6 37.82 310.36 38.93 307.81 39.14C307.81 39.23 307.78 39.53 307.75 40.04C307.72 41 307.63 41.36 307.48 42.35C307.36 43.34 307.09 43.85 306.73 44.48C306.37 45.17 305.77 45.47 305.05 45.47C304.6 45.47 304.21 45.2 303.91 44.63C303.61 44.09 303.46 43.58 303.46 43.07C303.46 42.8 303.55 42.32 303.73 41.6C303.94 40.85 304.03 39.89 304.03 38.69C304.06 37.82 304.06 36.47 304.06 34.67V32.36C304.06 31.97 304.03 31.43 303.97 30.68C303.91 29.93 303.88 29.36 303.88 28.97C303.88 27.68 304.15 26.93 305.11 26.33C306.34 25.58 307.81 24.98 309.55 24.56C311.32 24.11 312.97 23.9 314.53 23.9C319.15 23.9 321.46 25.61 321.46 29.03ZM317.23 29.78C316.81 29.24 315.88 28.97 314.44 28.97C312.61 28.97 310.36 29.39 307.66 30.26C307.81 31.76 307.9 33.17 307.9 34.49C309.49 34.34 311.26 34.01 313.3 33.32C315.34 32.6 316.96 31.34 317.23 29.78ZM335.054 39.2C337.694 39.2 339.014 40.07 339.014 41.84C339.014 43.07 337.724 43.88 336.374 44.09C335.864 44.18 335.114 44.27 334.124 44.36C333.164 44.45 332.534 44.54 332.234 44.57C331.934 44.6 331.064 44.75 329.594 44.99C328.124 45.26 327.224 45.38 326.834 45.38C324.704 45.38 323.624 44.42 323.624 42.53C323.624 41.96 323.654 41.09 323.744 39.92C323.834 38.75 323.864 37.88 323.864 37.31V36.5C323.864 35.99 323.864 35.21 323.834 34.13C323.804 33.05 323.804 32.24 323.804 31.7C323.804 29.57 323.924 27.71 324.194 26.15C324.374 24.83 324.794 24.17 325.454 24.17C326.924 24.17 327.674 25.19 327.674 27.23C327.674 27.68 327.644 28.31 327.584 29.18C327.554 30.05 327.524 30.68 327.524 31.13C327.524 34.1 327.494 37.04 327.434 39.98C327.974 39.92 328.784 39.83 329.834 39.68C331.964 39.35 333.584 39.2 335.054 39.2ZM357.706 44.6C356.716 44.6 356.086 43.82 355.546 42.86C355.216 42.29 354.886 41.21 354.736 40.7L354.466 39.65L354.256 38.81C353.866 38.96 353.416 39.08 352.906 39.2C351.916 39.41 351.286 39.47 349.876 39.59L348.376 39.68C348.076 39.68 347.536 39.71 346.786 39.74C346.036 39.77 345.616 39.77 345.466 39.77C345.376 39.98 345.256 40.4 345.076 41.03C344.896 41.66 344.716 42.2 344.566 42.65C344.086 44.03 343.156 45.86 341.776 45.71C340.936 45.71 340.516 44.93 340.516 43.4C340.516 41.72 341.206 39.2 342.616 35.84C344.026 32.48 345.376 29.78 346.636 27.71L347.326 26.42L348.256 24.71C348.766 23.87 349.756 22.85 350.596 22.85C351.466 22.85 352.366 23.39 353.356 24.44C354.346 25.49 355.216 26.78 355.966 28.28C357.526 31.28 358.696 34.22 359.086 35.9C359.176 36.29 359.356 36.89 359.596 37.7C360.106 39.29 360.436 40.58 360.436 41.75C360.436 42.47 360.166 43.13 359.596 43.73C359.056 44.3 358.426 44.6 357.706 44.6ZM352.936 34.73C351.946 31.94 351.016 30.05 350.206 29.06C348.946 30.77 347.926 32.87 347.116 35.36H347.356C347.566 35.36 347.926 35.36 348.376 35.33C348.856 35.3 349.186 35.27 349.396 35.27C350.506 35.27 351.706 35.09 352.936 34.73ZM367.388 36.05L366.608 35.54L365.648 34.88L364.688 34.19C364.238 33.83 363.878 33.56 363.668 33.35C363.278 32.96 362.288 32.15 361.898 31.64C361.238 30.8 360.548 29.69 360.638 28.82C360.638 28.25 360.848 27.59 361.298 26.9C361.748 26.21 362.228 25.85 362.798 25.85C363.338 25.85 363.968 26.12 364.658 26.63C365.348 27.14 366.098 27.8 366.878 28.61C367.688 29.39 368.228 29.9 368.498 30.11L370.328 31.34L370.958 30.35C371.648 29.27 372.038 28.73 372.788 27.56C373.598 26.39 374.228 25.7 375.038 24.89C375.848 24.08 376.628 23.69 377.258 23.69C378.068 23.69 378.578 24.32 378.578 25.07C378.578 25.64 378.068 26.63 377.588 27.32L376.718 28.58L376.088 29.48C374.078 32.39 372.488 34.85 371.288 36.83C370.928 37.43 370.268 38.66 369.308 40.55C368.378 42.41 367.538 43.82 366.848 44.75C366.278 45.5 365.708 45.89 365.108 45.89C363.638 45.77 363.248 44.03 364.118 41.87C364.448 41.09 364.748 40.46 365.018 39.95C365.288 39.44 365.738 38.69 366.338 37.76C366.938 36.8 367.298 36.23 367.388 36.05ZM401.072 36.47C401.072 37.7 400.472 39.02 399.242 40.43C397.592 42.29 395.342 43.61 392.492 44.42C389.642 45.23 386.702 45.65 383.612 45.65C382.322 45.65 381.452 45.08 381.062 44.09C380.702 43.1 380.582 42.23 380.582 41C380.582 39.59 380.672 37.55 380.882 34.94C381.092 32.33 381.212 30.5 381.242 29.45C381.272 28.46 381.422 27.71 381.662 27.2C381.902 26.69 382.412 26.15 383.222 25.64C384.212 25.01 385.772 24.44 387.902 23.93C390.032 23.39 391.772 23.12 393.062 23.12C394.412 23.12 395.612 23.51 396.692 24.26C397.772 25.01 398.312 26.03 398.312 27.32C398.312 28.79 397.832 30.32 396.842 31.91C399.152 32.63 401.072 34.28 401.072 36.47ZM396.512 38.06C396.512 37.67 396.002 37.34 395.012 37.07C394.022 36.8 393.242 36.65 392.642 36.65C390.392 36.65 387.752 37.13 384.692 38.12C384.602 39.05 384.542 39.89 384.542 40.61H385.622C386.972 40.61 389.132 40.37 392.072 39.86C395.042 39.35 396.512 38.75 396.512 38.06ZM384.782 33.08C388.652 32.39 391.232 31.7 392.552 31.07C393.542 30.62 394.052 30.11 394.052 29.6C393.932 28.67 393.242 28.61 392.372 28.61C390.482 28.61 387.992 29.21 384.872 30.44C384.872 31.31 384.842 32.18 384.782 33.08ZM411.743 45.17C409.013 45.17 406.853 44.39 405.203 42.8C403.583 41.21 402.773 39.05 402.773 36.32C402.773 32.72 403.733 29.78 405.683 27.5C407.633 25.22 410.393 24.08 413.903 24.08C419.123 24.08 424.313 27.17 424.313 32.87C424.313 33.62 424.163 34.52 423.893 35.57C423.293 37.97 422.303 39.86 420.923 41.27C419.573 42.65 417.653 43.79 415.223 44.66C414.293 44.99 413.123 45.17 411.743 45.17ZM419.933 34.52C419.933 33.65 419.723 32.72 419.273 31.79C418.853 30.83 418.313 30.11 417.623 29.63C416.573 28.88 415.013 28.49 413.003 28.49C410.873 28.94 409.313 29.6 408.323 30.44C407.363 31.28 406.883 32.72 406.883 34.76C406.883 36.53 407.543 37.91 408.893 38.96C410.243 40.01 411.803 40.52 413.603 40.52C415.463 40.52 416.993 39.98 418.163 38.9C419.333 37.79 419.933 36.35 419.933 34.52ZM435.593 45.17C433.193 45.17 431.123 44.27 429.383 42.44C427.673 40.61 426.803 38.51 426.803 36.08C426.713 29.09 432.773 24.17 439.553 24.32C440.663 24.32 441.803 24.62 443.033 25.25C444.263 25.88 445.283 26.6 446.063 27.47C446.663 28.1 447.113 29 447.413 30.11C447.713 31.22 447.863 32.33 447.863 33.41C447.863 35.15 447.503 36.71 446.783 38.06C445.793 39.95 444.173 41.6 441.983 43.04C439.793 44.45 437.663 45.17 435.593 45.17ZM439.133 29.45C437.783 29.45 436.493 29.66 435.293 30.08C434.093 30.5 433.043 31.22 432.173 32.21C431.303 33.2 430.883 34.37 430.883 35.75C430.883 37.16 431.423 38.24 432.473 38.96C433.523 39.68 434.813 40.04 436.313 40.04C437.423 40.04 438.533 39.86 439.613 39.5C440.723 39.14 441.683 38.54 442.493 37.73C443.303 36.89 443.723 35.9 443.723 34.76C443.723 33.74 443.393 32.63 442.763 31.43C442.133 30.23 441.353 29.57 440.453 29.48C440.183 29.45 439.733 29.45 439.133 29.45ZM464.411 44.9C463.871 44.9 463.121 44.51 462.161 43.73C461.231 42.95 460.211 42.05 459.101 41.03C458.021 40.01 457.211 39.35 456.701 39.02C455.831 38.48 455.111 38.09 454.511 37.82L454.421 41.51C454.421 41.96 454.631 43.1 454.631 43.58C454.631 44.87 453.911 46.07 452.681 46.07C451.631 46.07 450.941 45.35 450.671 44.12C450.401 42.89 450.341 42.02 450.341 40.7C450.341 38.87 450.401 36.14 450.551 32.54C450.701 28.94 450.851 26.9 451.031 26.42C451.391 25.31 452.171 24.44 453.161 24.44C454.361 24.44 454.991 25.19 454.991 26.39C454.991 26.72 454.931 27.17 454.841 27.77C454.751 28.34 454.721 28.79 454.721 29.06C454.661 29.81 454.631 30.95 454.631 32.45C454.931 32.21 455.471 31.79 456.251 31.22C457.811 30.05 458.831 29.21 459.701 28.22C461.861 25.85 463.421 24.41 464.381 23.84C464.771 23.63 465.101 23.51 465.341 23.51C466.571 23.51 467.201 23.99 467.201 24.92C467.201 25.85 466.301 27.2 464.711 28.67C463.931 29.42 463.211 30.05 462.581 30.62C461.951 31.16 461.171 31.79 460.271 32.48C459.371 33.17 458.831 33.59 458.681 33.74C460.001 34.55 461.711 35.84 463.421 37.43C465.191 38.99 466.481 40.88 466.481 42.2C466.481 43.55 465.701 44.9 464.411 44.9Z" fill="black"/>
<path d="M808.939 45.17C806.539 45.17 804.469 44.27 802.729 42.44C801.019 40.61 800.149 38.51 800.149 36.08C800.059 29.09 806.119 24.17 812.899 24.32C814.009 24.32 815.149 24.62 816.379 25.25C817.609 25.88 818.629 26.6 819.409 27.47C820.009 28.1 820.459 29 820.759 30.11C821.059 31.22 821.209 32.33 821.209 33.41C821.209 35.18 820.849 36.71 820.099 38.06C819.109 39.95 817.519 41.6 815.329 43.04C813.139 44.45 811.009 45.17 808.939 45.17ZM812.479 29.45C811.129 29.45 809.839 29.66 808.639 30.08C807.439 30.5 806.389 31.22 805.519 32.21C804.649 33.2 804.229 34.37 804.229 35.75C804.229 37.16 804.769 38.24 805.819 38.96C806.869 39.68 808.159 40.04 809.659 40.04C811.459 40.04 813.139 39.59 814.699 38.66C816.259 37.73 817.039 36.41 817.039 34.76C817.039 33.74 816.709 32.63 816.079 31.43C815.449 30.23 814.699 29.57 813.799 29.48C813.529 29.45 813.079 29.45 812.479 29.45ZM835.041 41.75C833.811 42.5 832.191 43.31 830.211 44.18C828.261 45.05 826.761 45.5 825.771 45.5C824.961 45.5 824.361 45.17 823.971 44.48C823.731 44.03 823.521 43.07 823.371 41.6C823.221 40.13 823.131 38.93 823.131 38.06C823.131 37.19 823.341 35.09 823.791 31.79C824.241 28.49 824.601 26.66 824.871 26.3C825.111 25.91 825.471 25.73 825.951 25.73C827.271 25.73 827.931 26.93 827.931 29.36C827.931 30.77 827.811 32.06 827.571 33.17C827.301 34.34 827.181 35.87 827.181 37.73V39.56C828.891 39.08 831.531 37.73 835.041 35.51C835.041 34.34 835.011 32.6 834.981 30.29C834.951 27.98 834.951 26.24 834.951 25.07C834.951 24.32 836.031 23.57 836.781 23.57C838.161 23.57 838.851 25.55 838.851 29.54V29.96C838.851 30.98 838.881 32.51 838.911 34.52C838.941 36.53 838.971 38.06 838.971 39.05V39.68C838.971 43.55 838.251 45.47 836.781 45.47C836.151 45.47 835.701 45.05 835.431 44.21C835.161 43.37 835.041 42.56 835.041 41.75ZM858.715 44.27C858.055 44.27 857.125 43.91 855.895 43.16C852.445 41.12 849.145 39.65 846.055 38.72C846.235 41.72 846.325 43.22 846.325 43.25C846.325 44.54 845.575 45.71 844.345 45.71C843.655 45.71 843.025 45.2 842.815 44.51C842.395 43.52 842.185 38.09 842.185 28.22C842.185 27.23 842.755 26.48 843.925 25.97C845.095 25.37 846.505 24.86 848.155 24.44C849.805 23.99 851.215 23.78 852.445 23.78C856.975 23.78 859.225 25.16 859.225 27.89C859.225 29.39 858.565 30.83 857.245 32.21C855.955 33.59 854.485 34.7 852.835 35.57C854.245 36.05 855.895 36.86 857.665 37.97C859.465 39.08 860.785 40.61 860.785 42.02C860.785 43.37 860.065 44.27 858.715 44.27ZM845.905 30.44V31.37C845.905 32.54 845.935 33.41 845.965 33.98C847.045 33.77 848.815 33.29 850.825 32.54C852.865 31.79 854.485 30.65 854.485 29.6C854.485 29.33 854.155 29.15 853.525 29.06C852.895 28.94 852.295 28.88 851.785 28.88C849.835 28.88 847.885 29.39 845.905 30.44ZM862.874 41.27C862.874 40.04 864.254 39.53 865.604 39.53C866.354 39.53 867.434 39.74 868.874 40.16C870.344 40.55 871.424 40.76 872.144 40.76C874.064 40.76 876.104 39.53 876.824 37.82C876.134 37.61 875.054 37.49 873.554 37.49C873.044 37.49 872.354 37.52 871.424 37.55C870.524 37.58 869.894 37.58 869.564 37.58C868.394 37.58 866.804 37.4 865.004 36.95C863.234 36.47 861.854 35.51 861.854 34.31C861.854 32.9 864.164 30.47 868.814 27.05C870.104 26.06 871.544 25.22 873.074 24.47C874.634 23.72 876.044 23.36 877.304 23.36C878.294 23.36 879.194 23.72 880.064 24.41C880.934 25.1 881.354 25.94 881.354 26.9C881.354 28.67 880.064 30.02 878.264 30.02C876.764 30.02 876.944 27.89 874.664 27.89C873.884 27.89 872.774 28.4 871.334 29.42C869.924 30.44 868.814 31.37 868.064 32.18C868.514 32.63 869.714 32.84 871.694 32.84C872.144 32.84 872.744 32.84 873.434 32.81C874.154 32.78 874.604 32.75 874.754 32.75C879.704 32.75 882.194 33.77 882.194 35.81C882.194 36.98 881.534 38.3 880.244 39.77C878.954 41.24 877.514 42.5 875.894 43.55C874.274 44.6 872.894 45.23 871.724 45.5C870.974 45.65 870.254 45.74 869.504 45.74C867.974 45.74 866.504 45.35 865.034 44.54C863.594 43.73 862.874 42.65 862.874 41.27ZM882.652 43.52C882.652 42.53 883.132 41.69 884.092 41C885.052 40.31 886.042 39.95 887.092 39.95C888.622 39.95 889.912 40.67 889.912 42.11C889.912 42.95 889.342 43.73 888.202 44.42C887.062 45.11 886.042 45.47 885.112 45.47C883.792 45.47 882.652 44.81 882.652 43.52ZM911.927 36.74C911.927 38.09 910.967 39.68 909.017 41.51C907.547 42.89 905.687 43.91 903.377 44.57C901.067 45.26 898.757 45.59 896.387 45.59C895.817 45.59 895.277 45.56 894.767 45.47C893.777 45.32 892.577 44.63 892.577 43.52C892.577 43.19 892.607 42.68 892.637 42.05C892.667 41.42 892.697 41 892.697 40.79C892.787 39.08 892.817 36.47 892.817 32.99C892.817 32.48 892.757 31.79 892.667 30.92C892.577 30.02 892.517 29.39 892.517 29.03C892.517 27.68 892.907 26.69 893.687 26.09C894.437 25.52 895.727 25.01 897.557 24.56C899.387 24.11 900.857 23.9 902.027 23.9C904.337 23.9 908.297 24.68 908.297 27.62C908.297 28.97 907.367 30.56 905.537 32.36C909.797 32.93 911.927 34.37 911.927 36.74ZM907.607 38.3C907.037 37.85 906.227 37.49 905.177 37.28C904.127 37.04 903.137 36.92 902.237 36.92C900.587 36.92 898.667 37.19 896.537 37.7L896.567 40.76H897.107C898.727 40.76 900.707 40.55 903.077 40.1C905.447 39.65 906.977 39.05 907.607 38.3ZM896.477 30.05L896.537 32.84C897.647 32.57 899.147 32 901.097 31.19C903.047 30.35 904.007 29.66 904.007 29.15C903.917 29.03 903.587 28.94 902.957 28.85C902.357 28.76 901.907 28.7 901.577 28.7C899.747 28.7 898.067 29.15 896.477 30.05ZM928.604 25.43C928.604 25.94 928.394 26.48 927.944 27.08C927.584 27.65 927.014 28.43 926.264 29.45C925.514 30.47 924.974 31.25 924.644 31.76L922.364 35.15C921.014 37.16 920.024 38.69 919.394 39.77C921.974 39.26 924.014 39.02 925.514 39.02C926.954 39.02 927.704 39.35 927.704 40.7C927.704 42.02 926.594 43.43 925.364 43.94C925.064 44.09 923.384 44.39 920.354 44.9C917.324 45.41 915.644 45.65 915.314 45.65C914.144 45.65 912.884 45.05 912.884 43.94C912.884 43.49 913.094 42.86 913.484 42.11C913.874 41.33 914.444 40.43 915.134 39.38L916.304 37.58C916.544 37.22 916.874 36.68 917.264 35.99C917.654 35.27 917.954 34.76 918.164 34.43C918.524 33.83 919.124 32.96 919.934 31.85C920.744 30.71 921.344 29.87 921.674 29.3C921.524 29.33 921.164 29.42 920.624 29.51L919.424 29.72C919.064 29.81 918.524 29.99 917.774 30.26C916.334 30.77 915.224 31.1 914.144 31.1C912.974 31.1 912.374 30.2 912.374 29.03C912.374 27.44 913.784 26.18 915.464 25.43C915.794 25.28 916.844 25.07 918.554 24.74C920.294 24.41 921.494 24.2 922.124 24.11C924.464 23.93 925.664 23.84 925.694 23.84C927.644 23.84 928.604 24.38 928.604 25.43Z" fill="black"/>
<line x1="30" y1="58" x2="930" y2="58" stroke="black" stroke-width="4"/>
<path d="M71.1 81.4V124H60.96V106.3H44.58V124H34.44V81.4H44.58V98.5H60.96V81.4H71.1ZM91.6073 124.72C82.7873 124.72 76.0673 119.26 76.0673 108.94C76.0673 98.62 82.7873 93.28 91.6073 93.28C100.487 93.28 107.207 98.62 107.207 108.94C107.207 119.26 100.487 124.72 91.6073 124.72ZM91.6073 118.06C95.3873 118.06 97.6073 115.06 97.6073 108.94C97.6073 102.76 95.3873 99.94 91.6073 99.94C87.8873 99.94 85.6673 102.76 85.6673 108.94C85.6673 115.06 87.8873 118.06 91.6073 118.06ZM115.935 124L107.895 94H117.075L120.855 112.36C120.975 113.2 121.155 114.22 121.275 115.24H121.395C121.515 114.22 121.635 113.2 121.875 112.36L126.255 94H134.415L138.795 112.36C138.975 113.2 139.155 114.22 139.275 115.24H139.395C139.515 114.22 139.635 113.2 139.815 112.36L143.535 94H152.715L144.735 124H135.375L130.815 106.3C130.575 105.52 130.455 104.5 130.395 103.78H130.275C130.215 104.5 130.035 105.52 129.855 106.3L125.295 124H115.935ZM169.142 135.7V94H178.382V98.8C180.242 95.2 183.662 93.28 187.742 93.28C195.002 93.28 199.742 99.4 199.742 108.94C199.742 118.54 194.822 124.72 187.382 124.72C183.602 124.72 180.782 123.04 178.802 120.22V135.7H169.142ZM184.202 118.06C187.682 118.06 189.842 114.58 189.842 108.94C189.842 103.18 187.802 99.94 184.142 99.94C180.662 99.94 178.562 102.82 178.562 108.28V109.96C178.562 114.88 180.722 118.06 184.202 118.06ZM213.623 101.74C215.183 96.34 218.483 93.28 223.643 93.28H224.243V102.46C223.643 102.4 223.163 102.4 222.443 102.4C219.863 102.4 217.943 103.06 216.623 104.2C214.703 106 214.223 108.7 214.223 111.76V124H204.563V94H213.623V101.74ZM227.97 89.68V80.92H237.99V89.68H227.97ZM228.09 124V94H237.75V124H228.09ZM257.845 124.72C249.025 124.72 242.305 119.26 242.305 108.94C242.305 98.62 249.025 93.28 257.845 93.28C266.725 93.28 273.445 98.62 273.445 108.94C273.445 119.26 266.725 124.72 257.845 124.72ZM257.845 118.06C261.625 118.06 263.845 115.06 263.845 108.94C263.845 102.76 261.625 99.94 257.845 99.94C254.125 99.94 251.905 102.76 251.905 108.94C251.905 115.06 254.125 118.06 257.845 118.06ZM287.074 101.74C288.634 96.34 291.934 93.28 297.094 93.28H297.694V102.46C297.094 102.4 296.614 102.4 295.894 102.4C293.314 102.4 291.394 103.06 290.074 104.2C288.154 106 287.674 108.7 287.674 111.76V124H278.014V94H287.074V101.74ZM301.42 89.68V80.92H311.44V89.68H301.42ZM301.54 124V94H311.2V124H301.54ZM314.316 100.42V94H319.536V86.8L329.136 83.08V94H336.276V100.42H329.136V112.12C329.136 115.12 330.636 116.68 333.516 116.68C334.656 116.68 335.376 116.56 336.276 116.38V124C334.056 124.42 332.556 124.6 330.816 124.6C322.836 124.6 319.536 120.94 319.536 114.4V100.42H314.316ZM343.897 136.12C342.997 136.12 341.497 135.94 339.937 135.76V128.68C341.737 128.92 342.457 128.98 343.297 128.98C346.477 128.98 348.217 127.84 349.057 125.08L349.477 123.82L338.017 94H348.457L353.737 112.24C354.097 113.5 354.277 114.46 354.397 115.72H354.577C354.637 114.7 354.877 113.74 355.297 112.24L360.157 94H369.817L359.077 125.32C356.437 133.12 351.877 136.12 343.897 136.12ZM392.257 124.72C386.077 124.72 381.937 121.18 381.937 115.84C381.937 113.02 382.957 110.8 384.997 109.36C386.977 107.98 389.857 107.02 394.417 106.42L401.677 105.4V104.38C401.677 100.96 400.237 99.46 397.237 99.46C394.297 99.46 392.617 101.02 392.437 103.9H382.897C383.377 97.24 388.777 93.28 397.297 93.28C406.957 93.28 411.277 97.06 411.277 105.7V115.66C411.277 119.2 411.577 122.14 412.117 124H402.757C402.457 122.56 402.337 120.94 402.277 119.26C400.777 122.62 396.937 124.72 392.257 124.72ZM395.857 118.6C399.517 118.6 401.977 116.14 401.977 112.54V110.14L396.817 110.98C393.277 111.64 391.657 112.9 391.657 115.12C391.657 117.22 393.337 118.6 395.857 118.6ZM435.365 94V100.42H428.405V124H418.805V100.42H414.005V94H418.805V91.18C418.805 84.04 422.945 80.14 430.565 80.14C432.245 80.14 433.865 80.32 435.365 80.68V87.58C434.345 87.4 433.325 87.28 432.425 87.28C429.785 87.28 428.405 88.72 428.405 91.42V94H435.365ZM459.302 94V100.42H452.342V124H442.742V100.42H437.942V94H442.742V91.18C442.742 84.04 446.882 80.14 454.502 80.14C456.182 80.14 457.802 80.32 459.302 80.68V87.58C458.282 87.4 457.262 87.28 456.362 87.28C453.722 87.28 452.342 88.72 452.342 91.42V94H459.302ZM489.96 108.28V111.16H469.14C469.2 115.24 472.02 117.82 476.04 117.82C478.98 117.82 481.2 116.38 482.58 113.62L489.66 116.86C487.26 121.78 482.16 124.72 475.92 124.72C466.02 124.72 460.02 119.02 460.02 109.3C460.02 99.46 465.9 93.28 475.26 93.28C484.68 93.28 489.96 98.74 489.96 108.28ZM480.66 105.76V105.52C480.66 101.26 478.68 98.98 475.08 98.98C471.36 98.98 469.26 101.5 469.14 105.76H480.66ZM508.643 124.72C499.163 124.72 492.863 118.54 492.863 109C492.863 99.22 498.923 93.28 508.763 93.28C516.623 93.28 521.843 97.12 522.983 103.9L513.923 105.76C513.383 102.22 511.463 100.36 508.523 100.36C504.863 100.36 502.643 103.48 502.643 108.7C502.643 114.34 504.803 117.58 508.583 117.58C511.583 117.58 513.443 115.6 513.983 112L522.983 113.98C521.903 120.58 516.323 124.72 508.643 124.72ZM523.153 100.42V94H528.373V86.8L537.973 83.08V94H545.113V100.42H537.973V112.12C537.973 115.12 539.473 116.68 542.353 116.68C543.493 116.68 544.213 116.56 545.113 116.38V124C542.893 124.42 541.393 124.6 539.653 124.6C531.673 124.6 528.373 120.94 528.373 114.4V100.42H523.153ZM561.397 124.72C554.797 124.72 549.397 122.26 546.517 117.52L552.097 113.32C554.197 116.56 557.437 118.18 561.577 118.18C564.697 118.18 566.257 117.22 566.257 115.54C566.257 113.74 565.297 113.08 561.997 112.6L557.677 112C551.197 111.04 548.137 107.86 548.137 102.76C548.137 96.94 553.057 93.28 561.337 93.28C567.397 93.28 572.497 95.5 574.957 99.22L569.977 103.72C567.757 101.2 564.757 99.7 561.037 99.7C558.157 99.7 556.837 100.48 556.837 102.16C556.837 103.6 557.737 104.38 560.377 104.74L565.717 105.58C572.137 106.48 574.657 109.66 574.657 114.82C574.657 120.94 569.797 124.72 561.397 124.72ZM592.531 135.7V94H601.771V98.8C603.631 95.2 607.051 93.28 611.131 93.28C618.391 93.28 623.131 99.4 623.131 108.94C623.131 118.54 618.211 124.72 610.771 124.72C606.991 124.72 604.171 123.04 602.191 120.22V135.7H592.531ZM607.591 118.06C611.071 118.06 613.231 114.58 613.231 108.94C613.231 103.18 611.191 99.94 607.531 99.94C604.051 99.94 601.951 102.82 601.951 108.28V109.96C601.951 114.88 604.111 118.06 607.591 118.06ZM637.012 101.74C638.572 96.34 641.872 93.28 647.032 93.28H647.632V102.46C647.032 102.4 646.552 102.4 645.832 102.4C643.252 102.4 641.332 103.06 640.012 104.2C638.092 106 637.612 108.7 637.612 111.76V124H627.952V94H637.012V101.74ZM664.27 124.72C655.45 124.72 648.73 119.26 648.73 108.94C648.73 98.62 655.45 93.28 664.27 93.28C673.15 93.28 679.87 98.62 679.87 108.94C679.87 119.26 673.15 124.72 664.27 124.72ZM664.27 118.06C668.05 118.06 670.27 115.06 670.27 108.94C670.27 102.76 668.05 99.94 664.27 99.94C660.55 99.94 658.33 102.76 658.33 108.94C658.33 115.06 660.55 118.06 664.27 118.06ZM694.69 124.72C687.49 124.72 682.69 118.48 682.69 109.12C682.69 99.58 687.73 93.28 695.23 93.28C699.19 93.28 702.19 94.9 703.69 98.02V80.5H713.29V124H704.17V118.84C702.67 122.44 699.07 124.72 694.69 124.72ZM698.47 118.06C701.77 118.06 703.81 115.12 703.81 110.44V107.86C703.81 102.76 701.77 99.94 698.35 99.94C694.69 99.94 692.59 103.18 692.59 108.94C692.59 114.58 694.81 118.06 698.47 118.06ZM730.104 124.72C723.024 124.72 720.024 120.46 720.024 113.44V94H729.624V111.76C729.624 115.48 731.124 117.4 733.944 117.4C737.064 117.4 738.984 114.94 738.984 111.16V94H748.644V124H739.464V118.54C738.024 122.32 734.484 124.72 730.104 124.72ZM768.957 124.72C759.477 124.72 753.177 118.54 753.177 109C753.177 99.22 759.237 93.28 769.077 93.28C776.937 93.28 782.157 97.12 783.297 103.9L774.237 105.76C773.697 102.22 771.777 100.36 768.837 100.36C765.177 100.36 762.957 103.48 762.957 108.7C762.957 114.34 765.117 117.58 768.897 117.58C771.897 117.58 773.757 115.6 774.297 112L783.297 113.98C782.217 120.58 776.637 124.72 768.957 124.72ZM783.466 100.42V94H788.686V86.8L798.286 83.08V94H805.426V100.42H798.286V112.12C798.286 115.12 799.786 116.68 802.666 116.68C803.806 116.68 804.526 116.56 805.426 116.38V124C803.206 124.42 801.706 124.6 799.966 124.6C791.986 124.6 788.686 120.94 788.686 114.4V100.42H783.466Z" fill="black"/>
<g style="mix-blend-mode:color">
<rect width="960" height="960" fill="url(#paint0_linear_236_2235)"/>
</g>
</g>
<defs>
<linearGradient id="paint0_linear_236_2235" x1="480" y1="0" x2="480" y2="960" gradientUnits="userSpaceOnUse">
<stop stop-color="#CBC4F7"/>
<stop offset="1" stop-color="#EEB3FD"/>
</linearGradient>
<clipPath id="clip0_236_2235">
<rect width="960" height="960" rx="30" fill="white"/>
</clipPath>
</defs>
</svg>
