<svg width="960" height="960" viewBox="0 0 960 960" fill="none" xmlns="http://www.w3.org/2000/svg">
<g clip-path="url(#clip0_63_3233)">
<rect width="960" height="960" rx="30" fill="white"/>
<path d="M30 240C30 223.431 43.4315 210 60 210H900C916.569 210 930 223.431 930 240V930H30V240Z" fill="#D9D9D9"/>
<path d="M30 420C30 403.431 43.4315 390 60 390H900C916.569 390 930 403.431 930 420V930H30V420Z" fill="#9D9D9D"/>
<path d="M30 600C30 583.431 43.4315 570 60 570H900C916.569 570 930 583.431 930 600V930H30V600Z" fill="#666666"/>
<path d="M30 780C30 763.431 43.4315 750 60 750H900C916.569 750 930 763.431 930 780V930H30V780Z" fill="#333333"/>
<path d="M202.12 836L199.96 829.36H189.48L187.32 836H180.56L190.88 807.6H198.6L208.92 836H202.12ZM191.04 824.6H198.4L195.8 816.68C195.4 815.44 195.04 814.36 194.76 812.68H194.68C194.4 814.36 194.04 815.44 193.64 816.68L191.04 824.6ZM220.108 836.48C213.788 836.48 209.588 832.36 209.588 826C209.588 819.48 213.628 815.52 220.188 815.52C225.428 815.52 228.908 818.08 229.668 822.6L223.628 823.84C223.268 821.48 221.988 820.24 220.028 820.24C217.588 820.24 216.108 822.32 216.108 825.8C216.108 829.56 217.548 831.72 220.068 831.72C222.068 831.72 223.308 830.4 223.668 828L229.668 829.32C228.948 833.72 225.228 836.48 220.108 836.48ZM230.181 820.28V816H233.661V811.2L240.061 808.72V816H244.821V820.28H240.061V828.08C240.061 830.08 241.061 831.12 242.981 831.12C243.741 831.12 244.221 831.04 244.821 830.92V836C243.341 836.28 242.341 836.4 241.181 836.4C235.861 836.4 233.661 833.96 233.661 829.6V820.28H230.181ZM248.041 813.12V807.28H254.721V813.12H248.041ZM248.121 836V816H254.561V836H248.121ZM268.358 836.48C262.478 836.48 257.998 832.84 257.998 825.96C257.998 819.08 262.478 815.52 268.358 815.52C274.278 815.52 278.758 819.08 278.758 825.96C278.758 832.84 274.278 836.48 268.358 836.48ZM268.358 832.04C270.878 832.04 272.358 830.04 272.358 825.96C272.358 821.84 270.878 819.96 268.358 819.96C265.878 819.96 264.398 821.84 264.398 825.96C264.398 830.04 265.878 832.04 268.358 832.04ZM282.203 836V816H288.363V819.84C289.763 816.92 291.963 815.48 295.003 815.48C299.323 815.48 301.523 818.24 301.523 823.6V836H295.123V824.48C295.123 821.72 294.163 820.4 292.123 820.4C289.883 820.4 288.643 822.12 288.643 825.2V836H282.203ZM194.24 876.68C186.48 876.68 181.8 870.36 181.8 861.8C181.8 853.12 186.48 846.92 194.88 846.92C202.72 846.92 205.24 852.36 205.72 855.52L201.96 856.04C201.56 853.64 199.84 850.12 194.76 850.12C188.96 850.12 185.68 854.92 185.68 861.84C185.68 868.32 188.64 873.44 194.8 873.44C201.8 873.44 202.84 867.56 202.84 864.84V864.36H194.52V861.16H206.24V876H203.48L202.96 871.44C201.72 874.52 198.48 876.68 194.24 876.68ZM228.219 864.6V867H214.019C214.059 870.92 216.419 873.48 219.979 873.48C222.539 873.48 224.419 872.12 225.299 869.68L228.099 870.92C226.699 874.56 223.779 876.48 219.739 876.48C214.019 876.48 210.619 872.84 210.619 866.24C210.619 859.56 213.979 855.52 219.699 855.52C225.099 855.52 228.219 858.6 228.219 864.6ZM224.779 864.24V863.8C224.779 860.12 222.899 858.2 219.619 858.2C216.099 858.2 214.099 860.48 214.019 864.24H224.779ZM229.839 858.8V856H233.559V850.76L236.959 849.32V856H241.959V858.8H236.959V869.88C236.959 872.16 237.839 873.16 239.879 873.16C240.759 873.16 241.279 873.04 241.959 872.88V876C241.079 876.24 240.279 876.36 238.999 876.36C234.679 876.36 233.559 873.72 233.559 870V858.8H229.839ZM261.491 876.48C257.411 876.48 254.731 874.16 254.731 870.6C254.731 868.6 255.731 866.88 257.531 865.88C259.051 865.12 260.971 864.64 264.251 864.24L267.971 863.8V863.48C267.971 859.8 266.651 858.32 263.571 858.32C260.851 858.32 259.171 859.76 259.011 862.28H255.371C255.651 858.2 258.851 855.52 263.531 855.52C269.011 855.52 271.411 858 271.411 863.84V869.24C271.411 872.32 271.611 874.44 272.091 876H268.531C268.371 874.96 268.251 873.64 268.211 872.36C267.291 874.92 264.771 876.48 261.491 876.48ZM262.251 873.68C265.731 873.68 268.011 871.16 268.011 867.28V866.28L262.571 867.08C259.611 867.52 258.331 868.56 258.331 870.52C258.331 872.48 259.811 873.68 262.251 873.68ZM295.084 876.48C289.484 876.48 285.884 872.4 285.884 866C285.884 859.48 289.404 855.52 295.084 855.52C299.764 855.52 302.804 858.2 303.324 862.8L299.844 863.2C299.484 860.16 297.724 858.48 295.004 858.48C291.564 858.48 289.484 861.28 289.484 865.96C289.484 870.76 291.564 873.52 295.124 873.52C297.844 873.52 299.524 871.88 300.044 868.76L303.284 869.28C302.564 873.84 299.564 876.48 295.084 876.48ZM315.859 876.48C310.219 876.48 306.539 872.52 306.539 866C306.539 859.48 310.219 855.52 315.859 855.52C321.499 855.52 325.179 859.48 325.179 866C325.179 872.52 321.499 876.48 315.859 876.48ZM315.859 873.52C319.459 873.52 321.579 870.96 321.579 866C321.579 861.04 319.459 858.48 315.859 858.48C312.259 858.48 310.139 861.04 310.139 866C310.139 870.96 312.259 873.52 315.859 873.52ZM330.166 856H333.366V859.48C334.486 856.8 336.406 855.44 339.086 855.44C341.846 855.44 343.846 856.88 344.766 859.52C346.086 856.8 348.126 855.44 350.846 855.44C354.686 855.44 356.926 858.2 356.926 862.88V876H353.526V863.16C353.526 860.04 352.246 858.44 349.726 858.44C346.886 858.44 345.246 860.52 345.246 864.16V876H341.846V863C341.846 860.08 340.486 858.44 338.086 858.44C335.286 858.44 333.566 860.68 333.566 864.32V876H330.166V856ZM363.125 856H366.325V859.48C367.445 856.8 369.365 855.44 372.045 855.44C374.805 855.44 376.805 856.88 377.725 859.52C379.045 856.8 381.085 855.44 383.805 855.44C387.645 855.44 389.885 858.2 389.885 862.88V876H386.485V863.16C386.485 860.04 385.205 858.44 382.685 858.44C379.845 858.44 378.205 860.52 378.205 864.16V876H374.805V863C374.805 860.08 373.445 858.44 371.045 858.44C368.245 858.44 366.525 860.68 366.525 864.32V876H363.125V856ZM395.844 852.28V848H399.724V852.28H395.844ZM396.084 876V856H399.484V876H396.084ZM403.27 858.8V856H406.99V850.76L410.39 849.32V856H415.39V858.8H410.39V869.88C410.39 872.16 411.27 873.16 413.31 873.16C414.19 873.16 414.71 873.04 415.39 872.88V876C414.51 876.24 413.71 876.36 412.43 876.36C408.11 876.36 406.99 873.72 406.99 870V858.8H403.27ZM419.972 856H423.172V859.48C424.292 856.8 426.212 855.44 428.892 855.44C431.652 855.44 433.652 856.88 434.572 859.52C435.892 856.8 437.932 855.44 440.652 855.44C444.492 855.44 446.732 858.2 446.732 862.88V876H443.332V863.16C443.332 860.04 442.052 858.44 439.532 858.44C436.692 858.44 435.052 860.52 435.052 864.16V876H431.652V863C431.652 860.08 430.292 858.44 427.892 858.44C425.092 858.44 423.372 860.68 423.372 864.32V876H419.972V856ZM468.731 864.6V867H454.531C454.571 870.92 456.931 873.48 460.491 873.48C463.051 873.48 464.931 872.12 465.811 869.68L468.611 870.92C467.211 874.56 464.291 876.48 460.251 876.48C454.531 876.48 451.131 872.84 451.131 866.24C451.131 859.56 454.491 855.52 460.211 855.52C465.611 855.52 468.731 858.6 468.731 864.6ZM465.291 864.24V863.8C465.291 860.12 463.411 858.2 460.131 858.2C456.611 858.2 454.611 860.48 454.531 864.24H465.291ZM473.937 876V856H477.137V859.96C478.457 856.92 480.657 855.44 483.817 855.44C488.217 855.44 490.497 858.2 490.497 863.56V876H487.097V863.76C487.097 860.24 485.617 858.44 482.697 858.44C479.377 858.44 477.337 861.12 477.337 865.56V876H473.937ZM493.311 858.8V856H497.031V850.76L500.431 849.32V856H505.431V858.8H500.431V869.88C500.431 872.16 501.311 873.16 503.351 873.16C504.231 873.16 504.751 873.04 505.431 872.88V876C504.551 876.24 503.751 876.36 502.471 876.36C498.151 876.36 497.031 873.72 497.031 870V858.8H493.311Z" fill="white"/>
<path d="M182.96 656V627.6H194.28C202.8 627.6 208.32 633.28 208.32 641.64C208.32 650.16 202.8 656 194.2 656H182.96ZM189.72 651.04H193.92C198.72 651.04 201.36 646.72 201.36 641.64C201.36 636.48 198.88 632.56 194 632.56H189.72V651.04ZM230.447 645.52V647.44H216.567C216.607 650.16 218.487 651.88 221.167 651.88C223.127 651.88 224.607 650.92 225.527 649.08L230.247 651.24C228.647 654.52 225.247 656.48 221.087 656.48C214.487 656.48 210.487 652.68 210.487 646.2C210.487 639.64 214.407 635.52 220.647 635.52C226.927 635.52 230.447 639.16 230.447 645.52ZM224.247 643.84V643.68C224.247 640.84 222.927 639.32 220.527 639.32C218.047 639.32 216.647 641 216.567 643.84H224.247ZM241.75 656.48C237.35 656.48 233.75 654.84 231.83 651.68L235.55 648.88C236.95 651.04 239.11 652.12 241.87 652.12C243.95 652.12 244.99 651.48 244.99 650.36C244.99 649.16 244.35 648.72 242.15 648.4L239.27 648C234.95 647.36 232.91 645.24 232.91 641.84C232.91 637.96 236.19 635.52 241.71 635.52C245.75 635.52 249.15 637 250.79 639.48L247.47 642.48C245.99 640.8 243.99 639.8 241.51 639.8C239.59 639.8 238.71 640.32 238.71 641.44C238.71 642.4 239.31 642.92 241.07 643.16L244.63 643.72C248.91 644.32 250.59 646.44 250.59 649.88C250.59 653.96 247.35 656.48 241.75 656.48ZM253.744 633.12V627.28H260.424V633.12H253.744ZM253.824 656V636H260.264V656H253.824ZM271.261 641.16C272.301 637.56 274.501 635.52 277.941 635.52H278.341V641.64C277.941 641.6 277.621 641.6 277.141 641.6C275.421 641.6 274.141 642.04 273.261 642.8C271.981 644 271.661 645.8 271.661 647.84V656H265.221V636H271.261V641.16ZM299.432 645.52V647.44H285.553C285.593 650.16 287.473 651.88 290.153 651.88C292.113 651.88 293.593 650.92 294.513 649.08L299.233 651.24C297.633 654.52 294.233 656.48 290.072 656.48C283.473 656.48 279.473 652.68 279.473 646.2C279.473 639.64 283.393 635.52 289.633 635.52C295.913 635.52 299.432 639.16 299.432 645.52ZM293.233 643.84V643.68C293.233 640.84 291.913 639.32 289.513 639.32C287.033 639.32 285.633 641 285.553 643.84H293.233ZM184 696V667.6H189.4L196.92 689.44C197.4 690.84 197.48 691.08 197.64 692.12H197.72C197.88 691.08 197.96 690.84 198.44 689.44L205.96 667.6H211.36V696H207.88V674.08C207.88 672.92 207.92 671.96 208.04 671.04H207.88C207.8 671.6 207.4 673.32 207.04 674.28L199.52 696H195.84L188.32 674.28C187.96 673.32 187.56 671.6 187.48 671.04H187.32C187.44 671.96 187.48 672.92 187.48 674.08V696H184ZM223.512 696.48C219.432 696.48 216.752 694.16 216.752 690.6C216.752 688.6 217.752 686.88 219.552 685.88C221.072 685.12 222.992 684.64 226.272 684.24L229.992 683.8V683.48C229.992 679.8 228.672 678.32 225.592 678.32C222.872 678.32 221.192 679.76 221.032 682.28H217.392C217.672 678.2 220.872 675.52 225.552 675.52C231.032 675.52 233.432 678 233.432 683.84V689.24C233.432 692.32 233.632 694.44 234.112 696H230.552C230.392 694.96 230.272 693.64 230.232 692.36C229.312 694.92 226.792 696.48 223.512 696.48ZM224.272 693.68C227.752 693.68 230.032 691.16 230.032 687.28V686.28L224.592 687.08C221.632 687.52 220.352 688.56 220.352 690.52C220.352 692.48 221.832 693.68 224.272 693.68ZM252.994 696L246.954 686.2L243.314 689.88V696H239.914V667H243.314V685.84L252.274 676H256.714L249.394 683.72L257.194 696H252.994ZM275.583 684.6V687H261.383C261.423 690.92 263.783 693.48 267.343 693.48C269.903 693.48 271.783 692.12 272.663 689.68L275.463 690.92C274.063 694.56 271.143 696.48 267.103 696.48C261.383 696.48 257.983 692.84 257.983 686.24C257.983 679.56 261.343 675.52 267.063 675.52C272.463 675.52 275.583 678.6 275.583 684.6ZM272.143 684.24V683.8C272.143 680.12 270.263 678.2 266.983 678.2C263.463 678.2 261.463 680.48 261.383 684.24H272.143ZM290.54 672.28V668H294.42V672.28H290.54ZM290.78 696V676H294.18V696H290.78ZM297.966 678.8V676H301.686V670.76L305.086 669.32V676H310.086V678.8H305.086V689.88C305.086 692.16 305.966 693.16 308.006 693.16C308.886 693.16 309.406 693.04 310.086 692.88V696C309.206 696.24 308.406 696.36 307.126 696.36C302.806 696.36 301.686 693.72 301.686 690V678.8H297.966ZM331.298 696.48C326.538 696.48 323.378 694.12 322.658 689.84L326.098 689.24C326.618 692.16 328.498 693.68 331.458 693.68C334.138 693.68 335.618 692.56 335.618 690.68C335.618 688.68 334.578 687.8 332.418 687.56L329.178 687.2C325.218 686.76 323.338 684.52 323.338 681.44C323.338 677.8 326.218 675.52 330.938 675.52C335.498 675.52 338.578 677.92 339.018 681.6L335.658 682.36C335.218 679.96 333.578 678.28 330.858 678.28C328.218 678.28 326.658 679.36 326.658 681.28C326.658 683 327.778 684.04 330.258 684.32L333.458 684.68C337.418 685.12 338.978 687.2 338.978 690.36C338.978 694.16 336.178 696.48 331.298 696.48ZM359.823 684.6V687H345.623C345.663 690.92 348.023 693.48 351.583 693.48C354.143 693.48 356.023 692.12 356.903 689.68L359.703 690.92C358.303 694.56 355.383 696.48 351.343 696.48C345.623 696.48 342.223 692.84 342.223 686.24C342.223 679.56 345.583 675.52 351.303 675.52C356.703 675.52 359.823 678.6 359.823 684.6ZM356.383 684.24V683.8C356.383 680.12 354.503 678.2 351.223 678.2C347.703 678.2 345.703 680.48 345.623 684.24H356.383ZM361.248 696L368.488 685.68L361.768 676H365.768L369.408 681.64C370.088 682.72 370.448 683.36 370.568 683.72H370.608C370.768 683.32 371.128 682.64 371.728 681.64L375.168 676H379.328L372.728 685.92L379.848 696H375.808L371.688 689.84C371.048 688.88 370.648 688.12 370.568 687.8H370.528C370.448 688.08 370.088 688.76 369.368 689.84L365.288 696H361.248ZM384.319 704.04C383.719 704.04 383.119 704 382.479 703.88V700.88C382.999 700.92 383.479 700.96 383.919 700.96C386.319 700.96 387.559 699.88 388.479 697.24L388.999 695.76L381.039 676H384.839L389.959 689.92C390.319 690.92 390.519 691.72 390.639 692.28H390.719C390.839 691.72 391.079 690.92 391.399 689.92L396.039 676H399.719L391.919 697.28C390.079 702.36 387.679 704.04 384.319 704.04Z" fill="white"/>
<path d="M189.72 476H182.96V447.6H189.72V476ZM194.975 476V456H201.135V459.84C202.535 456.92 204.735 455.48 207.775 455.48C212.095 455.48 214.295 458.24 214.295 463.6V476H207.895V464.48C207.895 461.72 206.935 460.4 204.895 460.4C202.655 460.4 201.415 462.12 201.415 465.2V476H194.975ZM216.08 460.28V456H219.56V451.2L225.96 448.72V456H230.72V460.28H225.96V468.08C225.96 470.08 226.96 471.12 228.88 471.12C229.64 471.12 230.12 471.04 230.72 470.92V476C229.24 476.28 228.24 476.4 227.08 476.4C221.76 476.4 219.56 473.96 219.56 469.6V460.28H216.08ZM252.068 465.52V467.44H238.188C238.228 470.16 240.108 471.88 242.788 471.88C244.748 471.88 246.228 470.92 247.148 469.08L251.868 471.24C250.268 474.52 246.868 476.48 242.708 476.48C236.108 476.48 232.108 472.68 232.108 466.2C232.108 459.64 236.028 455.52 242.268 455.52C248.548 455.52 252.068 459.16 252.068 465.52ZM245.868 463.84V463.68C245.868 460.84 244.548 459.32 242.148 459.32C239.668 459.32 238.268 461 238.188 463.84H245.868ZM261.729 461.16C262.769 457.56 264.969 455.52 268.409 455.52H268.809V461.64C268.409 461.6 268.089 461.6 267.609 461.6C265.889 461.6 264.609 462.04 263.729 462.8C262.449 464 262.129 465.8 262.129 467.84V476H255.689V456H261.729V461.16ZM289.901 465.52V467.44H276.021C276.061 470.16 277.941 471.88 280.621 471.88C282.581 471.88 284.061 470.92 284.981 469.08L289.701 471.24C288.101 474.52 284.701 476.48 280.541 476.48C273.941 476.48 269.941 472.68 269.941 466.2C269.941 459.64 273.861 455.52 280.101 455.52C286.381 455.52 289.901 459.16 289.901 465.52ZM283.701 463.84V463.68C283.701 460.84 282.381 459.32 279.981 459.32C277.501 459.32 276.101 461 276.021 463.84H283.701ZM301.205 476.48C296.805 476.48 293.205 474.84 291.285 471.68L295.005 468.88C296.405 471.04 298.565 472.12 301.325 472.12C303.405 472.12 304.445 471.48 304.445 470.36C304.445 469.16 303.805 468.72 301.605 468.4L298.725 468C294.405 467.36 292.365 465.24 292.365 461.84C292.365 457.96 295.645 455.52 301.165 455.52C305.205 455.52 308.605 457 310.245 459.48L306.925 462.48C305.445 460.8 303.445 459.8 300.965 459.8C299.045 459.8 298.165 460.32 298.165 461.44C298.165 462.4 298.765 462.92 300.525 463.16L304.085 463.72C308.365 464.32 310.045 466.44 310.045 469.88C310.045 473.96 306.805 476.48 301.205 476.48ZM311.228 460.28V456H314.708V451.2L321.108 448.72V456H325.868V460.28H321.108V468.08C321.108 470.08 322.108 471.12 324.028 471.12C324.788 471.12 325.268 471.04 325.868 470.92V476C324.388 476.28 323.388 476.4 322.228 476.4C316.908 476.4 314.708 473.96 314.708 469.6V460.28H311.228ZM184 516V487.6H193.32C201.48 487.6 206.8 493.32 206.8 501.76C206.8 510.04 201.52 516 193.24 516H184ZM187.8 512.8H193.16C199.28 512.8 202.76 507.84 202.76 501.76C202.76 495.44 199.36 490.8 193.24 490.8H187.8V512.8ZM227.594 504.6V507H213.394C213.434 510.92 215.794 513.48 219.354 513.48C221.914 513.48 223.794 512.12 224.674 509.68L227.474 510.92C226.074 514.56 223.154 516.48 219.114 516.48C213.394 516.48 209.994 512.84 209.994 506.24C209.994 499.56 213.354 495.52 219.074 495.52C224.474 495.52 227.594 498.6 227.594 504.6ZM224.154 504.24V503.8C224.154 500.12 222.274 498.2 218.994 498.2C215.474 498.2 213.474 500.48 213.394 504.24H224.154ZM232.8 496H236V499.48C237.12 496.8 239.04 495.44 241.72 495.44C244.48 495.44 246.48 496.88 247.4 499.52C248.72 496.8 250.76 495.44 253.48 495.44C257.32 495.44 259.56 498.2 259.56 502.88V516H256.16V503.16C256.16 500.04 254.88 498.44 252.36 498.44C249.52 498.44 247.88 500.52 247.88 504.16V516H244.48V503C244.48 500.08 243.12 498.44 240.72 498.44C237.92 498.44 236.2 500.68 236.2 504.32V516H232.8V496ZM273.279 516.48C267.639 516.48 263.959 512.52 263.959 506C263.959 499.48 267.639 495.52 273.279 495.52C278.919 495.52 282.599 499.48 282.599 506C282.599 512.52 278.919 516.48 273.279 516.48ZM273.279 513.52C276.879 513.52 278.999 510.96 278.999 506C278.999 501.04 276.879 498.48 273.279 498.48C269.679 498.48 267.559 501.04 267.559 506C267.559 510.96 269.679 513.52 273.279 513.52ZM287.586 516V496H290.786V499.96C292.106 496.92 294.306 495.44 297.466 495.44C301.866 495.44 304.146 498.2 304.146 503.56V516H300.746V503.76C300.746 500.24 299.266 498.44 296.346 498.44C293.026 498.44 290.986 501.12 290.986 505.56V516H287.586ZM316.99 516.48C312.23 516.48 309.07 514.12 308.35 509.84L311.79 509.24C312.31 512.16 314.19 513.68 317.15 513.68C319.83 513.68 321.31 512.56 321.31 510.68C321.31 508.68 320.27 507.8 318.11 507.56L314.87 507.2C310.91 506.76 309.03 504.52 309.03 501.44C309.03 497.8 311.91 495.52 316.63 495.52C321.19 495.52 324.27 497.92 324.71 501.6L321.35 502.36C320.91 499.96 319.27 498.28 316.55 498.28C313.91 498.28 312.35 499.36 312.35 501.28C312.35 503 313.47 504.04 315.95 504.32L319.15 504.68C323.11 505.12 324.67 507.2 324.67 510.36C324.67 514.16 321.87 516.48 316.99 516.48ZM326.52 498.8V496H330.24V490.76L333.64 489.32V496H338.64V498.8H333.64V509.88C333.64 512.16 334.52 513.16 336.56 513.16C337.44 513.16 337.96 513.04 338.64 512.88V516C337.76 516.24 336.96 516.36 335.68 516.36C331.36 516.36 330.24 513.72 330.24 510V498.8H326.52ZM346.382 500.56C347.342 497.76 349.422 495.52 352.462 495.52C352.702 495.52 352.942 495.52 353.182 495.56V498.88H353.022C350.942 498.88 349.582 499.48 348.622 500.44C346.702 502.36 346.622 505.04 346.622 507.44V516H343.222V496H346.382V500.56ZM361.766 516.48C357.686 516.48 355.006 514.16 355.006 510.6C355.006 508.6 356.006 506.88 357.806 505.88C359.326 505.12 361.246 504.64 364.526 504.24L368.246 503.8V503.48C368.246 499.8 366.926 498.32 363.846 498.32C361.126 498.32 359.446 499.76 359.286 502.28H355.646C355.926 498.2 359.126 495.52 363.806 495.52C369.286 495.52 371.686 498 371.686 503.84V509.24C371.686 512.32 371.886 514.44 372.366 516H368.806C368.646 514.96 368.526 513.64 368.486 512.36C367.566 514.92 365.046 516.48 361.766 516.48ZM362.526 513.68C366.006 513.68 368.286 511.16 368.286 507.28V506.28L362.846 507.08C359.886 507.52 358.606 508.56 358.606 510.52C358.606 512.48 360.086 513.68 362.526 513.68ZM374.187 498.8V496H377.907V490.76L381.307 489.32V496H386.307V498.8H381.307V509.88C381.307 512.16 382.187 513.16 384.227 513.16C385.107 513.16 385.627 513.04 386.307 512.88V516C385.427 516.24 384.627 516.36 383.347 516.36C379.027 516.36 377.907 513.72 377.907 510V498.8H374.187ZM405.908 504.6V507H391.708C391.748 510.92 394.108 513.48 397.668 513.48C400.228 513.48 402.108 512.12 402.988 509.68L405.788 510.92C404.388 514.56 401.468 516.48 397.428 516.48C391.708 516.48 388.308 512.84 388.308 506.24C388.308 499.56 391.668 495.52 397.388 495.52C402.788 495.52 405.908 498.6 405.908 504.6ZM402.468 504.24V503.8C402.468 500.12 400.588 498.2 397.308 498.2C393.788 498.2 391.788 500.48 391.708 504.24H402.468ZM417.714 498.8V496H421.434V490.76L424.834 489.32V496H429.834V498.8H424.834V509.88C424.834 512.16 425.714 513.16 427.754 513.16C428.634 513.16 429.154 513.04 429.834 512.88V516C428.954 516.24 428.154 516.36 426.874 516.36C422.554 516.36 421.434 513.72 421.434 510V498.8H417.714ZM434.616 516V487H438.016V499.76C439.216 496.92 441.456 495.44 444.576 495.44C448.896 495.44 451.176 498.24 451.176 503.56V516H447.776V503.8C447.776 500.28 446.296 498.44 443.416 498.44C439.976 498.44 438.016 501.04 438.016 505.56V516H434.616ZM473.175 504.6V507H458.975C459.015 510.92 461.375 513.48 464.935 513.48C467.495 513.48 469.375 512.12 470.255 509.68L473.055 510.92C471.655 514.56 468.735 516.48 464.695 516.48C458.975 516.48 455.575 512.84 455.575 506.24C455.575 499.56 458.935 495.52 464.655 495.52C470.055 495.52 473.175 498.6 473.175 504.6ZM469.735 504.24V503.8C469.735 500.12 467.855 498.2 464.575 498.2C461.055 498.2 459.055 500.48 458.975 504.24H469.735ZM488.372 523.8V496H491.572V499.72C492.852 496.96 495.172 495.52 498.092 495.52C502.932 495.52 506.172 499.68 506.172 506C506.172 512.4 502.732 516.48 497.892 516.48C494.812 516.48 492.652 514.8 491.772 512.84V523.8H488.372ZM497.092 513.48C500.492 513.48 502.572 510.68 502.572 506C502.572 501.28 500.572 498.52 497.212 498.52C493.852 498.52 491.692 501.16 491.692 505.48V506.44C491.692 510.76 493.772 513.48 497.092 513.48ZM514.335 500.56C515.295 497.76 517.375 495.52 520.415 495.52C520.655 495.52 520.895 495.52 521.135 495.56V498.88H520.975C518.895 498.88 517.535 499.48 516.575 500.44C514.655 502.36 514.575 505.04 514.575 507.44V516H511.175V496H514.335V500.56ZM532.084 516.48C526.444 516.48 522.764 512.52 522.764 506C522.764 499.48 526.444 495.52 532.084 495.52C537.724 495.52 541.404 499.48 541.404 506C541.404 512.52 537.724 516.48 532.084 516.48ZM532.084 513.52C535.684 513.52 537.804 510.96 537.804 506C537.804 501.04 535.684 498.48 532.084 498.48C528.484 498.48 526.364 501.04 526.364 506C526.364 510.96 528.484 513.52 532.084 513.52ZM552.711 516.48C547.871 516.48 544.591 512.28 544.591 506C544.591 499.84 548.111 495.52 553.111 495.52C555.751 495.52 557.711 496.6 558.991 498.96V487H562.391V516H559.191V512.28C557.991 514.96 555.831 516.48 552.711 516.48ZM553.631 513.48C556.951 513.48 559.071 510.76 559.071 506.48V505.56C559.071 501.2 556.991 498.52 553.631 498.52C550.231 498.52 548.191 501.28 548.191 506C548.191 510.68 550.231 513.48 553.631 513.48ZM575.629 516.48C570.589 516.48 568.789 513.44 568.789 508.76V496H572.189V508.36C572.189 511.72 573.629 513.56 576.269 513.56C579.469 513.56 581.629 510.84 581.629 506.76V496H585.029V516H581.829V512.24C580.909 514.68 578.429 516.48 575.629 516.48ZM599.241 516.48C593.641 516.48 590.041 512.4 590.041 506C590.041 499.48 593.561 495.52 599.241 495.52C603.921 495.52 606.961 498.2 607.481 502.8L604.001 503.2C603.641 500.16 601.881 498.48 599.161 498.48C595.721 498.48 593.641 501.28 593.641 505.96C593.641 510.76 595.721 513.52 599.281 513.52C602.001 513.52 603.681 511.88 604.201 508.76L607.441 509.28C606.721 513.84 603.721 516.48 599.241 516.48ZM608.909 498.8V496H612.629V490.76L616.029 489.32V496H621.029V498.8H616.029V509.88C616.029 512.16 616.909 513.16 618.949 513.16C619.829 513.16 620.349 513.04 621.029 512.88V516C620.149 516.24 619.349 516.36 618.069 516.36C613.749 516.36 612.629 513.72 612.629 510V498.8H608.909Z" fill="white"/>
<path d="M202.12 296L199.96 289.36H189.48L187.32 296H180.56L190.88 267.6H198.6L208.92 296H202.12ZM191.04 284.6H198.4L195.8 276.68C195.4 275.44 195.04 274.36 194.76 272.68H194.68C194.4 274.36 194.04 275.44 193.64 276.68L191.04 284.6ZM208.003 280.28V276H211.483V271.2L217.883 268.72V276H222.643V280.28H217.883V288.08C217.883 290.08 218.883 291.12 220.803 291.12C221.563 291.12 222.043 291.04 222.643 290.92V296C221.163 296.28 220.163 296.4 219.003 296.4C213.683 296.4 211.483 293.96 211.483 289.6V280.28H208.003ZM224.673 280.28V276H228.153V271.2L234.553 268.72V276H239.313V280.28H234.553V288.08C234.553 290.08 235.553 291.12 237.473 291.12C238.233 291.12 238.713 291.04 239.313 290.92V296C237.833 296.28 236.833 296.4 235.673 296.4C230.353 296.4 228.153 293.96 228.153 289.6V280.28H224.673ZM260.662 285.52V287.44H246.782C246.822 290.16 248.702 291.88 251.382 291.88C253.342 291.88 254.822 290.92 255.742 289.08L260.462 291.24C258.862 294.52 255.462 296.48 251.302 296.48C244.702 296.48 240.702 292.68 240.702 286.2C240.702 279.64 244.622 275.52 250.862 275.52C257.142 275.52 260.662 279.16 260.662 285.52ZM254.462 283.84V283.68C254.462 280.84 253.142 279.32 250.742 279.32C248.262 279.32 246.862 281 246.782 283.84H254.462ZM264.283 296V276H270.443V279.84C271.843 276.92 274.043 275.48 277.083 275.48C281.403 275.48 283.603 278.24 283.603 283.6V296H277.203V284.48C277.203 281.72 276.243 280.4 274.203 280.4C271.963 280.4 270.723 282.12 270.723 285.2V296H264.283ZM285.388 280.28V276H288.868V271.2L295.268 268.72V276H300.028V280.28H295.268V288.08C295.268 290.08 296.268 291.12 298.188 291.12C298.948 291.12 299.428 291.04 300.028 290.92V296C298.548 296.28 297.548 296.4 296.388 296.4C291.067 296.4 288.868 293.96 288.868 289.6V280.28H285.388ZM303.247 273.12V267.28H309.927V273.12H303.247ZM303.327 296V276H309.767V296H303.327ZM323.564 296.48C317.684 296.48 313.204 292.84 313.204 285.96C313.204 279.08 317.684 275.52 323.564 275.52C329.484 275.52 333.964 279.08 333.964 285.96C333.964 292.84 329.484 296.48 323.564 296.48ZM323.564 292.04C326.084 292.04 327.564 290.04 327.564 285.96C327.564 281.84 326.084 279.96 323.564 279.96C321.084 279.96 319.604 281.84 319.604 285.96C319.604 290.04 321.084 292.04 323.564 292.04ZM337.41 296V276H343.57V279.84C344.97 276.92 347.17 275.48 350.21 275.48C354.53 275.48 356.73 278.24 356.73 283.6V296H350.33V284.48C350.33 281.72 349.37 280.4 347.33 280.4C345.09 280.4 343.85 282.12 343.85 285.2V296H337.41ZM192.6 336.68C185.36 336.68 181.68 332.76 181.2 327.56L185.04 327C185.56 330.48 187.72 333.56 192.72 333.56C195.8 333.56 199.04 332.28 199.04 328.68C199.04 325.32 196.96 324.24 193.64 323.56L189.52 322.72C185.48 321.88 182.4 319.76 182.4 314.88C182.4 310.12 186.24 306.92 192.28 306.92C197.92 306.92 202.24 309.44 202.8 315L199 315.8C198.52 312 196.4 309.92 192.2 309.92C188.72 309.92 186.32 311.64 186.32 314.52C186.32 317.28 187.8 318.72 190.96 319.4L195.12 320.28C199.52 321.2 202.96 323.16 202.96 328.32C202.96 332.72 199.68 336.68 192.6 336.68ZM204.77 318.8V316H208.49V310.76L211.89 309.32V316H216.89V318.8H211.89V329.88C211.89 332.16 212.77 333.16 214.81 333.16C215.69 333.16 216.21 333.04 216.89 332.88V336C216.01 336.24 215.21 336.36 213.93 336.36C209.61 336.36 208.49 333.72 208.49 330V318.8H204.77ZM226.041 336.48C221.961 336.48 219.281 334.16 219.281 330.6C219.281 328.6 220.281 326.88 222.081 325.88C223.601 325.12 225.521 324.64 228.801 324.24L232.521 323.8V323.48C232.521 319.8 231.201 318.32 228.121 318.32C225.401 318.32 223.721 319.76 223.561 322.28H219.921C220.201 318.2 223.401 315.52 228.081 315.52C233.561 315.52 235.961 318 235.961 323.84V329.24C235.961 332.32 236.161 334.44 236.641 336H233.081C232.921 334.96 232.801 333.64 232.761 332.36C231.841 334.92 229.321 336.48 226.041 336.48ZM226.801 333.68C230.281 333.68 232.561 331.16 232.561 327.28V326.28L227.121 327.08C224.161 327.52 222.881 328.56 222.881 330.52C222.881 332.48 224.361 333.68 226.801 333.68ZM238.462 318.8V316H242.182V310.76L245.582 309.32V316H250.582V318.8H245.582V329.88C245.582 332.16 246.462 333.16 248.502 333.16C249.382 333.16 249.903 333.04 250.582 332.88V336C249.702 336.24 248.903 336.36 247.622 336.36C243.302 336.36 242.182 333.72 242.182 330V318.8H238.462ZM270.183 324.6V327H255.983C256.023 330.92 258.383 333.48 261.943 333.48C264.503 333.48 266.383 332.12 267.263 329.68L270.063 330.92C268.663 334.56 265.743 336.48 261.703 336.48C255.983 336.48 252.583 332.84 252.583 326.24C252.583 319.56 255.943 315.52 261.663 315.52C267.063 315.52 270.183 318.6 270.183 324.6ZM266.743 324.24V323.8C266.743 320.12 264.863 318.2 261.583 318.2C258.063 318.2 256.063 320.48 255.983 324.24H266.743ZM284.444 344.04C283.844 344.04 283.244 344 282.604 343.88V340.88C283.124 340.92 283.604 340.96 284.044 340.96C286.444 340.96 287.684 339.88 288.604 337.24L289.124 335.76L281.164 316H284.964L290.084 329.92C290.444 330.92 290.644 331.72 290.764 332.28H290.844C290.964 331.72 291.204 330.92 291.524 329.92L296.164 316H299.844L292.044 337.28C290.204 342.36 287.804 344.04 284.444 344.04ZM310.39 336.48C304.75 336.48 301.07 332.52 301.07 326C301.07 319.48 304.75 315.52 310.39 315.52C316.03 315.52 319.71 319.48 319.71 326C319.71 332.52 316.03 336.48 310.39 336.48ZM310.39 333.52C313.99 333.52 316.11 330.96 316.11 326C316.11 321.04 313.99 318.48 310.39 318.48C306.79 318.48 304.67 321.04 304.67 326C304.67 330.96 306.79 333.52 310.39 333.52ZM330.937 336.48C325.897 336.48 324.097 333.44 324.097 328.76V316H327.497V328.36C327.497 331.72 328.937 333.56 331.577 333.56C334.777 333.56 336.937 330.84 336.937 326.76V316H340.337V336H337.137V332.24C336.217 334.68 333.737 336.48 330.937 336.48ZM350.308 320.56C351.268 317.76 353.348 315.52 356.388 315.52C356.628 315.52 356.868 315.52 357.108 315.56V318.88H356.948C354.868 318.88 353.508 319.48 352.548 320.44C350.628 322.36 350.548 325.04 350.548 327.44V336H347.148V316H350.308V320.56ZM372.537 336L365.297 316H368.977L373.457 329.48C373.817 330.56 374.097 331.6 374.297 332.52H374.417C374.617 331.6 374.897 330.56 375.257 329.48L379.737 316H383.417L376.177 336H372.537ZM391.572 336.48C387.492 336.48 384.812 334.16 384.812 330.6C384.812 328.6 385.812 326.88 387.612 325.88C389.132 325.12 391.052 324.64 394.332 324.24L398.052 323.8V323.48C398.052 319.8 396.732 318.32 393.652 318.32C390.932 318.32 389.252 319.76 389.092 322.28H385.452C385.732 318.2 388.932 315.52 393.612 315.52C399.092 315.52 401.492 318 401.492 323.84V329.24C401.492 332.32 401.692 334.44 402.172 336H398.612C398.452 334.96 398.332 333.64 398.292 332.36C397.372 334.92 394.852 336.48 391.572 336.48ZM392.332 333.68C395.812 333.68 398.092 331.16 398.092 327.28V326.28L392.652 327.08C389.692 327.52 388.412 328.56 388.412 330.52C388.412 332.48 389.892 333.68 392.332 333.68ZM411.375 307V336H407.975V307H411.375ZM424.631 336.48C419.591 336.48 417.791 333.44 417.791 328.76V316H421.191V328.36C421.191 331.72 422.631 333.56 425.271 333.56C428.471 333.56 430.631 330.84 430.631 326.76V316H434.031V336H430.831V332.24C429.911 334.68 427.431 336.48 424.631 336.48ZM456.642 324.6V327H442.442C442.482 330.92 444.842 333.48 448.402 333.48C450.962 333.48 452.842 332.12 453.722 329.68L456.522 330.92C455.122 334.56 452.202 336.48 448.162 336.48C442.442 336.48 439.042 332.84 439.042 326.24C439.042 319.56 442.402 315.52 448.122 315.52C453.522 315.52 456.642 318.6 456.642 324.6ZM453.202 324.24V323.8C453.202 320.12 451.322 318.2 448.042 318.2C444.522 318.2 442.522 320.48 442.442 324.24H453.202ZM471.839 343.8V316H475.039V319.72C476.319 316.96 478.639 315.52 481.559 315.52C486.399 315.52 489.639 319.68 489.639 326C489.639 332.4 486.199 336.48 481.359 336.48C478.279 336.48 476.119 334.8 475.239 332.84V343.8H471.839ZM480.559 333.48C483.959 333.48 486.039 330.68 486.039 326C486.039 321.28 484.039 318.52 480.679 318.52C477.319 318.52 475.159 321.16 475.159 325.48V326.44C475.159 330.76 477.239 333.48 480.559 333.48ZM497.802 320.56C498.762 317.76 500.842 315.52 503.882 315.52C504.122 315.52 504.362 315.52 504.602 315.56V318.88H504.442C502.362 318.88 501.002 319.48 500.042 320.44C498.122 322.36 498.042 325.04 498.042 327.44V336H494.642V316H497.802V320.56ZM515.551 336.48C509.911 336.48 506.231 332.52 506.231 326C506.231 319.48 509.911 315.52 515.551 315.52C521.191 315.52 524.871 319.48 524.871 326C524.871 332.52 521.191 336.48 515.551 336.48ZM515.551 333.52C519.151 333.52 521.271 330.96 521.271 326C521.271 321.04 519.151 318.48 515.551 318.48C511.951 318.48 509.831 321.04 509.831 326C509.831 330.96 511.951 333.52 515.551 333.52ZM529.858 343.8V316H533.058V319.72C534.338 316.96 536.658 315.52 539.578 315.52C544.418 315.52 547.658 319.68 547.658 326C547.658 332.4 544.218 336.48 539.378 336.48C536.298 336.48 534.138 334.8 533.258 332.84V343.8H529.858ZM538.578 333.48C541.978 333.48 544.058 330.68 544.058 326C544.058 321.28 542.058 318.52 538.698 318.52C535.338 318.52 533.178 321.16 533.178 325.48V326.44C533.178 330.76 535.258 333.48 538.578 333.48ZM560.181 336.48C554.541 336.48 550.861 332.52 550.861 326C550.861 319.48 554.541 315.52 560.181 315.52C565.821 315.52 569.501 319.48 569.501 326C569.501 332.52 565.821 336.48 560.181 336.48ZM560.181 333.52C563.781 333.52 565.901 330.96 565.901 326C565.901 321.04 563.781 318.48 560.181 318.48C556.581 318.48 554.461 321.04 554.461 326C554.461 330.96 556.581 333.52 560.181 333.52ZM581.128 336.48C576.368 336.48 573.208 334.12 572.488 329.84L575.928 329.24C576.448 332.16 578.328 333.68 581.288 333.68C583.968 333.68 585.448 332.56 585.448 330.68C585.448 328.68 584.408 327.8 582.248 327.56L579.008 327.2C575.048 326.76 573.168 324.52 573.168 321.44C573.168 317.8 576.048 315.52 580.768 315.52C585.328 315.52 588.408 317.92 588.848 321.6L585.488 322.36C585.048 319.96 583.408 318.28 580.688 318.28C578.048 318.28 576.488 319.36 576.488 321.28C576.488 323 577.608 324.04 580.088 324.32L583.288 324.68C587.248 325.12 588.808 327.2 588.808 330.36C588.808 334.16 586.008 336.48 581.128 336.48ZM593.613 312.28V308H597.493V312.28H593.613ZM593.853 336V316H597.253V336H593.853ZM601.039 318.8V316H604.759V310.76L608.159 309.32V316H613.159V318.8H608.159V329.88C608.159 332.16 609.039 333.16 611.079 333.16C611.959 333.16 612.479 333.04 613.159 332.88V336C612.279 336.24 611.479 336.36 610.199 336.36C605.879 336.36 604.759 333.72 604.759 330V318.8H601.039ZM617.501 312.28V308H621.381V312.28H617.501ZM617.741 336V316H621.141V336H617.741ZM635.447 336.48C629.807 336.48 626.127 332.52 626.127 326C626.127 319.48 629.807 315.52 635.447 315.52C641.087 315.52 644.767 319.48 644.767 326C644.767 332.52 641.087 336.48 635.447 336.48ZM635.447 333.52C639.047 333.52 641.167 330.96 641.167 326C641.167 321.04 639.047 318.48 635.447 318.48C631.847 318.48 629.727 321.04 629.727 326C629.727 330.96 631.847 333.52 635.447 333.52ZM649.753 336V316H652.953V319.96C654.273 316.92 656.473 315.44 659.633 315.44C664.033 315.44 666.313 318.2 666.313 323.56V336H662.913V323.76C662.913 320.24 661.433 318.44 658.513 318.44C655.193 318.44 653.153 321.12 653.153 325.56V336H649.753Z" fill="#333333"/>
<path d="M138.341 844.539C139.097 846.614 138.026 848.91 135.95 849.665L87.0864 867.45C85.0105 868.206 82.7151 867.136 81.9595 865.06L74.878 845.603L131.26 825.082L138.341 844.539ZM122.914 813.847C124.989 813.091 127.285 814.162 128.04 816.238L129.328 819.775L72.9464 840.296L71.6589 836.759C70.9033 834.683 71.9736 832.388 74.0495 831.632L122.914 813.847Z" fill="#666666"/>
<path fill-rule="evenodd" clip-rule="evenodd" d="M130.24 638.095C127.134 634.729 122.872 632.874 118.239 632.874C114.776 632.874 111.604 633.969 108.811 636.127C107.402 637.216 106.126 638.549 105 640.104C103.875 638.549 102.598 637.216 101.188 636.127C98.3963 633.969 95.2245 632.874 91.761 632.874C87.1275 632.874 82.8653 634.729 79.7594 638.095C76.6905 641.423 75 645.969 75 650.896C75 655.968 76.891 660.61 80.9509 665.506C84.5828 669.886 89.8027 674.332 95.8475 679.481C97.9115 681.239 100.251 683.232 102.681 685.355C103.322 685.916 105 687.126 105 687.126C105 687.126 106.678 685.916 107.319 685.356C109.748 683.232 112.089 681.238 114.154 679.479C120.198 674.332 125.418 669.886 129.05 665.506C133.109 660.61 135 655.968 135 650.896C135 645.969 133.309 641.423 130.24 638.095Z" fill="#9D9D9D"/>
<path d="M101.196 446.708C102.393 443.023 107.607 443.023 108.804 446.708L114.205 463.33C114.741 464.978 116.276 466.094 118.009 466.094H135.487C139.362 466.094 140.973 471.053 137.838 473.33L123.698 483.603C122.296 484.622 121.71 486.427 122.245 488.075L127.646 504.698C128.844 508.383 124.626 511.447 121.491 509.17L107.351 498.897C105.949 497.878 104.051 497.878 102.649 498.897L88.5093 509.17C85.3744 511.447 81.1565 508.383 82.3539 504.698L87.7547 488.075C88.2902 486.427 87.7036 484.622 86.3017 483.603L72.1621 473.33C69.0272 471.053 70.6383 466.094 74.5132 466.094H91.9907C93.7236 466.094 95.2594 464.978 95.7949 463.33L101.196 446.708Z" fill="#D9D9D9"/>
<path fill-rule="evenodd" clip-rule="evenodd" d="M100.317 331.817C100.085 331.836 99.7338 331.793 99.5366 331.72C99.3394 331.646 98.9497 331.435 98.6706 331.25C98.3916 331.064 97.9698 330.67 97.7334 330.374C97.4971 330.077 97.0374 329.286 96.7119 328.616C96.3864 327.946 95.4554 325.857 94.6429 323.975C93.8305 322.093 93.0133 320.237 92.8271 319.85C92.6016 319.382 92.3876 319.08 92.1869 318.947C92.0032 318.826 91.4719 318.671 90.8274 318.551C90.0961 318.414 89.5589 318.25 89.0876 318.017C88.6816 317.817 88.1905 317.471 87.8738 317.162C87.3887 316.688 87.3125 316.647 87.0087 316.69C86.8254 316.716 86.1059 316.942 85.4098 317.192C84.2331 317.614 84.0815 317.646 83.2534 317.646C82.7135 317.646 82.1042 317.582 81.7064 317.482C81.3455 317.391 80.6945 317.147 80.2599 316.939C79.8253 316.731 79.1924 316.364 78.8536 316.124C78.5147 315.884 77.9704 315.433 77.644 315.122C77.3177 314.81 76.8448 314.278 76.5933 313.939C76.3418 313.599 75.9636 312.962 75.7529 312.523C75.5245 312.047 75.2951 311.368 75.1849 310.842C75.0628 310.258 75 309.592 75 308.88C75 308.184 75.0627 307.503 75.1772 306.957C75.2746 306.492 75.4913 305.782 75.6588 305.38C75.8262 304.978 76.1291 304.4 76.3318 304.097C76.5344 303.793 76.9031 303.362 77.151 303.14C77.3988 302.917 77.9346 302.581 78.3414 302.394C78.7483 302.206 79.8407 301.728 80.7689 301.331C81.697 300.934 83.1178 300.302 83.9261 299.927C84.7345 299.553 86.1689 298.847 87.1138 298.358C88.0588 297.87 89.4647 297.1 90.2382 296.646C91.0117 296.193 92.1509 295.506 92.7696 295.119C93.3884 294.733 94.3732 294.076 94.958 293.66C95.5427 293.243 96.5764 292.461 97.255 291.922C97.9336 291.383 99.2929 290.137 100.276 289.153C101.431 287.996 102.36 286.966 102.904 286.238C103.367 285.619 104.033 284.637 104.384 284.054C104.735 283.472 105.224 282.565 105.471 282.039C105.718 281.512 106.072 280.676 106.256 280.18C106.441 279.684 106.744 278.703 106.929 278C107.114 277.297 107.39 276.142 107.544 275.433C107.697 274.724 107.929 273.764 108.059 273.3C108.189 272.836 108.463 272.107 108.669 271.681C108.919 271.164 109.211 270.738 109.549 270.4C109.868 270.082 110.325 269.761 110.784 269.534C111.492 269.185 111.539 269.175 112.501 269.179C113.39 269.183 113.567 269.214 114.252 269.486C114.671 269.652 115.361 270 115.785 270.258C116.21 270.515 116.797 270.911 117.089 271.136C117.382 271.361 118.026 271.906 118.522 272.347C119.017 272.788 119.814 273.584 120.292 274.115C120.771 274.646 121.569 275.589 122.065 276.21C122.561 276.83 123.355 277.894 123.829 278.573C124.303 279.252 125.021 280.326 125.425 280.96C125.828 281.594 126.456 282.64 126.818 283.285C127.181 283.929 127.777 285.026 128.142 285.723C128.508 286.419 129.129 287.684 129.524 288.535C129.918 289.386 130.56 290.884 130.949 291.864C131.339 292.843 131.946 294.51 132.298 295.567C132.65 296.624 133.108 298.119 133.316 298.89C133.523 299.66 133.824 300.905 133.984 301.656C134.145 302.406 134.357 303.496 134.457 304.078C134.556 304.66 134.701 305.588 134.779 306.141C134.857 306.694 134.946 308.114 134.977 309.296C135.023 311.013 135.004 311.666 134.882 312.531C134.798 313.127 134.645 313.953 134.541 314.365C134.437 314.778 134.185 315.455 133.981 315.87C133.777 316.286 133.443 316.814 133.24 317.045C133.037 317.276 132.665 317.576 132.415 317.712C132.165 317.847 131.707 318.031 131.397 318.121C131.088 318.21 130.56 318.283 130.225 318.282C129.89 318.282 129.342 318.211 129.006 318.124C128.671 318.038 127.933 317.742 127.366 317.467C126.798 317.192 125.448 316.428 124.365 315.769C123.283 315.111 121.911 314.329 121.318 314.032C120.725 313.735 119.735 313.294 119.117 313.051C118.499 312.809 117.276 312.43 116.398 312.209C115.52 311.988 114.254 311.74 113.584 311.658C112.913 311.576 111.69 311.482 110.865 311.449C110.013 311.415 108.615 311.436 107.63 311.498C106.676 311.558 105.651 311.668 105.352 311.743C105.054 311.818 104.575 311.993 104.289 312.134C103.999 312.276 103.589 312.588 103.363 312.84C103.079 313.155 102.928 313.424 102.863 313.734C102.805 314.004 102.8 314.346 102.849 314.606C102.894 314.842 103.35 316.002 103.863 317.184C104.377 318.367 105.128 320.092 105.534 321.019C106.094 322.301 106.36 322.797 106.646 323.09C106.852 323.303 107.43 323.739 107.929 324.06C108.429 324.381 108.987 324.808 109.168 325.009C109.367 325.23 109.558 325.582 109.651 325.902C109.756 326.263 109.784 326.568 109.74 326.864C109.704 327.103 109.577 327.489 109.458 327.722C109.339 327.956 109.121 328.261 108.974 328.401C108.828 328.54 108.391 328.798 108.005 328.974C107.618 329.151 105.825 329.854 104.02 330.538C102.152 331.246 100.557 331.797 100.317 331.817ZM127.809 310.567C127.898 310.567 128.034 310.471 128.112 310.353C128.189 310.234 128.302 309.703 128.363 309.172C128.43 308.575 128.449 307.682 128.412 306.832C128.379 306.077 128.287 304.931 128.207 304.286C128.128 303.642 127.939 302.503 127.787 301.755C127.636 301.007 127.341 299.763 127.132 298.989C126.922 298.216 126.535 296.95 126.271 296.176C126.007 295.403 125.52 294.116 125.19 293.317C124.859 292.518 124.235 291.146 123.803 290.27C123.371 289.393 122.671 288.085 122.248 287.363C121.825 286.641 121.123 285.506 120.688 284.839C120.253 284.173 119.578 283.203 119.188 282.683C118.798 282.163 118.088 281.274 117.611 280.707C117.134 280.139 116.265 279.208 115.68 278.637C115.094 278.067 114.409 277.479 114.158 277.333C113.814 277.132 113.664 277.089 113.55 277.161C113.467 277.213 113.341 277.442 113.271 277.669C113.192 277.922 113.123 278.768 113.091 279.863C113.061 280.886 113.086 282.244 113.149 283.055C113.209 283.831 113.362 285.133 113.49 285.949C113.618 286.765 113.909 288.197 114.138 289.132C114.366 290.067 114.792 291.566 115.084 292.462C115.377 293.359 115.884 294.736 116.212 295.523C116.539 296.311 117.105 297.549 117.469 298.276C117.833 299.003 118.412 300.072 118.756 300.653C119.1 301.233 119.676 302.151 120.038 302.692C120.399 303.234 120.999 304.078 121.37 304.568C121.742 305.057 122.333 305.796 122.683 306.208C123.034 306.621 123.745 307.384 124.265 307.903C124.784 308.423 125.505 309.091 125.866 309.386C126.227 309.682 126.775 310.068 127.084 310.245C127.394 310.421 127.72 310.566 127.809 310.567Z" fill="#9D9D9D"/>
<path d="M44.97 31.67C46.38 31.73 47.58 32.15 48.54 32.96C49.53 33.77 50.01 34.85 50.01 36.23C50.01 37.55 49.47 38.84 48.42 40.1C47.37 41.33 46.05 42.38 44.52 43.19C41.49 44.84 37.98 45.89 35.55 45.89C34.14 45.89 33.18 45.59 32.7 45.02C32.25 44.45 32.01 43.4 32.01 41.93C32.01 41.3 32.04 40.37 32.13 39.14C32.22 37.91 32.25 36.95 32.25 36.32V34.4C32.25 32.6 32.19 31.28 32.1 30.44C32.07 30.2 31.92 29.21 31.89 28.85C31.89 28.22 31.83 27.26 32.01 26.63C32.28 25.73 33.42 24.98 35.43 24.38C37.47 23.75 39.12 23.45 40.41 23.45C41.34 23.45 42.24 23.6 43.11 23.87C44.88 24.38 46.47 25.79 46.47 27.71C46.47 28.94 45.96 30.26 44.97 31.67ZM43.17 36.47C42.18 36.47 40.95 36.62 39.48 36.89C38.04 37.16 36.93 37.52 36.12 37.91V41.09C40.47 40.31 43.41 39.44 44.97 38.48C45.75 37.97 46.14 37.58 46.14 37.37C46.05 37.04 45.66 36.83 44.97 36.68C44.28 36.53 43.68 36.47 43.17 36.47ZM40.11 28.7C38.1 28.7 36.57 29.09 35.49 29.87L35.7 32.66C36.75 32.39 38.1 31.91 39.69 31.19C41.31 30.44 42.18 29.78 42.33 29.15C41.82 28.85 41.07 28.7 40.11 28.7ZM63.7188 42.35C60.1788 44.3 57.3888 45.26 55.3188 45.26C54.2688 45.26 53.5488 45.08 53.1588 44.72C52.8588 44.45 52.6188 43.55 52.4688 42.02C52.3188 40.49 52.2588 39.2 52.2588 38.15C52.2588 36.92 52.4088 34.79 52.7388 31.7C53.0688 28.61 53.3988 26.81 53.7288 26.33C54.0588 25.88 54.4188 25.67 54.8388 25.67C55.2888 25.67 55.7388 25.94 56.2188 26.45C56.7288 26.96 56.9688 27.41 56.9688 27.83C56.9688 28.64 56.8788 29.84 56.6688 31.4C56.4588 32.96 56.3688 34.13 56.3688 34.91V39.77C57.6588 39.65 59.3388 39.05 60.3288 38.54C60.8388 38.27 61.5288 37.94 62.3388 37.49C63.1788 37.04 63.7788 36.74 64.1688 36.56C64.2288 36.05 64.2588 35.51 64.2588 34.97C64.2888 34.16 64.3488 32.96 64.3788 31.4L64.4988 28.28C64.4988 27.95 64.4688 27.05 64.4688 26.66C64.4688 24.68 65.0688 23.69 66.2388 23.69C67.2888 23.69 67.9788 24.23 68.2488 25.19C68.5788 26.15 68.6088 26.81 68.6088 27.98C68.6088 29.87 68.4588 33.02 68.1288 37.43C67.7988 41.81 67.4988 44.33 67.1988 44.99C66.8988 45.59 66.4788 45.89 65.9088 45.89C65.2788 45.89 64.7688 45.47 64.3488 44.63C63.9288 43.82 63.7188 43.04 63.7188 42.35ZM90.2559 27.14C90.2559 28.07 89.9559 29 89.3859 29.9C88.8159 30.8 88.0959 31.25 87.2259 31.25C86.1459 31.25 85.5159 30.35 85.2759 29.51C85.0359 28.64 84.4659 27.74 83.4759 27.74C82.5159 27.74 81.3159 28.31 79.8759 29.42C78.4659 30.53 77.3259 31.58 76.5159 32.6C77.3859 32.99 78.6759 33.17 80.3559 33.17C81.0459 33.17 82.0359 33.11 83.3859 32.96C84.7359 32.81 85.7259 32.75 86.3859 32.75C87.4359 32.75 88.5159 32.93 89.6259 33.32C90.7959 33.71 91.5759 34.61 91.5759 35.72C91.5759 36.8 91.1559 37.91 90.2859 39.02C89.4459 40.13 88.4559 41.12 87.3459 42.02C86.1159 43.01 84.6459 43.85 82.9359 44.54C81.2559 45.23 79.6659 45.59 78.1659 45.59C77.5659 45.59 76.9959 45.53 76.4559 45.41C75.5859 45.23 74.5659 44.84 73.3659 44.21C72.1659 43.61 71.5659 43.01 71.5659 42.41C71.5659 41.75 71.9559 41.18 72.7059 40.67C73.4559 40.16 74.1759 39.89 74.8659 39.89C75.4959 39.89 76.5759 40.04 78.1659 40.34C79.7559 40.61 80.9859 40.76 81.8559 40.76C82.6059 40.76 83.4159 40.49 84.2859 39.92C85.1559 39.35 85.8759 38.75 86.4459 38.06C86.0559 37.82 85.4259 37.7 84.5559 37.7C84.1059 37.7 83.4159 37.73 82.4859 37.79C81.5859 37.85 80.8959 37.88 80.4459 37.88H78.9759L77.0559 37.79C76.2159 37.73 75.4659 37.64 74.8059 37.49C72.8559 37.13 70.6059 36.41 70.7559 34.97C70.7559 34.07 71.4159 32.75 72.7659 31.04C74.5059 28.88 76.6059 27.02 79.0659 25.46C81.5259 23.9 83.9559 23.12 86.3559 23.12C88.6659 23.12 90.2559 24.83 90.2559 27.14ZM96.5243 24.74C97.4843 24.74 98.1143 25.28 98.3543 26.33C98.5943 27.38 98.6243 27.89 98.6243 28.94C98.6243 29.45 98.5943 30.2 98.5043 31.25C98.4443 32.3 98.4143 33.08 98.4143 33.59C98.4143 34.52 98.4443 35.93 98.5043 37.76C98.5943 39.59 98.6243 41 98.6243 41.93C98.6243 43.28 97.7843 44.72 96.4643 44.72C95.7443 44.72 95.2343 44.15 94.9643 43.01C94.6343 41.72 94.4843 37.55 94.4843 30.44V28.73C94.4843 27.92 94.5743 27.2 94.8143 26.27C95.0843 25.34 95.6843 24.74 96.5243 24.74ZM115.541 35.72C115.571 35.45 115.571 34.64 115.601 33.32L115.661 29.84C115.691 28.85 115.781 27.8 115.901 26.75C116.021 25.67 116.171 24.95 116.351 24.59C116.711 23.81 117.221 23.42 117.881 23.42C119.381 23.45 119.981 25.85 119.921 27.05C119.921 28.16 119.771 29.81 119.501 32C119.231 34.19 119.111 35.84 119.111 36.92C119.111 37.37 119.141 38 119.171 38.84C119.231 39.65 119.261 40.28 119.261 40.7C119.261 42.77 118.631 43.82 117.341 43.82C116.831 43.82 116.261 43.61 115.691 43.19C115.061 42.8 114.131 41.99 112.901 40.82C111.671 39.62 110.321 38.24 108.851 36.68C107.381 35.09 106.451 34.13 106.061 33.74C106.031 34.07 106.001 35.03 105.971 36.65C105.941 38.24 105.911 39.71 105.851 41.06C105.791 42.41 105.701 43.22 105.611 43.52C105.371 44.27 104.711 44.81 103.901 44.81C102.431 44.81 101.921 43.22 101.921 41.45C101.921 39.98 102.041 37.73 102.311 34.76C102.581 31.76 102.731 29.51 102.731 28.04C102.731 26.69 103.571 25.43 104.861 25.43C105.491 25.43 106.031 25.73 106.511 26.33C108.761 29.15 111.761 32.27 115.541 35.72ZM127.01 31.28L126.83 33.08C130.7 32.6 133.4 32.36 134.93 32.36C136.76 32.36 137.66 32.93 137.66 34.07C137.66 34.97 137.27 35.69 136.49 36.23C135.5 36.86 132.23 37.43 126.68 37.91C126.68 38.27 126.59 39.17 126.44 40.61L129.59 40.16C132.44 39.68 134.48 39.44 136.49 39.44C137.6 39.44 138.14 40.01 138.14 41.18C138.14 42.38 137.24 43.31 136.16 43.79C135.62 44.03 134.96 44.24 134.15 44.39C132.59 44.72 131.57 44.78 130.22 44.87C129.98 44.87 129.83 44.9 129.68 44.9C129.29 44.93 128.66 45.05 127.79 45.29C126.92 45.53 126.26 45.65 125.75 45.65C123.5 45.65 122.3 43.79 122.3 41.51C122.3 40.97 122.36 40.19 122.51 39.2C122.66 38.21 122.75 37.52 122.78 37.13L122.96 33.47C123.05 31.61 123.14 30.2 123.23 29.21C123.35 28.22 123.8 27.29 124.58 26.48C125.39 25.67 126.29 25.13 127.28 24.92C130.37 24.23 133.25 23.9 135.86 23.9C136.67 23.9 137.42 24.05 138.11 24.38C138.8 24.68 139.16 25.16 139.16 25.85C139.16 26.45 138.86 27.02 138.26 27.56C137.69 28.07 137.06 28.4 136.43 28.55C135.56 28.73 134.09 28.91 131.99 29.09C129.89 29.24 128.3 29.48 127.19 29.78L127.01 31.28ZM154.506 38.24C154.506 37.88 153.786 37.64 152.856 37.52C151.926 37.4 151.266 37.37 150.786 37.37C150.216 37.37 149.376 37.4 148.236 37.46C147.126 37.52 146.286 37.55 145.716 37.55C142.026 37.55 140.196 36.83 140.196 35.39C140.196 33.95 141.066 32.24 142.776 30.26C144.516 28.28 146.466 26.6 148.626 25.25C150.786 23.87 152.496 23.18 153.756 23.18C155.826 23.18 157.566 24.44 157.566 26.48C157.566 27.29 157.326 28.07 156.846 28.76C156.366 29.45 155.736 29.78 154.956 29.78C154.326 29.78 153.606 29.42 152.826 28.73C152.676 28.46 152.136 28.04 151.896 28.04C151.086 28.04 150.006 28.52 148.626 29.48C147.246 30.44 146.196 31.31 145.476 32.12C145.986 32.27 146.886 32.36 148.206 32.36H149.916C150.666 32.33 151.146 32.33 151.416 32.33C152.976 32.33 154.236 32.42 156.246 32.81C158.286 33.17 159.606 34.16 159.606 35.6C159.606 36.38 159.186 37.4 158.346 38.63C157.116 40.46 155.436 42.17 153.306 43.79C151.176 45.41 149.226 46.22 147.456 46.22C145.326 46.22 140.766 45.08 140.766 42.35C140.766 40.88 141.456 40.13 142.836 40.13C143.586 40.13 144.696 40.28 146.166 40.58C147.636 40.88 148.776 41.03 149.526 41.03C151.416 41.03 153.336 39.83 154.506 38.24ZM175.026 37.7H174.726C174.096 37.7 173.136 37.76 171.906 37.85C170.676 37.94 169.746 37.97 169.116 37.97C168.126 37.97 166.836 37.88 165.156 37.55C163.506 37.22 162.276 36.47 162.276 35.48C162.276 35 162.456 34.43 162.846 33.8C163.236 33.17 163.596 32.63 163.956 32.24C164.346 31.82 164.886 31.25 165.576 30.56L166.806 29.3C168.096 27.95 169.656 26.69 171.516 25.49C173.406 24.26 175.026 23.66 176.406 23.66C178.806 23.66 180.756 24.74 180.756 26.99C180.756 27.8 180.486 28.55 179.916 29.3C179.346 30.02 178.686 30.38 177.906 30.38C177.126 30.38 176.706 30.14 176.316 29.9C176.106 29.78 175.866 29.3 175.746 29.15L175.236 28.13C175.026 28.04 174.846 27.98 174.666 27.98C173.676 27.98 172.476 28.52 171.126 29.6C169.776 30.65 168.696 31.73 167.886 32.78C168.456 33.05 169.356 33.17 170.616 33.17C171.426 33.17 172.686 33.11 174.366 33.02C176.046 32.9 177.306 32.84 178.146 32.84C179.076 32.84 179.976 33.11 180.846 33.62C181.746 34.13 182.196 34.79 182.196 35.66C182.196 36.11 182.076 36.56 181.866 37.07C180.786 39.53 179.046 41.63 176.646 43.34C174.276 45.05 171.786 45.92 169.206 45.92C167.676 45.92 166.266 45.56 165.036 44.84C163.806 44.15 163.176 43.1 163.176 41.69C163.176 40.61 164.166 40.1 165.336 40.1C166.356 40.04 168.366 40.76 169.296 40.97C169.986 41.12 170.946 41.21 172.176 41.21C173.886 41.21 175.596 39.95 176.796 38.3C176.646 37.91 176.046 37.7 175.026 37.7ZM201.584 45.17C198.854 45.17 196.694 44.39 195.044 42.8C193.424 41.21 192.614 39.05 192.614 36.32C192.614 32.72 193.574 29.78 195.524 27.5C197.474 25.22 200.234 24.08 203.744 24.08C208.964 24.08 214.154 27.17 214.154 32.87C214.154 33.62 214.004 34.52 213.734 35.57C213.134 37.97 212.144 39.86 210.764 41.27C209.414 42.65 207.494 43.79 205.064 44.66C204.134 44.99 202.964 45.17 201.584 45.17ZM209.774 34.52C209.774 33.65 209.564 32.72 209.114 31.79C208.694 30.83 208.154 30.11 207.464 29.63C206.414 28.88 204.854 28.49 202.844 28.49C200.714 28.94 199.154 29.6 198.164 30.44C197.204 31.28 196.724 32.72 196.724 34.76C196.724 36.53 197.384 37.91 198.734 38.96C200.084 40.01 201.644 40.52 203.444 40.52C205.304 40.52 206.834 39.98 208.004 38.9C209.174 37.79 209.774 36.35 209.774 34.52ZM227.791 42.35C224.251 44.3 221.461 45.26 219.391 45.26C218.341 45.26 217.621 45.08 217.231 44.72C216.931 44.45 216.691 43.55 216.541 42.02C216.391 40.49 216.331 39.2 216.331 38.15C216.331 36.92 216.481 34.79 216.811 31.7C217.141 28.61 217.471 26.81 217.801 26.33C218.131 25.88 218.491 25.67 218.911 25.67C219.361 25.67 219.811 25.94 220.291 26.45C220.801 26.96 221.041 27.41 221.041 27.83C221.041 28.64 220.951 29.84 220.741 31.4C220.531 32.96 220.441 34.13 220.441 34.91V39.77C221.731 39.65 223.411 39.05 224.401 38.54C224.911 38.27 225.601 37.94 226.411 37.49C227.251 37.04 227.851 36.74 228.241 36.56C228.301 36.05 228.331 35.51 228.331 34.97C228.361 34.16 228.421 32.96 228.451 31.4L228.571 28.28C228.571 27.95 228.541 27.05 228.541 26.66C228.541 24.68 229.141 23.69 230.311 23.69C231.361 23.69 232.051 24.23 232.321 25.19C232.651 26.15 232.681 26.81 232.681 27.98C232.681 29.87 232.531 33.02 232.201 37.43C231.871 41.81 231.571 44.33 231.271 44.99C230.971 45.59 230.551 45.89 229.981 45.89C229.351 45.89 228.841 45.47 228.421 44.63C228.001 43.82 227.791 43.04 227.791 42.35ZM253.518 42.68C253.518 43.88 252.198 44.39 250.878 44.39C250.068 44.39 248.118 43.25 244.998 41C244.608 40.7 244.158 40.43 243.678 40.16C243.228 39.89 242.598 39.59 241.848 39.23L240.468 38.54C240.678 40.61 240.798 41.99 240.798 42.74C240.798 44.15 240.018 45.47 238.698 45.47C237.828 45.47 237.258 44.72 236.958 43.25C236.748 42.08 236.598 40.82 236.478 39.47L236.208 34.91C236.118 33.23 236.058 31.94 235.968 31.04C235.938 30.71 235.878 30.14 235.728 29.27C235.608 28.4 235.548 27.71 235.548 27.23C235.548 26.42 236.208 25.67 237.528 24.95C238.878 24.2 240.048 23.75 241.098 23.57C242.568 23.3 243.918 23.18 245.178 23.18C246.618 23.18 247.788 23.39 248.688 23.84C249.588 24.29 250.368 24.98 250.998 25.94C251.628 26.87 251.958 27.83 251.958 28.79C251.958 31.37 250.098 33.65 246.378 35.63C247.668 36.35 248.988 37.31 250.668 38.66C252.348 39.98 253.518 41.51 253.518 42.68ZM248.298 29.21C248.298 28.91 247.968 28.7 247.308 28.58C246.648 28.43 246.048 28.37 245.478 28.37C243.228 28.37 241.248 28.79 239.538 29.6L239.958 33.68C241.368 33.53 243.018 33.17 244.938 32.48C246.858 31.79 248.298 30.62 248.298 29.21ZM267.649 37.7H267.349C266.719 37.7 265.789 37.76 264.559 37.85C263.329 37.94 262.369 37.97 261.739 37.97C260.749 37.97 259.459 37.88 257.809 37.55C256.159 37.22 254.929 36.47 254.929 35.48C254.929 35 255.109 34.43 255.499 33.8C255.889 33.17 256.249 32.63 256.609 32.24C256.999 31.82 257.539 31.25 258.229 30.56L259.459 29.3C260.749 27.95 262.309 26.69 264.169 25.49C266.059 24.26 267.679 23.66 269.059 23.66C270.229 23.66 271.249 23.93 272.089 24.5C272.959 25.04 273.379 25.88 273.379 26.99C273.379 27.8 273.109 28.55 272.539 29.3C271.969 30.02 271.309 30.38 270.559 30.38C269.599 30.38 269.179 30.17 268.789 29.72L268.459 29.3C268.429 29.21 268.309 29.03 268.159 28.73L267.889 28.13C267.649 28.04 267.469 27.98 267.319 27.98C266.299 27.98 265.129 28.52 263.779 29.6C262.429 30.65 261.349 31.73 260.539 32.78C261.109 33.05 262.009 33.17 263.269 33.17C264.079 33.17 265.339 33.11 267.019 33.02C268.699 32.9 269.959 32.84 270.799 32.84C271.729 32.84 272.629 33.11 273.499 33.62C274.399 34.13 274.849 34.79 274.849 35.66C274.849 36.02 274.729 36.5 274.519 37.07C273.409 39.53 271.669 41.63 269.269 43.34C266.899 45.05 264.409 45.92 261.859 45.92C260.329 45.92 258.919 45.56 257.689 44.84C256.459 44.15 255.829 43.1 255.829 41.69C255.829 40.61 256.819 40.1 257.989 40.1C258.499 40.1 259.279 40.25 260.299 40.52L261.949 40.97C262.639 41.12 263.599 41.21 264.829 41.21C266.479 41.21 268.009 40.25 269.419 38.3C269.269 37.91 268.669 37.7 267.649 37.7ZM280.874 25.91C280.844 26.63 280.814 27.68 280.814 29.06C280.814 29.45 280.874 30.35 280.874 30.71C280.874 31.46 280.574 32.36 279.974 32.36C279.404 32.36 279.134 31.79 279.134 30.68C279.134 30.17 279.164 29.42 279.194 28.43C279.224 27.44 279.254 26.69 279.254 26.21C278.594 26.33 277.934 26.39 277.274 26.39C276.764 26.39 276.104 26.21 276.104 25.76C276.104 25.37 276.314 25.04 276.734 24.74C276.944 24.56 277.244 24.44 277.574 24.41C278.744 24.29 279.674 24.17 280.334 24.08C280.544 24.05 280.904 23.99 281.444 23.87C282.014 23.75 282.434 23.69 282.704 23.69C283.154 23.69 283.394 23.87 283.394 24.23C283.394 24.62 283.184 25.28 282.854 25.43C282.434 25.7 281.774 25.85 280.874 25.91ZM289.394 26.75C288.884 27.62 288.554 28.43 288.344 29.15C288.314 29.18 288.284 29.42 288.194 29.84C288.104 30.23 288.044 30.53 287.954 30.74C287.774 31.37 287.294 32.48 286.574 32.33C286.304 32.33 286.094 32.21 285.944 32C285.854 31.82 285.734 31.28 285.584 30.35C285.434 29.63 285.224 28.88 284.924 28.13L284.624 29.36C284.294 30.77 283.964 32.12 283.874 32.27C283.724 32.48 283.544 32.6 283.274 32.6C282.794 32.6 282.464 32.06 282.464 31.58C282.464 31.43 282.584 30.86 282.854 29.87C283.574 26.75 284.234 24.86 284.834 24.23C284.954 24.02 285.134 23.9 285.344 23.9C285.674 23.9 285.944 24.17 286.154 24.74L286.394 25.43C286.514 25.82 286.664 26.66 286.664 26.75C286.694 26.96 286.844 27.44 287.084 28.16C287.294 27.71 287.714 26.69 287.954 26.21C288.194 25.7 288.614 24.92 289.064 24.35C289.334 24.08 289.754 23.45 290.144 23.45C290.684 23.45 291.164 24.41 291.554 26.3C291.944 28.19 292.154 29.57 292.154 30.47C292.154 31.1 291.794 32 291.224 32C290.834 32 290.504 31.67 290.264 30.98C290.024 30.29 289.844 29.45 289.694 28.46C289.544 27.47 289.454 26.9 289.394 26.75ZM321.46 29.03C321.46 30.38 320.98 31.7 320.02 32.99C319.06 34.25 317.86 35.3 316.45 36.14C313.6 37.82 310.36 38.93 307.81 39.14C307.81 39.23 307.78 39.53 307.75 40.04C307.72 41 307.63 41.36 307.48 42.35C307.36 43.34 307.09 43.85 306.73 44.48C306.37 45.17 305.77 45.47 305.05 45.47C304.6 45.47 304.21 45.2 303.91 44.63C303.61 44.09 303.46 43.58 303.46 43.07C303.46 42.8 303.55 42.32 303.73 41.6C303.94 40.85 304.03 39.89 304.03 38.69C304.06 37.82 304.06 36.47 304.06 34.67V32.36C304.06 31.97 304.03 31.43 303.97 30.68C303.91 29.93 303.88 29.36 303.88 28.97C303.88 27.68 304.15 26.93 305.11 26.33C306.34 25.58 307.81 24.98 309.55 24.56C311.32 24.11 312.97 23.9 314.53 23.9C319.15 23.9 321.46 25.61 321.46 29.03ZM317.23 29.78C316.81 29.24 315.88 28.97 314.44 28.97C312.61 28.97 310.36 29.39 307.66 30.26C307.81 31.76 307.9 33.17 307.9 34.49C309.49 34.34 311.26 34.01 313.3 33.32C315.34 32.6 316.96 31.34 317.23 29.78ZM335.054 39.2C337.694 39.2 339.014 40.07 339.014 41.84C339.014 43.07 337.724 43.88 336.374 44.09C335.864 44.18 335.114 44.27 334.124 44.36C333.164 44.45 332.534 44.54 332.234 44.57C331.934 44.6 331.064 44.75 329.594 44.99C328.124 45.26 327.224 45.38 326.834 45.38C324.704 45.38 323.624 44.42 323.624 42.53C323.624 41.96 323.654 41.09 323.744 39.92C323.834 38.75 323.864 37.88 323.864 37.31V36.5C323.864 35.99 323.864 35.21 323.834 34.13C323.804 33.05 323.804 32.24 323.804 31.7C323.804 29.57 323.924 27.71 324.194 26.15C324.374 24.83 324.794 24.17 325.454 24.17C326.924 24.17 327.674 25.19 327.674 27.23C327.674 27.68 327.644 28.31 327.584 29.18C327.554 30.05 327.524 30.68 327.524 31.13C327.524 34.1 327.494 37.04 327.434 39.98C327.974 39.92 328.784 39.83 329.834 39.68C331.964 39.35 333.584 39.2 335.054 39.2ZM357.706 44.6C356.716 44.6 356.086 43.82 355.546 42.86C355.216 42.29 354.886 41.21 354.736 40.7L354.466 39.65L354.256 38.81C353.866 38.96 353.416 39.08 352.906 39.2C351.916 39.41 351.286 39.47 349.876 39.59L348.376 39.68C348.076 39.68 347.536 39.71 346.786 39.74C346.036 39.77 345.616 39.77 345.466 39.77C345.376 39.98 345.256 40.4 345.076 41.03C344.896 41.66 344.716 42.2 344.566 42.65C344.086 44.03 343.156 45.86 341.776 45.71C340.936 45.71 340.516 44.93 340.516 43.4C340.516 41.72 341.206 39.2 342.616 35.84C344.026 32.48 345.376 29.78 346.636 27.71L347.326 26.42L348.256 24.71C348.766 23.87 349.756 22.85 350.596 22.85C351.466 22.85 352.366 23.39 353.356 24.44C354.346 25.49 355.216 26.78 355.966 28.28C357.526 31.28 358.696 34.22 359.086 35.9C359.176 36.29 359.356 36.89 359.596 37.7C360.106 39.29 360.436 40.58 360.436 41.75C360.436 42.47 360.166 43.13 359.596 43.73C359.056 44.3 358.426 44.6 357.706 44.6ZM352.936 34.73C351.946 31.94 351.016 30.05 350.206 29.06C348.946 30.77 347.926 32.87 347.116 35.36H347.356C347.566 35.36 347.926 35.36 348.376 35.33C348.856 35.3 349.186 35.27 349.396 35.27C350.506 35.27 351.706 35.09 352.936 34.73ZM367.388 36.05L366.608 35.54L365.648 34.88L364.688 34.19C364.238 33.83 363.878 33.56 363.668 33.35C363.278 32.96 362.288 32.15 361.898 31.64C361.238 30.8 360.548 29.69 360.638 28.82C360.638 28.25 360.848 27.59 361.298 26.9C361.748 26.21 362.228 25.85 362.798 25.85C363.338 25.85 363.968 26.12 364.658 26.63C365.348 27.14 366.098 27.8 366.878 28.61C367.688 29.39 368.228 29.9 368.498 30.11L370.328 31.34L370.958 30.35C371.648 29.27 372.038 28.73 372.788 27.56C373.598 26.39 374.228 25.7 375.038 24.89C375.848 24.08 376.628 23.69 377.258 23.69C378.068 23.69 378.578 24.32 378.578 25.07C378.578 25.64 378.068 26.63 377.588 27.32L376.718 28.58L376.088 29.48C374.078 32.39 372.488 34.85 371.288 36.83C370.928 37.43 370.268 38.66 369.308 40.55C368.378 42.41 367.538 43.82 366.848 44.75C366.278 45.5 365.708 45.89 365.108 45.89C363.638 45.77 363.248 44.03 364.118 41.87C364.448 41.09 364.748 40.46 365.018 39.95C365.288 39.44 365.738 38.69 366.338 37.76C366.938 36.8 367.298 36.23 367.388 36.05ZM401.072 36.47C401.072 37.7 400.472 39.02 399.242 40.43C397.592 42.29 395.342 43.61 392.492 44.42C389.642 45.23 386.702 45.65 383.612 45.65C382.322 45.65 381.452 45.08 381.062 44.09C380.702 43.1 380.582 42.23 380.582 41C380.582 39.59 380.672 37.55 380.882 34.94C381.092 32.33 381.212 30.5 381.242 29.45C381.272 28.46 381.422 27.71 381.662 27.2C381.902 26.69 382.412 26.15 383.222 25.64C384.212 25.01 385.772 24.44 387.902 23.93C390.032 23.39 391.772 23.12 393.062 23.12C394.412 23.12 395.612 23.51 396.692 24.26C397.772 25.01 398.312 26.03 398.312 27.32C398.312 28.79 397.832 30.32 396.842 31.91C399.152 32.63 401.072 34.28 401.072 36.47ZM396.512 38.06C396.512 37.67 396.002 37.34 395.012 37.07C394.022 36.8 393.242 36.65 392.642 36.65C390.392 36.65 387.752 37.13 384.692 38.12C384.602 39.05 384.542 39.89 384.542 40.61H385.622C386.972 40.61 389.132 40.37 392.072 39.86C395.042 39.35 396.512 38.75 396.512 38.06ZM384.782 33.08C388.652 32.39 391.232 31.7 392.552 31.07C393.542 30.62 394.052 30.11 394.052 29.6C393.932 28.67 393.242 28.61 392.372 28.61C390.482 28.61 387.992 29.21 384.872 30.44C384.872 31.31 384.842 32.18 384.782 33.08ZM411.743 45.17C409.013 45.17 406.853 44.39 405.203 42.8C403.583 41.21 402.773 39.05 402.773 36.32C402.773 32.72 403.733 29.78 405.683 27.5C407.633 25.22 410.393 24.08 413.903 24.08C419.123 24.08 424.313 27.17 424.313 32.87C424.313 33.62 424.163 34.52 423.893 35.57C423.293 37.97 422.303 39.86 420.923 41.27C419.573 42.65 417.653 43.79 415.223 44.66C414.293 44.99 413.123 45.17 411.743 45.17ZM419.933 34.52C419.933 33.65 419.723 32.72 419.273 31.79C418.853 30.83 418.313 30.11 417.623 29.63C416.573 28.88 415.013 28.49 413.003 28.49C410.873 28.94 409.313 29.6 408.323 30.44C407.363 31.28 406.883 32.72 406.883 34.76C406.883 36.53 407.543 37.91 408.893 38.96C410.243 40.01 411.803 40.52 413.603 40.52C415.463 40.52 416.993 39.98 418.163 38.9C419.333 37.79 419.933 36.35 419.933 34.52ZM435.593 45.17C433.193 45.17 431.123 44.27 429.383 42.44C427.673 40.61 426.803 38.51 426.803 36.08C426.713 29.09 432.773 24.17 439.553 24.32C440.663 24.32 441.803 24.62 443.033 25.25C444.263 25.88 445.283 26.6 446.063 27.47C446.663 28.1 447.113 29 447.413 30.11C447.713 31.22 447.863 32.33 447.863 33.41C447.863 35.15 447.503 36.71 446.783 38.06C445.793 39.95 444.173 41.6 441.983 43.04C439.793 44.45 437.663 45.17 435.593 45.17ZM439.133 29.45C437.783 29.45 436.493 29.66 435.293 30.08C434.093 30.5 433.043 31.22 432.173 32.21C431.303 33.2 430.883 34.37 430.883 35.75C430.883 37.16 431.423 38.24 432.473 38.96C433.523 39.68 434.813 40.04 436.313 40.04C437.423 40.04 438.533 39.86 439.613 39.5C440.723 39.14 441.683 38.54 442.493 37.73C443.303 36.89 443.723 35.9 443.723 34.76C443.723 33.74 443.393 32.63 442.763 31.43C442.133 30.23 441.353 29.57 440.453 29.48C440.183 29.45 439.733 29.45 439.133 29.45ZM464.411 44.9C463.871 44.9 463.121 44.51 462.161 43.73C461.231 42.95 460.211 42.05 459.101 41.03C458.021 40.01 457.211 39.35 456.701 39.02C455.831 38.48 455.111 38.09 454.511 37.82L454.421 41.51C454.421 41.96 454.631 43.1 454.631 43.58C454.631 44.87 453.911 46.07 452.681 46.07C451.631 46.07 450.941 45.35 450.671 44.12C450.401 42.89 450.341 42.02 450.341 40.7C450.341 38.87 450.401 36.14 450.551 32.54C450.701 28.94 450.851 26.9 451.031 26.42C451.391 25.31 452.171 24.44 453.161 24.44C454.361 24.44 454.991 25.19 454.991 26.39C454.991 26.72 454.931 27.17 454.841 27.77C454.751 28.34 454.721 28.79 454.721 29.06C454.661 29.81 454.631 30.95 454.631 32.45C454.931 32.21 455.471 31.79 456.251 31.22C457.811 30.05 458.831 29.21 459.701 28.22C461.861 25.85 463.421 24.41 464.381 23.84C464.771 23.63 465.101 23.51 465.341 23.51C466.571 23.51 467.201 23.99 467.201 24.92C467.201 25.85 466.301 27.2 464.711 28.67C463.931 29.42 463.211 30.05 462.581 30.62C461.951 31.16 461.171 31.79 460.271 32.48C459.371 33.17 458.831 33.59 458.681 33.74C460.001 34.55 461.711 35.84 463.421 37.43C465.191 38.99 466.481 40.88 466.481 42.2C466.481 43.55 465.701 44.9 464.411 44.9Z" fill="black"/>
<path d="M808.939 45.17C806.539 45.17 804.469 44.27 802.729 42.44C801.019 40.61 800.149 38.51 800.149 36.08C800.059 29.09 806.119 24.17 812.899 24.32C814.009 24.32 815.149 24.62 816.379 25.25C817.609 25.88 818.629 26.6 819.409 27.47C820.009 28.1 820.459 29 820.759 30.11C821.059 31.22 821.209 32.33 821.209 33.41C821.209 35.18 820.849 36.71 820.099 38.06C819.109 39.95 817.519 41.6 815.329 43.04C813.139 44.45 811.009 45.17 808.939 45.17ZM812.479 29.45C811.129 29.45 809.839 29.66 808.639 30.08C807.439 30.5 806.389 31.22 805.519 32.21C804.649 33.2 804.229 34.37 804.229 35.75C804.229 37.16 804.769 38.24 805.819 38.96C806.869 39.68 808.159 40.04 809.659 40.04C811.459 40.04 813.139 39.59 814.699 38.66C816.259 37.73 817.039 36.41 817.039 34.76C817.039 33.74 816.709 32.63 816.079 31.43C815.449 30.23 814.699 29.57 813.799 29.48C813.529 29.45 813.079 29.45 812.479 29.45ZM835.041 41.75C833.811 42.5 832.191 43.31 830.211 44.18C828.261 45.05 826.761 45.5 825.771 45.5C824.961 45.5 824.361 45.17 823.971 44.48C823.731 44.03 823.521 43.07 823.371 41.6C823.221 40.13 823.131 38.93 823.131 38.06C823.131 37.19 823.341 35.09 823.791 31.79C824.241 28.49 824.601 26.66 824.871 26.3C825.111 25.91 825.471 25.73 825.951 25.73C827.271 25.73 827.931 26.93 827.931 29.36C827.931 30.77 827.811 32.06 827.571 33.17C827.301 34.34 827.181 35.87 827.181 37.73V39.56C828.891 39.08 831.531 37.73 835.041 35.51C835.041 34.34 835.011 32.6 834.981 30.29C834.951 27.98 834.951 26.24 834.951 25.07C834.951 24.32 836.031 23.57 836.781 23.57C838.161 23.57 838.851 25.55 838.851 29.54V29.96C838.851 30.98 838.881 32.51 838.911 34.52C838.941 36.53 838.971 38.06 838.971 39.05V39.68C838.971 43.55 838.251 45.47 836.781 45.47C836.151 45.47 835.701 45.05 835.431 44.21C835.161 43.37 835.041 42.56 835.041 41.75ZM858.715 44.27C858.055 44.27 857.125 43.91 855.895 43.16C852.445 41.12 849.145 39.65 846.055 38.72C846.235 41.72 846.325 43.22 846.325 43.25C846.325 44.54 845.575 45.71 844.345 45.71C843.655 45.71 843.025 45.2 842.815 44.51C842.395 43.52 842.185 38.09 842.185 28.22C842.185 27.23 842.755 26.48 843.925 25.97C845.095 25.37 846.505 24.86 848.155 24.44C849.805 23.99 851.215 23.78 852.445 23.78C856.975 23.78 859.225 25.16 859.225 27.89C859.225 29.39 858.565 30.83 857.245 32.21C855.955 33.59 854.485 34.7 852.835 35.57C854.245 36.05 855.895 36.86 857.665 37.97C859.465 39.08 860.785 40.61 860.785 42.02C860.785 43.37 860.065 44.27 858.715 44.27ZM845.905 30.44V31.37C845.905 32.54 845.935 33.41 845.965 33.98C847.045 33.77 848.815 33.29 850.825 32.54C852.865 31.79 854.485 30.65 854.485 29.6C854.485 29.33 854.155 29.15 853.525 29.06C852.895 28.94 852.295 28.88 851.785 28.88C849.835 28.88 847.885 29.39 845.905 30.44ZM862.874 41.27C862.874 40.04 864.254 39.53 865.604 39.53C866.354 39.53 867.434 39.74 868.874 40.16C870.344 40.55 871.424 40.76 872.144 40.76C874.064 40.76 876.104 39.53 876.824 37.82C876.134 37.61 875.054 37.49 873.554 37.49C873.044 37.49 872.354 37.52 871.424 37.55C870.524 37.58 869.894 37.58 869.564 37.58C868.394 37.58 866.804 37.4 865.004 36.95C863.234 36.47 861.854 35.51 861.854 34.31C861.854 32.9 864.164 30.47 868.814 27.05C870.104 26.06 871.544 25.22 873.074 24.47C874.634 23.72 876.044 23.36 877.304 23.36C878.294 23.36 879.194 23.72 880.064 24.41C880.934 25.1 881.354 25.94 881.354 26.9C881.354 28.67 880.064 30.02 878.264 30.02C876.764 30.02 876.944 27.89 874.664 27.89C873.884 27.89 872.774 28.4 871.334 29.42C869.924 30.44 868.814 31.37 868.064 32.18C868.514 32.63 869.714 32.84 871.694 32.84C872.144 32.84 872.744 32.84 873.434 32.81C874.154 32.78 874.604 32.75 874.754 32.75C879.704 32.75 882.194 33.77 882.194 35.81C882.194 36.98 881.534 38.3 880.244 39.77C878.954 41.24 877.514 42.5 875.894 43.55C874.274 44.6 872.894 45.23 871.724 45.5C870.974 45.65 870.254 45.74 869.504 45.74C867.974 45.74 866.504 45.35 865.034 44.54C863.594 43.73 862.874 42.65 862.874 41.27ZM882.652 43.52C882.652 42.53 883.132 41.69 884.092 41C885.052 40.31 886.042 39.95 887.092 39.95C888.622 39.95 889.912 40.67 889.912 42.11C889.912 42.95 889.342 43.73 888.202 44.42C887.062 45.11 886.042 45.47 885.112 45.47C883.792 45.47 882.652 44.81 882.652 43.52ZM911.927 36.74C911.927 38.09 910.967 39.68 909.017 41.51C907.547 42.89 905.687 43.91 903.377 44.57C901.067 45.26 898.757 45.59 896.387 45.59C895.817 45.59 895.277 45.56 894.767 45.47C893.777 45.32 892.577 44.63 892.577 43.52C892.577 43.19 892.607 42.68 892.637 42.05C892.667 41.42 892.697 41 892.697 40.79C892.787 39.08 892.817 36.47 892.817 32.99C892.817 32.48 892.757 31.79 892.667 30.92C892.577 30.02 892.517 29.39 892.517 29.03C892.517 27.68 892.907 26.69 893.687 26.09C894.437 25.52 895.727 25.01 897.557 24.56C899.387 24.11 900.857 23.9 902.027 23.9C904.337 23.9 908.297 24.68 908.297 27.62C908.297 28.97 907.367 30.56 905.537 32.36C909.797 32.93 911.927 34.37 911.927 36.74ZM907.607 38.3C907.037 37.85 906.227 37.49 905.177 37.28C904.127 37.04 903.137 36.92 902.237 36.92C900.587 36.92 898.667 37.19 896.537 37.7L896.567 40.76H897.107C898.727 40.76 900.707 40.55 903.077 40.1C905.447 39.65 906.977 39.05 907.607 38.3ZM896.477 30.05L896.537 32.84C897.647 32.57 899.147 32 901.097 31.19C903.047 30.35 904.007 29.66 904.007 29.15C903.917 29.03 903.587 28.94 902.957 28.85C902.357 28.76 901.907 28.7 901.577 28.7C899.747 28.7 898.067 29.15 896.477 30.05ZM928.604 25.43C928.604 25.94 928.394 26.48 927.944 27.08C927.584 27.65 927.014 28.43 926.264 29.45C925.514 30.47 924.974 31.25 924.644 31.76L922.364 35.15C921.014 37.16 920.024 38.69 919.394 39.77C921.974 39.26 924.014 39.02 925.514 39.02C926.954 39.02 927.704 39.35 927.704 40.7C927.704 42.02 926.594 43.43 925.364 43.94C925.064 44.09 923.384 44.39 920.354 44.9C917.324 45.41 915.644 45.65 915.314 45.65C914.144 45.65 912.884 45.05 912.884 43.94C912.884 43.49 913.094 42.86 913.484 42.11C913.874 41.33 914.444 40.43 915.134 39.38L916.304 37.58C916.544 37.22 916.874 36.68 917.264 35.99C917.654 35.27 917.954 34.76 918.164 34.43C918.524 33.83 919.124 32.96 919.934 31.85C920.744 30.71 921.344 29.87 921.674 29.3C921.524 29.33 921.164 29.42 920.624 29.51L919.424 29.72C919.064 29.81 918.524 29.99 917.774 30.26C916.334 30.77 915.224 31.1 914.144 31.1C912.974 31.1 912.374 30.2 912.374 29.03C912.374 27.44 913.784 26.18 915.464 25.43C915.794 25.28 916.844 25.07 918.554 24.74C920.294 24.41 921.494 24.2 922.124 24.11C924.464 23.93 925.664 23.84 925.694 23.84C927.644 23.84 928.604 24.38 928.604 25.43Z" fill="black"/>
<line x1="30" y1="58" x2="930" y2="58" stroke="black" stroke-width="4"/>
<path d="M71.1 81.4V124H60.96V106.3H44.58V124H34.44V81.4H44.58V98.5H60.96V81.4H71.1ZM91.6073 124.72C82.7873 124.72 76.0673 119.26 76.0673 108.94C76.0673 98.62 82.7873 93.28 91.6073 93.28C100.487 93.28 107.207 98.62 107.207 108.94C107.207 119.26 100.487 124.72 91.6073 124.72ZM91.6073 118.06C95.3873 118.06 97.6073 115.06 97.6073 108.94C97.6073 102.76 95.3873 99.94 91.6073 99.94C87.8873 99.94 85.6673 102.76 85.6673 108.94C85.6673 115.06 87.8873 118.06 91.6073 118.06ZM115.935 124L107.895 94H117.075L120.855 112.36C120.975 113.2 121.155 114.22 121.275 115.24H121.395C121.515 114.22 121.635 113.2 121.875 112.36L126.255 94H134.415L138.795 112.36C138.975 113.2 139.155 114.22 139.275 115.24H139.395C139.515 114.22 139.635 113.2 139.815 112.36L143.535 94H152.715L144.735 124H135.375L130.815 106.3C130.575 105.52 130.455 104.5 130.395 103.78H130.275C130.215 104.5 130.035 105.52 129.855 106.3L125.295 124H115.935ZM164.484 100.42V94H169.704V86.8L179.304 83.08V94H186.444V100.42H179.304V112.12C179.304 115.12 180.804 116.68 183.684 116.68C184.824 116.68 185.544 116.56 186.444 116.38V124C184.224 124.42 182.724 124.6 180.984 124.6C173.004 124.6 169.704 120.94 169.704 114.4V100.42H164.484ZM203.468 124.72C194.648 124.72 187.928 119.26 187.928 108.94C187.928 98.62 194.648 93.28 203.468 93.28C212.348 93.28 219.068 98.62 219.068 108.94C219.068 119.26 212.348 124.72 203.468 124.72ZM203.468 118.06C207.248 118.06 209.468 115.06 209.468 108.94C209.468 102.76 207.248 99.94 203.468 99.94C199.748 99.94 197.528 102.76 197.528 108.94C197.528 115.06 199.748 118.06 203.468 118.06ZM237.261 94H246.501V99.4C248.421 95.26 251.301 93.22 255.741 93.22C260.001 93.22 262.761 95.2 264.261 99.46C266.421 95.26 269.541 93.22 273.861 93.22C279.681 93.22 283.101 97.36 283.101 104.38V124H273.501V106.42C273.501 102.4 272.241 100.6 269.481 100.6C266.601 100.6 264.981 102.76 264.981 106.78V124H255.381V106.36C255.381 102.46 254.061 100.6 251.421 100.6C248.541 100.6 246.921 102.82 246.921 106.84V124H237.261V94ZM297.3 124.72C291.12 124.72 286.98 121.18 286.98 115.84C286.98 113.02 288 110.8 290.04 109.36C292.02 107.98 294.9 107.02 299.46 106.42L306.72 105.4V104.38C306.72 100.96 305.28 99.46 302.28 99.46C299.34 99.46 297.66 101.02 297.48 103.9H287.94C288.42 97.24 293.82 93.28 302.34 93.28C312 93.28 316.32 97.06 316.32 105.7V115.66C316.32 119.2 316.62 122.14 317.16 124H307.8C307.5 122.56 307.38 120.94 307.32 119.26C305.82 122.62 301.98 124.72 297.3 124.72ZM300.9 118.6C304.56 118.6 307.02 116.14 307.02 112.54V110.14L301.86 110.98C298.32 111.64 296.7 112.9 296.7 115.12C296.7 117.22 298.38 118.6 300.9 118.6ZM343.034 124L335.894 111.88L332.594 115.42V124H322.934V80.5H332.594V105.76L342.314 94H353.474L342.554 105.94L353.774 124H343.034ZM382.668 108.28V111.16H361.848C361.908 115.24 364.728 117.82 368.748 117.82C371.688 117.82 373.908 116.38 375.288 113.62L382.368 116.86C379.968 121.78 374.868 124.72 368.628 124.72C358.728 124.72 352.728 119.02 352.728 109.3C352.728 99.46 358.608 93.28 367.968 93.28C377.388 93.28 382.668 98.74 382.668 108.28ZM373.368 105.76V105.52C373.368 101.26 371.388 98.98 367.788 98.98C364.068 98.98 361.968 101.5 361.848 105.76H373.368ZM408.984 124.72C402.804 124.72 398.664 121.18 398.664 115.84C398.664 113.02 399.684 110.8 401.724 109.36C403.704 107.98 406.584 107.02 411.144 106.42L418.404 105.4V104.38C418.404 100.96 416.964 99.46 413.964 99.46C411.024 99.46 409.344 101.02 409.164 103.9H399.624C400.104 97.24 405.504 93.28 414.024 93.28C423.684 93.28 428.004 97.06 428.004 105.7V115.66C428.004 119.2 428.304 122.14 428.844 124H419.484C419.184 122.56 419.064 120.94 419.004 119.26C417.504 122.62 413.664 124.72 408.984 124.72ZM412.584 118.6C416.244 118.6 418.704 116.14 418.704 112.54V110.14L413.544 110.98C410.004 111.64 408.384 112.9 408.384 115.12C408.384 117.22 410.064 118.6 412.584 118.6ZM459.643 124.72C453.043 124.72 447.643 122.26 444.763 117.52L450.343 113.32C452.443 116.56 455.683 118.18 459.823 118.18C462.943 118.18 464.503 117.22 464.503 115.54C464.503 113.74 463.543 113.08 460.243 112.6L455.923 112C449.443 111.04 446.383 107.86 446.383 102.76C446.383 96.94 451.303 93.28 459.583 93.28C465.643 93.28 470.743 95.5 473.203 99.22L468.223 103.72C466.003 101.2 463.003 99.7 459.283 99.7C456.403 99.7 455.083 100.48 455.083 102.16C455.083 103.6 455.983 104.38 458.623 104.74L463.963 105.58C470.383 106.48 472.903 109.66 472.903 114.82C472.903 120.94 468.043 124.72 459.643 124.72ZM485.599 124.72C479.419 124.72 475.279 121.18 475.279 115.84C475.279 113.02 476.299 110.8 478.339 109.36C480.319 107.98 483.199 107.02 487.759 106.42L495.019 105.4V104.38C495.019 100.96 493.579 99.46 490.579 99.46C487.639 99.46 485.959 101.02 485.779 103.9H476.239C476.719 97.24 482.119 93.28 490.639 93.28C500.299 93.28 504.619 97.06 504.619 105.7V115.66C504.619 119.2 504.919 122.14 505.459 124H496.099C495.799 122.56 495.679 120.94 495.619 119.26C494.119 122.62 490.279 124.72 485.599 124.72ZM489.199 118.6C492.859 118.6 495.319 116.14 495.319 112.54V110.14L490.159 110.98C486.619 111.64 484.999 112.9 484.999 115.12C484.999 117.22 486.679 118.6 489.199 118.6ZM520.893 80.5V124H511.233V80.5H520.893ZM555.675 108.28V111.16H534.855C534.915 115.24 537.735 117.82 541.755 117.82C544.695 117.82 546.915 116.38 548.295 113.62L555.375 116.86C552.975 121.78 547.875 124.72 541.635 124.72C531.735 124.72 525.735 119.02 525.735 109.3C525.735 99.46 531.615 93.28 540.975 93.28C550.395 93.28 555.675 98.74 555.675 108.28ZM546.375 105.76V105.52C546.375 101.26 544.395 98.98 540.795 98.98C537.075 98.98 534.975 101.5 534.855 105.76H546.375Z" fill="black"/>
<g style="mix-blend-mode:color">
<rect width="960" height="960" fill="url(#paint0_linear_63_3233)"/>
</g>
</g>
<defs>
<linearGradient id="paint0_linear_63_3233" x1="480" y1="0" x2="480" y2="960" gradientUnits="userSpaceOnUse">
<stop stop-color="#CBC4F7"/>
<stop offset="1" stop-color="#EEB3FD"/>
</linearGradient>
<clipPath id="clip0_63_3233">
<rect width="960" height="960" rx="30" fill="white"/>
</clipPath>
</defs>
</svg>
