<svg width="960" height="960" viewBox="0 0 960 960" fill="none" xmlns="http://www.w3.org/2000/svg">
<g clip-path="url(#clip0_2_138)">
<rect width="960" height="960" rx="30" fill="white"/>
<path d="M930 170V360H532.533C683.75 170.511 890 170 890 170H930Z" fill="#D9D9D9"/>
<path d="M930 170H932V168H930V170ZM930 360V362H932V360H930ZM532.533 360L530.97 358.752L528.378 362H532.533V360ZM890 170V168L889.995 168L890 170ZM930 170H928V360H930H932V170H930ZM930 360V358H532.533V360V362H930V360ZM532.533 360L534.096 361.248C609.416 266.865 698.429 219.556 768.613 195.836C803.708 183.976 834.09 178.016 855.685 175.022C866.482 173.525 875.081 172.769 880.971 172.388C883.917 172.197 886.185 172.1 887.711 172.051C888.475 172.026 889.053 172.014 889.438 172.007C889.63 172.004 889.775 172.002 889.869 172.001C889.917 172.001 889.952 172 889.975 172C889.986 172 889.994 172 889.999 172C890.002 172 890.003 172 890.004 172C890.005 172 890.005 172 890 170C889.995 168 889.993 168 889.991 168C889.989 168 889.986 168 889.982 168C889.975 168 889.964 168 889.95 168C889.923 168 889.883 168.001 889.831 168.001C889.726 168.002 889.572 168.004 889.37 168.008C888.965 168.014 888.366 168.028 887.582 168.053C886.014 168.104 883.703 168.203 880.713 168.396C874.734 168.783 866.038 169.548 855.136 171.06C833.334 174.083 802.703 180.094 767.333 192.047C696.588 215.956 606.867 263.647 530.97 358.752L532.533 360ZM890 170V172H930V170V168H890V170Z" fill="white"/>
<path d="M930 550H430.143C457.452 471.607 493.123 409.385 532.533 360H930V550Z" fill="#9D9D9D"/>
<path d="M930 550V552H932V550H930ZM430.143 550L428.254 549.342L427.328 552H430.143V550ZM532.533 360V358H531.571L530.97 358.752L532.533 360ZM930 360H932V358H930V360ZM930 550V548H430.143V550V552H930V550ZM430.143 550L432.032 550.658C459.269 472.469 494.833 410.448 534.097 361.248L532.533 360L530.97 358.752C491.413 408.322 455.634 470.744 428.254 549.342L430.143 550ZM532.533 360V362H930V360V358H532.533V360ZM930 360H928V550H930H932V360H930Z" fill="white"/>
<path d="M930 740H327.88C367.194 690.791 402.768 628.716 430 550.406C430.047 550.271 430.095 550.135 430.142 550H930V740Z" fill="#666666"/>
<path d="M930 740V742H932V740H930ZM327.88 740L326.318 738.752L323.723 742H327.88V740ZM430 550.406L428.111 549.749V549.749L430 550.406ZM430.142 550V548H428.721L428.254 549.342L430.142 550ZM930 550H932V548H930V550ZM930 740V738H327.88V740V742H930V740ZM327.88 740L329.443 741.248C368.905 691.855 404.586 629.577 431.889 551.063L430 550.406L428.111 549.749C400.95 627.854 365.484 689.728 326.318 738.752L327.88 740ZM430 550.406L431.889 551.063C431.956 550.868 431.956 550.872 432.031 550.658L430.142 550L428.254 549.342C428.234 549.399 428.137 549.673 428.111 549.749L430 550.406ZM430.142 550V552H930V550V548H430.142V550ZM930 550H928V740H930H932V550H930Z" fill="white"/>
<path d="M930 930H30V921.305C102.552 907.461 227.428 865.737 327.881 740H930V930Z" fill="#333333"/>
<path d="M930 930V932H932V930H930ZM30 930H28V932H30V930ZM30 921.305L29.6251 919.34L28 919.65V921.305H30ZM327.881 740V738H326.919L326.318 738.752L327.881 740ZM930 740H932V738H930V740ZM930 930V928H30V930V932H930V930ZM30 930H32V921.305H30H28V930H30ZM30 921.305L30.3749 923.269C103.224 909.369 228.599 867.475 329.443 741.248L327.881 740L326.318 738.752C226.257 863.998 101.881 905.553 29.6251 919.34L30 921.305ZM327.881 740V742H930V740V738H327.881V740ZM930 740H928V930H930H932V740H930Z" fill="white"/>
<path d="M732.899 262V233.6H739.659V256.52H751.179V262H732.899ZM759.998 262.48C755.878 262.48 753.118 260.12 753.118 256.56C753.118 254.68 753.798 253.2 755.158 252.24C756.478 251.32 758.398 250.68 761.438 250.28L766.278 249.6V248.92C766.278 246.64 765.318 245.64 763.318 245.64C761.358 245.64 760.238 246.68 760.118 248.6H753.758C754.078 244.16 757.678 241.52 763.358 241.52C769.798 241.52 772.678 244.04 772.678 249.8V256.44C772.678 258.8 772.878 260.76 773.238 262H766.998C766.798 261.04 766.718 259.96 766.678 258.84C765.678 261.08 763.118 262.48 759.998 262.48ZM762.398 258.4C764.838 258.4 766.478 256.76 766.478 254.36V252.76L763.038 253.32C760.678 253.76 759.598 254.6 759.598 256.08C759.598 257.48 760.718 258.4 762.398 258.4ZM789.937 242.24C790.537 240 792.417 238.6 795.417 238.6C795.737 238.6 795.977 238.6 796.257 238.64V242.92C795.577 242.76 795.097 242.68 794.377 242.68C793.577 242.68 792.737 242.88 792.097 243.4C793.617 244.56 794.497 246.24 794.497 248.24C794.497 252.36 790.897 255 785.337 255C783.777 255 782.377 254.8 781.177 254.4C780.857 254.68 780.617 255 780.617 255.44C780.617 256.48 781.457 257.12 783.377 257.12H787.737C793.017 257.12 795.377 259.52 795.377 263.2C795.377 267.56 791.657 270.28 784.697 270.28C779.097 270.28 775.017 268.8 775.017 265.6C775.017 263.76 776.537 262.6 778.657 261.92C776.697 261.2 775.697 259.84 775.697 258.08C775.697 255.84 777.217 254.32 779.337 253.6C777.337 252.4 776.217 250.56 776.217 248.24C776.217 244.12 779.777 241.52 785.337 241.52C787.057 241.52 788.617 241.76 789.937 242.24ZM817.817 242.88C817.137 242.72 816.657 242.64 815.937 242.64C814.977 242.64 814.137 242.88 813.457 243.44C814.977 244.6 815.817 246.24 815.817 248.28C815.817 252.4 812.217 255 806.657 255C805.297 255 804.057 254.84 802.977 254.56C802.697 254.8 802.537 255.12 802.537 255.44C802.537 256.52 803.417 257.12 805.457 257.12H809.977C815.217 257.12 817.617 259.56 817.617 263.2C817.617 267.56 813.697 270.28 806.777 270.28C801.177 270.28 797.097 268.8 797.097 265.64C797.097 263.8 798.577 262.64 800.617 261.96C798.617 261.24 797.617 259.88 797.617 258.12C797.617 255.96 798.977 254.52 800.857 253.72C798.737 252.56 797.497 250.68 797.497 248.28C797.497 244.12 801.097 241.52 806.657 241.52C808.377 241.52 809.897 241.76 811.217 242.24C811.897 240 813.817 238.6 816.977 238.6C817.297 238.6 817.537 238.6 817.817 238.68V242.88ZM785.337 251.72C787.177 251.72 788.457 250.36 788.457 248.24C788.457 246.16 787.177 244.8 785.337 244.8C783.537 244.8 782.257 246.16 782.257 248.24C782.257 250.36 783.537 251.72 785.337 251.72ZM806.657 251.72C808.457 251.72 809.737 250.36 809.737 248.28C809.737 246.16 808.457 244.8 806.657 244.8C804.817 244.8 803.577 246.16 803.577 248.28C803.577 250.36 804.817 251.72 806.657 251.72ZM787.137 262.48L782.017 262.44C781.497 262.44 781.017 262.4 780.537 262.36C780.057 262.84 779.777 263.44 779.777 264.2C779.777 266 781.697 266.76 784.857 266.76C788.497 266.76 790.017 265.96 790.017 264.4C790.017 263.08 789.017 262.48 787.137 262.48ZM809.377 262.48L804.097 262.44C803.617 262.44 803.137 262.4 802.697 262.36C802.137 262.88 801.857 263.48 801.857 264.2C801.857 266.04 803.777 266.76 806.937 266.76C810.577 266.76 812.217 265.96 812.217 264.4C812.217 263.08 811.217 262.48 809.377 262.48ZM825.136 262.48C821.016 262.48 818.256 260.12 818.256 256.56C818.256 254.68 818.936 253.2 820.296 252.24C821.616 251.32 823.536 250.68 826.576 250.28L831.416 249.6V248.92C831.416 246.64 830.456 245.64 828.456 245.64C826.496 245.64 825.376 246.68 825.256 248.6H818.896C819.216 244.16 822.816 241.52 828.496 241.52C834.936 241.52 837.816 244.04 837.816 249.8V256.44C837.816 258.8 838.016 260.76 838.376 262H832.136C831.936 261.04 831.856 259.96 831.816 258.84C830.816 261.08 828.256 262.48 825.136 262.48ZM827.536 258.4C829.976 258.4 831.616 256.76 831.616 254.36V252.76L828.176 253.32C825.816 253.76 824.736 254.6 824.736 256.08C824.736 257.48 825.856 258.4 827.536 258.4ZM848.465 247.16C849.505 243.56 851.705 241.52 855.145 241.52H855.545V247.64C855.145 247.6 854.825 247.6 854.345 247.6C852.625 247.6 851.345 248.04 850.465 248.8C849.185 250 848.865 251.8 848.865 253.84V262H842.425V242H848.465V247.16ZM864.797 262.48C859.997 262.48 856.797 258.32 856.797 252.08C856.797 245.72 860.157 241.52 865.157 241.52C867.797 241.52 869.797 242.6 870.797 244.68V233H877.197V262H871.117V258.56C870.117 260.96 867.717 262.48 864.797 262.48ZM867.317 258.04C869.517 258.04 870.877 256.08 870.877 252.96V251.24C870.877 247.84 869.517 245.96 867.237 245.96C864.797 245.96 863.397 248.12 863.397 251.96C863.397 255.72 864.877 258.04 867.317 258.04ZM890.207 262.48C885.807 262.48 882.207 260.84 880.287 257.68L884.007 254.88C885.407 257.04 887.567 258.12 890.327 258.12C892.407 258.12 893.447 257.48 893.447 256.36C893.447 255.16 892.807 254.72 890.607 254.4L887.727 254C883.407 253.36 881.367 251.24 881.367 247.84C881.367 243.96 884.647 241.52 890.167 241.52C894.207 241.52 897.607 243 899.247 245.48L895.927 248.48C894.447 246.8 892.447 245.8 889.967 245.8C888.047 245.8 887.167 246.32 887.167 247.44C887.167 248.4 887.767 248.92 889.527 249.16L893.087 249.72C897.367 250.32 899.047 252.44 899.047 255.88C899.047 259.96 895.807 262.48 890.207 262.48ZM668.432 302L662.792 282H666.312L669.912 296.28C670.072 297 670.232 297.84 670.352 298.64H670.432C670.552 297.84 670.792 297 670.952 296.28L674.592 282H678.272L681.912 296.28C682.072 297 682.312 297.84 682.432 298.64H682.512C682.632 297.84 682.792 297 682.952 296.28L686.552 282H690.072L684.432 302H680.712L676.912 287.6C676.752 286.96 676.552 285.96 676.472 285.36H676.392C676.312 285.96 676.112 286.96 675.952 287.6L672.152 302H668.432ZM698.663 302.48C694.583 302.48 691.903 300.16 691.903 296.6C691.903 294.6 692.903 292.88 694.703 291.88C696.223 291.12 698.143 290.64 701.423 290.24L705.143 289.8V289.48C705.143 285.8 703.823 284.32 700.743 284.32C698.023 284.32 696.343 285.76 696.183 288.28H692.543C692.823 284.2 696.023 281.52 700.703 281.52C706.183 281.52 708.583 284 708.583 289.84V295.24C708.583 298.32 708.783 300.44 709.263 302H705.703C705.543 300.96 705.423 299.64 705.383 298.36C704.463 300.92 701.943 302.48 698.663 302.48ZM699.423 299.68C702.903 299.68 705.183 297.16 705.183 293.28V292.28L699.743 293.08C696.783 293.52 695.503 294.56 695.503 296.52C695.503 298.48 696.983 299.68 699.423 299.68ZM714.866 302V282H718.066V285.96C719.386 282.92 721.586 281.44 724.746 281.44C729.146 281.44 731.426 284.2 731.426 289.56V302H728.026V289.76C728.026 286.24 726.546 284.44 723.626 284.44C720.306 284.44 718.266 287.12 718.266 291.56V302H714.866ZM734.239 284.8V282H737.959V276.76L741.359 275.32V282H746.359V284.8H741.359V295.88C741.359 298.16 742.239 299.16 744.279 299.16C745.159 299.16 745.679 299.04 746.359 298.88V302C745.479 302.24 744.679 302.36 743.399 302.36C739.079 302.36 737.959 299.72 737.959 296V284.8H734.239ZM760.691 278.28V274H764.571V278.28H760.691ZM760.931 302V282H764.331V302H760.931ZM768.117 284.8V282H771.837V276.76L775.237 275.32V282H780.237V284.8H775.237V295.88C775.237 298.16 776.117 299.16 778.157 299.16C779.037 299.16 779.557 299.04 780.237 298.88V302C779.357 302.24 778.557 302.36 777.277 302.36C772.957 302.36 771.837 299.72 771.837 296V284.8H768.117ZM802.209 302.48C796.609 302.48 793.009 298.4 793.009 292C793.009 285.48 796.529 281.52 802.209 281.52C806.889 281.52 809.929 284.2 810.449 288.8L806.969 289.2C806.609 286.16 804.849 284.48 802.129 284.48C798.689 284.48 796.609 287.28 796.609 291.96C796.609 296.76 798.689 299.52 802.249 299.52C804.969 299.52 806.649 297.88 807.169 294.76L810.409 295.28C809.689 299.84 806.689 302.48 802.209 302.48ZM815.664 302V273H819.064V285.76C820.264 282.92 822.504 281.44 825.624 281.44C829.944 281.44 832.224 284.24 832.224 289.56V302H828.824V289.8C828.824 286.28 827.344 284.44 824.464 284.44C821.024 284.44 819.064 287.04 819.064 291.56V302H815.664ZM854.223 290.6V293H840.023C840.063 296.92 842.423 299.48 845.983 299.48C848.543 299.48 850.423 298.12 851.303 295.68L854.103 296.92C852.703 300.56 849.783 302.48 845.743 302.48C840.023 302.48 836.623 298.84 836.623 292.24C836.623 285.56 839.983 281.52 845.703 281.52C851.103 281.52 854.223 284.6 854.223 290.6ZM850.783 290.24V289.8C850.783 286.12 848.903 284.2 845.623 284.2C842.103 284.2 840.103 286.48 840.023 290.24H850.783ZM864.194 302.48C860.114 302.48 857.434 300.16 857.434 296.6C857.434 294.6 858.434 292.88 860.234 291.88C861.754 291.12 863.674 290.64 866.954 290.24L870.674 289.8V289.48C870.674 285.8 869.354 284.32 866.274 284.32C863.554 284.32 861.874 285.76 861.714 288.28H858.074C858.354 284.2 861.554 281.52 866.234 281.52C871.714 281.52 874.114 284 874.114 289.84V295.24C874.114 298.32 874.314 300.44 874.794 302H871.234C871.074 300.96 870.954 299.64 870.914 298.36C869.994 300.92 867.474 302.48 864.194 302.48ZM864.954 299.68C868.434 299.68 870.714 297.16 870.714 293.28V292.28L865.274 293.08C862.314 293.52 861.034 294.56 861.034 296.52C861.034 298.48 862.514 299.68 864.954 299.68ZM880.397 309.8V282H883.597V285.72C884.877 282.96 887.197 281.52 890.117 281.52C894.957 281.52 898.197 285.68 898.197 292C898.197 298.4 894.757 302.48 889.917 302.48C886.837 302.48 884.677 300.8 883.797 298.84V309.8H880.397ZM889.117 299.48C892.517 299.48 894.597 296.68 894.597 292C894.597 287.28 892.597 284.52 889.237 284.52C885.877 284.52 883.717 287.16 883.717 291.48V292.44C883.717 296.76 885.797 299.48 889.117 299.48Z" fill="#333333"/>
<path d="M655.104 451V422.6H661.864V445.52H673.384V451H655.104ZM682.203 451.48C678.083 451.48 675.323 449.12 675.323 445.56C675.323 443.68 676.003 442.2 677.363 441.24C678.683 440.32 680.603 439.68 683.643 439.28L688.483 438.6V437.92C688.483 435.64 687.523 434.64 685.523 434.64C683.563 434.64 682.443 435.68 682.323 437.6H675.963C676.283 433.16 679.883 430.52 685.563 430.52C692.003 430.52 694.883 433.04 694.883 438.8V445.44C694.883 447.8 695.083 449.76 695.443 451H689.203C689.003 450.04 688.923 448.96 688.883 447.84C687.883 450.08 685.323 451.48 682.203 451.48ZM684.603 447.4C687.043 447.4 688.683 445.76 688.683 443.36V441.76L685.243 442.32C682.883 442.76 681.803 443.6 681.803 445.08C681.803 446.48 682.923 447.4 684.603 447.4ZM696.348 435.28V431H699.828V426.2L706.228 423.72V431H710.988V435.28H706.228V443.08C706.228 445.08 707.228 446.12 709.148 446.12C709.908 446.12 710.388 446.04 710.988 445.92V451C709.508 451.28 708.508 451.4 707.348 451.4C702.028 451.4 699.828 448.96 699.828 444.6V435.28H696.348ZM732.337 440.52V442.44H718.457C718.497 445.16 720.377 446.88 723.057 446.88C725.017 446.88 726.497 445.92 727.417 444.08L732.137 446.24C730.537 449.52 727.137 451.48 722.977 451.48C716.377 451.48 712.377 447.68 712.377 441.2C712.377 434.64 716.297 430.52 722.537 430.52C728.817 430.52 732.337 434.16 732.337 440.52ZM726.137 438.84V438.68C726.137 435.84 724.817 434.32 722.417 434.32C719.937 434.32 718.537 436 718.457 438.84H726.137ZM745.441 431H751.601V434.6C752.881 431.84 754.801 430.48 757.761 430.48C760.601 430.48 762.441 431.8 763.441 434.64C764.881 431.84 766.961 430.48 769.841 430.48C773.721 430.48 776.001 433.24 776.001 437.92V451H769.601V439.28C769.601 436.6 768.761 435.4 766.921 435.4C765.001 435.4 763.921 436.84 763.921 439.52V451H757.521V439.24C757.521 436.64 756.641 435.4 754.881 435.4C752.961 435.4 751.881 436.88 751.881 439.56V451H745.441V431ZM785.867 451.48C781.747 451.48 778.987 449.12 778.987 445.56C778.987 443.68 779.667 442.2 781.027 441.24C782.347 440.32 784.267 439.68 787.307 439.28L792.147 438.6V437.92C792.147 435.64 791.187 434.64 789.187 434.64C787.227 434.64 786.107 435.68 785.987 437.6H779.627C779.947 433.16 783.547 430.52 789.227 430.52C795.667 430.52 798.547 433.04 798.547 438.8V445.44C798.547 447.8 798.747 449.76 799.107 451H792.867C792.667 450.04 792.587 448.96 792.547 447.84C791.547 450.08 788.987 451.48 785.867 451.48ZM788.267 447.4C790.707 447.4 792.347 445.76 792.347 443.36V441.76L788.907 442.32C786.547 442.76 785.467 443.6 785.467 445.08C785.467 446.48 786.587 447.4 788.267 447.4ZM803.277 428.12V422.28H809.957V428.12H803.277ZM802.117 459.08C801.157 459.08 799.717 458.96 799.117 458.84V454.24C799.797 454.32 800.437 454.32 800.837 454.32C802.717 454.32 803.397 453.6 803.397 450.96V431H809.797V451.4C809.797 456.2 807.997 459.08 802.117 459.08ZM823.589 451.48C817.709 451.48 813.229 447.84 813.229 440.96C813.229 434.08 817.709 430.52 823.589 430.52C829.509 430.52 833.989 434.08 833.989 440.96C833.989 447.84 829.509 451.48 823.589 451.48ZM823.589 447.04C826.109 447.04 827.589 445.04 827.589 440.96C827.589 436.84 826.109 434.96 823.589 434.96C821.109 434.96 819.629 436.84 819.629 440.96C819.629 445.04 821.109 447.04 823.589 447.04ZM843.475 436.16C844.515 432.56 846.715 430.52 850.155 430.52H850.555V436.64C850.155 436.6 849.835 436.6 849.355 436.6C847.635 436.6 846.355 437.04 845.475 437.8C844.195 439 843.875 440.8 843.875 442.84V451H837.435V431H843.475V436.16ZM853.439 428.12V422.28H860.119V428.12H853.439ZM853.519 451V431H859.959V451H853.519ZM862.436 435.28V431H865.916V426.2L872.316 423.72V431H877.076V435.28H872.316V443.08C872.316 445.08 873.316 446.12 875.236 446.12C875.996 446.12 876.476 446.04 877.076 445.92V451C875.596 451.28 874.596 451.4 873.436 451.4C868.116 451.4 865.916 448.96 865.916 444.6V435.28H862.436ZM882.557 459.08C881.957 459.08 880.957 458.96 879.917 458.84V454.12C881.117 454.28 881.597 454.32 882.157 454.32C884.277 454.32 885.437 453.56 885.997 451.72L886.277 450.88L878.637 431H885.597L889.117 443.16C889.357 444 889.477 444.64 889.557 445.48H889.677C889.717 444.8 889.877 444.16 890.157 443.16L893.397 431H899.837L892.677 451.88C890.917 457.08 887.877 459.08 882.557 459.08ZM589.163 491L583.523 471H587.043L590.643 485.28C590.803 486 590.963 486.84 591.083 487.64H591.163C591.283 486.84 591.523 486 591.683 485.28L595.323 471H599.003L602.643 485.28C602.803 486 603.043 486.84 603.163 487.64H603.243C603.363 486.84 603.523 486 603.683 485.28L607.283 471H610.803L605.163 491H601.443L597.643 476.6C597.483 475.96 597.283 474.96 597.203 474.36H597.123C597.043 474.96 596.843 475.96 596.683 476.6L592.883 491H589.163ZM619.394 491.48C615.314 491.48 612.634 489.16 612.634 485.6C612.634 483.6 613.634 481.88 615.434 480.88C616.954 480.12 618.874 479.64 622.154 479.24L625.874 478.8V478.48C625.874 474.8 624.554 473.32 621.474 473.32C618.754 473.32 617.074 474.76 616.914 477.28H613.274C613.554 473.2 616.754 470.52 621.434 470.52C626.914 470.52 629.314 473 629.314 478.84V484.24C629.314 487.32 629.514 489.44 629.994 491H626.434C626.274 489.96 626.154 488.64 626.114 487.36C625.194 489.92 622.674 491.48 619.394 491.48ZM620.154 488.68C623.634 488.68 625.914 486.16 625.914 482.28V481.28L620.474 482.08C617.514 482.52 616.234 483.56 616.234 485.52C616.234 487.48 617.714 488.68 620.154 488.68ZM635.597 491V471H638.797V474.96C640.117 471.92 642.317 470.44 645.477 470.44C649.877 470.44 652.157 473.2 652.157 478.56V491H648.757V478.76C648.757 475.24 647.277 473.44 644.357 473.44C641.037 473.44 638.997 476.12 638.997 480.56V491H635.597ZM654.97 473.8V471H658.69V465.76L662.09 464.32V471H667.09V473.8H662.09V484.88C662.09 487.16 662.97 488.16 665.01 488.16C665.89 488.16 666.41 488.04 667.09 487.88V491C666.21 491.24 665.41 491.36 664.13 491.36C659.81 491.36 658.69 488.72 658.69 485V473.8H654.97ZM689.063 491.48C683.463 491.48 679.863 487.4 679.863 481C679.863 474.48 683.383 470.52 689.063 470.52C693.743 470.52 696.783 473.2 697.303 477.8L693.823 478.2C693.463 475.16 691.703 473.48 688.983 473.48C685.543 473.48 683.463 476.28 683.463 480.96C683.463 485.76 685.543 488.52 689.103 488.52C691.823 488.52 693.503 486.88 694.023 483.76L697.263 484.28C696.543 488.84 693.543 491.48 689.063 491.48ZM709.837 491.48C704.197 491.48 700.517 487.52 700.517 481C700.517 474.48 704.197 470.52 709.837 470.52C715.477 470.52 719.157 474.48 719.157 481C719.157 487.52 715.477 491.48 709.837 491.48ZM709.837 488.52C713.437 488.52 715.557 485.96 715.557 481C715.557 476.04 713.437 473.48 709.837 473.48C706.237 473.48 704.117 476.04 704.117 481C704.117 485.96 706.237 488.52 709.837 488.52ZM724.144 491V471H727.344V474.96C728.664 471.92 730.864 470.44 734.024 470.44C738.424 470.44 740.704 473.2 740.704 478.56V491H737.304V478.76C737.304 475.24 735.824 473.44 732.904 473.44C729.584 473.44 727.544 476.12 727.544 480.56V491H724.144ZM749.932 491L742.692 471H746.372L750.852 484.48C751.212 485.56 751.492 486.6 751.692 487.52H751.812C752.012 486.6 752.292 485.56 752.652 484.48L757.132 471H760.812L753.572 491H749.932ZM779.612 479.6V482H765.412C765.452 485.92 767.812 488.48 771.372 488.48C773.932 488.48 775.812 487.12 776.692 484.68L779.492 485.92C778.092 489.56 775.172 491.48 771.132 491.48C765.412 491.48 762.012 487.84 762.012 481.24C762.012 474.56 765.372 470.52 771.092 470.52C776.492 470.52 779.612 473.6 779.612 479.6ZM776.172 479.24V478.8C776.172 475.12 774.292 473.2 771.012 473.2C767.492 473.2 765.492 475.48 765.412 479.24H776.172ZM784.819 491V471H788.019V474.96C789.339 471.92 791.539 470.44 794.699 470.44C799.099 470.44 801.379 473.2 801.379 478.56V491H797.979V478.76C797.979 475.24 796.499 473.44 793.579 473.44C790.259 473.44 788.219 476.12 788.219 480.56V491H784.819ZM807.343 467.28V463H811.223V467.28H807.343ZM807.583 491V471H810.983V491H807.583ZM833.569 479.6V482H819.369C819.409 485.92 821.769 488.48 825.329 488.48C827.889 488.48 829.769 487.12 830.649 484.68L833.449 485.92C832.049 489.56 829.129 491.48 825.089 491.48C819.369 491.48 815.969 487.84 815.969 481.24C815.969 474.56 819.329 470.52 825.049 470.52C830.449 470.52 833.569 473.6 833.569 479.6ZM830.129 479.24V478.8C830.129 475.12 828.249 473.2 824.969 473.2C821.449 473.2 819.449 475.48 819.369 479.24H830.129ZM838.775 491V471H841.975V474.96C843.295 471.92 845.495 470.44 848.655 470.44C853.055 470.44 855.335 473.2 855.335 478.56V491H851.935V478.76C851.935 475.24 850.455 473.44 847.535 473.44C844.215 473.44 842.175 476.12 842.175 480.56V491H838.775ZM868.939 491.48C863.339 491.48 859.739 487.4 859.739 481C859.739 474.48 863.259 470.52 868.939 470.52C873.619 470.52 876.659 473.2 877.179 477.8L873.699 478.2C873.339 475.16 871.579 473.48 868.859 473.48C865.419 473.48 863.339 476.28 863.339 480.96C863.339 485.76 865.419 488.52 868.979 488.52C871.699 488.52 873.379 486.88 873.899 483.76L877.139 484.28C876.419 488.84 873.419 491.48 868.939 491.48ZM897.994 479.6V482H883.794C883.834 485.92 886.194 488.48 889.754 488.48C892.314 488.48 894.194 487.12 895.074 484.68L897.874 485.92C896.474 489.56 893.554 491.48 889.514 491.48C883.794 491.48 880.394 487.84 880.394 481.24C880.394 474.56 883.754 470.52 889.474 470.52C894.874 470.52 897.994 473.6 897.994 479.6ZM894.554 479.24V478.8C894.554 475.12 892.674 473.2 889.394 473.2C885.874 473.2 883.874 475.48 883.794 479.24H894.554Z" fill="white"/>
<path d="M648.904 636H661.864V641H642.144V612.6H661.584V617.6H648.904V624H660.904V628.96H648.904V636ZM671.079 641.48C666.959 641.48 664.199 639.12 664.199 635.56C664.199 633.68 664.879 632.2 666.239 631.24C667.559 630.32 669.479 629.68 672.519 629.28L677.359 628.6V627.92C677.359 625.64 676.399 624.64 674.399 624.64C672.439 624.64 671.319 625.68 671.199 627.6H664.839C665.159 623.16 668.759 620.52 674.439 620.52C680.879 620.52 683.759 623.04 683.759 628.8V635.44C683.759 637.8 683.959 639.76 684.319 641H678.079C677.879 640.04 677.799 638.96 677.759 637.84C676.759 640.08 674.199 641.48 671.079 641.48ZM673.479 637.4C675.919 637.4 677.559 635.76 677.559 633.36V631.76L674.119 632.32C671.759 632.76 670.679 633.6 670.679 635.08C670.679 636.48 671.799 637.4 673.479 637.4ZM694.409 626.16C695.449 622.56 697.649 620.52 701.089 620.52H701.489V626.64C701.089 626.6 700.769 626.6 700.289 626.6C698.569 626.6 697.289 627.04 696.409 627.8C695.129 629 694.809 630.8 694.809 632.84V641H688.369V621H694.409V626.16ZM711.093 612V641H704.653V612H711.093ZM717.641 649.08C717.041 649.08 716.041 648.96 715.001 648.84V644.12C716.201 644.28 716.681 644.32 717.241 644.32C719.361 644.32 720.521 643.56 721.081 641.72L721.361 640.88L713.721 621H720.681L724.201 633.16C724.441 634 724.561 634.64 724.641 635.48H724.761C724.801 634.8 724.961 634.16 725.241 633.16L728.481 621H734.921L727.761 641.88C726.001 647.08 722.961 649.08 717.641 649.08ZM745.441 621H751.601V624.6C752.881 621.84 754.801 620.48 757.761 620.48C760.601 620.48 762.441 621.8 763.441 624.64C764.881 621.84 766.961 620.48 769.841 620.48C773.721 620.48 776.001 623.24 776.001 627.92V641H769.601V629.28C769.601 626.6 768.761 625.4 766.921 625.4C765.001 625.4 763.921 626.84 763.921 629.52V641H757.521V629.24C757.521 626.64 756.641 625.4 754.881 625.4C752.961 625.4 751.881 626.88 751.881 629.56V641H745.441V621ZM785.867 641.48C781.747 641.48 778.987 639.12 778.987 635.56C778.987 633.68 779.667 632.2 781.027 631.24C782.347 630.32 784.267 629.68 787.307 629.28L792.147 628.6V627.92C792.147 625.64 791.187 624.64 789.187 624.64C787.227 624.64 786.107 625.68 785.987 627.6H779.627C779.947 623.16 783.547 620.52 789.227 620.52C795.667 620.52 798.547 623.04 798.547 628.8V635.44C798.547 637.8 798.747 639.76 799.107 641H792.867C792.667 640.04 792.587 638.96 792.547 637.84C791.547 640.08 788.987 641.48 785.867 641.48ZM788.267 637.4C790.707 637.4 792.347 635.76 792.347 633.36V631.76L788.907 632.32C786.547 632.76 785.467 633.6 785.467 635.08C785.467 636.48 786.587 637.4 788.267 637.4ZM803.277 618.12V612.28H809.957V618.12H803.277ZM802.117 649.08C801.157 649.08 799.717 648.96 799.117 648.84V644.24C799.797 644.32 800.437 644.32 800.837 644.32C802.717 644.32 803.397 643.6 803.397 640.96V621H809.797V641.4C809.797 646.2 807.997 649.08 802.117 649.08ZM823.589 641.48C817.709 641.48 813.229 637.84 813.229 630.96C813.229 624.08 817.709 620.52 823.589 620.52C829.509 620.52 833.989 624.08 833.989 630.96C833.989 637.84 829.509 641.48 823.589 641.48ZM823.589 637.04C826.109 637.04 827.589 635.04 827.589 630.96C827.589 626.84 826.109 624.96 823.589 624.96C821.109 624.96 819.629 626.84 819.629 630.96C819.629 635.04 821.109 637.04 823.589 637.04ZM843.475 626.16C844.515 622.56 846.715 620.52 850.155 620.52H850.555V626.64C850.155 626.6 849.835 626.6 849.355 626.6C847.635 626.6 846.355 627.04 845.475 627.8C844.195 629 843.875 630.8 843.875 632.84V641H837.435V621H843.475V626.16ZM853.439 618.12V612.28H860.119V618.12H853.439ZM853.519 641V621H859.959V641H853.519ZM862.436 625.28V621H865.916V616.2L872.316 613.72V621H877.076V625.28H872.316V633.08C872.316 635.08 873.316 636.12 875.236 636.12C875.996 636.12 876.476 636.04 877.076 635.92V641C875.596 641.28 874.596 641.4 873.436 641.4C868.116 641.4 865.916 638.96 865.916 634.6V625.28H862.436ZM882.557 649.08C881.957 649.08 880.957 648.96 879.917 648.84V644.12C881.117 644.28 881.597 644.32 882.157 644.32C884.277 644.32 885.437 643.56 885.997 641.72L886.277 640.88L878.637 621H885.597L889.117 633.16C889.357 634 889.477 634.64 889.557 635.48H889.677C889.717 634.8 889.877 634.16 890.157 633.16L893.397 621H899.837L892.677 641.88C890.917 647.08 887.877 649.08 882.557 649.08ZM646.781 681L641.141 661H644.661L648.261 675.28C648.421 676 648.581 676.84 648.701 677.64H648.781C648.901 676.84 649.141 676 649.301 675.28L652.941 661H656.621L660.261 675.28C660.421 676 660.661 676.84 660.781 677.64H660.861C660.981 676.84 661.141 676 661.301 675.28L664.901 661H668.421L662.781 681H659.061L655.261 666.6C655.101 665.96 654.901 664.96 654.821 664.36H654.741C654.661 664.96 654.461 665.96 654.301 666.6L650.501 681H646.781ZM677.012 681.48C672.932 681.48 670.252 679.16 670.252 675.6C670.252 673.6 671.252 671.88 673.052 670.88C674.572 670.12 676.492 669.64 679.772 669.24L683.492 668.8V668.48C683.492 664.8 682.172 663.32 679.092 663.32C676.372 663.32 674.692 664.76 674.532 667.28H670.892C671.172 663.2 674.372 660.52 679.052 660.52C684.532 660.52 686.932 663 686.932 668.84V674.24C686.932 677.32 687.132 679.44 687.612 681H684.052C683.892 679.96 683.772 678.64 683.732 677.36C682.812 679.92 680.292 681.48 677.012 681.48ZM677.772 678.68C681.252 678.68 683.532 676.16 683.532 672.28V671.28L678.092 672.08C675.132 672.52 673.852 673.56 673.852 675.52C673.852 677.48 675.332 678.68 677.772 678.68ZM693.214 681V661H696.414V664.96C697.734 661.92 699.934 660.44 703.094 660.44C707.494 660.44 709.774 663.2 709.774 668.56V681H706.374V668.76C706.374 665.24 704.894 663.44 701.974 663.44C698.654 663.44 696.614 666.12 696.614 670.56V681H693.214ZM712.587 663.8V661H716.307V655.76L719.707 654.32V661H724.707V663.8H719.707V674.88C719.707 677.16 720.587 678.16 722.627 678.16C723.507 678.16 724.027 678.04 724.707 677.88V681C723.827 681.24 723.027 681.36 721.747 681.36C717.427 681.36 716.307 678.72 716.307 675V663.8H712.587ZM742.44 665.56C743.4 662.76 745.48 660.52 748.52 660.52C748.76 660.52 749 660.52 749.24 660.56V663.88H749.08C747 663.88 745.64 664.48 744.68 665.44C742.76 667.36 742.68 670.04 742.68 672.44V681H739.28V661H742.44V665.56ZM768.469 669.6V672H754.269C754.309 675.92 756.669 678.48 760.229 678.48C762.789 678.48 764.669 677.12 765.549 674.68L768.349 675.92C766.949 679.56 764.029 681.48 759.989 681.48C754.269 681.48 750.869 677.84 750.869 671.24C750.869 664.56 754.229 660.52 759.949 660.52C765.349 660.52 768.469 663.6 768.469 669.6ZM765.029 669.24V668.8C765.029 665.12 763.149 663.2 759.869 663.2C756.349 663.2 754.349 665.48 754.269 669.24H765.029ZM777.275 652V681H773.875V652H777.275ZM784.051 657.28V653H787.931V657.28H784.051ZM784.291 681V661H787.691V681H784.291ZM799.437 681.48C795.357 681.48 792.677 679.16 792.677 675.6C792.677 673.6 793.677 671.88 795.477 670.88C796.997 670.12 798.917 669.64 802.197 669.24L805.917 668.8V668.48C805.917 664.8 804.597 663.32 801.517 663.32C798.797 663.32 797.117 664.76 796.957 667.28H793.317C793.597 663.2 796.797 660.52 801.477 660.52C806.957 660.52 809.357 663 809.357 668.84V674.24C809.357 677.32 809.557 679.44 810.037 681H806.477C806.317 679.96 806.197 678.64 806.157 677.36C805.237 679.92 802.717 681.48 799.437 681.48ZM800.197 678.68C803.677 678.68 805.957 676.16 805.957 672.28V671.28L800.517 672.08C797.557 672.52 796.277 673.56 796.277 675.52C796.277 677.48 797.757 678.68 800.197 678.68ZM825.399 681.48C822.359 681.48 820.079 679.88 819.039 677.56L818.439 681H815.839V652H819.239V664.48C820.279 662.24 822.479 660.52 825.599 660.52C830.479 660.52 833.639 664.88 833.639 671C833.639 677.24 830.399 681.48 825.399 681.48ZM824.479 678.48C827.959 678.48 830.039 675.56 830.039 671C830.039 666.52 828.079 663.52 824.519 663.52C821.159 663.52 819.159 666.2 819.159 670.56V671.6C819.159 675.76 821.119 678.48 824.479 678.48ZM838.398 657.28V653H842.278V657.28H838.398ZM838.638 681V661H842.038V681H838.638ZM852.423 652V681H849.023V652H852.423ZM859.199 657.28V653H863.079V657.28H859.199ZM859.439 681V661H862.839V681H859.439ZM866.625 663.8V661H870.345V655.76L873.745 654.32V661H878.745V663.8H873.745V674.88C873.745 677.16 874.625 678.16 876.665 678.16C877.545 678.16 878.065 678.04 878.745 677.88V681C877.865 681.24 877.065 681.36 875.785 681.36C871.465 681.36 870.345 678.72 870.345 675V663.8H866.625ZM884.188 689.04C883.588 689.04 882.988 689 882.348 688.88V685.88C882.868 685.92 883.348 685.96 883.788 685.96C886.188 685.96 887.428 684.88 888.348 682.24L888.868 680.76L880.908 661H884.708L889.828 674.92C890.188 675.92 890.388 676.72 890.508 677.28H890.588C890.708 676.72 890.948 675.92 891.268 674.92L895.908 661H899.588L891.788 682.28C889.948 687.36 887.548 689.04 884.188 689.04Z" fill="white"/>
<path d="M639.764 826H652.724V831H633.004V802.6H652.444V807.6H639.764V814H651.764V818.96H639.764V826ZM661.939 831.48C657.819 831.48 655.059 829.12 655.059 825.56C655.059 823.68 655.739 822.2 657.099 821.24C658.419 820.32 660.339 819.68 663.379 819.28L668.219 818.6V817.92C668.219 815.64 667.259 814.64 665.259 814.64C663.299 814.64 662.179 815.68 662.059 817.6H655.699C656.019 813.16 659.619 810.52 665.299 810.52C671.739 810.52 674.619 813.04 674.619 818.8V825.44C674.619 827.8 674.819 829.76 675.179 831H668.939C668.739 830.04 668.659 828.96 668.619 827.84C667.619 830.08 665.059 831.48 661.939 831.48ZM664.339 827.4C666.779 827.4 668.419 825.76 668.419 823.36V821.76L664.979 822.32C662.619 822.76 661.539 823.6 661.539 825.08C661.539 826.48 662.659 827.4 664.339 827.4ZM685.268 816.16C686.308 812.56 688.508 810.52 691.948 810.52H692.348V816.64C691.948 816.6 691.628 816.6 691.148 816.6C689.428 816.6 688.148 817.04 687.268 817.8C685.988 819 685.668 820.8 685.668 822.84V831H679.228V811H685.268V816.16ZM701.953 802V831H695.513V802H701.953ZM708.5 839.08C707.9 839.08 706.9 838.96 705.86 838.84V834.12C707.06 834.28 707.54 834.32 708.1 834.32C710.22 834.32 711.38 833.56 711.94 831.72L712.22 830.88L704.58 811H711.54L715.06 823.16C715.3 824 715.42 824.64 715.5 825.48H715.62C715.66 824.8 715.82 824.16 716.1 823.16L719.34 811H725.78L718.62 831.88C716.86 837.08 713.82 839.08 708.5 839.08ZM741.54 831.48C737.42 831.48 734.66 829.12 734.66 825.56C734.66 823.68 735.34 822.2 736.7 821.24C738.02 820.32 739.94 819.68 742.98 819.28L747.82 818.6V817.92C747.82 815.64 746.86 814.64 744.86 814.64C742.9 814.64 741.78 815.68 741.66 817.6H735.3C735.62 813.16 739.22 810.52 744.9 810.52C751.34 810.52 754.22 813.04 754.22 818.8V825.44C754.22 827.8 754.42 829.76 754.78 831H748.54C748.34 830.04 748.26 828.96 748.22 827.84C747.22 830.08 744.66 831.48 741.54 831.48ZM743.94 827.4C746.38 827.4 748.02 825.76 748.02 823.36V821.76L744.58 822.32C742.22 822.76 741.14 823.6 741.14 825.08C741.14 826.48 742.26 827.4 743.94 827.4ZM765.352 831.48C760.552 831.48 757.352 827.32 757.352 821.08C757.352 814.72 760.712 810.52 765.712 810.52C768.352 810.52 770.352 811.6 771.352 813.68V802H777.752V831H771.672V827.56C770.672 829.96 768.272 831.48 765.352 831.48ZM767.872 827.04C770.072 827.04 771.432 825.08 771.432 821.96V820.24C771.432 816.84 770.072 814.96 767.792 814.96C765.352 814.96 763.952 817.12 763.952 820.96C763.952 824.72 765.432 827.04 767.872 827.04ZM791.801 831.48C785.921 831.48 781.441 827.84 781.441 820.96C781.441 814.08 785.921 810.52 791.801 810.52C797.721 810.52 802.201 814.08 802.201 820.96C802.201 827.84 797.721 831.48 791.801 831.48ZM791.801 827.04C794.321 827.04 795.801 825.04 795.801 820.96C795.801 816.84 794.321 814.96 791.801 814.96C789.321 814.96 787.841 816.84 787.841 820.96C787.841 825.04 789.321 827.04 791.801 827.04ZM805.647 838.8V811H811.807V814.2C813.047 811.8 815.327 810.52 818.047 810.52C822.887 810.52 826.047 814.6 826.047 820.96C826.047 827.36 822.767 831.48 817.807 831.48C815.287 831.48 813.407 830.36 812.087 828.48V838.8H805.647ZM815.687 827.04C818.007 827.04 819.447 824.72 819.447 820.96C819.447 817.12 818.087 814.96 815.647 814.96C813.327 814.96 811.927 816.88 811.927 820.52V821.64C811.927 824.92 813.367 827.04 815.687 827.04ZM826.869 815.28V811H830.349V806.2L836.749 803.72V811H841.509V815.28H836.749V823.08C836.749 825.08 837.749 826.12 839.669 826.12C840.429 826.12 840.909 826.04 841.509 825.92V831C840.029 831.28 839.029 831.4 837.869 831.4C832.549 831.4 830.349 828.96 830.349 824.6V815.28H826.869ZM862.858 820.52V822.44H848.978C849.018 825.16 850.898 826.88 853.578 826.88C855.538 826.88 857.018 825.92 857.938 824.08L862.658 826.24C861.058 829.52 857.658 831.48 853.498 831.48C846.898 831.48 842.898 827.68 842.898 821.2C842.898 814.64 846.818 810.52 853.058 810.52C859.338 810.52 862.858 814.16 862.858 820.52ZM856.658 818.84V818.68C856.658 815.84 855.338 814.32 852.938 814.32C850.458 814.32 849.058 816 848.978 818.84H856.658ZM872.518 816.16C873.558 812.56 875.758 810.52 879.198 810.52H879.598V816.64C879.198 816.6 878.878 816.6 878.398 816.6C876.678 816.6 875.398 817.04 874.518 817.8C873.238 819 872.918 820.8 872.918 822.84V831H866.478V811H872.518V816.16ZM890.207 831.48C885.807 831.48 882.207 829.84 880.287 826.68L884.007 823.88C885.407 826.04 887.567 827.12 890.327 827.12C892.407 827.12 893.447 826.48 893.447 825.36C893.447 824.16 892.807 823.72 890.607 823.4L887.727 823C883.407 822.36 881.367 820.24 881.367 816.84C881.367 812.96 884.647 810.52 890.167 810.52C894.207 810.52 897.607 812 899.247 814.48L895.927 817.48C894.447 815.8 892.447 814.8 889.967 814.8C888.047 814.8 887.167 815.32 887.167 816.44C887.167 817.4 887.767 817.92 889.527 818.16L893.087 818.72C897.367 819.32 899.047 821.44 899.047 824.88C899.047 828.96 895.807 831.48 890.207 831.48ZM505.86 871L500.22 851H503.74L507.34 865.28C507.5 866 507.66 866.84 507.78 867.64H507.86C507.98 866.84 508.22 866 508.38 865.28L512.02 851H515.7L519.34 865.28C519.5 866 519.74 866.84 519.86 867.64H519.94C520.06 866.84 520.22 866 520.38 865.28L523.98 851H527.5L521.86 871H518.14L514.34 856.6C514.18 855.96 513.98 854.96 513.9 854.36H513.82C513.74 854.96 513.54 855.96 513.38 856.6L509.58 871H505.86ZM536.091 871.48C532.011 871.48 529.331 869.16 529.331 865.6C529.331 863.6 530.331 861.88 532.131 860.88C533.651 860.12 535.571 859.64 538.851 859.24L542.571 858.8V858.48C542.571 854.8 541.251 853.32 538.171 853.32C535.451 853.32 533.771 854.76 533.611 857.28H529.971C530.251 853.2 533.451 850.52 538.131 850.52C543.611 850.52 546.011 853 546.011 858.84V864.24C546.011 867.32 546.211 869.44 546.691 871H543.131C542.971 869.96 542.851 868.64 542.811 867.36C541.891 869.92 539.371 871.48 536.091 871.48ZM536.851 868.68C540.331 868.68 542.611 866.16 542.611 862.28V861.28L537.171 862.08C534.211 862.52 532.931 863.56 532.931 865.52C532.931 867.48 534.411 868.68 536.851 868.68ZM552.294 871V851H555.494V854.96C556.814 851.92 559.014 850.44 562.174 850.44C566.574 850.44 568.854 853.2 568.854 858.56V871H565.454V858.76C565.454 855.24 563.974 853.44 561.054 853.44C557.734 853.44 555.694 856.12 555.694 860.56V871H552.294ZM571.667 853.8V851H575.387V845.76L578.787 844.32V851H583.787V853.8H578.787V864.88C578.787 867.16 579.667 868.16 581.707 868.16C582.587 868.16 583.107 868.04 583.787 867.88V871C582.907 871.24 582.107 871.36 580.827 871.36C576.507 871.36 575.387 868.72 575.387 865V853.8H571.667ZM598.359 871V851H601.559V854.96C602.879 851.92 605.079 850.44 608.239 850.44C612.639 850.44 614.919 853.2 614.919 858.56V871H611.519V858.76C611.519 855.24 610.039 853.44 607.119 853.44C603.799 853.44 601.759 856.12 601.759 860.56V871H598.359ZM636.923 859.6V862H622.723C622.763 865.92 625.123 868.48 628.683 868.48C631.243 868.48 633.123 867.12 634.003 864.68L636.803 865.92C635.403 869.56 632.483 871.48 628.443 871.48C622.723 871.48 619.323 867.84 619.323 861.24C619.323 854.56 622.683 850.52 628.403 850.52C633.803 850.52 636.923 853.6 636.923 859.6ZM633.483 859.24V858.8C633.483 855.12 631.603 853.2 628.323 853.2C624.803 853.2 622.803 855.48 622.723 859.24H633.483ZM645.17 871L639.53 851H643.05L646.65 865.28C646.81 866 646.97 866.84 647.09 867.64H647.17C647.29 866.84 647.53 866 647.69 865.28L651.33 851H655.01L658.65 865.28C658.81 866 659.05 866.84 659.17 867.64H659.25C659.37 866.84 659.53 866 659.69 865.28L663.29 851H666.81L661.17 871H657.45L653.65 856.6C653.49 855.96 653.29 854.96 653.21 854.36H653.13C653.05 854.96 652.85 855.96 652.69 856.6L648.89 871H645.17ZM689.711 851V853.8H684.711V871H681.311V853.8H677.631V851H681.311V847.84C681.311 844.2 683.591 841.76 687.151 841.76C688.111 841.76 688.951 841.84 689.711 842.04V844.96C688.991 844.84 688.231 844.76 687.591 844.76C685.551 844.76 684.711 845.88 684.711 848.32V851H689.711ZM700.138 871.48C695.098 871.48 693.298 868.44 693.298 863.76V851H696.698V863.36C696.698 866.72 698.138 868.56 700.778 868.56C703.978 868.56 706.138 865.84 706.138 861.76V851H709.538V871H706.338V867.24C705.418 869.68 702.938 871.48 700.138 871.48ZM716.35 871V851H719.55V854.96C720.87 851.92 723.07 850.44 726.23 850.44C730.63 850.44 732.91 853.2 732.91 858.56V871H729.51V858.76C729.51 855.24 728.03 853.44 725.11 853.44C721.79 853.44 719.75 856.12 719.75 860.56V871H716.35ZM746.514 871.48C740.914 871.48 737.314 867.4 737.314 861C737.314 854.48 740.834 850.52 746.514 850.52C751.194 850.52 754.234 853.2 754.754 857.8L751.274 858.2C750.914 855.16 749.154 853.48 746.434 853.48C742.994 853.48 740.914 856.28 740.914 860.96C740.914 865.76 742.994 868.52 746.554 868.52C749.274 868.52 750.954 866.88 751.474 863.76L754.714 864.28C753.994 868.84 750.994 871.48 746.514 871.48ZM756.183 853.8V851H759.903V845.76L763.303 844.32V851H768.303V853.8H763.303V864.88C763.303 867.16 764.183 868.16 766.223 868.16C767.103 868.16 767.623 868.04 768.303 867.88V871C767.423 871.24 766.623 871.36 765.343 871.36C761.023 871.36 759.903 868.72 759.903 865V853.8H756.183ZM772.644 847.28V843H776.524V847.28H772.644ZM772.884 871V851H776.284V871H772.884ZM790.59 871.48C784.95 871.48 781.27 867.52 781.27 861C781.27 854.48 784.95 850.52 790.59 850.52C796.23 850.52 799.91 854.48 799.91 861C799.91 867.52 796.23 871.48 790.59 871.48ZM790.59 868.52C794.19 868.52 796.31 865.96 796.31 861C796.31 856.04 794.19 853.48 790.59 853.48C786.99 853.48 784.87 856.04 784.87 861C784.87 865.96 786.99 868.52 790.59 868.52ZM804.897 871V851H808.097V854.96C809.417 851.92 811.617 850.44 814.777 850.44C819.177 850.44 821.457 853.2 821.457 858.56V871H818.057V858.76C818.057 855.24 816.577 853.44 813.657 853.44C810.337 853.44 808.297 856.12 808.297 860.56V871H804.897ZM832.621 871.48C828.541 871.48 825.861 869.16 825.861 865.6C825.861 863.6 826.861 861.88 828.661 860.88C830.181 860.12 832.101 859.64 835.381 859.24L839.101 858.8V858.48C839.101 854.8 837.781 853.32 834.701 853.32C831.981 853.32 830.301 854.76 830.141 857.28H826.501C826.781 853.2 829.981 850.52 834.661 850.52C840.141 850.52 842.541 853 842.541 858.84V864.24C842.541 867.32 842.741 869.44 843.221 871H839.661C839.501 869.96 839.381 868.64 839.341 867.36C838.421 869.92 835.901 871.48 832.621 871.48ZM833.381 868.68C836.861 868.68 839.141 866.16 839.141 862.28V861.28L833.701 862.08C830.741 862.52 829.461 863.56 829.461 865.52C829.461 867.48 830.941 868.68 833.381 868.68ZM852.423 842V871H849.023V842H852.423ZM859.199 847.28V843H863.079V847.28H859.199ZM859.439 871V851H862.839V871H859.439ZM866.625 853.8V851H870.345V845.76L873.745 844.32V851H878.745V853.8H873.745V864.88C873.745 867.16 874.625 868.16 876.665 868.16C877.545 868.16 878.065 868.04 878.745 867.88V871C877.865 871.24 877.065 871.36 875.785 871.36C871.465 871.36 870.345 868.72 870.345 865V853.8H866.625ZM884.188 879.04C883.588 879.04 882.988 879 882.348 878.88V875.88C882.868 875.92 883.348 875.96 883.788 875.96C886.188 875.96 887.428 874.88 888.348 872.24L888.868 870.76L880.908 851H884.708L889.828 864.92C890.188 865.92 890.388 866.72 890.508 867.28H890.588C890.708 866.72 890.948 865.92 891.268 864.92L895.908 851H899.588L891.788 872.28C889.948 877.36 887.548 879.04 884.188 879.04Z" fill="white"/>
<path d="M49.59 885.991C47.76 885.991 46.38 885.811 45.42 885.481C43.02 884.671 41.04 883.201 39.45 881.041C37.86 878.851 37.08 876.511 37.08 873.961C37.08 872.281 37.53 870.541 38.82 869.251C40.65 867.181 44.28 868.621 44.1 871.201C44.1 872.911 41.28 873.151 41.28 875.551C41.28 877.021 41.97 878.431 43.35 879.781C44.7 881.101 46.11 881.761 47.58 881.761C49.26 881.761 50.67 881.161 51.84 879.931C52.98 878.701 53.55 877.231 53.55 875.551C53.55 874.621 53.25 873.391 52.62 871.861C51.99 870.301 51.69 869.251 51.69 868.711C51.69 867.841 52.5 867.151 53.37 867.151C54.36 867.151 55.26 867.691 56.07 868.801C56.88 869.911 57.48 871.111 57.84 872.401C58.23 873.691 58.41 874.831 58.41 875.791C58.41 877.621 58.08 879.301 57.45 880.831C56.16 883.831 53.31 885.991 49.59 885.991ZM52.2 864.703C50.79 865.273 49.59 865.573 48.66 865.573C47.25 865.573 45.78 865.273 44.22 864.643C42.66 864.013 41.37 863.203 40.38 862.213C39.27 861.133 38.37 859.753 37.74 858.043C37.11 856.333 36.78 854.623 36.78 852.973C36.78 850.543 37.5 848.473 38.97 846.733C40.17 845.323 42.3 844.603 45.36 844.603C49.11 844.603 52.08 845.713 54.33 847.963C56.55 850.213 57.66 853.183 57.66 856.933C57.66 860.683 55.83 863.263 52.2 864.703ZM41.94 854.923C41.94 856.543 42.39 858.013 43.29 859.333C44.19 860.653 45.42 861.313 46.98 861.313C50.58 861.313 52.44 858.853 52.44 855.163C52.44 850.753 50.28 848.173 45.99 848.173C44.22 848.173 43.08 848.893 42.63 850.363C42.18 851.863 41.94 853.393 41.94 854.923ZM40.38 842.084C39.99 842.084 39.6 841.814 39.15 841.304C38.7 840.764 38.49 840.284 38.49 839.894C38.49 839.444 39.15 838.694 40.23 837.854C40.74 837.404 41.22 837.014 41.67 836.684C42.12 836.324 42.6 835.964 43.17 835.574L44.1 834.884C46.41 833.174 48.3 831.374 49.71 829.484C48.87 829.484 47.64 829.454 45.99 829.424C44.34 829.394 43.08 829.364 42.27 829.364C42 829.364 41.61 829.394 41.04 829.424C40.47 829.454 40.08 829.484 39.81 829.484C39.18 829.484 38.58 829.304 37.95 828.944C37.32 828.554 37.02 828.074 37.02 827.504C37.02 826.244 38.7 825.614 42.06 825.614C43.26 825.614 45.06 825.644 47.46 825.734C49.86 825.824 51.66 825.854 52.89 825.854C53.46 825.854 54 825.884 54.57 825.974C55.14 826.034 55.71 826.214 56.28 826.544C56.85 826.844 57.15 827.264 57.15 827.774C57.15 828.704 56.04 830.324 54.12 832.274C53.16 833.264 52.29 834.104 51.54 834.854C50.76 835.604 49.86 836.444 48.81 837.404L47.01 839.024C48.78 839.024 50.4 838.994 51.81 838.904C52.14 838.874 52.74 838.844 53.55 838.754C54.36 838.664 54.99 838.604 55.44 838.604C56.07 838.604 56.73 838.784 57.42 839.114C58.14 839.444 58.5 839.864 58.5 840.404C58.5 841.604 57.36 842.264 55.08 842.384C51.69 842.534 49.11 842.624 47.34 842.624C46.29 842.624 44.94 842.594 43.29 842.504C41.64 842.414 40.68 842.264 40.38 842.084ZM39.42 805.804C40.17 805.804 40.89 806.074 41.58 806.614C42.27 807.124 42.6 807.754 42.6 808.444C42.6 808.894 42.21 809.524 41.46 810.304C40.68 811.084 40.26 811.594 40.23 811.834C41.1 814.114 42.78 816.424 44.61 817.624C45.18 816.184 45.45 814.774 45.45 813.394C45.45 812.824 45.39 811.984 45.24 810.844C45.09 809.704 45.03 808.864 45.03 808.294C45.03 806.734 45.18 805.744 45.69 804.694C46.17 803.614 47.19 803.074 48.75 803.074C51.51 803.704 53.79 805.174 55.56 807.484C57.33 809.794 58.23 812.344 58.23 815.164C58.23 817.744 57.72 819.874 56.73 821.584C56.22 822.424 55.71 822.844 55.2 822.844C54.45 822.844 53.82 822.454 53.31 821.644C52.8 820.834 52.53 820.024 52.53 819.214C52.53 818.464 52.8 817.384 53.31 815.974C53.82 814.564 54.09 813.454 54.09 812.674C54.09 811.684 53.7 810.724 52.92 809.734C52.11 808.744 51.24 807.994 50.31 807.514C50.22 807.784 50.16 808.234 50.16 808.804C50.16 809.434 50.22 810.364 50.37 811.594C50.49 812.824 50.55 813.754 50.55 814.384C50.55 815.734 50.37 817.444 49.89 819.484C49.41 821.524 48.36 823.054 46.92 823.054C45.87 823.054 43.95 821.794 41.22 819.274C39.84 817.984 38.61 816.484 37.56 814.804C36.48 813.124 35.94 811.564 35.94 810.094C35.94 808.954 36.24 807.964 36.87 807.094C37.5 806.224 38.34 805.804 39.42 805.804ZM55.35 788.94C57.3 792.48 58.26 795.27 58.26 797.34C58.26 798.39 58.08 799.11 57.72 799.5C57.45 799.8 56.55 800.04 55.02 800.19C53.49 800.34 52.2 800.4 51.15 800.4C49.92 800.4 47.79 800.25 44.7 799.92C41.61 799.59 39.81 799.26 39.33 798.93C38.88 798.6 38.67 798.24 38.67 797.82C38.67 797.37 38.94 796.92 39.45 796.44C39.96 795.93 40.41 795.69 40.83 795.69C41.64 795.69 42.84 795.78 44.4 795.99C45.96 796.2 47.13 796.29 47.91 796.29H52.77C52.65 795 52.05 793.32 51.54 792.33C51.27 791.82 50.94 791.13 50.49 790.32C50.04 789.48 49.74 788.88 49.56 788.49C49.05 788.43 48.51 788.4 47.97 788.4C47.16 788.37 45.96 788.31 44.4 788.28L41.28 788.16C40.95 788.16 40.05 788.19 39.66 788.19C37.68 788.19 36.69 787.59 36.69 786.42C36.69 785.37 37.23 784.68 38.19 784.41C39.15 784.08 39.81 784.05 40.98 784.05C42.87 784.05 46.02 784.2 50.43 784.53C54.81 784.86 57.33 785.16 57.99 785.46C58.59 785.76 58.89 786.18 58.89 786.75C58.89 787.38 58.47 787.89 57.63 788.31C56.82 788.73 56.04 788.94 55.35 788.94ZM45.03 768.912L43.23 767.892C42.39 767.412 41.73 767.022 41.22 766.752C40.23 766.152 38.7 765.132 37.74 764.292C37.02 763.722 36.66 763.032 36.66 762.252C36.66 761.442 37.98 760.512 40.62 759.492C43.23 758.442 45.3 757.782 46.83 757.452C50.43 756.732 52.89 756.372 54.21 756.372C55.41 756.372 56.61 757.302 56.61 758.502C56.61 759.012 56.31 759.612 55.74 760.302C55.14 760.962 54.57 761.292 54.03 761.322C53.79 761.442 53.52 761.532 53.22 761.622C52.59 761.742 51.42 761.952 51.15 761.982C48.75 762.462 46.35 763.122 43.92 763.992C44.01 764.022 44.28 764.202 44.76 764.472L45.66 765.012C45.81 765.072 46.08 765.222 46.53 765.462C46.95 765.702 47.25 765.882 47.46 765.972C47.85 766.182 48.78 766.602 49.29 766.812C49.8 767.022 50.55 767.292 51.15 767.442L53.94 768.162C55.14 768.492 55.65 768.672 56.46 769.182C57.21 769.662 57.57 770.442 57.57 771.552C57.57 772.152 57.18 772.572 56.43 772.842C55.68 773.082 54.9 773.202 54.09 773.202C51.36 773.202 48.48 773.502 45.45 774.132C47.46 775.362 49.56 776.262 51.69 776.862L53.46 777.282C55.11 777.642 56.28 777.942 57.27 778.512C57.66 778.722 57.99 779.772 57.99 780.342C57.99 781.272 57.39 781.752 56.16 781.752C54.93 781.752 53.61 781.512 52.2 781.002C50.34 780.342 47.73 779.232 44.37 777.642C40.98 776.052 38.91 774.882 38.1 774.072C37.71 773.682 37.5 773.232 37.5 772.722C37.5 772.092 38.07 771.432 39.24 770.742C40.38 770.052 41.34 769.602 42.15 769.422C42.9 769.212 43.86 769.062 45.03 768.912ZM44.28 749.791L46.08 749.971C45.6 746.101 45.36 743.401 45.36 741.871C45.36 740.041 45.93 739.141 47.07 739.141C47.97 739.141 48.69 739.531 49.23 740.311C49.86 741.301 50.43 744.571 50.91 750.121C51.27 750.121 52.17 750.211 53.61 750.361L53.16 747.211C52.68 744.361 52.44 742.321 52.44 740.311C52.44 739.201 53.01 738.661 54.18 738.661C55.38 738.661 56.31 739.561 56.79 740.641C57.03 741.181 57.24 741.841 57.39 742.651C57.72 744.211 57.78 745.231 57.87 746.581C57.87 746.821 57.9 746.971 57.9 747.121C57.93 747.511 58.05 748.141 58.29 749.011C58.53 749.881 58.65 750.541 58.65 751.051C58.65 753.301 56.79 754.501 54.51 754.501C53.97 754.501 53.19 754.441 52.2 754.291C51.21 754.141 50.52 754.051 50.13 754.021L46.47 753.841C44.61 753.751 43.2 753.661 42.21 753.571C41.22 753.451 40.29 753.001 39.48 752.221C38.67 751.411 38.13 750.511 37.92 749.521C37.23 746.431 36.9 743.551 36.9 740.941C36.9 740.131 37.05 739.381 37.38 738.691C37.68 738.001 38.16 737.641 38.85 737.641C39.45 737.641 40.02 737.941 40.56 738.541C41.07 739.111 41.4 739.741 41.55 740.371C41.73 741.241 41.91 742.711 42.09 744.811C42.24 746.911 42.48 748.501 42.78 749.611L44.28 749.791ZM55.68 718.005C56.88 718.005 57.39 719.325 57.39 720.645C57.39 721.455 56.25 723.405 54 726.525C53.7 726.915 53.43 727.365 53.16 727.845C52.89 728.295 52.59 728.925 52.23 729.675L51.54 731.055C53.61 730.845 54.99 730.725 55.74 730.725C57.15 730.725 58.47 731.505 58.47 732.825C58.47 733.695 57.72 734.265 56.25 734.565C55.08 734.775 53.82 734.925 52.47 735.045L47.91 735.315C46.23 735.405 44.94 735.465 44.04 735.555C43.71 735.585 43.14 735.645 42.27 735.795C41.4 735.915 40.71 735.975 40.23 735.975C39.42 735.975 38.67 735.315 37.95 733.995C37.2 732.645 36.75 731.475 36.57 730.425C36.3 728.955 36.18 727.605 36.18 726.345C36.18 724.905 36.39 723.735 36.84 722.835C37.29 721.935 37.98 721.155 38.94 720.525C39.87 719.895 40.83 719.565 41.79 719.565C44.37 719.565 46.65 721.425 48.63 725.145C49.35 723.855 50.31 722.535 51.66 720.855C52.98 719.175 54.51 718.005 55.68 718.005ZM42.21 723.225C41.91 723.225 41.7 723.555 41.58 724.215C41.43 724.875 41.37 725.475 41.37 726.045C41.37 728.295 41.79 730.275 42.6 731.985L46.68 731.565C46.53 730.155 46.17 728.505 45.48 726.585C44.79 724.665 43.62 723.225 42.21 723.225ZM50.7 703.874V704.174C50.7 704.804 50.76 705.734 50.85 706.964C50.94 708.194 50.97 709.154 50.97 709.784C50.97 710.774 50.88 712.064 50.55 713.714C50.22 715.364 49.47 716.594 48.48 716.594C48 716.594 47.43 716.414 46.8 716.024C46.17 715.634 45.63 715.274 45.24 714.914C44.82 714.524 44.25 713.984 43.56 713.294L42.3 712.064C40.95 710.774 39.69 709.214 38.49 707.354C37.26 705.464 36.66 703.844 36.66 702.464C36.66 701.294 36.93 700.274 37.5 699.434C38.04 698.564 38.88 698.144 39.99 698.144C40.8 698.144 41.55 698.414 42.3 698.984C43.02 699.554 43.38 700.214 43.38 700.964C43.38 701.924 43.17 702.344 42.72 702.734L42.3 703.064C42.21 703.094 42.03 703.214 41.73 703.364L41.13 703.634C41.04 703.874 40.98 704.054 40.98 704.204C40.98 705.224 41.52 706.394 42.6 707.744C43.65 709.094 44.73 710.174 45.78 710.984C46.05 710.414 46.17 709.514 46.17 708.254C46.17 707.444 46.11 706.184 46.02 704.504C45.9 702.824 45.84 701.564 45.84 700.724C45.84 699.794 46.11 698.894 46.62 698.024C47.13 697.124 47.79 696.674 48.66 696.674C49.02 696.674 49.5 696.794 50.07 697.004C52.53 698.114 54.63 699.854 56.34 702.254C58.05 704.624 58.92 707.114 58.92 709.664C58.92 711.194 58.56 712.604 57.84 713.834C57.15 715.064 56.1 715.694 54.69 715.694C53.61 715.694 53.1 714.704 53.1 713.534C53.1 713.024 53.25 712.244 53.52 711.224L53.97 709.574C54.12 708.884 54.21 707.924 54.21 706.694C54.21 705.044 53.25 703.514 51.3 702.104C50.91 702.254 50.7 702.854 50.7 703.874Z" fill="#9D9D9D"/>
<path d="M48.4346 587.584C47.6536 586.803 46.3872 586.803 45.6062 587.584L32.8783 600.312C32.0972 601.093 32.0972 602.359 32.8783 603.14C33.6593 603.921 34.9256 603.921 35.7067 603.14L47.0204 591.827L58.3341 603.14C59.1151 603.921 60.3815 603.921 61.1625 603.14C61.9436 602.359 61.9436 601.093 61.1625 600.312L48.4346 587.584ZM47.0204 588.998L45.0204 588.998L45.0204 670.998L47.0204 670.998L49.0204 670.998L49.0204 588.998L47.0204 588.998Z" fill="#9D9D9D"/>
<path d="M190.727 896.21V901.19C190.727 902 190.817 903.2 190.967 904.76C191.147 906.32 191.237 907.49 191.237 908.27C191.237 908.99 190.967 909.68 190.457 910.37C189.947 911.06 189.317 911.39 188.597 911.39C188.147 911.39 187.757 911.06 187.457 910.4C187.307 910.07 187.187 909.23 187.097 907.88C187.007 906.53 186.947 905.18 186.917 903.86L186.827 899.45C186.797 897.83 186.797 896.93 186.797 896.72C184.187 897.08 182.447 897.26 181.577 897.26C181.187 897.26 180.797 897.17 180.347 896.96C179.777 896.96 179.177 896.39 179.177 895.82C179.177 894.35 180.347 893.39 181.907 892.91C185.477 891.8 188.837 891.23 191.927 891.23C195.797 891.23 197.747 891.89 197.747 893.24C197.747 894.17 197.117 895.4 196.307 895.64C196.217 895.67 195.917 895.7 195.797 895.79C195.497 895.79 193.817 895.94 190.727 896.21ZM202.228 891.74C203.188 891.74 203.818 892.28 204.058 893.33C204.298 894.38 204.328 894.89 204.328 895.94C204.328 896.45 204.298 897.2 204.208 898.25C204.148 899.3 204.118 900.08 204.118 900.59C204.118 901.52 204.148 902.93 204.208 904.76C204.298 906.59 204.328 908 204.328 908.93C204.328 910.28 203.488 911.72 202.168 911.72C201.448 911.72 200.938 911.15 200.668 910.01C200.338 908.72 200.188 904.55 200.188 897.44V895.73C200.188 894.92 200.278 894.2 200.518 893.27C200.788 892.34 201.388 891.74 202.228 891.74ZM219.864 900.98C220.254 900.14 220.734 899 221.304 897.53L221.634 896.54C222.024 895.37 222.204 894.86 222.714 893.69C223.494 892.01 224.244 891.02 225.354 890.9C225.684 890.9 225.984 891.08 226.284 891.41C226.974 892.13 228.204 894.65 229.914 899C231.624 903.32 232.494 905.96 232.494 906.89C232.494 907.61 232.254 908.42 231.744 909.29C231.264 910.16 230.694 910.58 230.004 910.58C229.404 910.58 228.924 910.34 228.534 909.86C228.264 909.5 227.664 908 226.734 905.36C225.804 902.72 225.264 901.19 225.054 900.74L224.454 899.42L224.034 900.74C223.584 902.15 223.254 903.05 222.654 904.7C222.054 906.29 221.424 907.4 220.704 908.57C219.984 909.68 219.144 910.34 218.334 910.34C217.644 910.34 217.044 909.68 216.564 908.39L215.994 906.74L215.544 904.91C215.364 904.16 215.274 903.77 215.274 903.74C214.824 902.18 214.524 901.01 214.314 900.2C213.144 903.08 212.124 905.93 211.224 908.78C210.744 910.19 210.294 911.09 209.874 911.51C209.484 911.93 209.004 912.14 208.464 912.14C207.534 912.14 207.054 911.48 207.054 910.19C207.054 909.95 207.084 909.62 207.174 909.17C207.294 908.54 207.834 907.28 208.044 906.68L209.094 903.74C209.544 902.45 209.874 901.61 210.024 901.19L210.774 899.06L211.584 896.72C211.974 895.64 212.694 893.81 213.384 892.49C213.894 891.44 214.524 890.93 215.274 890.93C216.264 890.93 217.404 892.76 218.244 895.31C219.114 897.86 219.534 899.51 219.864 900.98ZM238.837 898.28L238.657 900.08C242.527 899.6 245.227 899.36 246.757 899.36C248.587 899.36 249.487 899.93 249.487 901.07C249.487 901.97 249.097 902.69 248.317 903.23C247.327 903.86 244.057 904.43 238.507 904.91C238.507 905.27 238.417 906.17 238.267 907.61L241.417 907.16C244.267 906.68 246.307 906.44 248.317 906.44C249.427 906.44 249.967 907.01 249.967 908.18C249.967 909.38 249.067 910.31 247.987 910.79C247.447 911.03 246.787 911.24 245.977 911.39C244.417 911.72 243.397 911.78 242.047 911.87C241.807 911.87 241.657 911.9 241.507 911.9C241.117 911.93 240.487 912.05 239.617 912.29C238.747 912.53 238.087 912.65 237.577 912.65C235.327 912.65 234.127 910.79 234.127 908.51C234.127 907.97 234.187 907.19 234.337 906.2C234.487 905.21 234.577 904.52 234.607 904.13L234.787 900.47C234.877 898.61 234.967 897.2 235.057 896.21C235.177 895.22 235.627 894.29 236.407 893.48C237.217 892.67 238.117 892.13 239.107 891.92C242.197 891.23 245.077 890.9 247.687 890.9C248.497 890.9 249.247 891.05 249.937 891.38C250.627 891.68 250.987 892.16 250.987 892.85C250.987 893.45 250.687 894.02 250.087 894.56C249.517 895.07 248.887 895.4 248.257 895.55C247.387 895.73 245.917 895.91 243.817 896.09C241.717 896.24 240.127 896.48 239.017 896.78L238.837 898.28Z" fill="#D9D9D9"/>
<path d="M361.414 902.414C362.195 901.633 362.195 900.367 361.414 899.586L348.686 886.858C347.905 886.077 346.639 886.077 345.858 886.858C345.077 887.639 345.077 888.905 345.858 889.686L357.172 901L345.858 912.314C345.077 913.095 345.077 914.361 345.858 915.142C346.639 915.923 347.905 915.923 348.686 915.142L361.414 902.414ZM360 901V899H278V901V903H360V901Z" fill="#D9D9D9"/>
<path d="M44.97 31.67C46.38 31.73 47.58 32.15 48.54 32.96C49.53 33.77 50.01 34.85 50.01 36.23C50.01 37.55 49.47 38.84 48.42 40.1C47.37 41.33 46.05 42.38 44.52 43.19C41.49 44.84 37.98 45.89 35.55 45.89C34.14 45.89 33.18 45.59 32.7 45.02C32.25 44.45 32.01 43.4 32.01 41.93C32.01 41.3 32.04 40.37 32.13 39.14C32.22 37.91 32.25 36.95 32.25 36.32V34.4C32.25 32.6 32.19 31.28 32.1 30.44C32.07 30.2 31.92 29.21 31.89 28.85C31.89 28.22 31.83 27.26 32.01 26.63C32.28 25.73 33.42 24.98 35.43 24.38C37.47 23.75 39.12 23.45 40.41 23.45C41.34 23.45 42.24 23.6 43.11 23.87C44.88 24.38 46.47 25.79 46.47 27.71C46.47 28.94 45.96 30.26 44.97 31.67ZM43.17 36.47C42.18 36.47 40.95 36.62 39.48 36.89C38.04 37.16 36.93 37.52 36.12 37.91V41.09C40.47 40.31 43.41 39.44 44.97 38.48C45.75 37.97 46.14 37.58 46.14 37.37C46.05 37.04 45.66 36.83 44.97 36.68C44.28 36.53 43.68 36.47 43.17 36.47ZM40.11 28.7C38.1 28.7 36.57 29.09 35.49 29.87L35.7 32.66C36.75 32.39 38.1 31.91 39.69 31.19C41.31 30.44 42.18 29.78 42.33 29.15C41.82 28.85 41.07 28.7 40.11 28.7ZM63.7188 42.35C60.1788 44.3 57.3888 45.26 55.3188 45.26C54.2688 45.26 53.5488 45.08 53.1588 44.72C52.8588 44.45 52.6188 43.55 52.4688 42.02C52.3188 40.49 52.2588 39.2 52.2588 38.15C52.2588 36.92 52.4088 34.79 52.7388 31.7C53.0688 28.61 53.3988 26.81 53.7288 26.33C54.0588 25.88 54.4188 25.67 54.8388 25.67C55.2888 25.67 55.7388 25.94 56.2188 26.45C56.7288 26.96 56.9688 27.41 56.9688 27.83C56.9688 28.64 56.8788 29.84 56.6688 31.4C56.4588 32.96 56.3688 34.13 56.3688 34.91V39.77C57.6588 39.65 59.3388 39.05 60.3288 38.54C60.8388 38.27 61.5288 37.94 62.3388 37.49C63.1788 37.04 63.7788 36.74 64.1688 36.56C64.2288 36.05 64.2588 35.51 64.2588 34.97C64.2888 34.16 64.3488 32.96 64.3788 31.4L64.4988 28.28C64.4988 27.95 64.4688 27.05 64.4688 26.66C64.4688 24.68 65.0688 23.69 66.2388 23.69C67.2888 23.69 67.9788 24.23 68.2488 25.19C68.5788 26.15 68.6088 26.81 68.6088 27.98C68.6088 29.87 68.4588 33.02 68.1288 37.43C67.7988 41.81 67.4988 44.33 67.1988 44.99C66.8988 45.59 66.4788 45.89 65.9088 45.89C65.2788 45.89 64.7688 45.47 64.3488 44.63C63.9288 43.82 63.7188 43.04 63.7188 42.35ZM90.2559 27.14C90.2559 28.07 89.9559 29 89.3859 29.9C88.8159 30.8 88.0959 31.25 87.2259 31.25C86.1459 31.25 85.5159 30.35 85.2759 29.51C85.0359 28.64 84.4659 27.74 83.4759 27.74C82.5159 27.74 81.3159 28.31 79.8759 29.42C78.4659 30.53 77.3259 31.58 76.5159 32.6C77.3859 32.99 78.6759 33.17 80.3559 33.17C81.0459 33.17 82.0359 33.11 83.3859 32.96C84.7359 32.81 85.7259 32.75 86.3859 32.75C87.4359 32.75 88.5159 32.93 89.6259 33.32C90.7959 33.71 91.5759 34.61 91.5759 35.72C91.5759 36.8 91.1559 37.91 90.2859 39.02C89.4459 40.13 88.4559 41.12 87.3459 42.02C86.1159 43.01 84.6459 43.85 82.9359 44.54C81.2559 45.23 79.6659 45.59 78.1659 45.59C77.5659 45.59 76.9959 45.53 76.4559 45.41C75.5859 45.23 74.5659 44.84 73.3659 44.21C72.1659 43.61 71.5659 43.01 71.5659 42.41C71.5659 41.75 71.9559 41.18 72.7059 40.67C73.4559 40.16 74.1759 39.89 74.8659 39.89C75.4959 39.89 76.5759 40.04 78.1659 40.34C79.7559 40.61 80.9859 40.76 81.8559 40.76C82.6059 40.76 83.4159 40.49 84.2859 39.92C85.1559 39.35 85.8759 38.75 86.4459 38.06C86.0559 37.82 85.4259 37.7 84.5559 37.7C84.1059 37.7 83.4159 37.73 82.4859 37.79C81.5859 37.85 80.8959 37.88 80.4459 37.88H78.9759L77.0559 37.79C76.2159 37.73 75.4659 37.64 74.8059 37.49C72.8559 37.13 70.6059 36.41 70.7559 34.97C70.7559 34.07 71.4159 32.75 72.7659 31.04C74.5059 28.88 76.6059 27.02 79.0659 25.46C81.5259 23.9 83.9559 23.12 86.3559 23.12C88.6659 23.12 90.2559 24.83 90.2559 27.14ZM96.5243 24.74C97.4843 24.74 98.1143 25.28 98.3543 26.33C98.5943 27.38 98.6243 27.89 98.6243 28.94C98.6243 29.45 98.5943 30.2 98.5043 31.25C98.4443 32.3 98.4143 33.08 98.4143 33.59C98.4143 34.52 98.4443 35.93 98.5043 37.76C98.5943 39.59 98.6243 41 98.6243 41.93C98.6243 43.28 97.7843 44.72 96.4643 44.72C95.7443 44.72 95.2343 44.15 94.9643 43.01C94.6343 41.72 94.4843 37.55 94.4843 30.44V28.73C94.4843 27.92 94.5743 27.2 94.8143 26.27C95.0843 25.34 95.6843 24.74 96.5243 24.74ZM115.541 35.72C115.571 35.45 115.571 34.64 115.601 33.32L115.661 29.84C115.691 28.85 115.781 27.8 115.901 26.75C116.021 25.67 116.171 24.95 116.351 24.59C116.711 23.81 117.221 23.42 117.881 23.42C119.381 23.45 119.981 25.85 119.921 27.05C119.921 28.16 119.771 29.81 119.501 32C119.231 34.19 119.111 35.84 119.111 36.92C119.111 37.37 119.141 38 119.171 38.84C119.231 39.65 119.261 40.28 119.261 40.7C119.261 42.77 118.631 43.82 117.341 43.82C116.831 43.82 116.261 43.61 115.691 43.19C115.061 42.8 114.131 41.99 112.901 40.82C111.671 39.62 110.321 38.24 108.851 36.68C107.381 35.09 106.451 34.13 106.061 33.74C106.031 34.07 106.001 35.03 105.971 36.65C105.941 38.24 105.911 39.71 105.851 41.06C105.791 42.41 105.701 43.22 105.611 43.52C105.371 44.27 104.711 44.81 103.901 44.81C102.431 44.81 101.921 43.22 101.921 41.45C101.921 39.98 102.041 37.73 102.311 34.76C102.581 31.76 102.731 29.51 102.731 28.04C102.731 26.69 103.571 25.43 104.861 25.43C105.491 25.43 106.031 25.73 106.511 26.33C108.761 29.15 111.761 32.27 115.541 35.72ZM127.01 31.28L126.83 33.08C130.7 32.6 133.4 32.36 134.93 32.36C136.76 32.36 137.66 32.93 137.66 34.07C137.66 34.97 137.27 35.69 136.49 36.23C135.5 36.86 132.23 37.43 126.68 37.91C126.68 38.27 126.59 39.17 126.44 40.61L129.59 40.16C132.44 39.68 134.48 39.44 136.49 39.44C137.6 39.44 138.14 40.01 138.14 41.18C138.14 42.38 137.24 43.31 136.16 43.79C135.62 44.03 134.96 44.24 134.15 44.39C132.59 44.72 131.57 44.78 130.22 44.87C129.98 44.87 129.83 44.9 129.68 44.9C129.29 44.93 128.66 45.05 127.79 45.29C126.92 45.53 126.26 45.65 125.75 45.65C123.5 45.65 122.3 43.79 122.3 41.51C122.3 40.97 122.36 40.19 122.51 39.2C122.66 38.21 122.75 37.52 122.78 37.13L122.96 33.47C123.05 31.61 123.14 30.2 123.23 29.21C123.35 28.22 123.8 27.29 124.58 26.48C125.39 25.67 126.29 25.13 127.28 24.92C130.37 24.23 133.25 23.9 135.86 23.9C136.67 23.9 137.42 24.05 138.11 24.38C138.8 24.68 139.16 25.16 139.16 25.85C139.16 26.45 138.86 27.02 138.26 27.56C137.69 28.07 137.06 28.4 136.43 28.55C135.56 28.73 134.09 28.91 131.99 29.09C129.89 29.24 128.3 29.48 127.19 29.78L127.01 31.28ZM154.506 38.24C154.506 37.88 153.786 37.64 152.856 37.52C151.926 37.4 151.266 37.37 150.786 37.37C150.216 37.37 149.376 37.4 148.236 37.46C147.126 37.52 146.286 37.55 145.716 37.55C142.026 37.55 140.196 36.83 140.196 35.39C140.196 33.95 141.066 32.24 142.776 30.26C144.516 28.28 146.466 26.6 148.626 25.25C150.786 23.87 152.496 23.18 153.756 23.18C155.826 23.18 157.566 24.44 157.566 26.48C157.566 27.29 157.326 28.07 156.846 28.76C156.366 29.45 155.736 29.78 154.956 29.78C154.326 29.78 153.606 29.42 152.826 28.73C152.676 28.46 152.136 28.04 151.896 28.04C151.086 28.04 150.006 28.52 148.626 29.48C147.246 30.44 146.196 31.31 145.476 32.12C145.986 32.27 146.886 32.36 148.206 32.36H149.916C150.666 32.33 151.146 32.33 151.416 32.33C152.976 32.33 154.236 32.42 156.246 32.81C158.286 33.17 159.606 34.16 159.606 35.6C159.606 36.38 159.186 37.4 158.346 38.63C157.116 40.46 155.436 42.17 153.306 43.79C151.176 45.41 149.226 46.22 147.456 46.22C145.326 46.22 140.766 45.08 140.766 42.35C140.766 40.88 141.456 40.13 142.836 40.13C143.586 40.13 144.696 40.28 146.166 40.58C147.636 40.88 148.776 41.03 149.526 41.03C151.416 41.03 153.336 39.83 154.506 38.24ZM175.026 37.7H174.726C174.096 37.7 173.136 37.76 171.906 37.85C170.676 37.94 169.746 37.97 169.116 37.97C168.126 37.97 166.836 37.88 165.156 37.55C163.506 37.22 162.276 36.47 162.276 35.48C162.276 35 162.456 34.43 162.846 33.8C163.236 33.17 163.596 32.63 163.956 32.24C164.346 31.82 164.886 31.25 165.576 30.56L166.806 29.3C168.096 27.95 169.656 26.69 171.516 25.49C173.406 24.26 175.026 23.66 176.406 23.66C178.806 23.66 180.756 24.74 180.756 26.99C180.756 27.8 180.486 28.55 179.916 29.3C179.346 30.02 178.686 30.38 177.906 30.38C177.126 30.38 176.706 30.14 176.316 29.9C176.106 29.78 175.866 29.3 175.746 29.15L175.236 28.13C175.026 28.04 174.846 27.98 174.666 27.98C173.676 27.98 172.476 28.52 171.126 29.6C169.776 30.65 168.696 31.73 167.886 32.78C168.456 33.05 169.356 33.17 170.616 33.17C171.426 33.17 172.686 33.11 174.366 33.02C176.046 32.9 177.306 32.84 178.146 32.84C179.076 32.84 179.976 33.11 180.846 33.62C181.746 34.13 182.196 34.79 182.196 35.66C182.196 36.11 182.076 36.56 181.866 37.07C180.786 39.53 179.046 41.63 176.646 43.34C174.276 45.05 171.786 45.92 169.206 45.92C167.676 45.92 166.266 45.56 165.036 44.84C163.806 44.15 163.176 43.1 163.176 41.69C163.176 40.61 164.166 40.1 165.336 40.1C166.356 40.04 168.366 40.76 169.296 40.97C169.986 41.12 170.946 41.21 172.176 41.21C173.886 41.21 175.596 39.95 176.796 38.3C176.646 37.91 176.046 37.7 175.026 37.7ZM201.584 45.17C198.854 45.17 196.694 44.39 195.044 42.8C193.424 41.21 192.614 39.05 192.614 36.32C192.614 32.72 193.574 29.78 195.524 27.5C197.474 25.22 200.234 24.08 203.744 24.08C208.964 24.08 214.154 27.17 214.154 32.87C214.154 33.62 214.004 34.52 213.734 35.57C213.134 37.97 212.144 39.86 210.764 41.27C209.414 42.65 207.494 43.79 205.064 44.66C204.134 44.99 202.964 45.17 201.584 45.17ZM209.774 34.52C209.774 33.65 209.564 32.72 209.114 31.79C208.694 30.83 208.154 30.11 207.464 29.63C206.414 28.88 204.854 28.49 202.844 28.49C200.714 28.94 199.154 29.6 198.164 30.44C197.204 31.28 196.724 32.72 196.724 34.76C196.724 36.53 197.384 37.91 198.734 38.96C200.084 40.01 201.644 40.52 203.444 40.52C205.304 40.52 206.834 39.98 208.004 38.9C209.174 37.79 209.774 36.35 209.774 34.52ZM227.791 42.35C224.251 44.3 221.461 45.26 219.391 45.26C218.341 45.26 217.621 45.08 217.231 44.72C216.931 44.45 216.691 43.55 216.541 42.02C216.391 40.49 216.331 39.2 216.331 38.15C216.331 36.92 216.481 34.79 216.811 31.7C217.141 28.61 217.471 26.81 217.801 26.33C218.131 25.88 218.491 25.67 218.911 25.67C219.361 25.67 219.811 25.94 220.291 26.45C220.801 26.96 221.041 27.41 221.041 27.83C221.041 28.64 220.951 29.84 220.741 31.4C220.531 32.96 220.441 34.13 220.441 34.91V39.77C221.731 39.65 223.411 39.05 224.401 38.54C224.911 38.27 225.601 37.94 226.411 37.49C227.251 37.04 227.851 36.74 228.241 36.56C228.301 36.05 228.331 35.51 228.331 34.97C228.361 34.16 228.421 32.96 228.451 31.4L228.571 28.28C228.571 27.95 228.541 27.05 228.541 26.66C228.541 24.68 229.141 23.69 230.311 23.69C231.361 23.69 232.051 24.23 232.321 25.19C232.651 26.15 232.681 26.81 232.681 27.98C232.681 29.87 232.531 33.02 232.201 37.43C231.871 41.81 231.571 44.33 231.271 44.99C230.971 45.59 230.551 45.89 229.981 45.89C229.351 45.89 228.841 45.47 228.421 44.63C228.001 43.82 227.791 43.04 227.791 42.35ZM253.518 42.68C253.518 43.88 252.198 44.39 250.878 44.39C250.068 44.39 248.118 43.25 244.998 41C244.608 40.7 244.158 40.43 243.678 40.16C243.228 39.89 242.598 39.59 241.848 39.23L240.468 38.54C240.678 40.61 240.798 41.99 240.798 42.74C240.798 44.15 240.018 45.47 238.698 45.47C237.828 45.47 237.258 44.72 236.958 43.25C236.748 42.08 236.598 40.82 236.478 39.47L236.208 34.91C236.118 33.23 236.058 31.94 235.968 31.04C235.938 30.71 235.878 30.14 235.728 29.27C235.608 28.4 235.548 27.71 235.548 27.23C235.548 26.42 236.208 25.67 237.528 24.95C238.878 24.2 240.048 23.75 241.098 23.57C242.568 23.3 243.918 23.18 245.178 23.18C246.618 23.18 247.788 23.39 248.688 23.84C249.588 24.29 250.368 24.98 250.998 25.94C251.628 26.87 251.958 27.83 251.958 28.79C251.958 31.37 250.098 33.65 246.378 35.63C247.668 36.35 248.988 37.31 250.668 38.66C252.348 39.98 253.518 41.51 253.518 42.68ZM248.298 29.21C248.298 28.91 247.968 28.7 247.308 28.58C246.648 28.43 246.048 28.37 245.478 28.37C243.228 28.37 241.248 28.79 239.538 29.6L239.958 33.68C241.368 33.53 243.018 33.17 244.938 32.48C246.858 31.79 248.298 30.62 248.298 29.21ZM267.649 37.7H267.349C266.719 37.7 265.789 37.76 264.559 37.85C263.329 37.94 262.369 37.97 261.739 37.97C260.749 37.97 259.459 37.88 257.809 37.55C256.159 37.22 254.929 36.47 254.929 35.48C254.929 35 255.109 34.43 255.499 33.8C255.889 33.17 256.249 32.63 256.609 32.24C256.999 31.82 257.539 31.25 258.229 30.56L259.459 29.3C260.749 27.95 262.309 26.69 264.169 25.49C266.059 24.26 267.679 23.66 269.059 23.66C270.229 23.66 271.249 23.93 272.089 24.5C272.959 25.04 273.379 25.88 273.379 26.99C273.379 27.8 273.109 28.55 272.539 29.3C271.969 30.02 271.309 30.38 270.559 30.38C269.599 30.38 269.179 30.17 268.789 29.72L268.459 29.3C268.429 29.21 268.309 29.03 268.159 28.73L267.889 28.13C267.649 28.04 267.469 27.98 267.319 27.98C266.299 27.98 265.129 28.52 263.779 29.6C262.429 30.65 261.349 31.73 260.539 32.78C261.109 33.05 262.009 33.17 263.269 33.17C264.079 33.17 265.339 33.11 267.019 33.02C268.699 32.9 269.959 32.84 270.799 32.84C271.729 32.84 272.629 33.11 273.499 33.62C274.399 34.13 274.849 34.79 274.849 35.66C274.849 36.02 274.729 36.5 274.519 37.07C273.409 39.53 271.669 41.63 269.269 43.34C266.899 45.05 264.409 45.92 261.859 45.92C260.329 45.92 258.919 45.56 257.689 44.84C256.459 44.15 255.829 43.1 255.829 41.69C255.829 40.61 256.819 40.1 257.989 40.1C258.499 40.1 259.279 40.25 260.299 40.52L261.949 40.97C262.639 41.12 263.599 41.21 264.829 41.21C266.479 41.21 268.009 40.25 269.419 38.3C269.269 37.91 268.669 37.7 267.649 37.7ZM280.874 25.91C280.844 26.63 280.814 27.68 280.814 29.06C280.814 29.45 280.874 30.35 280.874 30.71C280.874 31.46 280.574 32.36 279.974 32.36C279.404 32.36 279.134 31.79 279.134 30.68C279.134 30.17 279.164 29.42 279.194 28.43C279.224 27.44 279.254 26.69 279.254 26.21C278.594 26.33 277.934 26.39 277.274 26.39C276.764 26.39 276.104 26.21 276.104 25.76C276.104 25.37 276.314 25.04 276.734 24.74C276.944 24.56 277.244 24.44 277.574 24.41C278.744 24.29 279.674 24.17 280.334 24.08C280.544 24.05 280.904 23.99 281.444 23.87C282.014 23.75 282.434 23.69 282.704 23.69C283.154 23.69 283.394 23.87 283.394 24.23C283.394 24.62 283.184 25.28 282.854 25.43C282.434 25.7 281.774 25.85 280.874 25.91ZM289.394 26.75C288.884 27.62 288.554 28.43 288.344 29.15C288.314 29.18 288.284 29.42 288.194 29.84C288.104 30.23 288.044 30.53 287.954 30.74C287.774 31.37 287.294 32.48 286.574 32.33C286.304 32.33 286.094 32.21 285.944 32C285.854 31.82 285.734 31.28 285.584 30.35C285.434 29.63 285.224 28.88 284.924 28.13L284.624 29.36C284.294 30.77 283.964 32.12 283.874 32.27C283.724 32.48 283.544 32.6 283.274 32.6C282.794 32.6 282.464 32.06 282.464 31.58C282.464 31.43 282.584 30.86 282.854 29.87C283.574 26.75 284.234 24.86 284.834 24.23C284.954 24.02 285.134 23.9 285.344 23.9C285.674 23.9 285.944 24.17 286.154 24.74L286.394 25.43C286.514 25.82 286.664 26.66 286.664 26.75C286.694 26.96 286.844 27.44 287.084 28.16C287.294 27.71 287.714 26.69 287.954 26.21C288.194 25.7 288.614 24.92 289.064 24.35C289.334 24.08 289.754 23.45 290.144 23.45C290.684 23.45 291.164 24.41 291.554 26.3C291.944 28.19 292.154 29.57 292.154 30.47C292.154 31.1 291.794 32 291.224 32C290.834 32 290.504 31.67 290.264 30.98C290.024 30.29 289.844 29.45 289.694 28.46C289.544 27.47 289.454 26.9 289.394 26.75ZM321.46 29.03C321.46 30.38 320.98 31.7 320.02 32.99C319.06 34.25 317.86 35.3 316.45 36.14C313.6 37.82 310.36 38.93 307.81 39.14C307.81 39.23 307.78 39.53 307.75 40.04C307.72 41 307.63 41.36 307.48 42.35C307.36 43.34 307.09 43.85 306.73 44.48C306.37 45.17 305.77 45.47 305.05 45.47C304.6 45.47 304.21 45.2 303.91 44.63C303.61 44.09 303.46 43.58 303.46 43.07C303.46 42.8 303.55 42.32 303.73 41.6C303.94 40.85 304.03 39.89 304.03 38.69C304.06 37.82 304.06 36.47 304.06 34.67V32.36C304.06 31.97 304.03 31.43 303.97 30.68C303.91 29.93 303.88 29.36 303.88 28.97C303.88 27.68 304.15 26.93 305.11 26.33C306.34 25.58 307.81 24.98 309.55 24.56C311.32 24.11 312.97 23.9 314.53 23.9C319.15 23.9 321.46 25.61 321.46 29.03ZM317.23 29.78C316.81 29.24 315.88 28.97 314.44 28.97C312.61 28.97 310.36 29.39 307.66 30.26C307.81 31.76 307.9 33.17 307.9 34.49C309.49 34.34 311.26 34.01 313.3 33.32C315.34 32.6 316.96 31.34 317.23 29.78ZM335.054 39.2C337.694 39.2 339.014 40.07 339.014 41.84C339.014 43.07 337.724 43.88 336.374 44.09C335.864 44.18 335.114 44.27 334.124 44.36C333.164 44.45 332.534 44.54 332.234 44.57C331.934 44.6 331.064 44.75 329.594 44.99C328.124 45.26 327.224 45.38 326.834 45.38C324.704 45.38 323.624 44.42 323.624 42.53C323.624 41.96 323.654 41.09 323.744 39.92C323.834 38.75 323.864 37.88 323.864 37.31V36.5C323.864 35.99 323.864 35.21 323.834 34.13C323.804 33.05 323.804 32.24 323.804 31.7C323.804 29.57 323.924 27.71 324.194 26.15C324.374 24.83 324.794 24.17 325.454 24.17C326.924 24.17 327.674 25.19 327.674 27.23C327.674 27.68 327.644 28.31 327.584 29.18C327.554 30.05 327.524 30.68 327.524 31.13C327.524 34.1 327.494 37.04 327.434 39.98C327.974 39.92 328.784 39.83 329.834 39.68C331.964 39.35 333.584 39.2 335.054 39.2ZM357.706 44.6C356.716 44.6 356.086 43.82 355.546 42.86C355.216 42.29 354.886 41.21 354.736 40.7L354.466 39.65L354.256 38.81C353.866 38.96 353.416 39.08 352.906 39.2C351.916 39.41 351.286 39.47 349.876 39.59L348.376 39.68C348.076 39.68 347.536 39.71 346.786 39.74C346.036 39.77 345.616 39.77 345.466 39.77C345.376 39.98 345.256 40.4 345.076 41.03C344.896 41.66 344.716 42.2 344.566 42.65C344.086 44.03 343.156 45.86 341.776 45.71C340.936 45.71 340.516 44.93 340.516 43.4C340.516 41.72 341.206 39.2 342.616 35.84C344.026 32.48 345.376 29.78 346.636 27.71L347.326 26.42L348.256 24.71C348.766 23.87 349.756 22.85 350.596 22.85C351.466 22.85 352.366 23.39 353.356 24.44C354.346 25.49 355.216 26.78 355.966 28.28C357.526 31.28 358.696 34.22 359.086 35.9C359.176 36.29 359.356 36.89 359.596 37.7C360.106 39.29 360.436 40.58 360.436 41.75C360.436 42.47 360.166 43.13 359.596 43.73C359.056 44.3 358.426 44.6 357.706 44.6ZM352.936 34.73C351.946 31.94 351.016 30.05 350.206 29.06C348.946 30.77 347.926 32.87 347.116 35.36H347.356C347.566 35.36 347.926 35.36 348.376 35.33C348.856 35.3 349.186 35.27 349.396 35.27C350.506 35.27 351.706 35.09 352.936 34.73ZM367.388 36.05L366.608 35.54L365.648 34.88L364.688 34.19C364.238 33.83 363.878 33.56 363.668 33.35C363.278 32.96 362.288 32.15 361.898 31.64C361.238 30.8 360.548 29.69 360.638 28.82C360.638 28.25 360.848 27.59 361.298 26.9C361.748 26.21 362.228 25.85 362.798 25.85C363.338 25.85 363.968 26.12 364.658 26.63C365.348 27.14 366.098 27.8 366.878 28.61C367.688 29.39 368.228 29.9 368.498 30.11L370.328 31.34L370.958 30.35C371.648 29.27 372.038 28.73 372.788 27.56C373.598 26.39 374.228 25.7 375.038 24.89C375.848 24.08 376.628 23.69 377.258 23.69C378.068 23.69 378.578 24.32 378.578 25.07C378.578 25.64 378.068 26.63 377.588 27.32L376.718 28.58L376.088 29.48C374.078 32.39 372.488 34.85 371.288 36.83C370.928 37.43 370.268 38.66 369.308 40.55C368.378 42.41 367.538 43.82 366.848 44.75C366.278 45.5 365.708 45.89 365.108 45.89C363.638 45.77 363.248 44.03 364.118 41.87C364.448 41.09 364.748 40.46 365.018 39.95C365.288 39.44 365.738 38.69 366.338 37.76C366.938 36.8 367.298 36.23 367.388 36.05ZM401.072 36.47C401.072 37.7 400.472 39.02 399.242 40.43C397.592 42.29 395.342 43.61 392.492 44.42C389.642 45.23 386.702 45.65 383.612 45.65C382.322 45.65 381.452 45.08 381.062 44.09C380.702 43.1 380.582 42.23 380.582 41C380.582 39.59 380.672 37.55 380.882 34.94C381.092 32.33 381.212 30.5 381.242 29.45C381.272 28.46 381.422 27.71 381.662 27.2C381.902 26.69 382.412 26.15 383.222 25.64C384.212 25.01 385.772 24.44 387.902 23.93C390.032 23.39 391.772 23.12 393.062 23.12C394.412 23.12 395.612 23.51 396.692 24.26C397.772 25.01 398.312 26.03 398.312 27.32C398.312 28.79 397.832 30.32 396.842 31.91C399.152 32.63 401.072 34.28 401.072 36.47ZM396.512 38.06C396.512 37.67 396.002 37.34 395.012 37.07C394.022 36.8 393.242 36.65 392.642 36.65C390.392 36.65 387.752 37.13 384.692 38.12C384.602 39.05 384.542 39.89 384.542 40.61H385.622C386.972 40.61 389.132 40.37 392.072 39.86C395.042 39.35 396.512 38.75 396.512 38.06ZM384.782 33.08C388.652 32.39 391.232 31.7 392.552 31.07C393.542 30.62 394.052 30.11 394.052 29.6C393.932 28.67 393.242 28.61 392.372 28.61C390.482 28.61 387.992 29.21 384.872 30.44C384.872 31.31 384.842 32.18 384.782 33.08ZM411.743 45.17C409.013 45.17 406.853 44.39 405.203 42.8C403.583 41.21 402.773 39.05 402.773 36.32C402.773 32.72 403.733 29.78 405.683 27.5C407.633 25.22 410.393 24.08 413.903 24.08C419.123 24.08 424.313 27.17 424.313 32.87C424.313 33.62 424.163 34.52 423.893 35.57C423.293 37.97 422.303 39.86 420.923 41.27C419.573 42.65 417.653 43.79 415.223 44.66C414.293 44.99 413.123 45.17 411.743 45.17ZM419.933 34.52C419.933 33.65 419.723 32.72 419.273 31.79C418.853 30.83 418.313 30.11 417.623 29.63C416.573 28.88 415.013 28.49 413.003 28.49C410.873 28.94 409.313 29.6 408.323 30.44C407.363 31.28 406.883 32.72 406.883 34.76C406.883 36.53 407.543 37.91 408.893 38.96C410.243 40.01 411.803 40.52 413.603 40.52C415.463 40.52 416.993 39.98 418.163 38.9C419.333 37.79 419.933 36.35 419.933 34.52ZM435.593 45.17C433.193 45.17 431.123 44.27 429.383 42.44C427.673 40.61 426.803 38.51 426.803 36.08C426.713 29.09 432.773 24.17 439.553 24.32C440.663 24.32 441.803 24.62 443.033 25.25C444.263 25.88 445.283 26.6 446.063 27.47C446.663 28.1 447.113 29 447.413 30.11C447.713 31.22 447.863 32.33 447.863 33.41C447.863 35.15 447.503 36.71 446.783 38.06C445.793 39.95 444.173 41.6 441.983 43.04C439.793 44.45 437.663 45.17 435.593 45.17ZM439.133 29.45C437.783 29.45 436.493 29.66 435.293 30.08C434.093 30.5 433.043 31.22 432.173 32.21C431.303 33.2 430.883 34.37 430.883 35.75C430.883 37.16 431.423 38.24 432.473 38.96C433.523 39.68 434.813 40.04 436.313 40.04C437.423 40.04 438.533 39.86 439.613 39.5C440.723 39.14 441.683 38.54 442.493 37.73C443.303 36.89 443.723 35.9 443.723 34.76C443.723 33.74 443.393 32.63 442.763 31.43C442.133 30.23 441.353 29.57 440.453 29.48C440.183 29.45 439.733 29.45 439.133 29.45ZM464.411 44.9C463.871 44.9 463.121 44.51 462.161 43.73C461.231 42.95 460.211 42.05 459.101 41.03C458.021 40.01 457.211 39.35 456.701 39.02C455.831 38.48 455.111 38.09 454.511 37.82L454.421 41.51C454.421 41.96 454.631 43.1 454.631 43.58C454.631 44.87 453.911 46.07 452.681 46.07C451.631 46.07 450.941 45.35 450.671 44.12C450.401 42.89 450.341 42.02 450.341 40.7C450.341 38.87 450.401 36.14 450.551 32.54C450.701 28.94 450.851 26.9 451.031 26.42C451.391 25.31 452.171 24.44 453.161 24.44C454.361 24.44 454.991 25.19 454.991 26.39C454.991 26.72 454.931 27.17 454.841 27.77C454.751 28.34 454.721 28.79 454.721 29.06C454.661 29.81 454.631 30.95 454.631 32.45C454.931 32.21 455.471 31.79 456.251 31.22C457.811 30.05 458.831 29.21 459.701 28.22C461.861 25.85 463.421 24.41 464.381 23.84C464.771 23.63 465.101 23.51 465.341 23.51C466.571 23.51 467.201 23.99 467.201 24.92C467.201 25.85 466.301 27.2 464.711 28.67C463.931 29.42 463.211 30.05 462.581 30.62C461.951 31.16 461.171 31.79 460.271 32.48C459.371 33.17 458.831 33.59 458.681 33.74C460.001 34.55 461.711 35.84 463.421 37.43C465.191 38.99 466.481 40.88 466.481 42.2C466.481 43.55 465.701 44.9 464.411 44.9Z" fill="black"/>
<path d="M808.939 45.17C806.539 45.17 804.469 44.27 802.729 42.44C801.019 40.61 800.149 38.51 800.149 36.08C800.059 29.09 806.119 24.17 812.899 24.32C814.009 24.32 815.149 24.62 816.379 25.25C817.609 25.88 818.629 26.6 819.409 27.47C820.009 28.1 820.459 29 820.759 30.11C821.059 31.22 821.209 32.33 821.209 33.41C821.209 35.18 820.849 36.71 820.099 38.06C819.109 39.95 817.519 41.6 815.329 43.04C813.139 44.45 811.009 45.17 808.939 45.17ZM812.479 29.45C811.129 29.45 809.839 29.66 808.639 30.08C807.439 30.5 806.389 31.22 805.519 32.21C804.649 33.2 804.229 34.37 804.229 35.75C804.229 37.16 804.769 38.24 805.819 38.96C806.869 39.68 808.159 40.04 809.659 40.04C811.459 40.04 813.139 39.59 814.699 38.66C816.259 37.73 817.039 36.41 817.039 34.76C817.039 33.74 816.709 32.63 816.079 31.43C815.449 30.23 814.699 29.57 813.799 29.48C813.529 29.45 813.079 29.45 812.479 29.45ZM835.041 41.75C833.811 42.5 832.191 43.31 830.211 44.18C828.261 45.05 826.761 45.5 825.771 45.5C824.961 45.5 824.361 45.17 823.971 44.48C823.731 44.03 823.521 43.07 823.371 41.6C823.221 40.13 823.131 38.93 823.131 38.06C823.131 37.19 823.341 35.09 823.791 31.79C824.241 28.49 824.601 26.66 824.871 26.3C825.111 25.91 825.471 25.73 825.951 25.73C827.271 25.73 827.931 26.93 827.931 29.36C827.931 30.77 827.811 32.06 827.571 33.17C827.301 34.34 827.181 35.87 827.181 37.73V39.56C828.891 39.08 831.531 37.73 835.041 35.51C835.041 34.34 835.011 32.6 834.981 30.29C834.951 27.98 834.951 26.24 834.951 25.07C834.951 24.32 836.031 23.57 836.781 23.57C838.161 23.57 838.851 25.55 838.851 29.54V29.96C838.851 30.98 838.881 32.51 838.911 34.52C838.941 36.53 838.971 38.06 838.971 39.05V39.68C838.971 43.55 838.251 45.47 836.781 45.47C836.151 45.47 835.701 45.05 835.431 44.21C835.161 43.37 835.041 42.56 835.041 41.75ZM858.715 44.27C858.055 44.27 857.125 43.91 855.895 43.16C852.445 41.12 849.145 39.65 846.055 38.72C846.235 41.72 846.325 43.22 846.325 43.25C846.325 44.54 845.575 45.71 844.345 45.71C843.655 45.71 843.025 45.2 842.815 44.51C842.395 43.52 842.185 38.09 842.185 28.22C842.185 27.23 842.755 26.48 843.925 25.97C845.095 25.37 846.505 24.86 848.155 24.44C849.805 23.99 851.215 23.78 852.445 23.78C856.975 23.78 859.225 25.16 859.225 27.89C859.225 29.39 858.565 30.83 857.245 32.21C855.955 33.59 854.485 34.7 852.835 35.57C854.245 36.05 855.895 36.86 857.665 37.97C859.465 39.08 860.785 40.61 860.785 42.02C860.785 43.37 860.065 44.27 858.715 44.27ZM845.905 30.44V31.37C845.905 32.54 845.935 33.41 845.965 33.98C847.045 33.77 848.815 33.29 850.825 32.54C852.865 31.79 854.485 30.65 854.485 29.6C854.485 29.33 854.155 29.15 853.525 29.06C852.895 28.94 852.295 28.88 851.785 28.88C849.835 28.88 847.885 29.39 845.905 30.44ZM862.874 41.27C862.874 40.04 864.254 39.53 865.604 39.53C866.354 39.53 867.434 39.74 868.874 40.16C870.344 40.55 871.424 40.76 872.144 40.76C874.064 40.76 876.104 39.53 876.824 37.82C876.134 37.61 875.054 37.49 873.554 37.49C873.044 37.49 872.354 37.52 871.424 37.55C870.524 37.58 869.894 37.58 869.564 37.58C868.394 37.58 866.804 37.4 865.004 36.95C863.234 36.47 861.854 35.51 861.854 34.31C861.854 32.9 864.164 30.47 868.814 27.05C870.104 26.06 871.544 25.22 873.074 24.47C874.634 23.72 876.044 23.36 877.304 23.36C878.294 23.36 879.194 23.72 880.064 24.41C880.934 25.1 881.354 25.94 881.354 26.9C881.354 28.67 880.064 30.02 878.264 30.02C876.764 30.02 876.944 27.89 874.664 27.89C873.884 27.89 872.774 28.4 871.334 29.42C869.924 30.44 868.814 31.37 868.064 32.18C868.514 32.63 869.714 32.84 871.694 32.84C872.144 32.84 872.744 32.84 873.434 32.81C874.154 32.78 874.604 32.75 874.754 32.75C879.704 32.75 882.194 33.77 882.194 35.81C882.194 36.98 881.534 38.3 880.244 39.77C878.954 41.24 877.514 42.5 875.894 43.55C874.274 44.6 872.894 45.23 871.724 45.5C870.974 45.65 870.254 45.74 869.504 45.74C867.974 45.74 866.504 45.35 865.034 44.54C863.594 43.73 862.874 42.65 862.874 41.27ZM882.652 43.52C882.652 42.53 883.132 41.69 884.092 41C885.052 40.31 886.042 39.95 887.092 39.95C888.622 39.95 889.912 40.67 889.912 42.11C889.912 42.95 889.342 43.73 888.202 44.42C887.062 45.11 886.042 45.47 885.112 45.47C883.792 45.47 882.652 44.81 882.652 43.52ZM911.927 36.74C911.927 38.09 910.967 39.68 909.017 41.51C907.547 42.89 905.687 43.91 903.377 44.57C901.067 45.26 898.757 45.59 896.387 45.59C895.817 45.59 895.277 45.56 894.767 45.47C893.777 45.32 892.577 44.63 892.577 43.52C892.577 43.19 892.607 42.68 892.637 42.05C892.667 41.42 892.697 41 892.697 40.79C892.787 39.08 892.817 36.47 892.817 32.99C892.817 32.48 892.757 31.79 892.667 30.92C892.577 30.02 892.517 29.39 892.517 29.03C892.517 27.68 892.907 26.69 893.687 26.09C894.437 25.52 895.727 25.01 897.557 24.56C899.387 24.11 900.857 23.9 902.027 23.9C904.337 23.9 908.297 24.68 908.297 27.62C908.297 28.97 907.367 30.56 905.537 32.36C909.797 32.93 911.927 34.37 911.927 36.74ZM907.607 38.3C907.037 37.85 906.227 37.49 905.177 37.28C904.127 37.04 903.137 36.92 902.237 36.92C900.587 36.92 898.667 37.19 896.537 37.7L896.567 40.76H897.107C898.727 40.76 900.707 40.55 903.077 40.1C905.447 39.65 906.977 39.05 907.607 38.3ZM896.477 30.05L896.537 32.84C897.647 32.57 899.147 32 901.097 31.19C903.047 30.35 904.007 29.66 904.007 29.15C903.917 29.03 903.587 28.94 902.957 28.85C902.357 28.76 901.907 28.7 901.577 28.7C899.747 28.7 898.067 29.15 896.477 30.05ZM928.604 25.43C928.604 25.94 928.394 26.48 927.944 27.08C927.584 27.65 927.014 28.43 926.264 29.45C925.514 30.47 924.974 31.25 924.644 31.76L922.364 35.15C921.014 37.16 920.024 38.69 919.394 39.77C921.974 39.26 924.014 39.02 925.514 39.02C926.954 39.02 927.704 39.35 927.704 40.7C927.704 42.02 926.594 43.43 925.364 43.94C925.064 44.09 923.384 44.39 920.354 44.9C917.324 45.41 915.644 45.65 915.314 45.65C914.144 45.65 912.884 45.05 912.884 43.94C912.884 43.49 913.094 42.86 913.484 42.11C913.874 41.33 914.444 40.43 915.134 39.38L916.304 37.58C916.544 37.22 916.874 36.68 917.264 35.99C917.654 35.27 917.954 34.76 918.164 34.43C918.524 33.83 919.124 32.96 919.934 31.85C920.744 30.71 921.344 29.87 921.674 29.3C921.524 29.33 921.164 29.42 920.624 29.51L919.424 29.72C919.064 29.81 918.524 29.99 917.774 30.26C916.334 30.77 915.224 31.1 914.144 31.1C912.974 31.1 912.374 30.2 912.374 29.03C912.374 27.44 913.784 26.18 915.464 25.43C915.794 25.28 916.844 25.07 918.554 24.74C920.294 24.41 921.494 24.2 922.124 24.11C924.464 23.93 925.664 23.84 925.694 23.84C927.644 23.84 928.604 24.38 928.604 25.43Z" fill="black"/>
<line x1="30" y1="58" x2="930" y2="58" stroke="black" stroke-width="4"/>
<path d="M65.58 114.82H59.34V124H49.8V114.82H30.6V108.28L48.66 82.3H59.34V107.74H65.58V114.82ZM50.16 95.74C50.16 93.58 50.16 92.62 50.28 91.12H50.16C49.62 92.5 48.9 93.64 47.76 95.38L41.82 104.14C40.62 105.88 39.9 106.84 39.06 107.74H50.16V95.74ZM86.4619 124L78.4219 94H87.6019L91.3819 112.36C91.5019 113.2 91.6819 114.22 91.8019 115.24H91.9219C92.0419 114.22 92.1619 113.2 92.4019 112.36L96.7819 94H104.942L109.322 112.36C109.502 113.2 109.682 114.22 109.802 115.24H109.922C110.042 114.22 110.162 113.2 110.342 112.36L114.062 94H123.242L115.262 124H105.902L101.342 106.3C101.102 105.52 100.982 104.5 100.922 103.78H100.802C100.742 104.5 100.562 105.52 100.382 106.3L95.8219 124H86.4619ZM134.022 124.72C127.842 124.72 123.702 121.18 123.702 115.84C123.702 113.02 124.722 110.8 126.762 109.36C128.742 107.98 131.622 107.02 136.182 106.42L143.442 105.4V104.38C143.442 100.96 142.002 99.46 139.002 99.46C136.062 99.46 134.382 101.02 134.202 103.9H124.662C125.142 97.24 130.542 93.28 139.062 93.28C148.722 93.28 153.042 97.06 153.042 105.7V115.66C153.042 119.2 153.342 122.14 153.882 124H144.522C144.222 122.56 144.102 120.94 144.042 119.26C142.542 122.62 138.702 124.72 134.022 124.72ZM137.622 118.6C141.282 118.6 143.742 116.14 143.742 112.54V110.14L138.582 110.98C135.042 111.64 133.422 112.9 133.422 115.12C133.422 117.22 135.102 118.6 137.622 118.6ZM160.168 136.12C159.268 136.12 157.768 135.94 156.208 135.76V128.68C158.008 128.92 158.728 128.98 159.568 128.98C162.748 128.98 164.488 127.84 165.328 125.08L165.748 123.82L154.288 94H164.728L170.008 112.24C170.368 113.5 170.548 114.46 170.668 115.72H170.848C170.908 114.7 171.148 113.74 171.568 112.24L176.428 94H186.088L175.348 125.32C172.708 133.12 168.148 136.12 160.168 136.12ZM199.681 124.72C193.081 124.72 187.681 122.26 184.801 117.52L190.381 113.32C192.481 116.56 195.721 118.18 199.861 118.18C202.981 118.18 204.541 117.22 204.541 115.54C204.541 113.74 203.581 113.08 200.281 112.6L195.961 112C189.481 111.04 186.421 107.86 186.421 102.76C186.421 96.94 191.341 93.28 199.621 93.28C205.681 93.28 210.781 95.5 213.241 99.22L208.261 103.72C206.041 101.2 203.041 99.7 199.321 99.7C196.441 99.7 195.121 100.48 195.121 102.16C195.121 103.6 196.021 104.38 198.661 104.74L204.001 105.58C210.421 106.48 212.941 109.66 212.941 114.82C212.941 120.94 208.081 124.72 199.681 124.72ZM226.158 100.42V94H231.378V86.8L240.978 83.08V94H248.118V100.42H240.978V112.12C240.978 115.12 242.478 116.68 245.358 116.68C246.498 116.68 247.218 116.56 248.118 116.38V124C245.898 124.42 244.398 124.6 242.658 124.6C234.678 124.6 231.378 120.94 231.378 114.4V100.42H226.158ZM265.141 124.72C256.321 124.72 249.601 119.26 249.601 108.94C249.601 98.62 256.321 93.28 265.141 93.28C274.021 93.28 280.741 98.62 280.741 108.94C280.741 119.26 274.021 124.72 265.141 124.72ZM265.141 118.06C268.921 118.06 271.141 115.06 271.141 108.94C271.141 102.76 268.921 99.94 265.141 99.94C261.421 99.94 259.201 102.76 259.201 108.94C259.201 115.06 261.421 118.06 265.141 118.06ZM308.834 124.72C301.634 124.72 296.834 118.48 296.834 109.12C296.834 99.58 301.874 93.28 309.374 93.28C313.334 93.28 316.334 94.9 317.834 98.02V80.5H327.434V124H318.314V118.84C316.814 122.44 313.214 124.72 308.834 124.72ZM312.614 118.06C315.914 118.06 317.954 115.12 317.954 110.44V107.86C317.954 102.76 315.914 99.94 312.494 99.94C308.834 99.94 306.734 103.18 306.734 108.94C306.734 114.58 308.954 118.06 312.614 118.06ZM334.528 89.68V80.92H344.548V89.68H334.528ZM334.648 124V94H344.308V124H334.648ZM369.503 94V100.42H362.543V124H352.943V100.42H348.143V94H352.943V91.18C352.943 84.04 357.083 80.14 364.703 80.14C366.383 80.14 368.003 80.32 369.503 80.68V87.58C368.483 87.4 367.463 87.28 366.563 87.28C363.923 87.28 362.543 88.72 362.543 91.42V94H369.503ZM393.44 94V100.42H386.48V124H376.88V100.42H372.08V94H376.88V91.18C376.88 84.04 381.02 80.14 388.64 80.14C390.32 80.14 391.94 80.32 393.44 80.68V87.58C392.42 87.4 391.4 87.28 390.5 87.28C387.86 87.28 386.48 88.72 386.48 91.42V94H393.44ZM424.099 108.28V111.16H403.279C403.339 115.24 406.159 117.82 410.179 117.82C413.119 117.82 415.339 116.38 416.719 113.62L423.799 116.86C421.399 121.78 416.299 124.72 410.059 124.72C400.159 124.72 394.159 119.02 394.159 109.3C394.159 99.46 400.039 93.28 409.399 93.28C418.819 93.28 424.099 98.74 424.099 108.28ZM414.799 105.76V105.52C414.799 101.26 412.819 98.98 409.219 98.98C405.499 98.98 403.399 101.5 403.279 105.76H414.799ZM437.99 101.74C439.55 96.34 442.85 93.28 448.01 93.28H448.61V102.46C448.01 102.4 447.53 102.4 446.81 102.4C444.23 102.4 442.31 103.06 440.99 104.2C439.07 106 438.59 108.7 438.59 111.76V124H428.93V94H437.99V101.74ZM479.648 108.28V111.16H458.828C458.888 115.24 461.708 117.82 465.728 117.82C468.668 117.82 470.888 116.38 472.268 113.62L479.348 116.86C476.948 121.78 471.848 124.72 465.608 124.72C455.708 124.72 449.708 119.02 449.708 109.3C449.708 99.46 455.588 93.28 464.948 93.28C474.368 93.28 479.648 98.74 479.648 108.28ZM470.348 105.76V105.52C470.348 101.26 468.368 98.98 464.768 98.98C461.048 98.98 458.948 101.5 458.828 105.76H470.348ZM484.479 124V94H493.719V99.76C495.819 95.38 499.119 93.22 503.679 93.22C510.159 93.22 513.459 97.36 513.459 105.4V124H503.859V106.72C503.859 102.58 502.419 100.6 499.359 100.6C495.999 100.6 494.139 103.18 494.139 107.8V124H484.479ZM515.536 100.42V94H520.756V86.8L530.356 83.08V94H537.496V100.42H530.356V112.12C530.356 115.12 531.856 116.68 534.736 116.68C535.876 116.68 536.596 116.56 537.496 116.38V124C535.276 124.42 533.776 124.6 532.036 124.6C524.056 124.6 520.756 120.94 520.756 114.4V100.42H515.536ZM541.725 89.68V80.92H551.745V89.68H541.725ZM541.845 124V94H551.505V124H541.845ZM566.2 124.72C560.02 124.72 555.88 121.18 555.88 115.84C555.88 113.02 556.9 110.8 558.94 109.36C560.92 107.98 563.8 107.02 568.36 106.42L575.62 105.4V104.38C575.62 100.96 574.18 99.46 571.18 99.46C568.24 99.46 566.56 101.02 566.38 103.9H556.84C557.32 97.24 562.72 93.28 571.24 93.28C580.9 93.28 585.22 97.06 585.22 105.7V115.66C585.22 119.2 585.52 122.14 586.06 124H576.7C576.4 122.56 576.28 120.94 576.22 119.26C574.72 122.62 570.88 124.72 566.2 124.72ZM569.8 118.6C573.46 118.6 575.92 116.14 575.92 112.54V110.14L570.76 110.98C567.22 111.64 565.6 112.9 565.6 115.12C565.6 117.22 567.28 118.6 569.8 118.6ZM586.819 100.42V94H592.039V86.8L601.639 83.08V94H608.779V100.42H601.639V112.12C601.639 115.12 603.139 116.68 606.019 116.68C607.159 116.68 607.879 116.56 608.779 116.38V124C606.559 124.42 605.059 124.6 603.319 124.6C595.339 124.6 592.039 120.94 592.039 114.4V100.42H586.819ZM640.202 108.28V111.16H619.382C619.442 115.24 622.262 117.82 626.282 117.82C629.222 117.82 631.442 116.38 632.822 113.62L639.902 116.86C637.502 121.78 632.402 124.72 626.162 124.72C616.262 124.72 610.262 119.02 610.262 109.3C610.262 99.46 616.142 93.28 625.502 93.28C634.922 93.28 640.202 98.74 640.202 108.28ZM630.902 105.76V105.52C630.902 101.26 628.922 98.98 625.322 98.98C621.602 98.98 619.502 101.5 619.382 105.76H630.902Z" fill="black"/>
<g style="mix-blend-mode:color">
<rect width="960" height="960" fill="url(#paint0_linear_2_138)"/>
</g>
</g>
<defs>
<linearGradient id="paint0_linear_2_138" x1="480" y1="0" x2="480" y2="960" gradientUnits="userSpaceOnUse">
<stop stop-color="#CBC4F7"/>
<stop offset="1" stop-color="#EEB3FD"/>
</linearGradient>
<clipPath id="clip0_2_138">
<rect width="960" height="960" rx="30" fill="white"/>
</clipPath>
</defs>
</svg>
