<svg width="960" height="960" viewBox="0 0 960 960" fill="none" xmlns="http://www.w3.org/2000/svg">
<g clip-path="url(#clip0_1_7)">
<rect width="960" height="960" rx="30" fill="white"/>
<rect y="200" width="840" height="760" fill="#D9D9D9"/>
<rect y="390" width="720" height="570" fill="#9D9D9D"/>
<rect y="580" width="600" height="380" fill="#666666"/>
<rect y="770" width="480" height="190" fill="#333333"/>
<path d="M74.16 289.68C65.64 289.68 60.16 283.92 60.16 274.8C60.16 265.64 65.64 259.92 74.16 259.92C82.68 259.92 88.16 265.64 88.16 274.8C88.16 283.96 82.68 289.68 74.16 289.68ZM74.16 284.4C78.6 284.4 81.2 280.8 81.2 274.8C81.2 268.8 78.6 265.2 74.16 265.2C69.72 265.2 67.08 268.8 67.08 274.8C67.08 280.76 69.72 284.4 74.16 284.4ZM97.9925 289.48C93.2725 289.48 91.2725 286.64 91.2725 281.96V269H97.6725V280.84C97.6725 283.32 98.6725 284.6 100.553 284.6C102.633 284.6 103.913 282.96 103.913 280.44V269H110.353V289H104.233V285.36C103.273 287.88 100.913 289.48 97.9925 289.48ZM112.814 273.28V269H116.294V264.2L122.694 261.72V269H127.454V273.28H122.694V281.08C122.694 283.08 123.694 284.12 125.614 284.12C126.374 284.12 126.854 284.04 127.454 283.92V289C125.974 289.28 124.974 289.4 123.814 289.4C118.494 289.4 116.294 286.96 116.294 282.6V273.28H112.814ZM129.287 275.16H142.367V280.6H129.287V275.16ZM155.483 289.48C149.603 289.48 145.123 285.84 145.123 278.96C145.123 272.08 149.603 268.52 155.483 268.52C161.403 268.52 165.883 272.08 165.883 278.96C165.883 285.84 161.403 289.48 155.483 289.48ZM155.483 285.04C158.003 285.04 159.483 283.04 159.483 278.96C159.483 274.84 158.003 272.96 155.483 272.96C153.003 272.96 151.523 274.84 151.523 278.96C151.523 283.04 153.003 285.04 155.483 285.04ZM181.139 269V273.28H176.499V289H170.099V273.28H166.899V269H170.099V267.12C170.099 262.36 172.859 259.76 177.939 259.76C179.059 259.76 180.139 259.88 181.139 260.12V264.72C180.459 264.6 179.779 264.52 179.179 264.52C177.419 264.52 176.499 265.48 176.499 267.28V269H181.139ZM182.774 275.16H195.854V280.6H182.774V275.16ZM199.896 269H206.056V272.6C207.336 269.84 209.256 268.48 212.216 268.48C215.056 268.48 216.896 269.8 217.896 272.64C219.336 269.84 221.416 268.48 224.296 268.48C228.176 268.48 230.456 271.24 230.456 275.92V289H224.056V277.28C224.056 274.6 223.216 273.4 221.376 273.4C219.456 273.4 218.376 274.84 218.376 277.52V289H211.976V277.24C211.976 274.64 211.096 273.4 209.336 273.4C207.416 273.4 206.336 274.88 206.336 277.56V289H199.896V269ZM235.002 266.12V260.28H241.682V266.12H235.002ZM235.082 289V269H241.522V289H235.082ZM246.478 289V269H252.638V272.84C254.038 269.92 256.238 268.48 259.278 268.48C263.598 268.48 265.798 271.24 265.798 276.6V289H259.398V277.48C259.398 274.72 258.438 273.4 256.398 273.4C254.158 273.4 252.918 275.12 252.918 278.2V289H246.478ZM277.053 289.48C272.253 289.48 269.053 285.32 269.053 279.08C269.053 272.72 272.413 268.52 277.413 268.52C280.053 268.52 282.053 269.6 283.053 271.68V260H289.453V289H283.373V285.56C282.373 287.96 279.973 289.48 277.053 289.48ZM279.573 285.04C281.773 285.04 283.133 283.08 283.133 279.96V278.24C283.133 274.84 281.773 272.96 279.493 272.96C277.053 272.96 275.653 275.12 275.653 278.96C275.653 282.72 277.133 285.04 279.573 285.04ZM313.103 278.52V280.44H299.223C299.263 283.16 301.143 284.88 303.823 284.88C305.783 284.88 307.263 283.92 308.183 282.08L312.903 284.24C311.303 287.52 307.903 289.48 303.743 289.48C297.143 289.48 293.143 285.68 293.143 279.2C293.143 272.64 297.063 268.52 303.303 268.52C309.583 268.52 313.103 272.16 313.103 278.52ZM306.903 276.84V276.68C306.903 273.84 305.583 272.32 303.183 272.32C300.703 272.32 299.303 274 299.223 276.84H306.903ZM322.764 274.16C323.804 270.56 326.004 268.52 329.444 268.52H329.844V274.64C329.444 274.6 329.124 274.6 328.644 274.6C326.924 274.6 325.644 275.04 324.764 275.8C323.484 277 323.164 278.8 323.164 280.84V289H316.724V269H322.764V274.16ZM340.452 289.48C336.052 289.48 332.452 287.84 330.532 284.68L334.252 281.88C335.652 284.04 337.812 285.12 340.572 285.12C342.652 285.12 343.692 284.48 343.692 283.36C343.692 282.16 343.052 281.72 340.852 281.4L337.972 281C333.652 280.36 331.612 278.24 331.612 274.84C331.612 270.96 334.892 268.52 340.412 268.52C344.452 268.52 347.852 270 349.492 272.48L346.172 275.48C344.692 273.8 342.692 272.8 340.212 272.8C338.292 272.8 337.412 273.32 337.412 274.44C337.412 275.4 338.012 275.92 339.772 276.16L343.332 276.72C347.612 277.32 349.292 279.44 349.292 282.88C349.292 286.96 346.052 289.48 340.452 289.48ZM65.64 329L60 309H63.52L67.12 323.28C67.28 324 67.44 324.84 67.56 325.64H67.64C67.76 324.84 68 324 68.16 323.28L71.8 309H75.48L79.12 323.28C79.28 324 79.52 324.84 79.64 325.64H79.72C79.84 324.84 80 324 80.16 323.28L83.76 309H87.28L81.64 329H77.92L74.12 314.6C73.96 313.96 73.76 312.96 73.68 312.36H73.6C73.52 312.96 73.32 313.96 73.16 314.6L69.36 329H65.64ZM98.6263 329.48C92.9863 329.48 89.3063 325.52 89.3063 319C89.3063 312.48 92.9863 308.52 98.6263 308.52C104.266 308.52 107.946 312.48 107.946 319C107.946 325.52 104.266 329.48 98.6263 329.48ZM98.6263 326.52C102.226 326.52 104.346 323.96 104.346 319C104.346 314.04 102.226 311.48 98.6263 311.48C95.0263 311.48 92.9063 314.04 92.9063 319C92.9063 323.96 95.0263 326.52 98.6263 326.52ZM112.933 329V309H116.133V312.96C117.453 309.92 119.653 308.44 122.813 308.44C127.213 308.44 129.493 311.2 129.493 316.56V329H126.093V316.76C126.093 313.24 124.613 311.44 121.693 311.44C118.373 311.44 116.333 314.12 116.333 318.56V329H112.933ZM134.766 310.92L133.846 309.16C135.846 308.28 136.246 307.4 136.246 305.44V305.32H133.686V300.6H138.366V305.04C138.366 308.24 137.526 309.76 134.766 310.92ZM142.141 311.8V309H145.861V303.76L149.261 302.32V309H154.261V311.8H149.261V322.88C149.261 325.16 150.141 326.16 152.181 326.16C153.061 326.16 153.581 326.04 154.261 325.88V329C153.381 329.24 152.581 329.36 151.301 329.36C146.981 329.36 145.861 326.72 145.861 323V311.8H142.141ZM178.593 329.48C175.553 329.48 173.273 327.88 172.233 325.56L171.633 329H169.033V300H172.433V312.48C173.473 310.24 175.673 308.52 178.793 308.52C183.673 308.52 186.833 312.88 186.833 319C186.833 325.24 183.593 329.48 178.593 329.48ZM177.673 326.48C181.153 326.48 183.233 323.56 183.233 319C183.233 314.52 181.273 311.52 177.713 311.52C174.353 311.52 172.353 314.2 172.353 318.56V319.6C172.353 323.76 174.313 326.48 177.673 326.48ZM198.071 329.48C193.031 329.48 191.231 326.44 191.231 321.76V309H194.631V321.36C194.631 324.72 196.071 326.56 198.711 326.56C201.911 326.56 204.071 323.84 204.071 319.76V309H207.471V329H204.271V325.24C203.351 327.68 200.871 329.48 198.071 329.48ZM214.363 337.04C213.763 337.04 213.163 337 212.523 336.88V333.88C213.043 333.92 213.523 333.96 213.963 333.96C216.363 333.96 217.603 332.88 218.523 330.24L219.043 328.76L211.083 309H214.883L220.003 322.92C220.363 323.92 220.563 324.72 220.683 325.28H220.763C220.883 324.72 221.123 323.92 221.443 322.92L226.083 309H229.763L221.963 330.28C220.123 335.36 217.723 337.04 214.363 337.04ZM251.435 309V311.8H246.435V329H243.035V311.8H239.355V309H243.035V305.84C243.035 302.2 245.315 299.76 248.875 299.76C249.835 299.76 250.675 299.84 251.435 300.04V302.96C250.715 302.84 249.955 302.76 249.315 302.76C247.275 302.76 246.435 303.88 246.435 306.32V309H251.435ZM258.782 313.56C259.742 310.76 261.822 308.52 264.862 308.52C265.102 308.52 265.342 308.52 265.582 308.56V311.88H265.422C263.342 311.88 261.982 312.48 261.022 313.44C259.102 315.36 259.022 318.04 259.022 320.44V329H255.622V309H258.782V313.56ZM276.531 329.48C270.891 329.48 267.211 325.52 267.211 319C267.211 312.48 270.891 308.52 276.531 308.52C282.171 308.52 285.851 312.48 285.851 319C285.851 325.52 282.171 329.48 276.531 329.48ZM276.531 326.52C280.131 326.52 282.251 323.96 282.251 319C282.251 314.04 280.131 311.48 276.531 311.48C272.931 311.48 270.811 314.04 270.811 319C270.811 323.96 272.931 326.52 276.531 326.52ZM290.838 309H294.038V312.48C295.158 309.8 297.078 308.44 299.758 308.44C302.518 308.44 304.518 309.88 305.438 312.52C306.758 309.8 308.798 308.44 311.518 308.44C315.358 308.44 317.598 311.2 317.598 315.88V329H314.198V316.16C314.198 313.04 312.918 311.44 310.398 311.44C307.558 311.44 305.918 313.52 305.918 317.16V329H302.518V316C302.518 313.08 301.158 311.44 298.758 311.44C295.958 311.44 294.238 313.68 294.238 317.32V329H290.838V309ZM338.748 329.48C334.668 329.48 331.988 327.16 331.988 323.6C331.988 321.6 332.988 319.88 334.788 318.88C336.308 318.12 338.228 317.64 341.508 317.24L345.228 316.8V316.48C345.228 312.8 343.908 311.32 340.828 311.32C338.108 311.32 336.428 312.76 336.268 315.28H332.628C332.908 311.2 336.108 308.52 340.788 308.52C346.268 308.52 348.668 311 348.668 316.84V322.24C348.668 325.32 348.868 327.44 349.348 329H345.788C345.628 327.96 345.508 326.64 345.468 325.36C344.548 327.92 342.028 329.48 338.748 329.48ZM339.508 326.68C342.988 326.68 345.268 324.16 345.268 320.28V319.28L339.828 320.08C336.868 320.52 335.588 321.56 335.588 323.52C335.588 325.48 337.068 326.68 339.508 326.68ZM354.95 329V309H358.15V312.96C359.47 309.92 361.67 308.44 364.83 308.44C369.23 308.44 371.51 311.2 371.51 316.56V329H368.11V316.76C368.11 313.24 366.63 311.44 363.71 311.44C360.39 311.44 358.35 314.12 358.35 318.56V329H354.95ZM376.778 337.04C376.178 337.04 375.578 337 374.938 336.88V333.88C375.458 333.92 375.938 333.96 376.378 333.96C378.778 333.96 380.018 332.88 380.938 330.24L381.458 328.76L373.498 309H377.298L382.418 322.92C382.778 323.92 382.978 324.72 383.098 325.28H383.178C383.298 324.72 383.538 323.92 383.858 322.92L388.498 309H392.178L384.378 330.28C382.538 335.36 380.138 337.04 376.778 337.04ZM402.725 329.48C397.085 329.48 393.405 325.52 393.405 319C393.405 312.48 397.085 308.52 402.725 308.52C408.365 308.52 412.045 312.48 412.045 319C412.045 325.52 408.365 329.48 402.725 329.48ZM402.725 326.52C406.325 326.52 408.445 323.96 408.445 319C408.445 314.04 406.325 311.48 402.725 311.48C399.125 311.48 397.005 314.04 397.005 319C397.005 323.96 399.125 326.52 402.725 326.52ZM417.031 329V309H420.231V312.96C421.551 309.92 423.751 308.44 426.911 308.44C431.311 308.44 433.591 311.2 433.591 316.56V329H430.191V316.76C430.191 313.24 428.711 311.44 425.791 311.44C422.471 311.44 420.431 314.12 420.431 318.56V329H417.031ZM455.595 317.6V320H441.395C441.435 323.92 443.795 326.48 447.355 326.48C449.915 326.48 451.795 325.12 452.675 322.68L455.475 323.92C454.075 327.56 451.155 329.48 447.115 329.48C441.395 329.48 437.995 325.84 437.995 319.24C437.995 312.56 441.355 308.52 447.075 308.52C452.475 308.52 455.595 311.6 455.595 317.6ZM452.155 317.24V316.8C452.155 313.12 450.275 311.2 446.995 311.2C443.475 311.2 441.475 313.48 441.395 317.24H452.155Z" fill="#333333"/>
<path d="M78.24 480L72.8 469.12H68.72V480H61.96V451.6H74.44C81.64 451.6 84.84 455.12 84.84 460.32C84.84 463.88 82.96 466.88 79.28 468.12L85.56 480H78.24ZM68.72 456.36V464.48H73.08C76.36 464.48 77.8 462.88 77.8 460.32C77.8 457.84 76.4 456.36 73.08 456.36H68.72ZM106.517 469.52V471.44H92.6369C92.6769 474.16 94.5569 475.88 97.2369 475.88C99.1969 475.88 100.677 474.92 101.597 473.08L106.317 475.24C104.717 478.52 101.317 480.48 97.1569 480.48C90.5569 480.48 86.5569 476.68 86.5569 470.2C86.5569 463.64 90.4769 459.52 96.7169 459.52C102.997 459.52 106.517 463.16 106.517 469.52ZM100.317 467.84V467.68C100.317 464.84 98.9969 463.32 96.5969 463.32C94.1169 463.32 92.7169 465 92.6369 467.84H100.317ZM121.948 460V464.28H117.308V480H110.908V464.28H107.708V460H110.908V458.12C110.908 453.36 113.668 450.76 118.748 450.76C119.868 450.76 120.948 450.88 121.948 451.12V455.72C121.268 455.6 120.588 455.52 119.988 455.52C118.228 455.52 117.308 456.48 117.308 458.28V460H121.948ZM131.333 480.48C126.613 480.48 124.613 477.64 124.613 472.96V460H131.013V471.84C131.013 474.32 132.013 475.6 133.893 475.6C135.973 475.6 137.253 473.96 137.253 471.44V460H143.693V480H137.573V476.36C136.613 478.88 134.253 480.48 131.333 480.48ZM156.435 480.48C152.035 480.48 148.435 478.84 146.515 475.68L150.235 472.88C151.635 475.04 153.795 476.12 156.555 476.12C158.635 476.12 159.675 475.48 159.675 474.36C159.675 473.16 159.035 472.72 156.835 472.4L153.955 472C149.635 471.36 147.595 469.24 147.595 465.84C147.595 461.96 150.875 459.52 156.395 459.52C160.435 459.52 163.835 461 165.475 463.48L162.155 466.48C160.675 464.8 158.675 463.8 156.195 463.8C154.275 463.8 153.395 464.32 153.395 465.44C153.395 466.4 153.995 466.92 155.755 467.16L159.315 467.72C163.595 468.32 165.275 470.44 165.275 473.88C165.275 477.96 162.035 480.48 156.435 480.48ZM187.182 469.52V471.44H173.303C173.343 474.16 175.223 475.88 177.903 475.88C179.863 475.88 181.343 474.92 182.263 473.08L186.983 475.24C185.383 478.52 181.983 480.48 177.822 480.48C171.223 480.48 167.223 476.68 167.223 470.2C167.223 463.64 171.143 459.52 177.383 459.52C183.663 459.52 187.182 463.16 187.182 469.52ZM180.983 467.84V467.68C180.983 464.84 179.663 463.32 177.263 463.32C174.783 463.32 173.383 465 173.303 467.84H180.983ZM196.843 465.16C197.883 461.56 200.083 459.52 203.523 459.52H203.923V465.64C203.523 465.6 203.203 465.6 202.723 465.6C201.003 465.6 199.723 466.04 198.843 466.8C197.563 468 197.243 469.8 197.243 471.84V480H190.803V460H196.843V465.16ZM214.532 480.48C210.132 480.48 206.532 478.84 204.612 475.68L208.332 472.88C209.732 475.04 211.892 476.12 214.652 476.12C216.732 476.12 217.772 475.48 217.772 474.36C217.772 473.16 217.132 472.72 214.932 472.4L212.052 472C207.732 471.36 205.692 469.24 205.692 465.84C205.692 461.96 208.972 459.52 214.492 459.52C218.532 459.52 221.932 461 223.572 463.48L220.252 466.48C218.772 464.8 216.772 463.8 214.292 463.8C212.372 463.8 211.492 464.32 211.492 465.44C211.492 466.4 212.092 466.92 213.852 467.16L217.412 467.72C221.692 468.32 223.372 470.44 223.372 473.88C223.372 477.96 220.132 480.48 214.532 480.48ZM72.36 520.48C69.32 520.48 67.04 518.88 66 516.56L65.4 520H62.8V491H66.2V503.48C67.24 501.24 69.44 499.52 72.56 499.52C77.44 499.52 80.6 503.88 80.6 510C80.6 516.24 77.36 520.48 72.36 520.48ZM71.44 517.48C74.92 517.48 77 514.56 77 510C77 505.52 75.04 502.52 71.48 502.52C68.12 502.52 66.12 505.2 66.12 509.56V510.6C66.12 514.76 68.08 517.48 71.44 517.48ZM91.8384 520.48C86.7984 520.48 84.9984 517.44 84.9984 512.76V500H88.3984V512.36C88.3984 515.72 89.8384 517.56 92.4784 517.56C95.6784 517.56 97.8384 514.84 97.8384 510.76V500H101.238V520H98.0384V516.24C97.1184 518.68 94.6384 520.48 91.8384 520.48ZM108.13 528.04C107.53 528.04 106.93 528 106.29 527.88V524.88C106.81 524.92 107.29 524.96 107.73 524.96C110.13 524.96 111.37 523.88 112.29 521.24L112.81 519.76L104.85 500H108.65L113.77 513.92C114.13 514.92 114.33 515.72 114.45 516.28H114.53C114.65 515.72 114.89 514.92 115.21 513.92L119.85 500H123.53L115.73 521.28C113.89 526.36 111.49 528.04 108.13 528.04ZM145.202 500V502.8H140.202V520H136.802V502.8H133.122V500H136.802V496.84C136.802 493.2 139.082 490.76 142.642 490.76C143.602 490.76 144.442 490.84 145.202 491.04V493.96C144.482 493.84 143.722 493.76 143.082 493.76C141.042 493.76 140.202 494.88 140.202 497.32V500H145.202ZM152.549 504.56C153.509 501.76 155.589 499.52 158.629 499.52C158.869 499.52 159.109 499.52 159.349 499.56V502.88H159.189C157.109 502.88 155.749 503.48 154.789 504.44C152.869 506.36 152.789 509.04 152.789 511.44V520H149.389V500H152.549V504.56ZM170.298 520.48C164.658 520.48 160.978 516.52 160.978 510C160.978 503.48 164.658 499.52 170.298 499.52C175.938 499.52 179.618 503.48 179.618 510C179.618 516.52 175.938 520.48 170.298 520.48ZM170.298 517.52C173.898 517.52 176.018 514.96 176.018 510C176.018 505.04 173.898 502.48 170.298 502.48C166.698 502.48 164.578 505.04 164.578 510C164.578 514.96 166.698 517.52 170.298 517.52ZM184.605 500H187.805V503.48C188.925 500.8 190.845 499.44 193.525 499.44C196.285 499.44 198.285 500.88 199.205 503.52C200.525 500.8 202.565 499.44 205.285 499.44C209.125 499.44 211.365 502.2 211.365 506.88V520H207.965V507.16C207.965 504.04 206.685 502.44 204.165 502.44C201.325 502.44 199.685 504.52 199.685 508.16V520H196.285V507C196.285 504.08 194.925 502.44 192.525 502.44C189.725 502.44 188.005 504.68 188.005 508.32V520H184.605V500ZM234.195 520.48C229.435 520.48 226.275 518.12 225.555 513.84L228.995 513.24C229.515 516.16 231.395 517.68 234.355 517.68C237.035 517.68 238.515 516.56 238.515 514.68C238.515 512.68 237.475 511.8 235.315 511.56L232.075 511.2C228.115 510.76 226.235 508.52 226.235 505.44C226.235 501.8 229.115 499.52 233.835 499.52C238.395 499.52 241.475 501.92 241.915 505.6L238.555 506.36C238.115 503.96 236.475 502.28 233.755 502.28C231.115 502.28 229.555 503.36 229.555 505.28C229.555 507 230.675 508.04 233.155 508.32L236.355 508.68C240.315 509.12 241.875 511.2 241.875 514.36C241.875 518.16 239.075 520.48 234.195 520.48ZM254.44 520.48C248.8 520.48 245.12 516.52 245.12 510C245.12 503.48 248.8 499.52 254.44 499.52C260.08 499.52 263.76 503.48 263.76 510C263.76 516.52 260.08 520.48 254.44 520.48ZM254.44 517.52C258.04 517.52 260.16 514.96 260.16 510C260.16 505.04 258.04 502.48 254.44 502.48C250.84 502.48 248.72 505.04 248.72 510C248.72 514.96 250.84 517.52 254.44 517.52ZM268.747 500H271.947V503.48C273.067 500.8 274.987 499.44 277.667 499.44C280.427 499.44 282.427 500.88 283.347 503.52C284.667 500.8 286.707 499.44 289.427 499.44C293.267 499.44 295.507 502.2 295.507 506.88V520H292.107V507.16C292.107 504.04 290.827 502.44 288.307 502.44C285.467 502.44 283.827 504.52 283.827 508.16V520H280.427V507C280.427 504.08 279.067 502.44 276.667 502.44C273.867 502.44 272.147 504.68 272.147 508.32V520H268.747V500ZM317.506 508.6V511H303.306C303.346 514.92 305.706 517.48 309.266 517.48C311.826 517.48 313.706 516.12 314.586 513.68L317.386 514.92C315.986 518.56 313.066 520.48 309.026 520.48C303.306 520.48 299.906 516.84 299.906 510.24C299.906 503.56 303.266 499.52 308.986 499.52C314.386 499.52 317.506 502.6 317.506 508.6ZM314.066 508.24V507.8C314.066 504.12 312.186 502.2 308.906 502.2C305.386 502.2 303.386 504.48 303.306 508.24H314.066ZM330.232 520.48C324.592 520.48 320.912 516.52 320.912 510C320.912 503.48 324.592 499.52 330.232 499.52C335.872 499.52 339.552 503.48 339.552 510C339.552 516.52 335.872 520.48 330.232 520.48ZM330.232 517.52C333.832 517.52 335.952 514.96 335.952 510C335.952 505.04 333.832 502.48 330.232 502.48C326.632 502.48 324.512 505.04 324.512 510C324.512 514.96 326.632 517.52 330.232 517.52ZM344.539 520V500H347.739V503.96C349.059 500.92 351.259 499.44 354.419 499.44C358.819 499.44 361.099 502.2 361.099 507.56V520H357.699V507.76C357.699 504.24 356.219 502.44 353.299 502.44C349.979 502.44 347.939 505.12 347.939 509.56V520H344.539ZM383.103 508.6V511H368.903C368.943 514.92 371.303 517.48 374.863 517.48C377.423 517.48 379.303 516.12 380.183 513.68L382.983 514.92C381.583 518.56 378.663 520.48 374.623 520.48C368.903 520.48 365.503 516.84 365.503 510.24C365.503 503.56 368.863 499.52 374.583 499.52C379.983 499.52 383.103 502.6 383.103 508.6ZM379.663 508.24V507.8C379.663 504.12 377.783 502.2 374.503 502.2C370.983 502.2 368.983 504.48 368.903 508.24H379.663ZM414.1 508.6V511H399.9C399.94 514.92 402.3 517.48 405.86 517.48C408.42 517.48 410.3 516.12 411.18 513.68L413.98 514.92C412.58 518.56 409.66 520.48 405.62 520.48C399.9 520.48 396.5 516.84 396.5 510.24C396.5 503.56 399.86 499.52 405.58 499.52C410.98 499.52 414.1 502.6 414.1 508.6ZM410.66 508.24V507.8C410.66 504.12 408.78 502.2 405.5 502.2C401.98 502.2 399.98 504.48 399.9 508.24H410.66ZM422.906 491V520H419.506V491H422.906ZM436.562 520.48C431.802 520.48 428.642 518.12 427.922 513.84L431.362 513.24C431.882 516.16 433.762 517.68 436.722 517.68C439.402 517.68 440.882 516.56 440.882 514.68C440.882 512.68 439.842 511.8 437.682 511.56L434.442 511.2C430.482 510.76 428.602 508.52 428.602 505.44C428.602 501.8 431.482 499.52 436.202 499.52C440.762 499.52 443.842 501.92 444.282 505.6L440.922 506.36C440.482 503.96 438.842 502.28 436.122 502.28C433.482 502.28 431.922 503.36 431.922 505.28C431.922 507 433.042 508.04 435.522 508.32L438.722 508.68C442.682 509.12 444.242 511.2 444.242 514.36C444.242 518.16 441.442 520.48 436.562 520.48ZM465.088 508.6V511H450.888C450.928 514.92 453.288 517.48 456.848 517.48C459.408 517.48 461.288 516.12 462.168 513.68L464.968 514.92C463.568 518.56 460.648 520.48 456.608 520.48C450.888 520.48 447.488 516.84 447.488 510.24C447.488 503.56 450.848 499.52 456.568 499.52C461.968 499.52 465.088 502.6 465.088 508.6ZM461.648 508.24V507.8C461.648 504.12 459.768 502.2 456.488 502.2C452.968 502.2 450.967 504.48 450.888 508.24H461.648Z" fill="white"/>
<path d="M62.48 642.6H69.24V660.8C69.24 664.12 71.2 666.2 74.52 666.2C77.88 666.2 79.8 664.12 79.8 660.8V642.6H86.56V661.08C86.56 667.56 82.08 671.68 74.52 671.68C66.96 671.68 62.48 667.56 62.48 661.08V642.6ZM91.3034 671V651H97.4634V654.84C98.8634 651.92 101.063 650.48 104.103 650.48C108.423 650.48 110.623 653.24 110.623 658.6V671H104.223V659.48C104.223 656.72 103.263 655.4 101.223 655.4C98.9834 655.4 97.7434 657.12 97.7434 660.2V671H91.3034ZM121.878 671.48C117.078 671.48 113.878 667.32 113.878 661.08C113.878 654.72 117.238 650.52 122.238 650.52C124.878 650.52 126.878 651.6 127.878 653.68V642H134.278V671H128.198V667.56C127.198 669.96 124.798 671.48 121.878 671.48ZM124.398 667.04C126.598 667.04 127.958 665.08 127.958 661.96V660.24C127.958 656.84 126.598 654.96 124.318 654.96C121.878 654.96 120.478 657.12 120.478 660.96C120.478 664.72 121.958 667.04 124.398 667.04ZM157.928 660.52V662.44H144.048C144.088 665.16 145.968 666.88 148.648 666.88C150.608 666.88 152.088 665.92 153.008 664.08L157.728 666.24C156.128 669.52 152.728 671.48 148.568 671.48C141.968 671.48 137.968 667.68 137.968 661.2C137.968 654.64 141.888 650.52 148.128 650.52C154.408 650.52 157.928 654.16 157.928 660.52ZM151.728 658.84V658.68C151.728 655.84 150.408 654.32 148.008 654.32C145.528 654.32 144.128 656 144.048 658.84H151.728ZM170.783 671.48C164.463 671.48 160.263 667.36 160.263 661C160.263 654.48 164.303 650.52 170.863 650.52C176.103 650.52 179.583 653.08 180.343 657.6L174.303 658.84C173.943 656.48 172.663 655.24 170.703 655.24C168.263 655.24 166.783 657.32 166.783 660.8C166.783 664.56 168.223 666.72 170.743 666.72C172.743 666.72 173.983 665.4 174.343 663L180.343 664.32C179.623 668.72 175.903 671.48 170.783 671.48ZM183.569 648.12V642.28H190.249V648.12H183.569ZM183.649 671V651H190.089V671H183.649ZM201.646 671.48C196.846 671.48 193.646 667.32 193.646 661.08C193.646 654.72 197.006 650.52 202.006 650.52C204.646 650.52 206.646 651.6 207.646 653.68V642H214.046V671H207.966V667.56C206.966 669.96 204.566 671.48 201.646 671.48ZM204.166 667.04C206.366 667.04 207.726 665.08 207.726 661.96V660.24C207.726 656.84 206.366 654.96 204.086 654.96C201.646 654.96 200.246 657.12 200.246 660.96C200.246 664.72 201.726 667.04 204.166 667.04ZM237.695 660.52V662.44H223.815C223.855 665.16 225.735 666.88 228.415 666.88C230.375 666.88 231.855 665.92 232.775 664.08L237.495 666.24C235.895 669.52 232.495 671.48 228.335 671.48C221.735 671.48 217.735 667.68 217.735 661.2C217.735 654.64 221.655 650.52 227.895 650.52C234.175 650.52 237.695 654.16 237.695 660.52ZM231.495 658.84V658.68C231.495 655.84 230.175 654.32 227.775 654.32C225.295 654.32 223.895 656 223.815 658.84H231.495ZM248.15 671.48C243.35 671.48 240.15 667.32 240.15 661.08C240.15 654.72 243.51 650.52 248.51 650.52C251.15 650.52 253.15 651.6 254.15 653.68V642H260.55V671H254.47V667.56C253.47 669.96 251.07 671.48 248.15 671.48ZM250.67 667.04C252.87 667.04 254.23 665.08 254.23 661.96V660.24C254.23 656.84 252.87 654.96 250.59 654.96C248.15 654.96 246.75 657.12 246.75 660.96C246.75 664.72 248.23 667.04 250.67 667.04ZM273.56 671.48C269.16 671.48 265.56 669.84 263.64 666.68L267.36 663.88C268.76 666.04 270.92 667.12 273.68 667.12C275.76 667.12 276.8 666.48 276.8 665.36C276.8 664.16 276.16 663.72 273.96 663.4L271.08 663C266.76 662.36 264.72 660.24 264.72 656.84C264.72 652.96 268 650.52 273.52 650.52C277.56 650.52 280.96 652 282.6 654.48L279.28 657.48C277.8 655.8 275.8 654.8 273.32 654.8C271.4 654.8 270.52 655.32 270.52 656.44C270.52 657.4 271.12 657.92 272.88 658.16L276.44 658.72C280.72 659.32 282.4 661.44 282.4 664.88C282.4 668.96 279.16 671.48 273.56 671.48ZM68.56 711.48C64.48 711.48 61.8 709.16 61.8 705.6C61.8 703.6 62.8 701.88 64.6 700.88C66.12 700.12 68.04 699.64 71.32 699.24L75.04 698.8V698.48C75.04 694.8 73.72 693.32 70.64 693.32C67.92 693.32 66.24 694.76 66.08 697.28H62.44C62.72 693.2 65.92 690.52 70.6 690.52C76.08 690.52 78.48 693 78.48 698.84V704.24C78.48 707.32 78.68 709.44 79.16 711H75.6C75.44 709.96 75.32 708.64 75.28 707.36C74.36 709.92 71.84 711.48 68.56 711.48ZM69.32 708.68C72.8 708.68 75.08 706.16 75.08 702.28V701.28L69.64 702.08C66.68 702.52 65.4 703.56 65.4 705.52C65.4 707.48 66.88 708.68 69.32 708.68ZM87.9225 695.56C88.8825 692.76 90.9625 690.52 94.0025 690.52C94.2425 690.52 94.4825 690.52 94.7225 690.56V693.88H94.5625C92.4825 693.88 91.1225 694.48 90.1625 695.44C88.2425 697.36 88.1625 700.04 88.1625 702.44V711H84.7625V691H87.9225V695.56ZM113.952 699.6V702H99.7516C99.7916 705.92 102.152 708.48 105.712 708.48C108.272 708.48 110.152 707.12 111.032 704.68L113.832 705.92C112.432 709.56 109.512 711.48 105.472 711.48C99.7516 711.48 96.3516 707.84 96.3516 701.24C96.3516 694.56 99.7116 690.52 105.432 690.52C110.832 690.52 113.952 693.6 113.952 699.6ZM110.512 699.24V698.8C110.512 695.12 108.632 693.2 105.352 693.2C101.832 693.2 99.8316 695.48 99.7516 699.24H110.512ZM119.158 711V691H122.358V694.96C123.678 691.92 125.878 690.44 129.038 690.44C133.438 690.44 135.718 693.2 135.718 698.56V711H132.318V698.76C132.318 695.24 130.838 693.44 127.918 693.44C124.598 693.44 122.558 696.12 122.558 700.56V711H119.158ZM140.991 692.92L140.071 691.16C142.071 690.28 142.471 689.4 142.471 687.44V687.32H139.911V682.6H144.591V687.04C144.591 690.24 143.751 691.76 140.991 692.92ZM148.366 693.8V691H152.086V685.76L155.486 684.32V691H160.486V693.8H155.486V704.88C155.486 707.16 156.366 708.16 158.406 708.16C159.286 708.16 159.806 708.04 160.486 707.88V711C159.606 711.24 158.806 711.36 157.526 711.36C153.206 711.36 152.086 708.72 152.086 705V693.8H148.366ZM181.698 711.48C176.938 711.48 173.778 709.12 173.058 704.84L176.498 704.24C177.018 707.16 178.898 708.68 181.858 708.68C184.538 708.68 186.018 707.56 186.018 705.68C186.018 703.68 184.978 702.8 182.818 702.56L179.578 702.2C175.618 701.76 173.738 699.52 173.738 696.44C173.738 692.8 176.618 690.52 181.338 690.52C185.898 690.52 188.978 692.92 189.418 696.6L186.058 697.36C185.618 694.96 183.978 693.28 181.258 693.28C178.618 693.28 177.058 694.36 177.058 696.28C177.058 698 178.178 699.04 180.658 699.32L183.858 699.68C187.818 700.12 189.378 702.2 189.378 705.36C189.378 709.16 186.578 711.48 181.698 711.48ZM200.663 711.48C195.623 711.48 193.823 708.44 193.823 703.76V691H197.223V703.36C197.223 706.72 198.663 708.56 201.303 708.56C204.503 708.56 206.663 705.84 206.663 701.76V691H210.063V711H206.863V707.24C205.943 709.68 203.463 711.48 200.663 711.48ZM220.035 695.56C220.995 692.76 223.075 690.52 226.115 690.52C226.355 690.52 226.595 690.52 226.835 690.56V693.88H226.675C224.595 693.88 223.235 694.48 222.275 695.44C220.355 697.36 220.275 700.04 220.275 702.44V711H216.875V691H220.035V695.56ZM246.064 699.6V702H231.864C231.904 705.92 234.264 708.48 237.824 708.48C240.384 708.48 242.264 707.12 243.144 704.68L245.944 705.92C244.544 709.56 241.624 711.48 237.584 711.48C231.864 711.48 228.464 707.84 228.464 701.24C228.464 694.56 231.824 690.52 237.544 690.52C242.944 690.52 246.064 693.6 246.064 699.6ZM242.624 699.24V698.8C242.624 695.12 240.744 693.2 237.464 693.2C233.944 693.2 231.944 695.48 231.864 699.24H242.624ZM263.91 711L258.27 691H261.79L265.39 705.28C265.55 706 265.71 706.84 265.83 707.64H265.91C266.03 706.84 266.27 706 266.43 705.28L270.07 691H273.75L277.39 705.28C277.55 706 277.79 706.84 277.91 707.64H277.99C278.11 706.84 278.27 706 278.43 705.28L282.03 691H285.55L279.91 711H276.19L272.39 696.6C272.23 695.96 272.03 694.96 271.95 694.36H271.87C271.79 694.96 271.59 695.96 271.43 696.6L267.63 711H263.91ZM289.967 711V682H293.367V694.76C294.567 691.92 296.807 690.44 299.927 690.44C304.247 690.44 306.527 693.24 306.527 698.56V711H303.127V698.8C303.127 695.28 301.647 693.44 298.767 693.44C295.327 693.44 293.367 696.04 293.367 700.56V711H289.967ZM328.527 699.6V702H314.327C314.367 705.92 316.727 708.48 320.287 708.48C322.847 708.48 324.727 707.12 325.607 704.68L328.407 705.92C327.007 709.56 324.087 711.48 320.047 711.48C314.327 711.48 310.927 707.84 310.927 701.24C310.927 694.56 314.287 690.52 320.007 690.52C325.407 690.52 328.527 693.6 328.527 699.6ZM325.087 699.24V698.8C325.087 695.12 323.207 693.2 319.927 693.2C316.407 693.2 314.407 695.48 314.327 699.24H325.087ZM336.893 695.56C337.853 692.76 339.933 690.52 342.973 690.52C343.213 690.52 343.453 690.52 343.693 690.56V693.88H343.533C341.453 693.88 340.093 694.48 339.133 695.44C337.213 697.36 337.133 700.04 337.133 702.44V711H333.733V691H336.893V695.56ZM362.922 699.6V702H348.722C348.762 705.92 351.122 708.48 354.682 708.48C357.242 708.48 359.122 707.12 360.002 704.68L362.802 705.92C361.402 709.56 358.482 711.48 354.442 711.48C348.722 711.48 345.322 707.84 345.322 701.24C345.322 694.56 348.682 690.52 354.402 690.52C359.802 690.52 362.922 693.6 362.922 699.6ZM359.482 699.24V698.8C359.482 695.12 357.602 693.2 354.322 693.2C350.802 693.2 348.802 695.48 348.722 699.24H359.482ZM374.728 693.8V691H378.448V685.76L381.848 684.32V691H386.848V693.8H381.848V704.88C381.848 707.16 382.728 708.16 384.768 708.16C385.648 708.16 386.168 708.04 386.848 707.88V711C385.968 711.24 385.168 711.36 383.888 711.36C379.568 711.36 378.448 708.72 378.448 705V693.8H374.728ZM398.168 711.48C392.528 711.48 388.848 707.52 388.848 701C388.848 694.48 392.528 690.52 398.168 690.52C403.808 690.52 407.488 694.48 407.488 701C407.488 707.52 403.808 711.48 398.168 711.48ZM398.168 708.52C401.768 708.52 403.888 705.96 403.888 701C403.888 696.04 401.768 693.48 398.168 693.48C394.568 693.48 392.448 696.04 392.448 701C392.448 705.96 394.568 708.52 398.168 708.52ZM432.226 711.48C429.186 711.48 426.906 709.88 425.866 707.56L425.266 711H422.666V682H426.066V694.48C427.106 692.24 429.306 690.52 432.426 690.52C437.306 690.52 440.466 694.88 440.466 701C440.466 707.24 437.226 711.48 432.226 711.48ZM431.306 708.48C434.786 708.48 436.866 705.56 436.866 701C436.866 696.52 434.906 693.52 431.346 693.52C427.986 693.52 425.986 696.2 425.986 700.56V701.6C425.986 705.76 427.946 708.48 431.306 708.48ZM451.704 711.48C446.664 711.48 444.864 708.44 444.864 703.76V691H448.264V703.36C448.264 706.72 449.704 708.56 452.344 708.56C455.544 708.56 457.704 705.84 457.704 701.76V691H461.104V711H457.904V707.24C456.984 709.68 454.504 711.48 451.704 711.48ZM467.996 719.04C467.396 719.04 466.796 719 466.156 718.88V715.88C466.676 715.92 467.156 715.96 467.596 715.96C469.996 715.96 471.236 714.88 472.156 712.24L472.676 710.76L464.716 691H468.516L473.636 704.92C473.996 705.92 474.196 706.72 474.316 707.28H474.396C474.516 706.72 474.756 705.92 475.076 704.92L479.716 691H483.396L475.596 712.28C473.756 717.36 471.356 719.04 467.996 719.04Z" fill="white"/>
<path d="M62.96 862V833.6H69.72V856.52H81.24V862H62.96ZM93.1122 862.48C87.2322 862.48 82.7522 858.84 82.7522 851.96C82.7522 845.08 87.2322 841.52 93.1122 841.52C99.0322 841.52 103.512 845.08 103.512 851.96C103.512 858.84 99.0322 862.48 93.1122 862.48ZM93.1122 858.04C95.6322 858.04 97.1122 856.04 97.1122 851.96C97.1122 847.84 95.6322 845.96 93.1122 845.96C90.6322 845.96 89.1522 847.84 89.1522 851.96C89.1522 856.04 90.6322 858.04 93.1122 858.04ZM107.655 870.08C107.055 870.08 106.055 869.96 105.015 869.84V865.12C106.215 865.28 106.695 865.32 107.255 865.32C109.375 865.32 110.535 864.56 111.095 862.72L111.375 861.88L103.735 842H110.695L114.215 854.16C114.455 855 114.575 855.64 114.655 856.48H114.775C114.815 855.8 114.975 855.16 115.255 854.16L118.495 842H124.935L117.775 862.88C116.015 868.08 112.975 870.08 107.655 870.08ZM132.072 862.48C127.952 862.48 125.192 860.12 125.192 856.56C125.192 854.68 125.872 853.2 127.232 852.24C128.552 851.32 130.472 850.68 133.512 850.28L138.352 849.6V848.92C138.352 846.64 137.392 845.64 135.392 845.64C133.432 845.64 132.312 846.68 132.192 848.6H125.832C126.152 844.16 129.752 841.52 135.432 841.52C141.872 841.52 144.752 844.04 144.752 849.8V856.44C144.752 858.8 144.952 860.76 145.312 862H139.072C138.872 861.04 138.792 859.96 138.752 858.84C137.752 861.08 135.192 862.48 132.072 862.48ZM134.472 858.4C136.912 858.4 138.552 856.76 138.552 854.36V852.76L135.112 853.32C132.752 853.76 131.672 854.6 131.672 856.08C131.672 857.48 132.792 858.4 134.472 858.4ZM156.001 833V862H149.561V833H156.001ZM161.069 839.12V833.28H167.749V839.12H161.069ZM161.149 862V842H167.589V862H161.149ZM180.346 862.48C175.946 862.48 172.346 860.84 170.426 857.68L174.146 854.88C175.546 857.04 177.706 858.12 180.466 858.12C182.546 858.12 183.586 857.48 183.586 856.36C183.586 855.16 182.946 854.72 180.746 854.4L177.866 854C173.546 853.36 171.506 851.24 171.506 847.84C171.506 843.96 174.786 841.52 180.306 841.52C184.346 841.52 187.746 843 189.386 845.48L186.066 848.48C184.586 846.8 182.586 845.8 180.106 845.8C178.186 845.8 177.306 846.32 177.306 847.44C177.306 848.4 177.906 848.92 179.666 849.16L183.226 849.72C187.506 850.32 189.186 852.44 189.186 855.88C189.186 859.96 185.946 862.48 180.346 862.48ZM190.369 846.28V842H193.849V837.2L200.249 834.72V842H205.009V846.28H200.249V854.08C200.249 856.08 201.249 857.12 203.169 857.12C203.929 857.12 204.409 857.04 205.009 856.92V862C203.529 862.28 202.529 862.4 201.369 862.4C196.049 862.4 193.849 859.96 193.849 855.6V846.28H190.369ZM216.264 862.48C211.864 862.48 208.264 860.84 206.344 857.68L210.064 854.88C211.464 857.04 213.624 858.12 216.384 858.12C218.464 858.12 219.504 857.48 219.504 856.36C219.504 855.16 218.864 854.72 216.664 854.4L213.784 854C209.464 853.36 207.424 851.24 207.424 847.84C207.424 843.96 210.704 841.52 216.224 841.52C220.264 841.52 223.664 843 225.304 845.48L221.984 848.48C220.504 846.8 218.504 845.8 216.024 845.8C214.104 845.8 213.224 846.32 213.224 847.44C213.224 848.4 213.824 848.92 215.584 849.16L219.144 849.72C223.424 850.32 225.104 852.44 225.104 855.88C225.104 859.96 221.864 862.48 216.264 862.48ZM68.56 902.48C64.48 902.48 61.8 900.16 61.8 896.6C61.8 894.6 62.8 892.88 64.6 891.88C66.12 891.12 68.04 890.64 71.32 890.24L75.04 889.8V889.48C75.04 885.8 73.72 884.32 70.64 884.32C67.92 884.32 66.24 885.76 66.08 888.28H62.44C62.72 884.2 65.92 881.52 70.6 881.52C76.08 881.52 78.48 884 78.48 889.84V895.24C78.48 898.32 78.68 900.44 79.16 902H75.6C75.44 900.96 75.32 899.64 75.28 898.36C74.36 900.92 71.84 902.48 68.56 902.48ZM69.32 899.68C72.8 899.68 75.08 897.16 75.08 893.28V892.28L69.64 893.08C66.68 893.52 65.4 894.56 65.4 896.52C65.4 898.48 66.88 899.68 69.32 899.68ZM88.3625 873V902H84.9625V873H88.3625ZM98.5381 886.56C99.4981 883.76 101.578 881.52 104.618 881.52C104.858 881.52 105.098 881.52 105.338 881.56V884.88H105.178C103.098 884.88 101.738 885.48 100.778 886.44C98.8581 888.36 98.7781 891.04 98.7781 893.44V902H95.3781V882H98.5381V886.56ZM124.567 890.6V893H110.367C110.407 896.92 112.767 899.48 116.327 899.48C118.887 899.48 120.767 898.12 121.647 895.68L124.447 896.92C123.047 900.56 120.127 902.48 116.087 902.48C110.367 902.48 106.967 898.84 106.967 892.24C106.967 885.56 110.327 881.52 116.047 881.52C121.447 881.52 124.567 884.6 124.567 890.6ZM121.127 890.24V889.8C121.127 886.12 119.247 884.2 115.967 884.2C112.447 884.2 110.447 886.48 110.367 890.24H121.127ZM134.538 902.48C130.458 902.48 127.778 900.16 127.778 896.6C127.778 894.6 128.778 892.88 130.578 891.88C132.098 891.12 134.018 890.64 137.298 890.24L141.018 889.8V889.48C141.018 885.8 139.698 884.32 136.618 884.32C133.898 884.32 132.218 885.76 132.058 888.28H128.418C128.698 884.2 131.898 881.52 136.578 881.52C142.058 881.52 144.458 884 144.458 889.84V895.24C144.458 898.32 144.658 900.44 145.138 902H141.578C141.418 900.96 141.298 899.64 141.258 898.36C140.338 900.92 137.818 902.48 134.538 902.48ZM135.298 899.68C138.778 899.68 141.058 897.16 141.058 893.28V892.28L135.618 893.08C132.658 893.52 131.378 894.56 131.378 896.52C131.378 898.48 132.858 899.68 135.298 899.68ZM156.865 902.48C152.025 902.48 148.745 898.28 148.745 892C148.745 885.84 152.265 881.52 157.265 881.52C159.905 881.52 161.865 882.6 163.145 884.96V873H166.545V902H163.345V898.28C162.145 900.96 159.985 902.48 156.865 902.48ZM157.785 899.48C161.105 899.48 163.225 896.76 163.225 892.48V891.56C163.225 887.2 161.145 884.52 157.785 884.52C154.385 884.52 152.345 887.28 152.345 892C152.345 896.68 154.385 899.48 157.785 899.48ZM173.624 910.04C173.024 910.04 172.424 910 171.784 909.88V906.88C172.304 906.92 172.784 906.96 173.224 906.96C175.624 906.96 176.864 905.88 177.784 903.24L178.304 901.76L170.344 882H174.144L179.264 895.92C179.624 896.92 179.824 897.72 179.944 898.28H180.024C180.144 897.72 180.384 896.92 180.704 895.92L185.344 882H189.024L181.224 903.28C179.384 908.36 176.984 910.04 173.624 910.04ZM211.371 902.48C208.331 902.48 206.051 900.88 205.011 898.56L204.411 902H201.811V873H205.211V885.48C206.251 883.24 208.451 881.52 211.571 881.52C216.451 881.52 219.611 885.88 219.611 892C219.611 898.24 216.371 902.48 211.371 902.48ZM210.451 899.48C213.931 899.48 216.011 896.56 216.011 892C216.011 887.52 214.051 884.52 210.491 884.52C207.131 884.52 205.131 887.2 205.131 891.56V892.6C205.131 896.76 207.091 899.48 210.451 899.48ZM230.849 902.48C225.809 902.48 224.009 899.44 224.009 894.76V882H227.409V894.36C227.409 897.72 228.849 899.56 231.489 899.56C234.689 899.56 236.849 896.84 236.849 892.76V882H240.249V902H237.049V898.24C236.129 900.68 233.649 902.48 230.849 902.48ZM247.141 910.04C246.541 910.04 245.941 910 245.301 909.88V906.88C245.821 906.92 246.301 906.96 246.741 906.96C249.141 906.96 250.381 905.88 251.301 903.24L251.821 901.76L243.861 882H247.661L252.781 895.92C253.141 896.92 253.341 897.72 253.461 898.28H253.541C253.661 897.72 253.901 896.92 254.221 895.92L258.861 882H262.541L254.741 903.28C252.901 908.36 250.501 910.04 247.141 910.04ZM284.213 882V884.8H279.213V902H275.813V884.8H272.133V882H275.813V878.84C275.813 875.2 278.093 872.76 281.653 872.76C282.613 872.76 283.453 872.84 284.213 873.04V875.96C283.493 875.84 282.733 875.76 282.093 875.76C280.053 875.76 279.213 876.88 279.213 879.32V882H284.213ZM291.56 886.56C292.52 883.76 294.6 881.52 297.64 881.52C297.88 881.52 298.12 881.52 298.36 881.56V884.88H298.2C296.12 884.88 294.76 885.48 293.8 886.44C291.88 888.36 291.8 891.04 291.8 893.44V902H288.4V882H291.56V886.56ZM309.309 902.48C303.669 902.48 299.989 898.52 299.989 892C299.989 885.48 303.669 881.52 309.309 881.52C314.949 881.52 318.629 885.48 318.629 892C318.629 898.52 314.949 902.48 309.309 902.48ZM309.309 899.52C312.909 899.52 315.029 896.96 315.029 892C315.029 887.04 312.909 884.48 309.309 884.48C305.709 884.48 303.589 887.04 303.589 892C303.589 896.96 305.709 899.52 309.309 899.52ZM323.616 882H326.816V885.48C327.936 882.8 329.856 881.44 332.536 881.44C335.296 881.44 337.296 882.88 338.216 885.52C339.536 882.8 341.576 881.44 344.296 881.44C348.136 881.44 350.376 884.2 350.376 888.88V902H346.976V889.16C346.976 886.04 345.696 884.44 343.176 884.44C340.336 884.44 338.696 886.52 338.696 890.16V902H335.296V889C335.296 886.08 333.936 884.44 331.536 884.44C328.736 884.44 327.016 886.68 327.016 890.32V902H323.616V882ZM365.63 910.04C365.03 910.04 364.43 910 363.79 909.88V906.88C364.31 906.92 364.79 906.96 365.23 906.96C367.63 906.96 368.87 905.88 369.79 903.24L370.31 901.76L362.35 882H366.15L371.27 895.92C371.63 896.92 371.83 897.72 371.95 898.28H372.03C372.15 897.72 372.39 896.92 372.71 895.92L377.35 882H381.03L373.23 903.28C371.39 908.36 368.99 910.04 365.63 910.04ZM391.576 902.48C385.936 902.48 382.256 898.52 382.256 892C382.256 885.48 385.936 881.52 391.576 881.52C397.216 881.52 400.896 885.48 400.896 892C400.896 898.52 397.216 902.48 391.576 902.48ZM391.576 899.52C395.176 899.52 397.296 896.96 397.296 892C397.296 887.04 395.176 884.48 391.576 884.48C387.976 884.48 385.856 887.04 385.856 892C385.856 896.96 387.976 899.52 391.576 899.52ZM412.123 902.48C407.083 902.48 405.283 899.44 405.283 894.76V882H408.683V894.36C408.683 897.72 410.123 899.56 412.763 899.56C415.963 899.56 418.123 896.84 418.123 892.76V882H421.523V902H418.323V898.24C417.403 900.68 414.923 902.48 412.123 902.48Z" fill="white"/>
<path d="M880.55 662.7C882.62 663.9 884.6 664.77 886.46 665.28L888.11 665.67C888.98 665.88 889.67 666.06 890.24 666.24C890.78 666.39 891.41 666.63 892.1 666.96C893.51 667.56 894.23 668.49 894.23 669.66C894.23 670.38 893.93 670.86 893.33 671.13C892.73 671.4 891.38 671.73 889.28 672.12C887.93 672.33 886.16 672.84 883.91 673.68C890.36 675.18 893.75 676.05 894.08 676.26C894.62 676.59 894.89 677.1 894.89 677.76C894.89 678.96 893.57 679.71 892.28 679.71C891.86 679.71 891.41 679.65 890.96 679.56C890.03 679.35 888.74 678.9 888.14 678.75C880.43 676.89 875.78 675.3 874.25 673.95C873.74 673.53 873.5 673.08 873.5 672.63C873.5 671.82 874.25 671.13 875.57 670.68C876.2 670.44 876.8 670.26 877.34 670.11C877.88 669.96 878.51 669.84 879.26 669.69L880.55 669.42C881 669.33 881.66 669.15 882.53 668.91L884.06 668.43L881.69 667.41L879.14 666.27C877.91 665.7 875.99 664.62 874.67 663.54L874.31 663.21C873.86 662.85 873.71 662.73 873.32 662.37C872.81 661.86 872.45 661.35 872.45 660.9C872.45 660.27 872.81 659.76 873.56 659.4C875.09 658.59 877.73 657.81 881.42 657.03C885.11 656.25 887.84 655.86 889.64 655.86C890.42 655.86 891.23 656.1 892.07 656.55C892.91 657 893.33 657.57 893.33 658.26C893.33 659.46 891.77 660.39 889.52 660.99C888.41 661.26 887.27 661.5 886.16 661.71L882.8 662.25C881.69 662.4 880.94 662.55 880.55 662.7ZM893.81 637.016C893.72 637.976 892.94 638.666 891.68 639.326L890.57 639.836L889.43 640.286L888.56 640.616C889.13 642.326 889.49 643.766 889.64 644.936C889.79 646.106 889.85 647.756 889.85 649.886C890.12 650.006 890.72 650.366 890.84 650.456L891.92 650.996C892.49 651.266 892.94 651.506 893.21 651.686C893.81 652.016 894.56 652.856 894.56 653.696C894.56 654.566 894.11 655.016 893.18 655.016C892.25 655.016 889.01 653.726 883.52 651.176C878.03 648.596 874.73 646.796 873.65 645.776C873.2 645.386 872.99 644.936 872.99 644.456C872.99 643.886 873.5 643.196 873.86 642.926C874.01 642.776 874.31 642.536 874.73 642.206C875.15 641.876 875.39 641.726 875.42 641.696C876.23 641.066 877.01 640.526 877.79 640.046C879.2 639.116 881.39 637.976 884.42 636.656C887.45 635.336 889.58 634.676 890.87 634.676C892.4 634.676 893.81 635.576 893.81 637.016ZM885.38 647.906C885.38 646.196 885.02 644.366 884.33 642.356C881.84 643.526 880.19 644.516 879.38 645.266C880.67 645.926 882.68 646.796 885.38 647.906ZM891.02 612.686C892.22 612.686 892.94 613.976 892.94 615.266C892.94 615.566 892.67 616.256 892.13 617.306C891.59 618.356 890.99 619.526 890.3 620.786C889.61 622.016 889.19 622.796 889.04 623.096C888.29 624.746 887.63 626.546 887.06 628.556C887.63 628.556 888.5 628.556 889.61 628.526C890.72 628.496 891.53 628.466 892.1 628.466C892.52 628.466 892.91 628.736 893.3 629.246C893.69 629.756 893.9 630.236 893.9 630.686C893.9 631.496 892.88 632.336 892.07 632.336C891.02 632.336 889.4 632.306 887.24 632.276C885.08 632.216 883.46 632.186 882.41 632.186C881.81 632.186 880.91 632.276 879.74 632.426C878.57 632.576 877.67 632.666 877.07 632.666C876.38 632.666 876.11 632.576 875.75 632.006C874.76 630.626 873.98 628.946 873.47 626.996C872.93 625.046 872.66 623.126 872.66 621.266C872.66 620.696 872.69 620.156 872.72 619.706C872.75 618.776 872.9 617.336 873.29 616.466C873.86 614.996 874.82 613.826 876.8 613.826C878.36 613.946 879.47 614.456 880.64 615.776C881.06 616.226 881.39 616.616 881.63 616.916C881.84 617.186 882.14 617.666 882.53 618.296L883.28 619.556C883.4 619.766 883.64 620.156 883.97 620.786C884.57 619.436 885.5 617.726 886.79 615.896C888.08 614.066 889.7 612.686 891.02 612.686ZM877.88 617.906C877.46 618.776 877.25 619.796 877.25 620.936C877.25 623.366 877.85 626.036 879.02 628.946C879.14 628.946 880.31 628.856 882.5 628.646C882.2 627.416 881.87 626.216 881.51 624.986C881.12 623.756 880.58 622.376 879.89 620.786C879.17 619.196 878.51 618.236 877.88 617.906ZM893.9 596.238C893.9 596.778 893.51 597.528 892.73 598.488C891.95 599.418 891.05 600.438 890.03 601.548C889.01 602.628 888.35 603.438 888.02 603.948C887.48 604.818 887.09 605.538 886.82 606.138L890.51 606.228C890.96 606.228 892.1 606.018 892.58 606.018C893.87 606.018 895.07 606.738 895.07 607.968C895.07 609.018 894.35 609.708 893.12 609.978C891.89 610.248 891.02 610.308 889.7 610.308C887.87 610.308 885.14 610.248 881.54 610.098C877.94 609.948 875.9 609.798 875.42 609.618C874.31 609.258 873.44 608.478 873.44 607.488C873.44 606.288 874.19 605.658 875.39 605.658C875.72 605.658 876.17 605.718 876.77 605.808C877.34 605.898 877.79 605.928 878.06 605.928C878.81 605.988 879.95 606.018 881.45 606.018C881.21 605.718 880.79 605.178 880.22 604.398C879.05 602.838 878.21 601.818 877.22 600.948C874.85 598.788 873.41 597.228 872.84 596.268C872.63 595.878 872.51 595.548 872.51 595.308C872.51 594.078 872.99 593.448 873.92 593.448C874.85 593.448 876.2 594.348 877.67 595.938C878.42 596.718 879.05 597.438 879.62 598.068C880.16 598.698 880.79 599.478 881.48 600.378C882.17 601.278 882.59 601.818 882.74 601.968C883.55 600.648 884.84 598.938 886.43 597.228C887.99 595.458 889.88 594.168 891.2 594.168C892.55 594.168 893.9 594.948 893.9 596.238ZM878.6 587.155H879.2C879.47 587.155 879.92 587.155 880.49 587.185C881.06 587.215 881.51 587.215 881.78 587.215C881.33 583.795 881.09 581.335 881.09 579.805C881.09 578.095 881.63 577.225 882.74 577.225C884.63 577.225 885.74 578.455 886.04 580.945L886.58 585.235L886.88 587.215C887.03 587.185 887.3 587.155 887.69 587.155C888.05 587.155 888.89 587.215 889.22 587.215V586.585C889.22 585.685 889.1 584.335 888.89 582.565C888.65 580.795 888.53 579.445 888.53 578.545C888.53 577.315 888.98 576.715 889.85 576.715C890.3 576.715 890.84 576.835 891.44 577.045C892.04 577.255 892.46 577.495 892.73 577.825C893.15 578.335 893.45 579.205 893.6 580.375C893.78 581.545 893.87 582.985 893.9 584.695C893.93 586.405 893.96 587.365 893.99 587.575C894.11 588.715 894.17 589.285 894.17 589.315C894.17 590.665 893.24 591.355 891.41 591.355C890.63 591.355 889.46 591.355 887.9 591.325C886.34 591.295 885.17 591.265 884.42 591.265C884.09 591.265 883.61 591.235 882.98 591.205C882.35 591.145 881.84 591.115 881.51 591.115C880.01 591.115 878.54 591.055 877.07 590.935C876.32 590.845 875.6 590.455 874.88 589.765C874.13 589.045 873.71 588.325 873.56 587.575C873.08 584.665 872.84 581.755 872.84 578.875C872.84 576.625 873.44 575.485 874.64 575.485C876.8 575.485 877.4 576.565 877.55 578.875C877.55 578.995 877.58 579.595 877.67 580.675C877.73 581.755 877.79 582.595 877.85 583.195C877.88 583.795 877.97 584.515 878.12 585.325C878.27 586.135 878.42 586.765 878.6 587.155ZM894.26 567.093C894.26 568.203 892.79 568.743 889.88 568.743C889.37 568.743 888.68 568.713 887.75 568.623L886.07 568.443C883.88 568.233 881.45 568.113 878.81 568.113C878.84 568.503 879.02 569.283 879.29 570.453C879.56 571.623 879.68 572.523 879.68 573.153C879.68 574.083 878.81 574.563 877.82 574.563C876.5 574.563 875.27 573.963 874.91 572.793C874.79 572.403 874.61 571.233 874.34 569.253L874.1 567.513C873.95 566.643 873.86 566.043 873.83 565.653L873.62 563.973C873.53 563.223 873.44 562.593 873.41 562.113C873.32 561.123 873.23 559.743 873.23 558.573C873.23 557.253 873.74 555.963 874.85 555.963C875.39 555.963 875.99 556.113 876.62 556.383C877.25 556.653 877.67 557.013 877.88 557.463C877.97 557.673 878.06 558.243 878.12 559.143C878.18 560.043 878.24 561.063 878.27 562.173C878.3 563.283 878.33 563.913 878.36 564.123C880.73 564.243 884.45 564.303 889.52 564.303C890.72 564.303 891.5 564.363 892.58 564.723C893.66 565.053 894.26 565.863 894.26 567.093ZM887.24 531.766C886.88 531.766 886.64 532.486 886.52 533.416C886.4 534.346 886.37 535.006 886.37 535.486C886.37 536.056 886.4 536.896 886.46 538.036C886.52 539.146 886.55 539.986 886.55 540.556C886.55 544.246 885.83 546.076 884.39 546.076C882.95 546.076 881.24 545.206 879.26 543.496C877.28 541.756 875.6 539.806 874.25 537.646C872.87 535.486 872.18 533.776 872.18 532.516C872.18 530.446 873.44 528.706 875.48 528.706C876.29 528.706 877.07 528.946 877.76 529.426C878.45 529.906 878.78 530.536 878.78 531.316C878.78 531.946 878.42 532.666 877.73 533.446C877.46 533.596 877.04 534.136 877.04 534.376C877.04 535.186 877.52 536.266 878.48 537.646C879.44 539.026 880.31 540.076 881.12 540.796C881.27 540.286 881.36 539.386 881.36 538.066V536.356C881.33 535.606 881.33 535.126 881.33 534.856C881.33 533.296 881.42 532.036 881.81 530.026C882.17 527.986 883.16 526.666 884.6 526.666C885.38 526.666 886.4 527.086 887.63 527.926C889.46 529.156 891.17 530.836 892.79 532.966C894.41 535.096 895.22 537.046 895.22 538.816C895.22 540.946 894.08 545.506 891.35 545.506C889.88 545.506 889.13 544.816 889.13 543.436C889.13 542.686 889.28 541.576 889.58 540.106C889.88 538.636 890.03 537.496 890.03 536.746C890.03 534.856 888.83 532.936 887.24 531.766ZM873.74 522.126C873.74 521.166 874.28 520.536 875.33 520.296C876.38 520.056 876.89 520.026 877.94 520.026C878.45 520.026 879.2 520.056 880.25 520.146C881.3 520.206 882.08 520.236 882.59 520.236C883.52 520.236 884.93 520.206 886.76 520.146C888.59 520.056 890 520.026 890.93 520.026C892.28 520.026 893.72 520.866 893.72 522.186C893.72 522.906 893.15 523.416 892.01 523.686C890.72 524.016 886.55 524.166 879.44 524.166H877.73C876.92 524.166 876.2 524.076 875.27 523.836C874.34 523.566 873.74 522.966 873.74 522.126ZM873.65 499.33C874.64 499.33 875.84 499.81 877.25 500.74C878.66 501.67 879.98 502.75 881.18 503.92C882.35 505.09 883.67 506.35 885.08 507.73C886.49 509.08 887.54 510.04 888.23 510.55C888.17 510.28 888.08 509.62 887.99 508.57C887.87 507.52 887.72 506.71 887.54 506.17C887.09 504.73 886.88 503.59 886.88 502.78C886.88 501.73 887.33 501.22 888.2 501.22C888.71 501.22 889.31 501.34 890 501.61C890.69 501.85 891.23 502.12 891.59 502.45C892.19 503.02 892.7 504.85 893.12 507.94C893.54 511.03 893.75 513.37 893.75 514.99C893.75 516.1 893.27 517.42 892.28 517.42C891.53 517.42 890.51 516.97 889.19 516.04C887.87 515.11 886.82 514.24 886.07 513.43C884.12 511.42 881.78 509.26 879.02 507.01C878.33 506.41 877.91 506.08 877.82 506.02C877.91 506.89 878.3 508.45 878.93 510.7C879.56 512.95 879.86 514.42 879.86 515.11C879.86 516.31 879.32 517.3 878.21 517.3C877.7 517.3 877.1 517.06 876.38 516.61C875.66 516.16 875.18 515.68 874.91 515.23C874.34 514.27 873.8 512.17 873.26 508.93C872.69 505.66 872.42 503.29 872.42 501.79C872.42 500.14 872.84 499.33 873.65 499.33ZM880.28 493.163L882.08 493.343C881.6 489.473 881.36 486.773 881.36 485.243C881.36 483.413 881.93 482.513 883.07 482.513C883.97 482.513 884.69 482.903 885.23 483.683C885.86 484.673 886.43 487.943 886.91 493.493C887.27 493.493 888.17 493.583 889.61 493.733L889.16 490.583C888.68 487.733 888.44 485.693 888.44 483.683C888.44 482.573 889.01 482.033 890.18 482.033C891.38 482.033 892.31 482.933 892.79 484.013C893.03 484.553 893.24 485.213 893.39 486.023C893.72 487.583 893.78 488.603 893.87 489.953C893.87 490.193 893.9 490.343 893.9 490.493C893.93 490.883 894.05 491.513 894.29 492.383C894.53 493.253 894.65 493.913 894.65 494.423C894.65 496.673 892.79 497.873 890.51 497.873C889.97 497.873 889.19 497.813 888.2 497.663C887.21 497.513 886.52 497.423 886.13 497.393L882.47 497.213C880.61 497.123 879.2 497.033 878.21 496.943C877.22 496.823 876.29 496.373 875.48 495.593C874.67 494.783 874.13 493.883 873.92 492.893C873.23 489.803 872.9 486.923 872.9 484.313C872.9 483.503 873.05 482.753 873.38 482.063C873.68 481.373 874.16 481.013 874.85 481.013C875.45 481.013 876.02 481.313 876.56 481.913C877.07 482.483 877.4 483.113 877.55 483.743C877.73 484.613 877.91 486.083 878.09 488.183C878.24 490.283 878.48 491.873 878.78 492.983L880.28 493.163Z" fill="#9D9D9D"/>
<path d="M887.414 271.586C886.633 270.805 885.367 270.805 884.586 271.586L871.858 284.314C871.077 285.095 871.077 286.361 871.858 287.142C872.639 287.923 873.905 287.923 874.686 287.142L886 275.828L897.314 287.142C898.095 287.923 899.361 287.923 900.142 287.142C900.923 286.361 900.923 285.095 900.142 284.314L887.414 271.586ZM886 273L884 273L884 453L886 453L888 453L888 273L886 273Z" fill="#9D9D9D"/>
<path d="M884.586 890.414C885.367 891.195 886.633 891.195 887.414 890.414L900.142 877.686C900.923 876.905 900.923 875.639 900.142 874.858C899.361 874.077 898.095 874.077 897.314 874.858L886 886.172L874.686 874.858C873.905 874.077 872.639 874.077 871.858 874.858C871.077 875.639 871.077 876.905 871.858 877.686L884.586 890.414ZM886 709L884 709L884 889L886 889L888 889L888 709L886 709Z" fill="#9D9D9D"/>
<path d="M44.97 31.67C46.38 31.73 47.58 32.15 48.54 32.96C49.53 33.77 50.01 34.85 50.01 36.23C50.01 37.55 49.47 38.84 48.42 40.1C47.37 41.33 46.05 42.38 44.52 43.19C41.49 44.84 37.98 45.89 35.55 45.89C34.14 45.89 33.18 45.59 32.7 45.02C32.25 44.45 32.01 43.4 32.01 41.93C32.01 41.3 32.04 40.37 32.13 39.14C32.22 37.91 32.25 36.95 32.25 36.32V34.4C32.25 32.6 32.19 31.28 32.1 30.44C32.07 30.2 31.92 29.21 31.89 28.85C31.89 28.22 31.83 27.26 32.01 26.63C32.28 25.73 33.42 24.98 35.43 24.38C37.47 23.75 39.12 23.45 40.41 23.45C41.34 23.45 42.24 23.6 43.11 23.87C44.88 24.38 46.47 25.79 46.47 27.71C46.47 28.94 45.96 30.26 44.97 31.67ZM43.17 36.47C42.18 36.47 40.95 36.62 39.48 36.89C38.04 37.16 36.93 37.52 36.12 37.91V41.09C40.47 40.31 43.41 39.44 44.97 38.48C45.75 37.97 46.14 37.58 46.14 37.37C46.05 37.04 45.66 36.83 44.97 36.68C44.28 36.53 43.68 36.47 43.17 36.47ZM40.11 28.7C38.1 28.7 36.57 29.09 35.49 29.87L35.7 32.66C36.75 32.39 38.1 31.91 39.69 31.19C41.31 30.44 42.18 29.78 42.33 29.15C41.82 28.85 41.07 28.7 40.11 28.7ZM63.7188 42.35C60.1788 44.3 57.3888 45.26 55.3188 45.26C54.2688 45.26 53.5488 45.08 53.1588 44.72C52.8588 44.45 52.6188 43.55 52.4688 42.02C52.3188 40.49 52.2588 39.2 52.2588 38.15C52.2588 36.92 52.4088 34.79 52.7388 31.7C53.0688 28.61 53.3988 26.81 53.7288 26.33C54.0588 25.88 54.4188 25.67 54.8388 25.67C55.2888 25.67 55.7388 25.94 56.2188 26.45C56.7288 26.96 56.9688 27.41 56.9688 27.83C56.9688 28.64 56.8788 29.84 56.6688 31.4C56.4588 32.96 56.3688 34.13 56.3688 34.91V39.77C57.6588 39.65 59.3388 39.05 60.3288 38.54C60.8388 38.27 61.5288 37.94 62.3388 37.49C63.1788 37.04 63.7788 36.74 64.1688 36.56C64.2288 36.05 64.2588 35.51 64.2588 34.97C64.2888 34.16 64.3488 32.96 64.3788 31.4L64.4988 28.28C64.4988 27.95 64.4688 27.05 64.4688 26.66C64.4688 24.68 65.0688 23.69 66.2388 23.69C67.2888 23.69 67.9788 24.23 68.2488 25.19C68.5788 26.15 68.6088 26.81 68.6088 27.98C68.6088 29.87 68.4588 33.02 68.1288 37.43C67.7988 41.81 67.4988 44.33 67.1988 44.99C66.8988 45.59 66.4788 45.89 65.9088 45.89C65.2788 45.89 64.7688 45.47 64.3488 44.63C63.9288 43.82 63.7188 43.04 63.7188 42.35ZM90.2559 27.14C90.2559 28.07 89.9559 29 89.3859 29.9C88.8159 30.8 88.0959 31.25 87.2259 31.25C86.1459 31.25 85.5159 30.35 85.2759 29.51C85.0359 28.64 84.4659 27.74 83.4759 27.74C82.5159 27.74 81.3159 28.31 79.8759 29.42C78.4659 30.53 77.3259 31.58 76.5159 32.6C77.3859 32.99 78.6759 33.17 80.3559 33.17C81.0459 33.17 82.0359 33.11 83.3859 32.96C84.7359 32.81 85.7259 32.75 86.3859 32.75C87.4359 32.75 88.5159 32.93 89.6259 33.32C90.7959 33.71 91.5759 34.61 91.5759 35.72C91.5759 36.8 91.1559 37.91 90.2859 39.02C89.4459 40.13 88.4559 41.12 87.3459 42.02C86.1159 43.01 84.6459 43.85 82.9359 44.54C81.2559 45.23 79.6659 45.59 78.1659 45.59C77.5659 45.59 76.9959 45.53 76.4559 45.41C75.5859 45.23 74.5659 44.84 73.3659 44.21C72.1659 43.61 71.5659 43.01 71.5659 42.41C71.5659 41.75 71.9559 41.18 72.7059 40.67C73.4559 40.16 74.1759 39.89 74.8659 39.89C75.4959 39.89 76.5759 40.04 78.1659 40.34C79.7559 40.61 80.9859 40.76 81.8559 40.76C82.6059 40.76 83.4159 40.49 84.2859 39.92C85.1559 39.35 85.8759 38.75 86.4459 38.06C86.0559 37.82 85.4259 37.7 84.5559 37.7C84.1059 37.7 83.4159 37.73 82.4859 37.79C81.5859 37.85 80.8959 37.88 80.4459 37.88H78.9759L77.0559 37.79C76.2159 37.73 75.4659 37.64 74.8059 37.49C72.8559 37.13 70.6059 36.41 70.7559 34.97C70.7559 34.07 71.4159 32.75 72.7659 31.04C74.5059 28.88 76.6059 27.02 79.0659 25.46C81.5259 23.9 83.9559 23.12 86.3559 23.12C88.6659 23.12 90.2559 24.83 90.2559 27.14ZM96.5243 24.74C97.4843 24.74 98.1143 25.28 98.3543 26.33C98.5943 27.38 98.6243 27.89 98.6243 28.94C98.6243 29.45 98.5943 30.2 98.5043 31.25C98.4443 32.3 98.4143 33.08 98.4143 33.59C98.4143 34.52 98.4443 35.93 98.5043 37.76C98.5943 39.59 98.6243 41 98.6243 41.93C98.6243 43.28 97.7843 44.72 96.4643 44.72C95.7443 44.72 95.2343 44.15 94.9643 43.01C94.6343 41.72 94.4843 37.55 94.4843 30.44V28.73C94.4843 27.92 94.5743 27.2 94.8143 26.27C95.0843 25.34 95.6843 24.74 96.5243 24.74ZM115.541 35.72C115.571 35.45 115.571 34.64 115.601 33.32L115.661 29.84C115.691 28.85 115.781 27.8 115.901 26.75C116.021 25.67 116.171 24.95 116.351 24.59C116.711 23.81 117.221 23.42 117.881 23.42C119.381 23.45 119.981 25.85 119.921 27.05C119.921 28.16 119.771 29.81 119.501 32C119.231 34.19 119.111 35.84 119.111 36.92C119.111 37.37 119.141 38 119.171 38.84C119.231 39.65 119.261 40.28 119.261 40.7C119.261 42.77 118.631 43.82 117.341 43.82C116.831 43.82 116.261 43.61 115.691 43.19C115.061 42.8 114.131 41.99 112.901 40.82C111.671 39.62 110.321 38.24 108.851 36.68C107.381 35.09 106.451 34.13 106.061 33.74C106.031 34.07 106.001 35.03 105.971 36.65C105.941 38.24 105.911 39.71 105.851 41.06C105.791 42.41 105.701 43.22 105.611 43.52C105.371 44.27 104.711 44.81 103.901 44.81C102.431 44.81 101.921 43.22 101.921 41.45C101.921 39.98 102.041 37.73 102.311 34.76C102.581 31.76 102.731 29.51 102.731 28.04C102.731 26.69 103.571 25.43 104.861 25.43C105.491 25.43 106.031 25.73 106.511 26.33C108.761 29.15 111.761 32.27 115.541 35.72ZM127.01 31.28L126.83 33.08C130.7 32.6 133.4 32.36 134.93 32.36C136.76 32.36 137.66 32.93 137.66 34.07C137.66 34.97 137.27 35.69 136.49 36.23C135.5 36.86 132.23 37.43 126.68 37.91C126.68 38.27 126.59 39.17 126.44 40.61L129.59 40.16C132.44 39.68 134.48 39.44 136.49 39.44C137.6 39.44 138.14 40.01 138.14 41.18C138.14 42.38 137.24 43.31 136.16 43.79C135.62 44.03 134.96 44.24 134.15 44.39C132.59 44.72 131.57 44.78 130.22 44.87C129.98 44.87 129.83 44.9 129.68 44.9C129.29 44.93 128.66 45.05 127.79 45.29C126.92 45.53 126.26 45.65 125.75 45.65C123.5 45.65 122.3 43.79 122.3 41.51C122.3 40.97 122.36 40.19 122.51 39.2C122.66 38.21 122.75 37.52 122.78 37.13L122.96 33.47C123.05 31.61 123.14 30.2 123.23 29.21C123.35 28.22 123.8 27.29 124.58 26.48C125.39 25.67 126.29 25.13 127.28 24.92C130.37 24.23 133.25 23.9 135.86 23.9C136.67 23.9 137.42 24.05 138.11 24.38C138.8 24.68 139.16 25.16 139.16 25.85C139.16 26.45 138.86 27.02 138.26 27.56C137.69 28.07 137.06 28.4 136.43 28.55C135.56 28.73 134.09 28.91 131.99 29.09C129.89 29.24 128.3 29.48 127.19 29.78L127.01 31.28ZM154.506 38.24C154.506 37.88 153.786 37.64 152.856 37.52C151.926 37.4 151.266 37.37 150.786 37.37C150.216 37.37 149.376 37.4 148.236 37.46C147.126 37.52 146.286 37.55 145.716 37.55C142.026 37.55 140.196 36.83 140.196 35.39C140.196 33.95 141.066 32.24 142.776 30.26C144.516 28.28 146.466 26.6 148.626 25.25C150.786 23.87 152.496 23.18 153.756 23.18C155.826 23.18 157.566 24.44 157.566 26.48C157.566 27.29 157.326 28.07 156.846 28.76C156.366 29.45 155.736 29.78 154.956 29.78C154.326 29.78 153.606 29.42 152.826 28.73C152.676 28.46 152.136 28.04 151.896 28.04C151.086 28.04 150.006 28.52 148.626 29.48C147.246 30.44 146.196 31.31 145.476 32.12C145.986 32.27 146.886 32.36 148.206 32.36H149.916C150.666 32.33 151.146 32.33 151.416 32.33C152.976 32.33 154.236 32.42 156.246 32.81C158.286 33.17 159.606 34.16 159.606 35.6C159.606 36.38 159.186 37.4 158.346 38.63C157.116 40.46 155.436 42.17 153.306 43.79C151.176 45.41 149.226 46.22 147.456 46.22C145.326 46.22 140.766 45.08 140.766 42.35C140.766 40.88 141.456 40.13 142.836 40.13C143.586 40.13 144.696 40.28 146.166 40.58C147.636 40.88 148.776 41.03 149.526 41.03C151.416 41.03 153.336 39.83 154.506 38.24ZM175.026 37.7H174.726C174.096 37.7 173.136 37.76 171.906 37.85C170.676 37.94 169.746 37.97 169.116 37.97C168.126 37.97 166.836 37.88 165.156 37.55C163.506 37.22 162.276 36.47 162.276 35.48C162.276 35 162.456 34.43 162.846 33.8C163.236 33.17 163.596 32.63 163.956 32.24C164.346 31.82 164.886 31.25 165.576 30.56L166.806 29.3C168.096 27.95 169.656 26.69 171.516 25.49C173.406 24.26 175.026 23.66 176.406 23.66C178.806 23.66 180.756 24.74 180.756 26.99C180.756 27.8 180.486 28.55 179.916 29.3C179.346 30.02 178.686 30.38 177.906 30.38C177.126 30.38 176.706 30.14 176.316 29.9C176.106 29.78 175.866 29.3 175.746 29.15L175.236 28.13C175.026 28.04 174.846 27.98 174.666 27.98C173.676 27.98 172.476 28.52 171.126 29.6C169.776 30.65 168.696 31.73 167.886 32.78C168.456 33.05 169.356 33.17 170.616 33.17C171.426 33.17 172.686 33.11 174.366 33.02C176.046 32.9 177.306 32.84 178.146 32.84C179.076 32.84 179.976 33.11 180.846 33.62C181.746 34.13 182.196 34.79 182.196 35.66C182.196 36.11 182.076 36.56 181.866 37.07C180.786 39.53 179.046 41.63 176.646 43.34C174.276 45.05 171.786 45.92 169.206 45.92C167.676 45.92 166.266 45.56 165.036 44.84C163.806 44.15 163.176 43.1 163.176 41.69C163.176 40.61 164.166 40.1 165.336 40.1C166.356 40.04 168.366 40.76 169.296 40.97C169.986 41.12 170.946 41.21 172.176 41.21C173.886 41.21 175.596 39.95 176.796 38.3C176.646 37.91 176.046 37.7 175.026 37.7ZM201.584 45.17C198.854 45.17 196.694 44.39 195.044 42.8C193.424 41.21 192.614 39.05 192.614 36.32C192.614 32.72 193.574 29.78 195.524 27.5C197.474 25.22 200.234 24.08 203.744 24.08C208.964 24.08 214.154 27.17 214.154 32.87C214.154 33.62 214.004 34.52 213.734 35.57C213.134 37.97 212.144 39.86 210.764 41.27C209.414 42.65 207.494 43.79 205.064 44.66C204.134 44.99 202.964 45.17 201.584 45.17ZM209.774 34.52C209.774 33.65 209.564 32.72 209.114 31.79C208.694 30.83 208.154 30.11 207.464 29.63C206.414 28.88 204.854 28.49 202.844 28.49C200.714 28.94 199.154 29.6 198.164 30.44C197.204 31.28 196.724 32.72 196.724 34.76C196.724 36.53 197.384 37.91 198.734 38.96C200.084 40.01 201.644 40.52 203.444 40.52C205.304 40.52 206.834 39.98 208.004 38.9C209.174 37.79 209.774 36.35 209.774 34.52ZM227.791 42.35C224.251 44.3 221.461 45.26 219.391 45.26C218.341 45.26 217.621 45.08 217.231 44.72C216.931 44.45 216.691 43.55 216.541 42.02C216.391 40.49 216.331 39.2 216.331 38.15C216.331 36.92 216.481 34.79 216.811 31.7C217.141 28.61 217.471 26.81 217.801 26.33C218.131 25.88 218.491 25.67 218.911 25.67C219.361 25.67 219.811 25.94 220.291 26.45C220.801 26.96 221.041 27.41 221.041 27.83C221.041 28.64 220.951 29.84 220.741 31.4C220.531 32.96 220.441 34.13 220.441 34.91V39.77C221.731 39.65 223.411 39.05 224.401 38.54C224.911 38.27 225.601 37.94 226.411 37.49C227.251 37.04 227.851 36.74 228.241 36.56C228.301 36.05 228.331 35.51 228.331 34.97C228.361 34.16 228.421 32.96 228.451 31.4L228.571 28.28C228.571 27.95 228.541 27.05 228.541 26.66C228.541 24.68 229.141 23.69 230.311 23.69C231.361 23.69 232.051 24.23 232.321 25.19C232.651 26.15 232.681 26.81 232.681 27.98C232.681 29.87 232.531 33.02 232.201 37.43C231.871 41.81 231.571 44.33 231.271 44.99C230.971 45.59 230.551 45.89 229.981 45.89C229.351 45.89 228.841 45.47 228.421 44.63C228.001 43.82 227.791 43.04 227.791 42.35ZM253.518 42.68C253.518 43.88 252.198 44.39 250.878 44.39C250.068 44.39 248.118 43.25 244.998 41C244.608 40.7 244.158 40.43 243.678 40.16C243.228 39.89 242.598 39.59 241.848 39.23L240.468 38.54C240.678 40.61 240.798 41.99 240.798 42.74C240.798 44.15 240.018 45.47 238.698 45.47C237.828 45.47 237.258 44.72 236.958 43.25C236.748 42.08 236.598 40.82 236.478 39.47L236.208 34.91C236.118 33.23 236.058 31.94 235.968 31.04C235.938 30.71 235.878 30.14 235.728 29.27C235.608 28.4 235.548 27.71 235.548 27.23C235.548 26.42 236.208 25.67 237.528 24.95C238.878 24.2 240.048 23.75 241.098 23.57C242.568 23.3 243.918 23.18 245.178 23.18C246.618 23.18 247.788 23.39 248.688 23.84C249.588 24.29 250.368 24.98 250.998 25.94C251.628 26.87 251.958 27.83 251.958 28.79C251.958 31.37 250.098 33.65 246.378 35.63C247.668 36.35 248.988 37.31 250.668 38.66C252.348 39.98 253.518 41.51 253.518 42.68ZM248.298 29.21C248.298 28.91 247.968 28.7 247.308 28.58C246.648 28.43 246.048 28.37 245.478 28.37C243.228 28.37 241.248 28.79 239.538 29.6L239.958 33.68C241.368 33.53 243.018 33.17 244.938 32.48C246.858 31.79 248.298 30.62 248.298 29.21ZM267.649 37.7H267.349C266.719 37.7 265.789 37.76 264.559 37.85C263.329 37.94 262.369 37.97 261.739 37.97C260.749 37.97 259.459 37.88 257.809 37.55C256.159 37.22 254.929 36.47 254.929 35.48C254.929 35 255.109 34.43 255.499 33.8C255.889 33.17 256.249 32.63 256.609 32.24C256.999 31.82 257.539 31.25 258.229 30.56L259.459 29.3C260.749 27.95 262.309 26.69 264.169 25.49C266.059 24.26 267.679 23.66 269.059 23.66C270.229 23.66 271.249 23.93 272.089 24.5C272.959 25.04 273.379 25.88 273.379 26.99C273.379 27.8 273.109 28.55 272.539 29.3C271.969 30.02 271.309 30.38 270.559 30.38C269.599 30.38 269.179 30.17 268.789 29.72L268.459 29.3C268.429 29.21 268.309 29.03 268.159 28.73L267.889 28.13C267.649 28.04 267.469 27.98 267.319 27.98C266.299 27.98 265.129 28.52 263.779 29.6C262.429 30.65 261.349 31.73 260.539 32.78C261.109 33.05 262.009 33.17 263.269 33.17C264.079 33.17 265.339 33.11 267.019 33.02C268.699 32.9 269.959 32.84 270.799 32.84C271.729 32.84 272.629 33.11 273.499 33.62C274.399 34.13 274.849 34.79 274.849 35.66C274.849 36.02 274.729 36.5 274.519 37.07C273.409 39.53 271.669 41.63 269.269 43.34C266.899 45.05 264.409 45.92 261.859 45.92C260.329 45.92 258.919 45.56 257.689 44.84C256.459 44.15 255.829 43.1 255.829 41.69C255.829 40.61 256.819 40.1 257.989 40.1C258.499 40.1 259.279 40.25 260.299 40.52L261.949 40.97C262.639 41.12 263.599 41.21 264.829 41.21C266.479 41.21 268.009 40.25 269.419 38.3C269.269 37.91 268.669 37.7 267.649 37.7ZM280.874 25.91C280.844 26.63 280.814 27.68 280.814 29.06C280.814 29.45 280.874 30.35 280.874 30.71C280.874 31.46 280.574 32.36 279.974 32.36C279.404 32.36 279.134 31.79 279.134 30.68C279.134 30.17 279.164 29.42 279.194 28.43C279.224 27.44 279.254 26.69 279.254 26.21C278.594 26.33 277.934 26.39 277.274 26.39C276.764 26.39 276.104 26.21 276.104 25.76C276.104 25.37 276.314 25.04 276.734 24.74C276.944 24.56 277.244 24.44 277.574 24.41C278.744 24.29 279.674 24.17 280.334 24.08C280.544 24.05 280.904 23.99 281.444 23.87C282.014 23.75 282.434 23.69 282.704 23.69C283.154 23.69 283.394 23.87 283.394 24.23C283.394 24.62 283.184 25.28 282.854 25.43C282.434 25.7 281.774 25.85 280.874 25.91ZM289.394 26.75C288.884 27.62 288.554 28.43 288.344 29.15C288.314 29.18 288.284 29.42 288.194 29.84C288.104 30.23 288.044 30.53 287.954 30.74C287.774 31.37 287.294 32.48 286.574 32.33C286.304 32.33 286.094 32.21 285.944 32C285.854 31.82 285.734 31.28 285.584 30.35C285.434 29.63 285.224 28.88 284.924 28.13L284.624 29.36C284.294 30.77 283.964 32.12 283.874 32.27C283.724 32.48 283.544 32.6 283.274 32.6C282.794 32.6 282.464 32.06 282.464 31.58C282.464 31.43 282.584 30.86 282.854 29.87C283.574 26.75 284.234 24.86 284.834 24.23C284.954 24.02 285.134 23.9 285.344 23.9C285.674 23.9 285.944 24.17 286.154 24.74L286.394 25.43C286.514 25.82 286.664 26.66 286.664 26.75C286.694 26.96 286.844 27.44 287.084 28.16C287.294 27.71 287.714 26.69 287.954 26.21C288.194 25.7 288.614 24.92 289.064 24.35C289.334 24.08 289.754 23.45 290.144 23.45C290.684 23.45 291.164 24.41 291.554 26.3C291.944 28.19 292.154 29.57 292.154 30.47C292.154 31.1 291.794 32 291.224 32C290.834 32 290.504 31.67 290.264 30.98C290.024 30.29 289.844 29.45 289.694 28.46C289.544 27.47 289.454 26.9 289.394 26.75ZM321.46 29.03C321.46 30.38 320.98 31.7 320.02 32.99C319.06 34.25 317.86 35.3 316.45 36.14C313.6 37.82 310.36 38.93 307.81 39.14C307.81 39.23 307.78 39.53 307.75 40.04C307.72 41 307.63 41.36 307.48 42.35C307.36 43.34 307.09 43.85 306.73 44.48C306.37 45.17 305.77 45.47 305.05 45.47C304.6 45.47 304.21 45.2 303.91 44.63C303.61 44.09 303.46 43.58 303.46 43.07C303.46 42.8 303.55 42.32 303.73 41.6C303.94 40.85 304.03 39.89 304.03 38.69C304.06 37.82 304.06 36.47 304.06 34.67V32.36C304.06 31.97 304.03 31.43 303.97 30.68C303.91 29.93 303.88 29.36 303.88 28.97C303.88 27.68 304.15 26.93 305.11 26.33C306.34 25.58 307.81 24.98 309.55 24.56C311.32 24.11 312.97 23.9 314.53 23.9C319.15 23.9 321.46 25.61 321.46 29.03ZM317.23 29.78C316.81 29.24 315.88 28.97 314.44 28.97C312.61 28.97 310.36 29.39 307.66 30.26C307.81 31.76 307.9 33.17 307.9 34.49C309.49 34.34 311.26 34.01 313.3 33.32C315.34 32.6 316.96 31.34 317.23 29.78ZM335.054 39.2C337.694 39.2 339.014 40.07 339.014 41.84C339.014 43.07 337.724 43.88 336.374 44.09C335.864 44.18 335.114 44.27 334.124 44.36C333.164 44.45 332.534 44.54 332.234 44.57C331.934 44.6 331.064 44.75 329.594 44.99C328.124 45.26 327.224 45.38 326.834 45.38C324.704 45.38 323.624 44.42 323.624 42.53C323.624 41.96 323.654 41.09 323.744 39.92C323.834 38.75 323.864 37.88 323.864 37.31V36.5C323.864 35.99 323.864 35.21 323.834 34.13C323.804 33.05 323.804 32.24 323.804 31.7C323.804 29.57 323.924 27.71 324.194 26.15C324.374 24.83 324.794 24.17 325.454 24.17C326.924 24.17 327.674 25.19 327.674 27.23C327.674 27.68 327.644 28.31 327.584 29.18C327.554 30.05 327.524 30.68 327.524 31.13C327.524 34.1 327.494 37.04 327.434 39.98C327.974 39.92 328.784 39.83 329.834 39.68C331.964 39.35 333.584 39.2 335.054 39.2ZM357.706 44.6C356.716 44.6 356.086 43.82 355.546 42.86C355.216 42.29 354.886 41.21 354.736 40.7L354.466 39.65L354.256 38.81C353.866 38.96 353.416 39.08 352.906 39.2C351.916 39.41 351.286 39.47 349.876 39.59L348.376 39.68C348.076 39.68 347.536 39.71 346.786 39.74C346.036 39.77 345.616 39.77 345.466 39.77C345.376 39.98 345.256 40.4 345.076 41.03C344.896 41.66 344.716 42.2 344.566 42.65C344.086 44.03 343.156 45.86 341.776 45.71C340.936 45.71 340.516 44.93 340.516 43.4C340.516 41.72 341.206 39.2 342.616 35.84C344.026 32.48 345.376 29.78 346.636 27.71L347.326 26.42L348.256 24.71C348.766 23.87 349.756 22.85 350.596 22.85C351.466 22.85 352.366 23.39 353.356 24.44C354.346 25.49 355.216 26.78 355.966 28.28C357.526 31.28 358.696 34.22 359.086 35.9C359.176 36.29 359.356 36.89 359.596 37.7C360.106 39.29 360.436 40.58 360.436 41.75C360.436 42.47 360.166 43.13 359.596 43.73C359.056 44.3 358.426 44.6 357.706 44.6ZM352.936 34.73C351.946 31.94 351.016 30.05 350.206 29.06C348.946 30.77 347.926 32.87 347.116 35.36H347.356C347.566 35.36 347.926 35.36 348.376 35.33C348.856 35.3 349.186 35.27 349.396 35.27C350.506 35.27 351.706 35.09 352.936 34.73ZM367.388 36.05L366.608 35.54L365.648 34.88L364.688 34.19C364.238 33.83 363.878 33.56 363.668 33.35C363.278 32.96 362.288 32.15 361.898 31.64C361.238 30.8 360.548 29.69 360.638 28.82C360.638 28.25 360.848 27.59 361.298 26.9C361.748 26.21 362.228 25.85 362.798 25.85C363.338 25.85 363.968 26.12 364.658 26.63C365.348 27.14 366.098 27.8 366.878 28.61C367.688 29.39 368.228 29.9 368.498 30.11L370.328 31.34L370.958 30.35C371.648 29.27 372.038 28.73 372.788 27.56C373.598 26.39 374.228 25.7 375.038 24.89C375.848 24.08 376.628 23.69 377.258 23.69C378.068 23.69 378.578 24.32 378.578 25.07C378.578 25.64 378.068 26.63 377.588 27.32L376.718 28.58L376.088 29.48C374.078 32.39 372.488 34.85 371.288 36.83C370.928 37.43 370.268 38.66 369.308 40.55C368.378 42.41 367.538 43.82 366.848 44.75C366.278 45.5 365.708 45.89 365.108 45.89C363.638 45.77 363.248 44.03 364.118 41.87C364.448 41.09 364.748 40.46 365.018 39.95C365.288 39.44 365.738 38.69 366.338 37.76C366.938 36.8 367.298 36.23 367.388 36.05ZM401.072 36.47C401.072 37.7 400.472 39.02 399.242 40.43C397.592 42.29 395.342 43.61 392.492 44.42C389.642 45.23 386.702 45.65 383.612 45.65C382.322 45.65 381.452 45.08 381.062 44.09C380.702 43.1 380.582 42.23 380.582 41C380.582 39.59 380.672 37.55 380.882 34.94C381.092 32.33 381.212 30.5 381.242 29.45C381.272 28.46 381.422 27.71 381.662 27.2C381.902 26.69 382.412 26.15 383.222 25.64C384.212 25.01 385.772 24.44 387.902 23.93C390.032 23.39 391.772 23.12 393.062 23.12C394.412 23.12 395.612 23.51 396.692 24.26C397.772 25.01 398.312 26.03 398.312 27.32C398.312 28.79 397.832 30.32 396.842 31.91C399.152 32.63 401.072 34.28 401.072 36.47ZM396.512 38.06C396.512 37.67 396.002 37.34 395.012 37.07C394.022 36.8 393.242 36.65 392.642 36.65C390.392 36.65 387.752 37.13 384.692 38.12C384.602 39.05 384.542 39.89 384.542 40.61H385.622C386.972 40.61 389.132 40.37 392.072 39.86C395.042 39.35 396.512 38.75 396.512 38.06ZM384.782 33.08C388.652 32.39 391.232 31.7 392.552 31.07C393.542 30.62 394.052 30.11 394.052 29.6C393.932 28.67 393.242 28.61 392.372 28.61C390.482 28.61 387.992 29.21 384.872 30.44C384.872 31.31 384.842 32.18 384.782 33.08ZM411.743 45.17C409.013 45.17 406.853 44.39 405.203 42.8C403.583 41.21 402.773 39.05 402.773 36.32C402.773 32.72 403.733 29.78 405.683 27.5C407.633 25.22 410.393 24.08 413.903 24.08C419.123 24.08 424.313 27.17 424.313 32.87C424.313 33.62 424.163 34.52 423.893 35.57C423.293 37.97 422.303 39.86 420.923 41.27C419.573 42.65 417.653 43.79 415.223 44.66C414.293 44.99 413.123 45.17 411.743 45.17ZM419.933 34.52C419.933 33.65 419.723 32.72 419.273 31.79C418.853 30.83 418.313 30.11 417.623 29.63C416.573 28.88 415.013 28.49 413.003 28.49C410.873 28.94 409.313 29.6 408.323 30.44C407.363 31.28 406.883 32.72 406.883 34.76C406.883 36.53 407.543 37.91 408.893 38.96C410.243 40.01 411.803 40.52 413.603 40.52C415.463 40.52 416.993 39.98 418.163 38.9C419.333 37.79 419.933 36.35 419.933 34.52ZM435.593 45.17C433.193 45.17 431.123 44.27 429.383 42.44C427.673 40.61 426.803 38.51 426.803 36.08C426.713 29.09 432.773 24.17 439.553 24.32C440.663 24.32 441.803 24.62 443.033 25.25C444.263 25.88 445.283 26.6 446.063 27.47C446.663 28.1 447.113 29 447.413 30.11C447.713 31.22 447.863 32.33 447.863 33.41C447.863 35.15 447.503 36.71 446.783 38.06C445.793 39.95 444.173 41.6 441.983 43.04C439.793 44.45 437.663 45.17 435.593 45.17ZM439.133 29.45C437.783 29.45 436.493 29.66 435.293 30.08C434.093 30.5 433.043 31.22 432.173 32.21C431.303 33.2 430.883 34.37 430.883 35.75C430.883 37.16 431.423 38.24 432.473 38.96C433.523 39.68 434.813 40.04 436.313 40.04C437.423 40.04 438.533 39.86 439.613 39.5C440.723 39.14 441.683 38.54 442.493 37.73C443.303 36.89 443.723 35.9 443.723 34.76C443.723 33.74 443.393 32.63 442.763 31.43C442.133 30.23 441.353 29.57 440.453 29.48C440.183 29.45 439.733 29.45 439.133 29.45ZM464.411 44.9C463.871 44.9 463.121 44.51 462.161 43.73C461.231 42.95 460.211 42.05 459.101 41.03C458.021 40.01 457.211 39.35 456.701 39.02C455.831 38.48 455.111 38.09 454.511 37.82L454.421 41.51C454.421 41.96 454.631 43.1 454.631 43.58C454.631 44.87 453.911 46.07 452.681 46.07C451.631 46.07 450.941 45.35 450.671 44.12C450.401 42.89 450.341 42.02 450.341 40.7C450.341 38.87 450.401 36.14 450.551 32.54C450.701 28.94 450.851 26.9 451.031 26.42C451.391 25.31 452.171 24.44 453.161 24.44C454.361 24.44 454.991 25.19 454.991 26.39C454.991 26.72 454.931 27.17 454.841 27.77C454.751 28.34 454.721 28.79 454.721 29.06C454.661 29.81 454.631 30.95 454.631 32.45C454.931 32.21 455.471 31.79 456.251 31.22C457.811 30.05 458.831 29.21 459.701 28.22C461.861 25.85 463.421 24.41 464.381 23.84C464.771 23.63 465.101 23.51 465.341 23.51C466.571 23.51 467.201 23.99 467.201 24.92C467.201 25.85 466.301 27.2 464.711 28.67C463.931 29.42 463.211 30.05 462.581 30.62C461.951 31.16 461.171 31.79 460.271 32.48C459.371 33.17 458.831 33.59 458.681 33.74C460.001 34.55 461.711 35.84 463.421 37.43C465.191 38.99 466.481 40.88 466.481 42.2C466.481 43.55 465.701 44.9 464.411 44.9Z" fill="black"/>
<path d="M808.939 45.17C806.539 45.17 804.469 44.27 802.729 42.44C801.019 40.61 800.149 38.51 800.149 36.08C800.059 29.09 806.119 24.17 812.899 24.32C814.009 24.32 815.149 24.62 816.379 25.25C817.609 25.88 818.629 26.6 819.409 27.47C820.009 28.1 820.459 29 820.759 30.11C821.059 31.22 821.209 32.33 821.209 33.41C821.209 35.18 820.849 36.71 820.099 38.06C819.109 39.95 817.519 41.6 815.329 43.04C813.139 44.45 811.009 45.17 808.939 45.17ZM812.479 29.45C811.129 29.45 809.839 29.66 808.639 30.08C807.439 30.5 806.389 31.22 805.519 32.21C804.649 33.2 804.229 34.37 804.229 35.75C804.229 37.16 804.769 38.24 805.819 38.96C806.869 39.68 808.159 40.04 809.659 40.04C811.459 40.04 813.139 39.59 814.699 38.66C816.259 37.73 817.039 36.41 817.039 34.76C817.039 33.74 816.709 32.63 816.079 31.43C815.449 30.23 814.699 29.57 813.799 29.48C813.529 29.45 813.079 29.45 812.479 29.45ZM835.041 41.75C833.811 42.5 832.191 43.31 830.211 44.18C828.261 45.05 826.761 45.5 825.771 45.5C824.961 45.5 824.361 45.17 823.971 44.48C823.731 44.03 823.521 43.07 823.371 41.6C823.221 40.13 823.131 38.93 823.131 38.06C823.131 37.19 823.341 35.09 823.791 31.79C824.241 28.49 824.601 26.66 824.871 26.3C825.111 25.91 825.471 25.73 825.951 25.73C827.271 25.73 827.931 26.93 827.931 29.36C827.931 30.77 827.811 32.06 827.571 33.17C827.301 34.34 827.181 35.87 827.181 37.73V39.56C828.891 39.08 831.531 37.73 835.041 35.51C835.041 34.34 835.011 32.6 834.981 30.29C834.951 27.98 834.951 26.24 834.951 25.07C834.951 24.32 836.031 23.57 836.781 23.57C838.161 23.57 838.851 25.55 838.851 29.54V29.96C838.851 30.98 838.881 32.51 838.911 34.52C838.941 36.53 838.971 38.06 838.971 39.05V39.68C838.971 43.55 838.251 45.47 836.781 45.47C836.151 45.47 835.701 45.05 835.431 44.21C835.161 43.37 835.041 42.56 835.041 41.75ZM858.715 44.27C858.055 44.27 857.125 43.91 855.895 43.16C852.445 41.12 849.145 39.65 846.055 38.72C846.235 41.72 846.325 43.22 846.325 43.25C846.325 44.54 845.575 45.71 844.345 45.71C843.655 45.71 843.025 45.2 842.815 44.51C842.395 43.52 842.185 38.09 842.185 28.22C842.185 27.23 842.755 26.48 843.925 25.97C845.095 25.37 846.505 24.86 848.155 24.44C849.805 23.99 851.215 23.78 852.445 23.78C856.975 23.78 859.225 25.16 859.225 27.89C859.225 29.39 858.565 30.83 857.245 32.21C855.955 33.59 854.485 34.7 852.835 35.57C854.245 36.05 855.895 36.86 857.665 37.97C859.465 39.08 860.785 40.61 860.785 42.02C860.785 43.37 860.065 44.27 858.715 44.27ZM845.905 30.44V31.37C845.905 32.54 845.935 33.41 845.965 33.98C847.045 33.77 848.815 33.29 850.825 32.54C852.865 31.79 854.485 30.65 854.485 29.6C854.485 29.33 854.155 29.15 853.525 29.06C852.895 28.94 852.295 28.88 851.785 28.88C849.835 28.88 847.885 29.39 845.905 30.44ZM862.874 41.27C862.874 40.04 864.254 39.53 865.604 39.53C866.354 39.53 867.434 39.74 868.874 40.16C870.344 40.55 871.424 40.76 872.144 40.76C874.064 40.76 876.104 39.53 876.824 37.82C876.134 37.61 875.054 37.49 873.554 37.49C873.044 37.49 872.354 37.52 871.424 37.55C870.524 37.58 869.894 37.58 869.564 37.58C868.394 37.58 866.804 37.4 865.004 36.95C863.234 36.47 861.854 35.51 861.854 34.31C861.854 32.9 864.164 30.47 868.814 27.05C870.104 26.06 871.544 25.22 873.074 24.47C874.634 23.72 876.044 23.36 877.304 23.36C878.294 23.36 879.194 23.72 880.064 24.41C880.934 25.1 881.354 25.94 881.354 26.9C881.354 28.67 880.064 30.02 878.264 30.02C876.764 30.02 876.944 27.89 874.664 27.89C873.884 27.89 872.774 28.4 871.334 29.42C869.924 30.44 868.814 31.37 868.064 32.18C868.514 32.63 869.714 32.84 871.694 32.84C872.144 32.84 872.744 32.84 873.434 32.81C874.154 32.78 874.604 32.75 874.754 32.75C879.704 32.75 882.194 33.77 882.194 35.81C882.194 36.98 881.534 38.3 880.244 39.77C878.954 41.24 877.514 42.5 875.894 43.55C874.274 44.6 872.894 45.23 871.724 45.5C870.974 45.65 870.254 45.74 869.504 45.74C867.974 45.74 866.504 45.35 865.034 44.54C863.594 43.73 862.874 42.65 862.874 41.27ZM882.652 43.52C882.652 42.53 883.132 41.69 884.092 41C885.052 40.31 886.042 39.95 887.092 39.95C888.622 39.95 889.912 40.67 889.912 42.11C889.912 42.95 889.342 43.73 888.202 44.42C887.062 45.11 886.042 45.47 885.112 45.47C883.792 45.47 882.652 44.81 882.652 43.52ZM911.927 36.74C911.927 38.09 910.967 39.68 909.017 41.51C907.547 42.89 905.687 43.91 903.377 44.57C901.067 45.26 898.757 45.59 896.387 45.59C895.817 45.59 895.277 45.56 894.767 45.47C893.777 45.32 892.577 44.63 892.577 43.52C892.577 43.19 892.607 42.68 892.637 42.05C892.667 41.42 892.697 41 892.697 40.79C892.787 39.08 892.817 36.47 892.817 32.99C892.817 32.48 892.757 31.79 892.667 30.92C892.577 30.02 892.517 29.39 892.517 29.03C892.517 27.68 892.907 26.69 893.687 26.09C894.437 25.52 895.727 25.01 897.557 24.56C899.387 24.11 900.857 23.9 902.027 23.9C904.337 23.9 908.297 24.68 908.297 27.62C908.297 28.97 907.367 30.56 905.537 32.36C909.797 32.93 911.927 34.37 911.927 36.74ZM907.607 38.3C907.037 37.85 906.227 37.49 905.177 37.28C904.127 37.04 903.137 36.92 902.237 36.92C900.587 36.92 898.667 37.19 896.537 37.7L896.567 40.76H897.107C898.727 40.76 900.707 40.55 903.077 40.1C905.447 39.65 906.977 39.05 907.607 38.3ZM896.477 30.05L896.537 32.84C897.647 32.57 899.147 32 901.097 31.19C903.047 30.35 904.007 29.66 904.007 29.15C903.917 29.03 903.587 28.94 902.957 28.85C902.357 28.76 901.907 28.7 901.577 28.7C899.747 28.7 898.067 29.15 896.477 30.05ZM928.604 25.43C928.604 25.94 928.394 26.48 927.944 27.08C927.584 27.65 927.014 28.43 926.264 29.45C925.514 30.47 924.974 31.25 924.644 31.76L922.364 35.15C921.014 37.16 920.024 38.69 919.394 39.77C921.974 39.26 924.014 39.02 925.514 39.02C926.954 39.02 927.704 39.35 927.704 40.7C927.704 42.02 926.594 43.43 925.364 43.94C925.064 44.09 923.384 44.39 920.354 44.9C917.324 45.41 915.644 45.65 915.314 45.65C914.144 45.65 912.884 45.05 912.884 43.94C912.884 43.49 913.094 42.86 913.484 42.11C913.874 41.33 914.444 40.43 915.134 39.38L916.304 37.58C916.544 37.22 916.874 36.68 917.264 35.99C917.654 35.27 917.954 34.76 918.164 34.43C918.524 33.83 919.124 32.96 919.934 31.85C920.744 30.71 921.344 29.87 921.674 29.3C921.524 29.33 921.164 29.42 920.624 29.51L919.424 29.72C919.064 29.81 918.524 29.99 917.774 30.26C916.334 30.77 915.224 31.1 914.144 31.1C912.974 31.1 912.374 30.2 912.374 29.03C912.374 27.44 913.784 26.18 915.464 25.43C915.794 25.28 916.844 25.07 918.554 24.74C920.294 24.41 921.494 24.2 922.124 24.11C924.464 23.93 925.664 23.84 925.694 23.84C927.644 23.84 928.604 24.38 928.604 25.43Z" fill="black"/>
<line x1="30" y1="58" x2="930" y2="58" stroke="black" stroke-width="4"/>
<path d="M41.28 124L31.14 81.4H41.34L46.8 109.06C47.04 110.38 47.1 111.46 47.16 112.6H47.34C47.4 111.46 47.52 110.38 47.82 109.06L53.82 81.4H63.96L70.02 109.06C70.32 110.38 70.44 111.46 70.5 112.6H70.68C70.74 111.46 70.8 110.38 71.04 109.06L76.5 81.4H86.7L76.56 124H65.22L59.34 95.08C59.16 94.12 59.1 93.1 59.04 91.96H58.8C58.74 93.1 58.62 94.12 58.44 95.08L52.56 124H41.28ZM90.8934 124V80.5H100.553V99.34C102.413 95.2 105.593 93.16 110.093 93.16C116.573 93.16 119.873 97.3 119.873 105.34V124H110.273V106.3C110.273 102.46 108.773 100.54 105.833 100.54C102.413 100.54 100.553 103.12 100.553 107.86V124H90.8934ZM139.509 124.72C130.689 124.72 123.969 119.26 123.969 108.94C123.969 98.62 130.689 93.28 139.509 93.28C148.389 93.28 155.109 98.62 155.109 108.94C155.109 119.26 148.389 124.72 139.509 124.72ZM139.509 118.06C143.289 118.06 145.509 115.06 145.509 108.94C145.509 102.76 143.289 99.94 139.509 99.94C135.789 99.94 133.569 102.76 133.569 108.94C133.569 115.06 135.789 118.06 139.509 118.06ZM158.283 99.4L157.203 81.4H165.783L164.703 99.4H158.283ZM181.193 124.72C174.593 124.72 169.193 122.26 166.313 117.52L171.893 113.32C173.993 116.56 177.233 118.18 181.373 118.18C184.493 118.18 186.053 117.22 186.053 115.54C186.053 113.74 185.093 113.08 181.793 112.6L177.473 112C170.993 111.04 167.933 107.86 167.933 102.76C167.933 96.94 172.853 93.28 181.133 93.28C187.193 93.28 192.293 95.5 194.753 99.22L189.773 103.72C187.553 101.2 184.553 99.7 180.833 99.7C177.953 99.7 176.633 100.48 176.633 102.16C176.633 103.6 177.533 104.38 180.173 104.74L185.513 105.58C191.933 106.48 194.453 109.66 194.453 114.82C194.453 120.94 189.593 124.72 181.193 124.72ZM212.328 124V94H221.568V99.76C223.668 95.38 226.968 93.22 231.528 93.22C238.008 93.22 241.308 97.36 241.308 105.4V124H231.708V106.72C231.708 102.58 230.268 100.6 227.208 100.6C223.848 100.6 221.988 103.18 221.988 107.8V124H212.328ZM260.95 124.72C252.13 124.72 245.41 119.26 245.41 108.94C245.41 98.62 252.13 93.28 260.95 93.28C269.83 93.28 276.55 98.62 276.55 108.94C276.55 119.26 269.83 124.72 260.95 124.72ZM260.95 118.06C264.73 118.06 266.95 115.06 266.95 108.94C266.95 102.76 264.73 99.94 260.95 99.94C257.23 99.94 255.01 102.76 255.01 108.94C255.01 115.06 257.23 118.06 260.95 118.06ZM276.93 100.42V94H282.15V86.8L291.75 83.08V94H298.89V100.42H291.75V112.12C291.75 115.12 293.25 116.68 296.13 116.68C297.27 116.68 297.99 116.56 298.89 116.38V124C296.67 124.42 295.17 124.6 293.43 124.6C285.45 124.6 282.15 120.94 282.15 114.4V100.42H276.93ZM335.404 124.72C331.204 124.72 327.904 122.68 326.344 119.44L325.744 124H317.164V80.5H326.824V98.08C328.384 95.2 331.564 93.28 335.704 93.28C343.084 93.28 347.764 99.52 347.764 109C347.764 118.54 342.964 124.72 335.404 124.72ZM332.164 118.06C335.824 118.06 337.864 114.82 337.864 109C337.864 103.3 335.884 99.94 332.104 100C328.624 100 326.584 102.94 326.584 107.74V110.26C326.584 115.12 328.624 118.06 332.164 118.06ZM362.178 124.72C355.098 124.72 352.098 120.46 352.098 113.44V94H361.698V111.76C361.698 115.48 363.198 117.4 366.018 117.4C369.138 117.4 371.058 114.94 371.058 111.16V94H380.718V124H371.538V118.54C370.098 122.32 366.558 124.72 362.178 124.72ZM389.63 136.12C388.73 136.12 387.23 135.94 385.67 135.76V128.68C387.47 128.92 388.19 128.98 389.03 128.98C392.21 128.98 393.95 127.84 394.79 125.08L395.21 123.82L383.75 94H394.19L399.47 112.24C399.83 113.5 400.01 114.46 400.13 115.72H400.31C400.37 114.7 400.61 113.74 401.03 112.24L405.89 94H415.55L404.81 125.32C402.17 133.12 397.61 136.12 389.63 136.12ZM418.495 89.68V80.92H428.515V89.68H418.495ZM418.615 124V94H428.275V124H418.615ZM435.111 124V94H444.351V99.76C446.451 95.38 449.751 93.22 454.311 93.22C460.791 93.22 464.091 97.36 464.091 105.4V124H454.491V106.72C454.491 102.58 453.051 100.6 449.991 100.6C446.631 100.6 444.771 103.18 444.771 107.8V124H435.111ZM500.053 95.38C499.033 95.2 498.193 95.08 497.293 95.08C495.673 95.08 494.353 95.44 493.393 96.16C495.613 97.9 496.873 100.36 496.873 103.3C496.873 109.42 491.653 113.5 483.193 113.5C480.853 113.5 478.813 113.2 477.013 112.6C476.413 113.02 476.113 113.5 476.113 114.22C476.113 115.72 477.373 116.68 480.253 116.68H488.653C495.973 116.68 499.693 119.74 499.693 125.44C499.693 132.28 493.693 136.42 482.413 136.42C472.453 136.42 467.653 133.48 467.653 129.22C467.653 126.82 469.393 124.9 472.813 123.82C470.053 122.74 468.733 120.76 468.733 118.18C468.733 114.94 470.713 112.6 474.133 111.34C471.133 109.54 469.453 106.78 469.453 103.3C469.453 97.24 474.733 93.28 483.193 93.28C485.833 93.28 488.113 93.64 490.093 94.36C491.113 91 494.053 88.9 498.793 88.9C499.213 88.9 499.573 88.9 500.053 88.96V95.38ZM483.193 108.58C485.953 108.58 487.813 106.42 487.813 103.3C487.813 100.24 485.953 98.2 483.193 98.2C480.373 98.2 478.513 100.24 478.513 103.3C478.513 106.36 480.373 108.58 483.193 108.58ZM487.633 124.72L478.153 124.66C477.373 124.66 476.653 124.6 475.993 124.54C475.153 125.32 474.793 126.28 474.793 127.36C474.793 130 477.853 131.14 482.833 131.14C489.073 131.14 491.653 129.76 491.653 127.6C491.653 125.68 490.333 124.72 487.633 124.72ZM525.035 124.72C518.855 124.72 514.715 121.18 514.715 115.84C514.715 113.02 515.735 110.8 517.775 109.36C519.755 107.98 522.635 107.02 527.195 106.42L534.455 105.4V104.38C534.455 100.96 533.015 99.46 530.015 99.46C527.075 99.46 525.395 101.02 525.215 103.9H515.675C516.155 97.24 521.555 93.28 530.075 93.28C539.735 93.28 544.055 97.06 544.055 105.7V115.66C544.055 119.2 544.355 122.14 544.895 124H535.535C535.235 122.56 535.115 120.94 535.055 119.26C533.555 122.62 529.715 124.72 525.035 124.72ZM528.635 118.6C532.295 118.6 534.755 116.14 534.755 112.54V110.14L529.595 110.98C526.055 111.64 524.435 112.9 524.435 115.12C524.435 117.22 526.115 118.6 528.635 118.6ZM550.369 124V94H559.609V99.76C561.709 95.38 565.009 93.22 569.569 93.22C576.049 93.22 579.349 97.36 579.349 105.4V124H569.749V106.72C569.749 102.58 568.309 100.6 565.249 100.6C561.889 100.6 560.029 103.18 560.029 107.8V124H550.369ZM595.632 124.72C588.432 124.72 583.632 118.48 583.632 109.12C583.632 99.58 588.672 93.28 596.172 93.28C600.132 93.28 603.132 94.9 604.632 98.02V80.5H614.232V124H605.112V118.84C603.612 122.44 600.012 124.72 595.632 124.72ZM599.412 118.06C602.712 118.06 604.752 115.12 604.752 110.44V107.86C604.752 102.76 602.712 99.94 599.292 99.94C595.632 99.94 593.532 103.18 593.532 108.94C593.532 114.58 595.752 118.06 599.412 118.06ZM639.052 124L631.012 94H640.192L643.972 112.36C644.092 113.2 644.272 114.22 644.392 115.24H644.512C644.632 114.22 644.752 113.2 644.992 112.36L649.372 94H657.532L661.912 112.36C662.092 113.2 662.272 114.22 662.392 115.24H662.512C662.632 114.22 662.752 113.2 662.932 112.36L666.652 94H675.832L667.852 124H658.492L653.932 106.3C653.692 105.52 653.572 104.5 653.512 103.78H653.392C653.332 104.5 653.152 105.52 652.972 106.3L648.412 124H639.052ZM679.932 124V80.5H689.592V99.34C691.452 95.2 694.632 93.16 699.132 93.16C705.612 93.16 708.912 97.3 708.912 105.34V124H699.312V106.3C699.312 102.46 697.812 100.54 694.872 100.54C691.452 100.54 689.592 103.12 689.592 107.86V124H679.932ZM716.04 136.12C715.14 136.12 713.64 135.94 712.08 135.76V128.68C713.88 128.92 714.6 128.98 715.44 128.98C718.62 128.98 720.36 127.84 721.2 125.08L721.62 123.82L710.16 94H720.6L725.88 112.24C726.24 113.5 726.42 114.46 726.54 115.72H726.72C726.78 114.7 727.02 113.74 727.44 112.24L732.3 94H741.96L731.22 125.32C728.58 133.12 724.02 136.12 716.04 136.12Z" fill="black"/>
<g style="mix-blend-mode:color">
<rect width="960" height="960" fill="url(#paint0_linear_1_7)"/>
</g>
</g>
<defs>
<linearGradient id="paint0_linear_1_7" x1="480" y1="0" x2="480" y2="960" gradientUnits="userSpaceOnUse">
<stop stop-color="#CBC4F7"/>
<stop offset="1" stop-color="#EEB3FD"/>
</linearGradient>
<clipPath id="clip0_1_7">
<rect width="960" height="960" rx="30" fill="white"/>
</clipPath>
</defs>
</svg>
