<svg width="1080" height="1080" viewBox="0 0 1080 1080" fill="none" xmlns="http://www.w3.org/2000/svg">
<path d="M384.5 944.35C339.77 944.35 311 914.11 311 866.23C311 818.14 339.77 788.11 384.5 788.11C429.23 788.11 458 818.14 458 866.23C458 914.32 429.23 944.35 384.5 944.35ZM384.5 916.63C407.81 916.63 421.46 897.73 421.46 866.23C421.46 834.73 407.81 815.83 384.5 815.83C361.19 815.83 347.33 834.73 347.33 866.23C347.33 897.52 361.19 916.63 384.5 916.63Z" fill="black"/>
<path d="M509.621 943.3C484.841 943.3 474.341 928.39 474.341 903.82V835.78H507.941V897.94C507.941 910.96 513.191 917.68 523.061 917.68C533.981 917.68 540.701 909.07 540.701 895.84V835.78H574.511V940.78H542.381V921.67C537.341 934.9 524.951 943.3 509.621 943.3Z" fill="black"/>
<path d="M627.164 862.87C632.624 843.97 644.174 833.26 662.234 833.26H664.334V865.39C662.234 865.18 660.554 865.18 658.034 865.18C649.004 865.18 642.284 867.49 637.664 871.48C630.944 877.78 629.264 887.23 629.264 897.94V940.78H595.454V835.78H627.164V862.87Z" fill="black"/>
<path d="M721.026 943.3C697.926 943.3 679.027 934.69 668.947 918.1L688.477 903.4C695.827 914.74 707.166 920.41 721.656 920.41C732.576 920.41 738.036 917.05 738.036 911.17C738.036 904.87 734.676 902.56 723.126 900.88L708.007 898.78C685.327 895.42 674.616 884.29 674.616 866.44C674.616 846.07 691.836 833.26 720.816 833.26C742.027 833.26 759.877 841.03 768.487 854.05L751.056 869.8C743.286 860.98 732.787 855.73 719.767 855.73C709.687 855.73 705.066 858.46 705.066 864.34C705.066 869.38 708.217 872.11 717.457 873.37L736.147 876.31C758.617 879.46 767.436 890.59 767.436 908.65C767.436 930.07 750.426 943.3 721.026 943.3Z" fill="black"/>
<path d="M207.33 674.08C226.65 677.02 237.99 690.04 237.99 709.78C237.99 733.3 221.4 751.78 187.38 751.78H117.45V602.68H184.65C218.67 602.68 234.21 619.27 234.21 641.11C234.21 656.65 224.76 669.46 207.33 674.08ZM175.2 627.67H152.94V664H175.2C191.16 664 197.25 655.81 197.25 645.73C197.25 635.23 190.53 627.67 175.2 627.67ZM177.51 726.79C193.68 726.79 201.03 718.18 201.03 706.84C201.03 695.29 193.26 687.52 178.35 687.52H152.94V726.79H177.51Z" fill="black"/>
<path d="M288.419 754.3C263.639 754.3 253.139 739.39 253.139 714.82V646.78H286.739V708.94C286.739 721.96 291.989 728.68 301.859 728.68C312.779 728.68 319.499 720.07 319.499 706.84V646.78H353.309V751.78H321.179V732.67C316.139 745.9 303.749 754.3 288.419 754.3Z" fill="black"/>
<path d="M418.203 754.3C395.103 754.3 376.203 745.69 366.123 729.1L385.653 714.4C393.003 725.74 404.343 731.41 418.833 731.41C429.753 731.41 435.213 728.05 435.213 722.17C435.213 715.87 431.853 713.56 420.303 711.88L405.183 709.78C382.503 706.42 371.793 695.29 371.793 677.44C371.793 657.07 389.013 644.26 417.993 644.26C439.203 644.26 457.053 652.03 465.663 665.05L448.233 680.8C440.463 671.98 429.963 666.73 416.943 666.73C406.863 666.73 402.243 669.46 402.243 675.34C402.243 680.38 405.393 683.11 414.633 684.37L433.323 687.31C455.793 690.46 464.613 701.59 464.613 719.65C464.613 741.07 447.603 754.3 418.203 754.3Z" fill="black"/>
<path d="M481.168 631.66V601H516.238V631.66H481.168ZM481.588 751.78V646.78H515.398V751.78H481.588Z" fill="black"/>
<path d="M535.422 751.78V646.78H567.762V666.94C575.112 651.61 586.662 644.05 602.622 644.05C625.302 644.05 636.852 658.54 636.852 686.68V751.78H603.252V691.3C603.252 676.81 598.212 669.88 587.502 669.88C575.742 669.88 569.232 678.91 569.232 695.08V751.78H535.422Z" fill="black"/>
<path d="M758.1 696.76V706.84H685.23C685.44 721.12 695.31 730.15 709.38 730.15C719.67 730.15 727.441 725.11 732.271 715.45L757.05 726.79C748.65 744.01 730.801 754.3 708.961 754.3C674.311 754.3 653.31 734.35 653.31 700.33C653.31 665.89 673.891 644.26 706.651 644.26C739.621 644.26 758.1 663.37 758.1 696.76ZM725.55 687.94V687.1C725.55 672.19 718.621 664.21 706.021 664.21C693.001 664.21 685.65 673.03 685.23 687.94H725.55Z" fill="black"/>
<path d="M818.445 754.3C795.345 754.3 776.445 745.69 766.365 729.1L785.895 714.4C793.245 725.74 804.585 731.41 819.075 731.41C829.995 731.41 835.455 728.05 835.455 722.17C835.455 715.87 832.095 713.56 820.545 711.88L805.425 709.78C782.745 706.42 772.035 695.29 772.035 677.44C772.035 657.07 789.255 644.26 818.235 644.26C839.445 644.26 857.295 652.03 865.905 665.05L848.475 680.8C840.705 671.98 830.205 666.73 817.185 666.73C807.105 666.73 802.485 669.46 802.485 675.34C802.485 680.38 805.635 683.11 814.875 684.37L833.565 687.31C856.035 690.46 864.855 701.59 864.855 719.65C864.855 741.07 847.845 754.3 818.445 754.3Z" fill="black"/>
<path d="M924.191 754.3C901.091 754.3 882.191 745.69 872.111 729.1L891.641 714.4C898.991 725.74 910.331 731.41 924.821 731.41C935.741 731.41 941.201 728.05 941.201 722.17C941.201 715.87 937.841 713.56 926.291 711.88L911.171 709.78C888.491 706.42 877.781 695.29 877.781 677.44C877.781 657.07 895.001 644.26 923.981 644.26C945.191 644.26 963.041 652.03 971.651 665.05L954.221 680.8C946.451 671.98 935.951 666.73 922.931 666.73C912.851 666.73 908.231 669.46 908.231 675.34C908.231 680.38 911.381 683.11 920.621 684.37L939.311 687.31C961.781 690.46 970.601 701.59 970.601 719.65C970.601 741.07 953.591 754.3 924.191 754.3Z" fill="black"/>
<path d="M659.501 195.137C667.311 187.326 679.975 187.326 687.785 195.137C695.595 202.947 695.596 215.61 687.785 223.421C679.975 231.231 667.311 231.231 659.501 223.421C651.691 215.61 651.691 202.947 659.501 195.137Z" fill="black"/>
<path fill-rule="evenodd" clip-rule="evenodd" d="M574.498 133.062C580.856 126.703 589.41 123.043 598.378 122.821L599.246 122.81H667.43C676.712 122.81 685.616 126.499 692.179 133.062L749.86 190.743C756.424 197.307 760.112 206.21 760.112 215.492V283.675C760.111 292.667 756.651 301.303 750.467 307.802L749.86 308.424L564.749 493.536C551.294 506.991 529.61 507.2 515.898 494.166L330.14 308.424C323.576 301.86 319.888 292.957 319.888 283.675V215.492L319.899 214.623C320.121 205.656 323.781 197.102 330.14 190.743L387.821 133.062C394.18 126.703 402.734 123.043 411.701 122.821L412.57 122.81H480.753C489.745 122.81 498.381 126.271 504.88 132.455L505.502 133.062L540 167.559L574.498 133.062ZM678.037 147.204L735.718 204.885C738.531 207.698 740.111 211.514 740.111 215.492V283.675C740.111 287.653 738.531 291.469 735.718 294.282L550.606 479.393C544.749 485.251 535.251 485.251 529.393 479.393L403.528 353.528C397.67 347.671 397.67 338.173 403.528 332.315L588.64 147.204C591.453 144.391 595.268 142.811 599.246 142.811H667.43C671.408 142.811 675.224 144.391 678.037 147.204ZM339.889 215.492C339.889 211.514 341.469 207.699 344.282 204.885L401.963 147.204C404.776 144.391 408.592 142.811 412.57 142.811H480.753C484.732 142.811 488.547 144.391 491.36 147.204L525.858 181.701L378.779 328.78L344.282 294.282C341.469 291.469 339.889 287.654 339.889 283.675V215.492Z" fill="black"/>
</svg>
