<svg xmlns="http://www.w3.org/2000/svg" viewBox="0 0 512 512">
    <style>
        :root {
            --logo-fill: #ffffff;
            --logo-stroke: transparent;
        }

        .logo-fill {
            fill: var(--logo-fill);
        }

        .logo-stroke {
            fill: var(--logo-stroke);
        }

        @media (prefers-color-scheme: light) {
            --logo-fill: transparent;
            --logo-stroke: #000000;
        }
    </style>
    <g clip-path="url(#a)">
        <path class="logo-fill" fill-rule="evenodd" d="M310.044 86.226a16.668 16.668 0 0 1 11.785-4.88h75.759c4.421 0 8.661 1.756 11.786 4.881l64.09 64.09a16.666 16.666 0 0 1 4.882 11.785v75.76c0 4.42-1.756 8.659-4.882 11.785L267.785 455.326c-6.509 6.509-17.062 6.509-23.57 0l-139.85-139.85c-6.509-6.509-6.509-17.061 0-23.57l205.679-205.68Zm78.735 53.259c-8.678 8.678-8.678 22.749 0 31.427s22.748 8.678 31.427 0c8.678-8.678 8.678-22.749 0-31.427-8.679-8.678-22.749-8.678-31.427 0Z" clip-rule="evenodd"/>
        <path class="logo-fill" d="M102.626 86.226a16.668 16.668 0 0 1 11.785-4.88h75.759c4.421 0 8.66 1.755 11.786 4.88l38.33 38.331-163.42 163.42-38.33-38.33a16.668 16.668 0 0 1-4.882-11.785v-75.76c0-4.42 1.756-8.659 4.881-11.785l64.091-64.09Z"/>
        <path class="logo-stroke" d="M388.779 139.485c8.678-8.678 22.748-8.678 31.427 0 8.678 8.678 8.678 22.749 0 31.427-8.679 8.678-22.749 8.678-31.427 0s-8.678-22.749 0-31.427Z"/>
        <path class="logo-stroke" fill-rule="evenodd" d="M294.331 70.513a38.888 38.888 0 0 1 26.533-11.379l.965-.012h75.759a38.897 38.897 0 0 1 27.5 11.392l64.09 64.09a38.89 38.89 0 0 1 11.391 27.498v75.76a38.897 38.897 0 0 1-10.717 26.807l-.674.691-205.68 205.68c-14.95 14.95-39.043 15.182-54.278.7L22.822 265.36a38.89 38.89 0 0 1-11.39-27.498v-75.76l.011-.965a38.89 38.89 0 0 1 11.379-26.533l64.09-64.091a38.89 38.89 0 0 1 26.534-11.379l.965-.012h75.759a38.891 38.891 0 0 1 26.808 10.716l.691.675L256 108.844l38.331-38.331Zm115.043 15.714 64.09 64.09a16.666 16.666 0 0 1 4.882 11.785v75.76c0 4.42-1.756 8.659-4.882 11.785L267.785 455.326c-6.509 6.509-17.062 6.509-23.57 0l-139.85-139.85c-6.51-6.509-6.51-17.061 0-23.57l205.679-205.68a16.668 16.668 0 0 1 11.785-4.88h75.759c4.421 0 8.661 1.756 11.786 4.881Zm-375.72 75.875c0-4.42 1.756-8.659 4.881-11.785l64.091-64.09a16.668 16.668 0 0 1 11.785-4.882h75.759c4.421 0 8.66 1.756 11.786 4.882l38.33 38.33-163.42 163.42-38.33-38.33a16.668 16.668 0 0 1-4.882-11.785v-75.76Z" clip-rule="evenodd"/>
    </g>
    <defs>
        <clipPath id="a">
            <path fill="#fff" d="M0 0h512v512H0z"/>
        </clipPath>
    </defs>
</svg>