<svg xmlns="http://www.w3.org/2000/svg" width="300" height="75" fill="none"><g fill="#313D3E" clip-path="url(#a)"><path d="M163.278 14.348a2.223 2.223 0 1 1 3.143 3.144 2.223 2.223 0 0 1-3.143-3.144Z"/><path fill-rule="evenodd" d="M153.833 7.451a3.89 3.89 0 0 1 2.653-1.138h7.673a3.89 3.89 0 0 1 2.75 1.138l6.409 6.41a3.89 3.89 0 0 1 1.139 2.75v7.575a3.89 3.89 0 0 1-1.072 2.68l-.067.07-20.568 20.568a3.89 3.89 0 0 1-5.428.07l-20.64-20.638a3.89 3.89 0 0 1-1.139-2.75V16.61l.001-.096a3.893 3.893 0 0 1 1.138-2.654l6.409-6.409a3.89 3.89 0 0 1 2.654-1.138h7.672a3.89 3.89 0 0 1 2.681 1.07l.069.068L150 11.284l3.833-3.833Zm11.504 1.572 6.409 6.409c.313.312.489.736.489 1.178v7.576c0 .442-.176.866-.489 1.179l-20.567 20.568c-.651.65-1.707.65-2.357 0l-13.985-13.985a1.666 1.666 0 0 1 0-2.357l20.567-20.568a1.669 1.669 0 0 1 1.179-.488h7.576c.442 0 .866.175 1.178.488Zm-37.572 7.587c0-.442.176-.866.489-1.178l6.409-6.41a1.665 1.665 0 0 1 1.178-.487h7.576c.442 0 .866.175 1.179.488l3.833 3.833-16.342 16.342-3.833-3.833a1.666 1.666 0 0 1-.489-1.179V16.61Z" clip-rule="evenodd"/></g><defs><clipPath id="a"><path fill="#fff" d="M0 0h300v75H0z"/></clipPath></defs></svg>